G04 #@! TF.GenerationSoftware,KiCad,Pcbnew,(5.0.0-3-g5ebb6b6)*
G04 #@! TF.CreationDate,2018-09-16T20:00:54+02:00*
G04 #@! TF.ProjectId,Nano_Lambda,4E616E6F5F4C616D6264612E6B696361,rev?*
G04 #@! TF.SameCoordinates,Original*
G04 #@! TF.FileFunction,Soldermask,Top*
G04 #@! TF.FilePolarity,Negative*
%FSLAX46Y46*%
G04 Gerber Fmt 4.6, Leading zero omitted, Abs format (unit mm)*
G04 Created by KiCad (PCBNEW (5.0.0-3-g5ebb6b6)) date Sunday, 16 September 2018 at 20:00:54*
%MOMM*%
%LPD*%
G01*
G04 APERTURE LIST*
%ADD10C,2.127200*%
%ADD11R,2.127200X2.127200*%
%ADD12C,2.250000*%
%ADD13R,1.150000X1.200000*%
%ADD14R,1.200000X1.150000*%
%ADD15C,1.150000*%
%ADD16C,0.100000*%
%ADD17R,1.000000X1.200000*%
%ADD18R,1.300000X1.200000*%
%ADD19R,1.300000X0.900000*%
%ADD20R,0.900000X1.300000*%
%ADD21C,0.900000*%
%ADD22R,3.400000X3.400000*%
%ADD23R,1.900000X3.400000*%
%ADD24R,1.300000X2.900000*%
%ADD25R,1.200000X3.100000*%
%ADD26R,1.400000X1.650000*%
%ADD27C,1.000000*%
G04 APERTURE END LIST*
D10*
G04 #@! TO.C,XA1*
X163690000Y-97500000D03*
X163690000Y-94960000D03*
X163690000Y-92420000D03*
X163690000Y-89880000D03*
X163690000Y-87340000D03*
X163690000Y-84800000D03*
X163690000Y-82260000D03*
X163690000Y-79720000D03*
X163690000Y-77180000D03*
X163690000Y-74640000D03*
X163690000Y-72100000D03*
X163690000Y-69560000D03*
X163690000Y-67020000D03*
X163690000Y-64480000D03*
X163690000Y-61940000D03*
X178930000Y-61940000D03*
X178930000Y-64480000D03*
X178930000Y-67020000D03*
X178930000Y-69560000D03*
X178930000Y-72100000D03*
X178930000Y-74640000D03*
X178930000Y-77180000D03*
X178930000Y-79720000D03*
X178930000Y-82260000D03*
X178930000Y-84800000D03*
X178930000Y-87340000D03*
X178930000Y-89880000D03*
X178930000Y-92420000D03*
X178930000Y-94960000D03*
D11*
X178930000Y-97500000D03*
D12*
X178930000Y-100040000D03*
X163690000Y-100040000D03*
X178930000Y-59400000D03*
X163690000Y-59400000D03*
G04 #@! TD*
D13*
G04 #@! TO.C,C1*
X165560000Y-64000000D03*
X165560000Y-62500000D03*
G04 #@! TD*
D14*
G04 #@! TO.C,C2*
X171650000Y-81890000D03*
X170150000Y-81890000D03*
G04 #@! TD*
D13*
G04 #@! TO.C,C3*
X176890000Y-64770000D03*
X176890000Y-66270000D03*
G04 #@! TD*
G04 #@! TO.C,C4*
X175600000Y-75230000D03*
X175600000Y-76730000D03*
G04 #@! TD*
G04 #@! TO.C,C6*
X174190000Y-84860000D03*
X174190000Y-83360000D03*
G04 #@! TD*
D15*
G04 #@! TO.C,C8*
X167359670Y-62780330D03*
D16*
G36*
X167377348Y-61949480D02*
X168190520Y-62762652D01*
X167341992Y-63611180D01*
X166528820Y-62798008D01*
X167377348Y-61949480D01*
X167377348Y-61949480D01*
G37*
D15*
X168420330Y-61719670D03*
D16*
G36*
X168438008Y-60888820D02*
X169251180Y-61701992D01*
X168402652Y-62550520D01*
X167589480Y-61737348D01*
X168438008Y-60888820D01*
X168438008Y-60888820D01*
G37*
G04 #@! TD*
D13*
G04 #@! TO.C,C10*
X177100000Y-76720000D03*
X177100000Y-75220000D03*
G04 #@! TD*
D17*
G04 #@! TO.C,D1*
X166280000Y-76210000D03*
X165630000Y-77810000D03*
X166930000Y-77810000D03*
G04 #@! TD*
D18*
G04 #@! TO.C,IC2*
X167586000Y-81796000D03*
X165586000Y-82746000D03*
X165586000Y-80846000D03*
G04 #@! TD*
D19*
G04 #@! TO.C,R3*
X166400000Y-73420000D03*
X166400000Y-74920000D03*
G04 #@! TD*
D20*
G04 #@! TO.C,R4*
X171490000Y-76390000D03*
X169990000Y-76390000D03*
G04 #@! TD*
D19*
G04 #@! TO.C,R5*
X176800000Y-80520000D03*
X176800000Y-79020000D03*
G04 #@! TD*
D20*
G04 #@! TO.C,R6*
X174410000Y-81860000D03*
X172910000Y-81860000D03*
G04 #@! TD*
D21*
G04 #@! TO.C,R10*
X169040330Y-63299670D03*
D16*
G36*
X168898909Y-62521853D02*
X169818147Y-63441091D01*
X169181751Y-64077487D01*
X168262513Y-63158249D01*
X168898909Y-62521853D01*
X168898909Y-62521853D01*
G37*
D21*
X167979670Y-64360330D03*
D16*
G36*
X167838249Y-63582513D02*
X168757487Y-64501751D01*
X168121091Y-65138147D01*
X167201853Y-64218909D01*
X167838249Y-63582513D01*
X167838249Y-63582513D01*
G37*
G04 #@! TD*
D21*
G04 #@! TO.C,R11*
X175000000Y-64840000D03*
D16*
G36*
X174222183Y-64981421D02*
X175141421Y-64062183D01*
X175777817Y-64698579D01*
X174858579Y-65617817D01*
X174222183Y-64981421D01*
X174222183Y-64981421D01*
G37*
D21*
X173939340Y-63779340D03*
D16*
G36*
X173161523Y-63920761D02*
X174080761Y-63001523D01*
X174717157Y-63637919D01*
X173797919Y-64557157D01*
X173161523Y-63920761D01*
X173161523Y-63920761D01*
G37*
G04 #@! TD*
D19*
G04 #@! TO.C,R12*
X171030000Y-83440000D03*
X171030000Y-84940000D03*
G04 #@! TD*
G04 #@! TO.C,R13*
X172630000Y-84950000D03*
X172630000Y-83450000D03*
G04 #@! TD*
G04 #@! TO.C,R15*
X174050000Y-75380000D03*
X174050000Y-76880000D03*
G04 #@! TD*
D20*
G04 #@! TO.C,R18*
X166940000Y-79240000D03*
X165440000Y-79240000D03*
G04 #@! TD*
G04 #@! TO.C,R22*
X177160000Y-61060000D03*
X175660000Y-61060000D03*
G04 #@! TD*
G04 #@! TO.C,R23*
X175526000Y-82296000D03*
X177026000Y-82296000D03*
G04 #@! TD*
D22*
G04 #@! TO.C,J3*
X171450000Y-100965000D03*
G04 #@! TD*
G04 #@! TO.C,J1*
X167386000Y-58420000D03*
G04 #@! TD*
G04 #@! TO.C,J5*
X175514000Y-100965000D03*
G04 #@! TD*
G04 #@! TO.C,J8*
X167132000Y-99720400D03*
G04 #@! TD*
D23*
G04 #@! TO.C,J9*
X176530000Y-58420000D03*
G04 #@! TD*
G04 #@! TO.C,J11*
X173736000Y-58420000D03*
G04 #@! TD*
G04 #@! TO.C,J14*
X170815000Y-58420000D03*
G04 #@! TD*
D24*
G04 #@! TO.C,RV1*
X168550000Y-92405200D03*
X171450000Y-92405200D03*
G04 #@! TD*
D25*
G04 #@! TO.C,L1*
X171500000Y-95820000D03*
X169300000Y-95820000D03*
G04 #@! TD*
D26*
G04 #@! TO.C,C15*
X175110000Y-95060000D03*
X173110000Y-95060000D03*
G04 #@! TD*
G04 #@! TO.C,C16*
X173110000Y-91060000D03*
X175110000Y-91060000D03*
G04 #@! TD*
G04 #@! TO.C,C17*
X175110000Y-89060000D03*
X173110000Y-89060000D03*
G04 #@! TD*
G04 #@! TO.C,C18*
X173110000Y-87060000D03*
X175110000Y-87060000D03*
G04 #@! TD*
G04 #@! TO.C,C19*
X175110000Y-97060000D03*
X173110000Y-97060000D03*
G04 #@! TD*
G04 #@! TO.C,C20*
X173110000Y-93060000D03*
X175110000Y-93060000D03*
G04 #@! TD*
D27*
G04 #@! TO.C,U1*
X166234897Y-68454695D03*
D16*
G36*
X167154136Y-68666827D02*
X166447029Y-69373934D01*
X165315658Y-68242563D01*
X166022765Y-67535456D01*
X167154136Y-68666827D01*
X167154136Y-68666827D01*
G37*
D27*
X166800583Y-67889010D03*
D16*
G36*
X167719822Y-68101142D02*
X167012715Y-68808249D01*
X165881344Y-67676878D01*
X166588451Y-66969771D01*
X167719822Y-68101142D01*
X167719822Y-68101142D01*
G37*
D27*
X167366268Y-67323324D03*
D16*
G36*
X168285507Y-67535456D02*
X167578400Y-68242563D01*
X166447029Y-67111192D01*
X167154136Y-66404085D01*
X168285507Y-67535456D01*
X168285507Y-67535456D01*
G37*
D27*
X167931953Y-66757639D03*
D16*
G36*
X168851192Y-66969771D02*
X168144085Y-67676878D01*
X167012714Y-66545507D01*
X167719821Y-65838400D01*
X168851192Y-66969771D01*
X168851192Y-66969771D01*
G37*
D27*
X168497639Y-66191953D03*
D16*
G36*
X169416878Y-66404085D02*
X168709771Y-67111192D01*
X167578400Y-65979821D01*
X168285507Y-65272714D01*
X169416878Y-66404085D01*
X169416878Y-66404085D01*
G37*
D27*
X169063324Y-65626268D03*
D16*
G36*
X169982563Y-65838400D02*
X169275456Y-66545507D01*
X168144085Y-65414136D01*
X168851192Y-64707029D01*
X169982563Y-65838400D01*
X169982563Y-65838400D01*
G37*
D27*
X169629010Y-65060583D03*
D16*
G36*
X170548249Y-65272715D02*
X169841142Y-65979822D01*
X168709771Y-64848451D01*
X169416878Y-64141344D01*
X170548249Y-65272715D01*
X170548249Y-65272715D01*
G37*
D27*
X170194695Y-64494897D03*
D16*
G36*
X171113934Y-64707029D02*
X170406827Y-65414136D01*
X169275456Y-64282765D01*
X169982563Y-63575658D01*
X171113934Y-64707029D01*
X171113934Y-64707029D01*
G37*
D27*
X172245305Y-64494897D03*
D16*
G36*
X172033173Y-65414136D02*
X171326066Y-64707029D01*
X172457437Y-63575658D01*
X173164544Y-64282765D01*
X172033173Y-65414136D01*
X172033173Y-65414136D01*
G37*
D27*
X172810990Y-65060583D03*
D16*
G36*
X172598858Y-65979822D02*
X171891751Y-65272715D01*
X173023122Y-64141344D01*
X173730229Y-64848451D01*
X172598858Y-65979822D01*
X172598858Y-65979822D01*
G37*
D27*
X173376676Y-65626268D03*
D16*
G36*
X173164544Y-66545507D02*
X172457437Y-65838400D01*
X173588808Y-64707029D01*
X174295915Y-65414136D01*
X173164544Y-66545507D01*
X173164544Y-66545507D01*
G37*
D27*
X173942361Y-66191953D03*
D16*
G36*
X173730229Y-67111192D02*
X173023122Y-66404085D01*
X174154493Y-65272714D01*
X174861600Y-65979821D01*
X173730229Y-67111192D01*
X173730229Y-67111192D01*
G37*
D27*
X174508047Y-66757639D03*
D16*
G36*
X174295915Y-67676878D02*
X173588808Y-66969771D01*
X174720179Y-65838400D01*
X175427286Y-66545507D01*
X174295915Y-67676878D01*
X174295915Y-67676878D01*
G37*
D27*
X175073732Y-67323324D03*
D16*
G36*
X174861600Y-68242563D02*
X174154493Y-67535456D01*
X175285864Y-66404085D01*
X175992971Y-67111192D01*
X174861600Y-68242563D01*
X174861600Y-68242563D01*
G37*
D27*
X175639417Y-67889010D03*
D16*
G36*
X175427285Y-68808249D02*
X174720178Y-68101142D01*
X175851549Y-66969771D01*
X176558656Y-67676878D01*
X175427285Y-68808249D01*
X175427285Y-68808249D01*
G37*
D27*
X176205103Y-68454695D03*
D16*
G36*
X175992971Y-69373934D02*
X175285864Y-68666827D01*
X176417235Y-67535456D01*
X177124342Y-68242563D01*
X175992971Y-69373934D01*
X175992971Y-69373934D01*
G37*
D27*
X176205103Y-70505305D03*
D16*
G36*
X177124342Y-70717437D02*
X176417235Y-71424544D01*
X175285864Y-70293173D01*
X175992971Y-69586066D01*
X177124342Y-70717437D01*
X177124342Y-70717437D01*
G37*
D27*
X175639417Y-71070990D03*
D16*
G36*
X176558656Y-71283122D02*
X175851549Y-71990229D01*
X174720178Y-70858858D01*
X175427285Y-70151751D01*
X176558656Y-71283122D01*
X176558656Y-71283122D01*
G37*
D27*
X175073732Y-71636676D03*
D16*
G36*
X175992971Y-71848808D02*
X175285864Y-72555915D01*
X174154493Y-71424544D01*
X174861600Y-70717437D01*
X175992971Y-71848808D01*
X175992971Y-71848808D01*
G37*
D27*
X174508047Y-72202361D03*
D16*
G36*
X175427286Y-72414493D02*
X174720179Y-73121600D01*
X173588808Y-71990229D01*
X174295915Y-71283122D01*
X175427286Y-72414493D01*
X175427286Y-72414493D01*
G37*
D27*
X173942361Y-72768047D03*
D16*
G36*
X174861600Y-72980179D02*
X174154493Y-73687286D01*
X173023122Y-72555915D01*
X173730229Y-71848808D01*
X174861600Y-72980179D01*
X174861600Y-72980179D01*
G37*
D27*
X173376676Y-73333732D03*
D16*
G36*
X174295915Y-73545864D02*
X173588808Y-74252971D01*
X172457437Y-73121600D01*
X173164544Y-72414493D01*
X174295915Y-73545864D01*
X174295915Y-73545864D01*
G37*
D27*
X172810990Y-73899417D03*
D16*
G36*
X173730229Y-74111549D02*
X173023122Y-74818656D01*
X171891751Y-73687285D01*
X172598858Y-72980178D01*
X173730229Y-74111549D01*
X173730229Y-74111549D01*
G37*
D27*
X172245305Y-74465103D03*
D16*
G36*
X173164544Y-74677235D02*
X172457437Y-75384342D01*
X171326066Y-74252971D01*
X172033173Y-73545864D01*
X173164544Y-74677235D01*
X173164544Y-74677235D01*
G37*
D27*
X170194695Y-74465103D03*
D16*
G36*
X169982563Y-75384342D02*
X169275456Y-74677235D01*
X170406827Y-73545864D01*
X171113934Y-74252971D01*
X169982563Y-75384342D01*
X169982563Y-75384342D01*
G37*
D27*
X169629010Y-73899417D03*
D16*
G36*
X169416878Y-74818656D02*
X168709771Y-74111549D01*
X169841142Y-72980178D01*
X170548249Y-73687285D01*
X169416878Y-74818656D01*
X169416878Y-74818656D01*
G37*
D27*
X169063324Y-73333732D03*
D16*
G36*
X168851192Y-74252971D02*
X168144085Y-73545864D01*
X169275456Y-72414493D01*
X169982563Y-73121600D01*
X168851192Y-74252971D01*
X168851192Y-74252971D01*
G37*
D27*
X168497639Y-72768047D03*
D16*
G36*
X168285507Y-73687286D02*
X167578400Y-72980179D01*
X168709771Y-71848808D01*
X169416878Y-72555915D01*
X168285507Y-73687286D01*
X168285507Y-73687286D01*
G37*
D27*
X167931953Y-72202361D03*
D16*
G36*
X167719821Y-73121600D02*
X167012714Y-72414493D01*
X168144085Y-71283122D01*
X168851192Y-71990229D01*
X167719821Y-73121600D01*
X167719821Y-73121600D01*
G37*
D27*
X167366268Y-71636676D03*
D16*
G36*
X167154136Y-72555915D02*
X166447029Y-71848808D01*
X167578400Y-70717437D01*
X168285507Y-71424544D01*
X167154136Y-72555915D01*
X167154136Y-72555915D01*
G37*
D27*
X166800583Y-71070990D03*
D16*
G36*
X166588451Y-71990229D02*
X165881344Y-71283122D01*
X167012715Y-70151751D01*
X167719822Y-70858858D01*
X166588451Y-71990229D01*
X166588451Y-71990229D01*
G37*
D27*
X166234897Y-70505305D03*
D16*
G36*
X166022765Y-71424544D02*
X165315658Y-70717437D01*
X166447029Y-69586066D01*
X167154136Y-70293173D01*
X166022765Y-71424544D01*
X166022765Y-71424544D01*
G37*
G04 #@! TD*
M02*
