G04 #@! TF.GenerationSoftware,KiCad,Pcbnew,(5.0.0-3-g5ebb6b6)*
G04 #@! TF.CreationDate,2018-09-03T19:30:42+02:00*
G04 #@! TF.ProjectId,Nano_Lambda,4E616E6F5F4C616D6264612E6B696361,rev?*
G04 #@! TF.SameCoordinates,Original*
G04 #@! TF.FileFunction,Legend,Top*
G04 #@! TF.FilePolarity,Positive*
%FSLAX46Y46*%
G04 Gerber Fmt 4.6, Leading zero omitted, Abs format (unit mm)*
G04 Created by KiCad (PCBNEW (5.0.0-3-g5ebb6b6)) date Monday, 03 September 2018 at 19:30:42*
%MOMM*%
%LPD*%
G01*
G04 APERTURE LIST*
%ADD10C,0.150000*%
%ADD11C,0.120000*%
%ADD12C,0.125000*%
%ADD13C,2.127200*%
%ADD14R,2.127200X2.127200*%
%ADD15C,2.250000*%
%ADD16R,1.150000X1.200000*%
%ADD17R,1.200000X1.150000*%
%ADD18R,1.200000X1.000000*%
%ADD19R,0.900000X1.300000*%
%ADD20R,1.300000X0.900000*%
%ADD21R,1.600000X0.680000*%
%ADD22R,0.680000X1.600000*%
%ADD23R,3.400000X3.400000*%
%ADD24R,1.900000X3.400000*%
%ADD25R,1.300000X2.900000*%
%ADD26R,1.200000X3.100000*%
%ADD27R,1.400000X1.650000*%
G04 APERTURE END LIST*
D10*
G04 #@! TO.C,XA1*
X175374000Y-58130000D02*
X175374000Y-56680000D01*
X175374000Y-56680000D02*
X167246000Y-56680000D01*
X167246000Y-56680000D02*
X167246000Y-58130000D01*
X180200000Y-101310000D02*
X162420000Y-101310000D01*
X180200000Y-58130000D02*
X162420000Y-58130000D01*
X162420000Y-101310000D02*
X162420000Y-58130000D01*
X180200000Y-101310000D02*
X180200000Y-58130000D01*
G04 #@! TO.C,C1*
X165262000Y-67140000D02*
X165262000Y-66440000D01*
X166462000Y-66440000D02*
X166462000Y-67140000D01*
G04 #@! TO.C,C2*
X167040000Y-74264000D02*
X167040000Y-73564000D01*
X168240000Y-73564000D02*
X168240000Y-74264000D01*
G04 #@! TO.C,C4*
X174900000Y-72520000D02*
X175600000Y-72520000D01*
X175600000Y-73720000D02*
X174900000Y-73720000D01*
G04 #@! TO.C,C6*
X168564000Y-77058000D02*
X168564000Y-76358000D01*
X169764000Y-76358000D02*
X169764000Y-77058000D01*
G04 #@! TO.C,C9*
X168056000Y-62580000D02*
X168056000Y-61880000D01*
X169256000Y-61880000D02*
X169256000Y-62580000D01*
G04 #@! TO.C,C10*
X176876000Y-67214000D02*
X176876000Y-67914000D01*
X175676000Y-67914000D02*
X175676000Y-67214000D01*
D11*
G04 #@! TO.C,D1*
X167570000Y-75550000D02*
X166135000Y-75550000D01*
X166135000Y-77870000D02*
X167970000Y-77870000D01*
X166135000Y-77870000D02*
X166135000Y-77260000D01*
X166135000Y-75550000D02*
X166135000Y-76160000D01*
D10*
G04 #@! TO.C,R4*
X172458000Y-73827000D02*
X171458000Y-73827000D01*
X171458000Y-72477000D02*
X172458000Y-72477000D01*
G04 #@! TO.C,R6*
X165415000Y-74414000D02*
X165415000Y-73414000D01*
X166765000Y-73414000D02*
X166765000Y-74414000D01*
G04 #@! TO.C,R7*
X168997000Y-74160000D02*
X168997000Y-73160000D01*
X170347000Y-73160000D02*
X170347000Y-74160000D01*
G04 #@! TO.C,R11*
X170188000Y-62317000D02*
X171188000Y-62317000D01*
X171188000Y-63667000D02*
X170188000Y-63667000D01*
G04 #@! TO.C,R12*
X170365000Y-84120000D02*
X170365000Y-83120000D01*
X171715000Y-83120000D02*
X171715000Y-84120000D01*
G04 #@! TO.C,R13*
X173318800Y-83116800D02*
X173318800Y-84116800D01*
X171968800Y-84116800D02*
X171968800Y-83116800D01*
G04 #@! TO.C,R14*
X174265000Y-75690000D02*
X174265000Y-74690000D01*
X175615000Y-74690000D02*
X175615000Y-75690000D01*
G04 #@! TO.C,R15*
X175601000Y-70858000D02*
X175601000Y-69858000D01*
X176951000Y-69858000D02*
X176951000Y-70858000D01*
G04 #@! TO.C,R16*
X166537000Y-69096000D02*
X166537000Y-70096000D01*
X165187000Y-70096000D02*
X165187000Y-69096000D01*
G04 #@! TO.C,R20*
X167025000Y-87580000D02*
X167025000Y-86580000D01*
X168375000Y-86580000D02*
X168375000Y-87580000D01*
G04 #@! TO.C,R21*
X167300000Y-89875000D02*
X166300000Y-89875000D01*
X166300000Y-88525000D02*
X167300000Y-88525000D01*
G04 #@! TO.C,R22*
X175910000Y-60385000D02*
X176910000Y-60385000D01*
X176910000Y-61735000D02*
X175910000Y-61735000D01*
G04 #@! TO.C,R23*
X176776000Y-82971000D02*
X175776000Y-82971000D01*
X175776000Y-81621000D02*
X176776000Y-81621000D01*
G04 #@! TO.C,U1*
X169048000Y-70677000D02*
X169048000Y-71902000D01*
X168623000Y-65427000D02*
X168623000Y-65937000D01*
X173873000Y-65427000D02*
X173873000Y-65937000D01*
X173873000Y-70677000D02*
X173873000Y-70167000D01*
X168623000Y-70677000D02*
X168623000Y-70167000D01*
X173873000Y-70677000D02*
X173363000Y-70677000D01*
X173873000Y-65427000D02*
X173363000Y-65427000D01*
X168623000Y-65427000D02*
X169133000Y-65427000D01*
X168623000Y-70677000D02*
X169048000Y-70677000D01*
G04 #@! TO.C,RV1*
X171000000Y-93880200D02*
X169000000Y-93880200D01*
X169000000Y-90930200D02*
X171000000Y-90930200D01*
G04 #@! TO.C,L1*
X168578400Y-97408800D02*
X171578400Y-97408800D01*
X168578400Y-94208800D02*
X171578400Y-94208800D01*
G04 #@! TO.C,C13*
X173670000Y-62580000D02*
X173670000Y-61880000D01*
X174870000Y-61880000D02*
X174870000Y-62580000D01*
G04 #@! TO.C,C14*
X173350000Y-61830000D02*
X173350000Y-62530000D01*
X172150000Y-62530000D02*
X172150000Y-61830000D01*
G04 #@! TO.C,C15*
X173610000Y-95910000D02*
X174610000Y-95910000D01*
X174610000Y-94210000D02*
X173610000Y-94210000D01*
G04 #@! TO.C,C16*
X174610000Y-90210000D02*
X173610000Y-90210000D01*
X173610000Y-91910000D02*
X174610000Y-91910000D01*
G04 #@! TO.C,C17*
X173610000Y-89910000D02*
X174610000Y-89910000D01*
X174610000Y-88210000D02*
X173610000Y-88210000D01*
G04 #@! TO.C,C18*
X174610000Y-86210000D02*
X173610000Y-86210000D01*
X173610000Y-87910000D02*
X174610000Y-87910000D01*
G04 #@! TO.C,C19*
X173610000Y-97910000D02*
X174610000Y-97910000D01*
X174610000Y-96210000D02*
X173610000Y-96210000D01*
G04 #@! TO.C,C20*
X174610000Y-92210000D02*
X173610000Y-92210000D01*
X173610000Y-93910000D02*
X174610000Y-93910000D01*
G04 #@! TO.C,XA1*
X162271904Y-56702380D02*
X162938571Y-57702380D01*
X162938571Y-56702380D02*
X162271904Y-57702380D01*
X163271904Y-57416666D02*
X163748095Y-57416666D01*
X163176666Y-57702380D02*
X163510000Y-56702380D01*
X163843333Y-57702380D01*
X164700476Y-57702380D02*
X164129047Y-57702380D01*
X164414761Y-57702380D02*
X164414761Y-56702380D01*
X164319523Y-56845238D01*
X164224285Y-56940476D01*
X164129047Y-56988095D01*
G04 #@! TO.C,C1*
X161777142Y-66456666D02*
X161824761Y-66504285D01*
X161872380Y-66647142D01*
X161872380Y-66742380D01*
X161824761Y-66885238D01*
X161729523Y-66980476D01*
X161634285Y-67028095D01*
X161443809Y-67075714D01*
X161300952Y-67075714D01*
X161110476Y-67028095D01*
X161015238Y-66980476D01*
X160920000Y-66885238D01*
X160872380Y-66742380D01*
X160872380Y-66647142D01*
X160920000Y-66504285D01*
X160967619Y-66456666D01*
X161872380Y-65504285D02*
X161872380Y-66075714D01*
X161872380Y-65790000D02*
X160872380Y-65790000D01*
X161015238Y-65885238D01*
X161110476Y-65980476D01*
X161158095Y-66075714D01*
G04 #@! TO.C,C2*
X168097142Y-71556666D02*
X168144761Y-71604285D01*
X168192380Y-71747142D01*
X168192380Y-71842380D01*
X168144761Y-71985238D01*
X168049523Y-72080476D01*
X167954285Y-72128095D01*
X167763809Y-72175714D01*
X167620952Y-72175714D01*
X167430476Y-72128095D01*
X167335238Y-72080476D01*
X167240000Y-71985238D01*
X167192380Y-71842380D01*
X167192380Y-71747142D01*
X167240000Y-71604285D01*
X167287619Y-71556666D01*
X167287619Y-71175714D02*
X167240000Y-71128095D01*
X167192380Y-71032857D01*
X167192380Y-70794761D01*
X167240000Y-70699523D01*
X167287619Y-70651904D01*
X167382857Y-70604285D01*
X167478095Y-70604285D01*
X167620952Y-70651904D01*
X168192380Y-71223333D01*
X168192380Y-70604285D01*
G04 #@! TO.C,C4*
X176703333Y-74887142D02*
X176655714Y-74934761D01*
X176512857Y-74982380D01*
X176417619Y-74982380D01*
X176274761Y-74934761D01*
X176179523Y-74839523D01*
X176131904Y-74744285D01*
X176084285Y-74553809D01*
X176084285Y-74410952D01*
X176131904Y-74220476D01*
X176179523Y-74125238D01*
X176274761Y-74030000D01*
X176417619Y-73982380D01*
X176512857Y-73982380D01*
X176655714Y-74030000D01*
X176703333Y-74077619D01*
X177560476Y-74315714D02*
X177560476Y-74982380D01*
X177322380Y-73934761D02*
X177084285Y-74649047D01*
X177703333Y-74649047D01*
G04 #@! TO.C,C6*
X171157142Y-78156666D02*
X171204761Y-78204285D01*
X171252380Y-78347142D01*
X171252380Y-78442380D01*
X171204761Y-78585238D01*
X171109523Y-78680476D01*
X171014285Y-78728095D01*
X170823809Y-78775714D01*
X170680952Y-78775714D01*
X170490476Y-78728095D01*
X170395238Y-78680476D01*
X170300000Y-78585238D01*
X170252380Y-78442380D01*
X170252380Y-78347142D01*
X170300000Y-78204285D01*
X170347619Y-78156666D01*
X170252380Y-77299523D02*
X170252380Y-77490000D01*
X170300000Y-77585238D01*
X170347619Y-77632857D01*
X170490476Y-77728095D01*
X170680952Y-77775714D01*
X171061904Y-77775714D01*
X171157142Y-77728095D01*
X171204761Y-77680476D01*
X171252380Y-77585238D01*
X171252380Y-77394761D01*
X171204761Y-77299523D01*
X171157142Y-77251904D01*
X171061904Y-77204285D01*
X170823809Y-77204285D01*
X170728571Y-77251904D01*
X170680952Y-77299523D01*
X170633333Y-77394761D01*
X170633333Y-77585238D01*
X170680952Y-77680476D01*
X170728571Y-77728095D01*
X170823809Y-77775714D01*
G04 #@! TO.C,C9*
X167113142Y-62396666D02*
X167160761Y-62444285D01*
X167208380Y-62587142D01*
X167208380Y-62682380D01*
X167160761Y-62825238D01*
X167065523Y-62920476D01*
X166970285Y-62968095D01*
X166779809Y-63015714D01*
X166636952Y-63015714D01*
X166446476Y-62968095D01*
X166351238Y-62920476D01*
X166256000Y-62825238D01*
X166208380Y-62682380D01*
X166208380Y-62587142D01*
X166256000Y-62444285D01*
X166303619Y-62396666D01*
X167208380Y-61920476D02*
X167208380Y-61730000D01*
X167160761Y-61634761D01*
X167113142Y-61587142D01*
X166970285Y-61491904D01*
X166779809Y-61444285D01*
X166398857Y-61444285D01*
X166303619Y-61491904D01*
X166256000Y-61539523D01*
X166208380Y-61634761D01*
X166208380Y-61825238D01*
X166256000Y-61920476D01*
X166303619Y-61968095D01*
X166398857Y-62015714D01*
X166636952Y-62015714D01*
X166732190Y-61968095D01*
X166779809Y-61920476D01*
X166827428Y-61825238D01*
X166827428Y-61634761D01*
X166779809Y-61539523D01*
X166732190Y-61491904D01*
X166636952Y-61444285D01*
G04 #@! TO.C,C10*
X176847142Y-65262857D02*
X176894761Y-65310476D01*
X176942380Y-65453333D01*
X176942380Y-65548571D01*
X176894761Y-65691428D01*
X176799523Y-65786666D01*
X176704285Y-65834285D01*
X176513809Y-65881904D01*
X176370952Y-65881904D01*
X176180476Y-65834285D01*
X176085238Y-65786666D01*
X175990000Y-65691428D01*
X175942380Y-65548571D01*
X175942380Y-65453333D01*
X175990000Y-65310476D01*
X176037619Y-65262857D01*
X176942380Y-64310476D02*
X176942380Y-64881904D01*
X176942380Y-64596190D02*
X175942380Y-64596190D01*
X176085238Y-64691428D01*
X176180476Y-64786666D01*
X176228095Y-64881904D01*
X175942380Y-63691428D02*
X175942380Y-63596190D01*
X175990000Y-63500952D01*
X176037619Y-63453333D01*
X176132857Y-63405714D01*
X176323333Y-63358095D01*
X176561428Y-63358095D01*
X176751904Y-63405714D01*
X176847142Y-63453333D01*
X176894761Y-63500952D01*
X176942380Y-63596190D01*
X176942380Y-63691428D01*
X176894761Y-63786666D01*
X176847142Y-63834285D01*
X176751904Y-63881904D01*
X176561428Y-63929523D01*
X176323333Y-63929523D01*
X176132857Y-63881904D01*
X176037619Y-63834285D01*
X175990000Y-63786666D01*
X175942380Y-63691428D01*
G04 #@! TO.C,D1*
X166131904Y-79662380D02*
X166131904Y-78662380D01*
X166370000Y-78662380D01*
X166512857Y-78710000D01*
X166608095Y-78805238D01*
X166655714Y-78900476D01*
X166703333Y-79090952D01*
X166703333Y-79233809D01*
X166655714Y-79424285D01*
X166608095Y-79519523D01*
X166512857Y-79614761D01*
X166370000Y-79662380D01*
X166131904Y-79662380D01*
X167655714Y-79662380D02*
X167084285Y-79662380D01*
X167370000Y-79662380D02*
X167370000Y-78662380D01*
X167274761Y-78805238D01*
X167179523Y-78900476D01*
X167084285Y-78948095D01*
G04 #@! TO.C,R4*
X171873333Y-75372380D02*
X171540000Y-74896190D01*
X171301904Y-75372380D02*
X171301904Y-74372380D01*
X171682857Y-74372380D01*
X171778095Y-74420000D01*
X171825714Y-74467619D01*
X171873333Y-74562857D01*
X171873333Y-74705714D01*
X171825714Y-74800952D01*
X171778095Y-74848571D01*
X171682857Y-74896190D01*
X171301904Y-74896190D01*
X172730476Y-74705714D02*
X172730476Y-75372380D01*
X172492380Y-74324761D02*
X172254285Y-75039047D01*
X172873333Y-75039047D01*
G04 #@! TO.C,R6*
X166536380Y-71916666D02*
X166060190Y-72250000D01*
X166536380Y-72488095D02*
X165536380Y-72488095D01*
X165536380Y-72107142D01*
X165584000Y-72011904D01*
X165631619Y-71964285D01*
X165726857Y-71916666D01*
X165869714Y-71916666D01*
X165964952Y-71964285D01*
X166012571Y-72011904D01*
X166060190Y-72107142D01*
X166060190Y-72488095D01*
X165536380Y-71059523D02*
X165536380Y-71250000D01*
X165584000Y-71345238D01*
X165631619Y-71392857D01*
X165774476Y-71488095D01*
X165964952Y-71535714D01*
X166345904Y-71535714D01*
X166441142Y-71488095D01*
X166488761Y-71440476D01*
X166536380Y-71345238D01*
X166536380Y-71154761D01*
X166488761Y-71059523D01*
X166441142Y-71011904D01*
X166345904Y-70964285D01*
X166107809Y-70964285D01*
X166012571Y-71011904D01*
X165964952Y-71059523D01*
X165917333Y-71154761D01*
X165917333Y-71345238D01*
X165964952Y-71440476D01*
X166012571Y-71488095D01*
X166107809Y-71535714D01*
G04 #@! TO.C,R7*
X171222380Y-76096666D02*
X170746190Y-76430000D01*
X171222380Y-76668095D02*
X170222380Y-76668095D01*
X170222380Y-76287142D01*
X170270000Y-76191904D01*
X170317619Y-76144285D01*
X170412857Y-76096666D01*
X170555714Y-76096666D01*
X170650952Y-76144285D01*
X170698571Y-76191904D01*
X170746190Y-76287142D01*
X170746190Y-76668095D01*
X170222380Y-75763333D02*
X170222380Y-75096666D01*
X171222380Y-75525238D01*
G04 #@! TO.C,R11*
X170437142Y-61952380D02*
X170103809Y-61476190D01*
X169865714Y-61952380D02*
X169865714Y-60952380D01*
X170246666Y-60952380D01*
X170341904Y-61000000D01*
X170389523Y-61047619D01*
X170437142Y-61142857D01*
X170437142Y-61285714D01*
X170389523Y-61380952D01*
X170341904Y-61428571D01*
X170246666Y-61476190D01*
X169865714Y-61476190D01*
X171389523Y-61952380D02*
X170818095Y-61952380D01*
X171103809Y-61952380D02*
X171103809Y-60952380D01*
X171008571Y-61095238D01*
X170913333Y-61190476D01*
X170818095Y-61238095D01*
X172341904Y-61952380D02*
X171770476Y-61952380D01*
X172056190Y-61952380D02*
X172056190Y-60952380D01*
X171960952Y-61095238D01*
X171865714Y-61190476D01*
X171770476Y-61238095D01*
G04 #@! TO.C,R12*
X171592380Y-81632857D02*
X171116190Y-81966190D01*
X171592380Y-82204285D02*
X170592380Y-82204285D01*
X170592380Y-81823333D01*
X170640000Y-81728095D01*
X170687619Y-81680476D01*
X170782857Y-81632857D01*
X170925714Y-81632857D01*
X171020952Y-81680476D01*
X171068571Y-81728095D01*
X171116190Y-81823333D01*
X171116190Y-82204285D01*
X171592380Y-80680476D02*
X171592380Y-81251904D01*
X171592380Y-80966190D02*
X170592380Y-80966190D01*
X170735238Y-81061428D01*
X170830476Y-81156666D01*
X170878095Y-81251904D01*
X170687619Y-80299523D02*
X170640000Y-80251904D01*
X170592380Y-80156666D01*
X170592380Y-79918571D01*
X170640000Y-79823333D01*
X170687619Y-79775714D01*
X170782857Y-79728095D01*
X170878095Y-79728095D01*
X171020952Y-79775714D01*
X171592380Y-80347142D01*
X171592380Y-79728095D01*
G04 #@! TO.C,R13*
X173122380Y-81562857D02*
X172646190Y-81896190D01*
X173122380Y-82134285D02*
X172122380Y-82134285D01*
X172122380Y-81753333D01*
X172170000Y-81658095D01*
X172217619Y-81610476D01*
X172312857Y-81562857D01*
X172455714Y-81562857D01*
X172550952Y-81610476D01*
X172598571Y-81658095D01*
X172646190Y-81753333D01*
X172646190Y-82134285D01*
X173122380Y-80610476D02*
X173122380Y-81181904D01*
X173122380Y-80896190D02*
X172122380Y-80896190D01*
X172265238Y-80991428D01*
X172360476Y-81086666D01*
X172408095Y-81181904D01*
X172122380Y-80277142D02*
X172122380Y-79658095D01*
X172503333Y-79991428D01*
X172503333Y-79848571D01*
X172550952Y-79753333D01*
X172598571Y-79705714D01*
X172693809Y-79658095D01*
X172931904Y-79658095D01*
X173027142Y-79705714D01*
X173074761Y-79753333D01*
X173122380Y-79848571D01*
X173122380Y-80134285D01*
X173074761Y-80229523D01*
X173027142Y-80277142D01*
G04 #@! TO.C,R14*
X175418380Y-78598457D02*
X174942190Y-78931790D01*
X175418380Y-79169885D02*
X174418380Y-79169885D01*
X174418380Y-78788933D01*
X174466000Y-78693695D01*
X174513619Y-78646076D01*
X174608857Y-78598457D01*
X174751714Y-78598457D01*
X174846952Y-78646076D01*
X174894571Y-78693695D01*
X174942190Y-78788933D01*
X174942190Y-79169885D01*
X175418380Y-77646076D02*
X175418380Y-78217504D01*
X175418380Y-77931790D02*
X174418380Y-77931790D01*
X174561238Y-78027028D01*
X174656476Y-78122266D01*
X174704095Y-78217504D01*
X174751714Y-76788933D02*
X175418380Y-76788933D01*
X174370761Y-77027028D02*
X175085047Y-77265123D01*
X175085047Y-76646076D01*
G04 #@! TO.C,R15*
X178012380Y-70902857D02*
X177536190Y-71236190D01*
X178012380Y-71474285D02*
X177012380Y-71474285D01*
X177012380Y-71093333D01*
X177060000Y-70998095D01*
X177107619Y-70950476D01*
X177202857Y-70902857D01*
X177345714Y-70902857D01*
X177440952Y-70950476D01*
X177488571Y-70998095D01*
X177536190Y-71093333D01*
X177536190Y-71474285D01*
X178012380Y-69950476D02*
X178012380Y-70521904D01*
X178012380Y-70236190D02*
X177012380Y-70236190D01*
X177155238Y-70331428D01*
X177250476Y-70426666D01*
X177298095Y-70521904D01*
X177012380Y-69045714D02*
X177012380Y-69521904D01*
X177488571Y-69569523D01*
X177440952Y-69521904D01*
X177393333Y-69426666D01*
X177393333Y-69188571D01*
X177440952Y-69093333D01*
X177488571Y-69045714D01*
X177583809Y-68998095D01*
X177821904Y-68998095D01*
X177917142Y-69045714D01*
X177964761Y-69093333D01*
X178012380Y-69188571D01*
X178012380Y-69426666D01*
X177964761Y-69521904D01*
X177917142Y-69569523D01*
G04 #@! TO.C,R16*
X161872380Y-69962857D02*
X161396190Y-70296190D01*
X161872380Y-70534285D02*
X160872380Y-70534285D01*
X160872380Y-70153333D01*
X160920000Y-70058095D01*
X160967619Y-70010476D01*
X161062857Y-69962857D01*
X161205714Y-69962857D01*
X161300952Y-70010476D01*
X161348571Y-70058095D01*
X161396190Y-70153333D01*
X161396190Y-70534285D01*
X161872380Y-69010476D02*
X161872380Y-69581904D01*
X161872380Y-69296190D02*
X160872380Y-69296190D01*
X161015238Y-69391428D01*
X161110476Y-69486666D01*
X161158095Y-69581904D01*
X160872380Y-68153333D02*
X160872380Y-68343809D01*
X160920000Y-68439047D01*
X160967619Y-68486666D01*
X161110476Y-68581904D01*
X161300952Y-68629523D01*
X161681904Y-68629523D01*
X161777142Y-68581904D01*
X161824761Y-68534285D01*
X161872380Y-68439047D01*
X161872380Y-68248571D01*
X161824761Y-68153333D01*
X161777142Y-68105714D01*
X161681904Y-68058095D01*
X161443809Y-68058095D01*
X161348571Y-68105714D01*
X161300952Y-68153333D01*
X161253333Y-68248571D01*
X161253333Y-68439047D01*
X161300952Y-68534285D01*
X161348571Y-68581904D01*
X161443809Y-68629523D01*
G04 #@! TO.C,R20*
X168677619Y-86597142D02*
X169153809Y-86263809D01*
X168677619Y-86025714D02*
X169677619Y-86025714D01*
X169677619Y-86406666D01*
X169630000Y-86501904D01*
X169582380Y-86549523D01*
X169487142Y-86597142D01*
X169344285Y-86597142D01*
X169249047Y-86549523D01*
X169201428Y-86501904D01*
X169153809Y-86406666D01*
X169153809Y-86025714D01*
X169582380Y-86978095D02*
X169630000Y-87025714D01*
X169677619Y-87120952D01*
X169677619Y-87359047D01*
X169630000Y-87454285D01*
X169582380Y-87501904D01*
X169487142Y-87549523D01*
X169391904Y-87549523D01*
X169249047Y-87501904D01*
X168677619Y-86930476D01*
X168677619Y-87549523D01*
X169677619Y-88168571D02*
X169677619Y-88263809D01*
X169630000Y-88359047D01*
X169582380Y-88406666D01*
X169487142Y-88454285D01*
X169296666Y-88501904D01*
X169058571Y-88501904D01*
X168868095Y-88454285D01*
X168772857Y-88406666D01*
X168725238Y-88359047D01*
X168677619Y-88263809D01*
X168677619Y-88168571D01*
X168725238Y-88073333D01*
X168772857Y-88025714D01*
X168868095Y-87978095D01*
X169058571Y-87930476D01*
X169296666Y-87930476D01*
X169487142Y-87978095D01*
X169582380Y-88025714D01*
X169630000Y-88073333D01*
X169677619Y-88168571D01*
G04 #@! TO.C,R21*
X165817142Y-91202380D02*
X165483809Y-90726190D01*
X165245714Y-91202380D02*
X165245714Y-90202380D01*
X165626666Y-90202380D01*
X165721904Y-90250000D01*
X165769523Y-90297619D01*
X165817142Y-90392857D01*
X165817142Y-90535714D01*
X165769523Y-90630952D01*
X165721904Y-90678571D01*
X165626666Y-90726190D01*
X165245714Y-90726190D01*
X166198095Y-90297619D02*
X166245714Y-90250000D01*
X166340952Y-90202380D01*
X166579047Y-90202380D01*
X166674285Y-90250000D01*
X166721904Y-90297619D01*
X166769523Y-90392857D01*
X166769523Y-90488095D01*
X166721904Y-90630952D01*
X166150476Y-91202380D01*
X166769523Y-91202380D01*
X167721904Y-91202380D02*
X167150476Y-91202380D01*
X167436190Y-91202380D02*
X167436190Y-90202380D01*
X167340952Y-90345238D01*
X167245714Y-90440476D01*
X167150476Y-90488095D01*
G04 #@! TO.C,R22*
X175637142Y-63152380D02*
X175303809Y-62676190D01*
X175065714Y-63152380D02*
X175065714Y-62152380D01*
X175446666Y-62152380D01*
X175541904Y-62200000D01*
X175589523Y-62247619D01*
X175637142Y-62342857D01*
X175637142Y-62485714D01*
X175589523Y-62580952D01*
X175541904Y-62628571D01*
X175446666Y-62676190D01*
X175065714Y-62676190D01*
X176018095Y-62247619D02*
X176065714Y-62200000D01*
X176160952Y-62152380D01*
X176399047Y-62152380D01*
X176494285Y-62200000D01*
X176541904Y-62247619D01*
X176589523Y-62342857D01*
X176589523Y-62438095D01*
X176541904Y-62580952D01*
X175970476Y-63152380D01*
X176589523Y-63152380D01*
X176970476Y-62247619D02*
X177018095Y-62200000D01*
X177113333Y-62152380D01*
X177351428Y-62152380D01*
X177446666Y-62200000D01*
X177494285Y-62247619D01*
X177541904Y-62342857D01*
X177541904Y-62438095D01*
X177494285Y-62580952D01*
X176922857Y-63152380D01*
X177541904Y-63152380D01*
G04 #@! TO.C,R23*
X176182380Y-85212857D02*
X175706190Y-85546190D01*
X176182380Y-85784285D02*
X175182380Y-85784285D01*
X175182380Y-85403333D01*
X175230000Y-85308095D01*
X175277619Y-85260476D01*
X175372857Y-85212857D01*
X175515714Y-85212857D01*
X175610952Y-85260476D01*
X175658571Y-85308095D01*
X175706190Y-85403333D01*
X175706190Y-85784285D01*
X175277619Y-84831904D02*
X175230000Y-84784285D01*
X175182380Y-84689047D01*
X175182380Y-84450952D01*
X175230000Y-84355714D01*
X175277619Y-84308095D01*
X175372857Y-84260476D01*
X175468095Y-84260476D01*
X175610952Y-84308095D01*
X176182380Y-84879523D01*
X176182380Y-84260476D01*
X175182380Y-83927142D02*
X175182380Y-83308095D01*
X175563333Y-83641428D01*
X175563333Y-83498571D01*
X175610952Y-83403333D01*
X175658571Y-83355714D01*
X175753809Y-83308095D01*
X175991904Y-83308095D01*
X176087142Y-83355714D01*
X176134761Y-83403333D01*
X176182380Y-83498571D01*
X176182380Y-83784285D01*
X176134761Y-83879523D01*
X176087142Y-83927142D01*
G04 #@! TO.C,U1*
X170662380Y-68811904D02*
X171471904Y-68811904D01*
X171567142Y-68764285D01*
X171614761Y-68716666D01*
X171662380Y-68621428D01*
X171662380Y-68430952D01*
X171614761Y-68335714D01*
X171567142Y-68288095D01*
X171471904Y-68240476D01*
X170662380Y-68240476D01*
X171662380Y-67240476D02*
X171662380Y-67811904D01*
X171662380Y-67526190D02*
X170662380Y-67526190D01*
X170805238Y-67621428D01*
X170900476Y-67716666D01*
X170948095Y-67811904D01*
G04 #@! TO.C,RV1*
X165904761Y-92762380D02*
X165571428Y-92286190D01*
X165333333Y-92762380D02*
X165333333Y-91762380D01*
X165714285Y-91762380D01*
X165809523Y-91810000D01*
X165857142Y-91857619D01*
X165904761Y-91952857D01*
X165904761Y-92095714D01*
X165857142Y-92190952D01*
X165809523Y-92238571D01*
X165714285Y-92286190D01*
X165333333Y-92286190D01*
X166190476Y-91762380D02*
X166523809Y-92762380D01*
X166857142Y-91762380D01*
X167714285Y-92762380D02*
X167142857Y-92762380D01*
X167428571Y-92762380D02*
X167428571Y-91762380D01*
X167333333Y-91905238D01*
X167238095Y-92000476D01*
X167142857Y-92048095D01*
G04 #@! TO.C,L1*
X169861733Y-98881180D02*
X169385542Y-98881180D01*
X169385542Y-97881180D01*
X170718876Y-98881180D02*
X170147447Y-98881180D01*
X170433161Y-98881180D02*
X170433161Y-97881180D01*
X170337923Y-98024038D01*
X170242685Y-98119276D01*
X170147447Y-98166895D01*
G04 #@! TO.C,C13*
X176527142Y-62872857D02*
X176574761Y-62920476D01*
X176622380Y-63063333D01*
X176622380Y-63158571D01*
X176574761Y-63301428D01*
X176479523Y-63396666D01*
X176384285Y-63444285D01*
X176193809Y-63491904D01*
X176050952Y-63491904D01*
X175860476Y-63444285D01*
X175765238Y-63396666D01*
X175670000Y-63301428D01*
X175622380Y-63158571D01*
X175622380Y-63063333D01*
X175670000Y-62920476D01*
X175717619Y-62872857D01*
X176622380Y-61920476D02*
X176622380Y-62491904D01*
X176622380Y-62206190D02*
X175622380Y-62206190D01*
X175765238Y-62301428D01*
X175860476Y-62396666D01*
X175908095Y-62491904D01*
X175622380Y-61587142D02*
X175622380Y-60968095D01*
X176003333Y-61301428D01*
X176003333Y-61158571D01*
X176050952Y-61063333D01*
X176098571Y-61015714D01*
X176193809Y-60968095D01*
X176431904Y-60968095D01*
X176527142Y-61015714D01*
X176574761Y-61063333D01*
X176622380Y-61158571D01*
X176622380Y-61444285D01*
X176574761Y-61539523D01*
X176527142Y-61587142D01*
G04 #@! TO.C,C14*
X174907142Y-65272857D02*
X174954761Y-65320476D01*
X175002380Y-65463333D01*
X175002380Y-65558571D01*
X174954761Y-65701428D01*
X174859523Y-65796666D01*
X174764285Y-65844285D01*
X174573809Y-65891904D01*
X174430952Y-65891904D01*
X174240476Y-65844285D01*
X174145238Y-65796666D01*
X174050000Y-65701428D01*
X174002380Y-65558571D01*
X174002380Y-65463333D01*
X174050000Y-65320476D01*
X174097619Y-65272857D01*
X175002380Y-64320476D02*
X175002380Y-64891904D01*
X175002380Y-64606190D02*
X174002380Y-64606190D01*
X174145238Y-64701428D01*
X174240476Y-64796666D01*
X174288095Y-64891904D01*
X174335714Y-63463333D02*
X175002380Y-63463333D01*
X173954761Y-63701428D02*
X174669047Y-63939523D01*
X174669047Y-63320476D01*
G04 #@! TO.C,C15*
D12*
X177141142Y-97349428D02*
X177188761Y-97373238D01*
X177236380Y-97444666D01*
X177236380Y-97492285D01*
X177188761Y-97563714D01*
X177093523Y-97611333D01*
X176998285Y-97635142D01*
X176807809Y-97658952D01*
X176664952Y-97658952D01*
X176474476Y-97635142D01*
X176379238Y-97611333D01*
X176284000Y-97563714D01*
X176236380Y-97492285D01*
X176236380Y-97444666D01*
X176284000Y-97373238D01*
X176331619Y-97349428D01*
X177236380Y-96873238D02*
X177236380Y-97158952D01*
X177236380Y-97016095D02*
X176236380Y-97016095D01*
X176379238Y-97063714D01*
X176474476Y-97111333D01*
X176522095Y-97158952D01*
X176236380Y-96420857D02*
X176236380Y-96658952D01*
X176712571Y-96682761D01*
X176664952Y-96658952D01*
X176617333Y-96611333D01*
X176617333Y-96492285D01*
X176664952Y-96444666D01*
X176712571Y-96420857D01*
X176807809Y-96397047D01*
X177045904Y-96397047D01*
X177141142Y-96420857D01*
X177188761Y-96444666D01*
X177236380Y-96492285D01*
X177236380Y-96611333D01*
X177188761Y-96658952D01*
X177141142Y-96682761D01*
G04 #@! TO.C,C16*
X177141142Y-95317428D02*
X177188761Y-95341238D01*
X177236380Y-95412666D01*
X177236380Y-95460285D01*
X177188761Y-95531714D01*
X177093523Y-95579333D01*
X176998285Y-95603142D01*
X176807809Y-95626952D01*
X176664952Y-95626952D01*
X176474476Y-95603142D01*
X176379238Y-95579333D01*
X176284000Y-95531714D01*
X176236380Y-95460285D01*
X176236380Y-95412666D01*
X176284000Y-95341238D01*
X176331619Y-95317428D01*
X177236380Y-94841238D02*
X177236380Y-95126952D01*
X177236380Y-94984095D02*
X176236380Y-94984095D01*
X176379238Y-95031714D01*
X176474476Y-95079333D01*
X176522095Y-95126952D01*
X176236380Y-94412666D02*
X176236380Y-94507904D01*
X176284000Y-94555523D01*
X176331619Y-94579333D01*
X176474476Y-94626952D01*
X176664952Y-94650761D01*
X177045904Y-94650761D01*
X177141142Y-94626952D01*
X177188761Y-94603142D01*
X177236380Y-94555523D01*
X177236380Y-94460285D01*
X177188761Y-94412666D01*
X177141142Y-94388857D01*
X177045904Y-94365047D01*
X176807809Y-94365047D01*
X176712571Y-94388857D01*
X176664952Y-94412666D01*
X176617333Y-94460285D01*
X176617333Y-94555523D01*
X176664952Y-94603142D01*
X176712571Y-94626952D01*
X176807809Y-94650761D01*
G04 #@! TO.C,C17*
X177141142Y-93285428D02*
X177188761Y-93309238D01*
X177236380Y-93380666D01*
X177236380Y-93428285D01*
X177188761Y-93499714D01*
X177093523Y-93547333D01*
X176998285Y-93571142D01*
X176807809Y-93594952D01*
X176664952Y-93594952D01*
X176474476Y-93571142D01*
X176379238Y-93547333D01*
X176284000Y-93499714D01*
X176236380Y-93428285D01*
X176236380Y-93380666D01*
X176284000Y-93309238D01*
X176331619Y-93285428D01*
X177236380Y-92809238D02*
X177236380Y-93094952D01*
X177236380Y-92952095D02*
X176236380Y-92952095D01*
X176379238Y-92999714D01*
X176474476Y-93047333D01*
X176522095Y-93094952D01*
X176236380Y-92642571D02*
X176236380Y-92309238D01*
X177236380Y-92523523D01*
G04 #@! TO.C,C18*
X177141142Y-91253428D02*
X177188761Y-91277238D01*
X177236380Y-91348666D01*
X177236380Y-91396285D01*
X177188761Y-91467714D01*
X177093523Y-91515333D01*
X176998285Y-91539142D01*
X176807809Y-91562952D01*
X176664952Y-91562952D01*
X176474476Y-91539142D01*
X176379238Y-91515333D01*
X176284000Y-91467714D01*
X176236380Y-91396285D01*
X176236380Y-91348666D01*
X176284000Y-91277238D01*
X176331619Y-91253428D01*
X177236380Y-90777238D02*
X177236380Y-91062952D01*
X177236380Y-90920095D02*
X176236380Y-90920095D01*
X176379238Y-90967714D01*
X176474476Y-91015333D01*
X176522095Y-91062952D01*
X176664952Y-90491523D02*
X176617333Y-90539142D01*
X176569714Y-90562952D01*
X176474476Y-90586761D01*
X176426857Y-90586761D01*
X176331619Y-90562952D01*
X176284000Y-90539142D01*
X176236380Y-90491523D01*
X176236380Y-90396285D01*
X176284000Y-90348666D01*
X176331619Y-90324857D01*
X176426857Y-90301047D01*
X176474476Y-90301047D01*
X176569714Y-90324857D01*
X176617333Y-90348666D01*
X176664952Y-90396285D01*
X176664952Y-90491523D01*
X176712571Y-90539142D01*
X176760190Y-90562952D01*
X176855428Y-90586761D01*
X177045904Y-90586761D01*
X177141142Y-90562952D01*
X177188761Y-90539142D01*
X177236380Y-90491523D01*
X177236380Y-90396285D01*
X177188761Y-90348666D01*
X177141142Y-90324857D01*
X177045904Y-90301047D01*
X176855428Y-90301047D01*
X176760190Y-90324857D01*
X176712571Y-90348666D01*
X176664952Y-90396285D01*
G04 #@! TO.C,C19*
X177141142Y-89221428D02*
X177188761Y-89245238D01*
X177236380Y-89316666D01*
X177236380Y-89364285D01*
X177188761Y-89435714D01*
X177093523Y-89483333D01*
X176998285Y-89507142D01*
X176807809Y-89530952D01*
X176664952Y-89530952D01*
X176474476Y-89507142D01*
X176379238Y-89483333D01*
X176284000Y-89435714D01*
X176236380Y-89364285D01*
X176236380Y-89316666D01*
X176284000Y-89245238D01*
X176331619Y-89221428D01*
X177236380Y-88745238D02*
X177236380Y-89030952D01*
X177236380Y-88888095D02*
X176236380Y-88888095D01*
X176379238Y-88935714D01*
X176474476Y-88983333D01*
X176522095Y-89030952D01*
X177236380Y-88507142D02*
X177236380Y-88411904D01*
X177188761Y-88364285D01*
X177141142Y-88340476D01*
X176998285Y-88292857D01*
X176807809Y-88269047D01*
X176426857Y-88269047D01*
X176331619Y-88292857D01*
X176284000Y-88316666D01*
X176236380Y-88364285D01*
X176236380Y-88459523D01*
X176284000Y-88507142D01*
X176331619Y-88530952D01*
X176426857Y-88554761D01*
X176664952Y-88554761D01*
X176760190Y-88530952D01*
X176807809Y-88507142D01*
X176855428Y-88459523D01*
X176855428Y-88364285D01*
X176807809Y-88316666D01*
X176760190Y-88292857D01*
X176664952Y-88269047D01*
G04 #@! TO.C,C20*
X177141142Y-87189428D02*
X177188761Y-87213238D01*
X177236380Y-87284666D01*
X177236380Y-87332285D01*
X177188761Y-87403714D01*
X177093523Y-87451333D01*
X176998285Y-87475142D01*
X176807809Y-87498952D01*
X176664952Y-87498952D01*
X176474476Y-87475142D01*
X176379238Y-87451333D01*
X176284000Y-87403714D01*
X176236380Y-87332285D01*
X176236380Y-87284666D01*
X176284000Y-87213238D01*
X176331619Y-87189428D01*
X176331619Y-86998952D02*
X176284000Y-86975142D01*
X176236380Y-86927523D01*
X176236380Y-86808476D01*
X176284000Y-86760857D01*
X176331619Y-86737047D01*
X176426857Y-86713238D01*
X176522095Y-86713238D01*
X176664952Y-86737047D01*
X177236380Y-87022761D01*
X177236380Y-86713238D01*
X176236380Y-86403714D02*
X176236380Y-86356095D01*
X176284000Y-86308476D01*
X176331619Y-86284666D01*
X176426857Y-86260857D01*
X176617333Y-86237047D01*
X176855428Y-86237047D01*
X177045904Y-86260857D01*
X177141142Y-86284666D01*
X177188761Y-86308476D01*
X177236380Y-86356095D01*
X177236380Y-86403714D01*
X177188761Y-86451333D01*
X177141142Y-86475142D01*
X177045904Y-86498952D01*
X176855428Y-86522761D01*
X176617333Y-86522761D01*
X176426857Y-86498952D01*
X176331619Y-86475142D01*
X176284000Y-86451333D01*
X176236380Y-86403714D01*
G04 #@! TD*
%LPC*%
D13*
G04 #@! TO.C,XA1*
X163690000Y-97500000D03*
X163690000Y-94960000D03*
X163690000Y-92420000D03*
X163690000Y-89880000D03*
X163690000Y-87340000D03*
X163690000Y-84800000D03*
X163690000Y-82260000D03*
X163690000Y-79720000D03*
X163690000Y-77180000D03*
X163690000Y-74640000D03*
X163690000Y-72100000D03*
X163690000Y-69560000D03*
X163690000Y-67020000D03*
X163690000Y-64480000D03*
X163690000Y-61940000D03*
X178930000Y-61940000D03*
X178930000Y-64480000D03*
X178930000Y-67020000D03*
X178930000Y-69560000D03*
X178930000Y-72100000D03*
X178930000Y-74640000D03*
X178930000Y-77180000D03*
X178930000Y-79720000D03*
X178930000Y-82260000D03*
X178930000Y-84800000D03*
X178930000Y-87340000D03*
X178930000Y-89880000D03*
X178930000Y-92420000D03*
X178930000Y-94960000D03*
D14*
X178930000Y-97500000D03*
D15*
X178930000Y-100040000D03*
X163690000Y-100040000D03*
X178930000Y-59400000D03*
X163690000Y-59400000D03*
G04 #@! TD*
D16*
G04 #@! TO.C,C1*
X165862000Y-67540000D03*
X165862000Y-66040000D03*
G04 #@! TD*
G04 #@! TO.C,C2*
X167640000Y-74664000D03*
X167640000Y-73164000D03*
G04 #@! TD*
D17*
G04 #@! TO.C,C4*
X174500000Y-73120000D03*
X176000000Y-73120000D03*
G04 #@! TD*
D16*
G04 #@! TO.C,C6*
X169164000Y-77458000D03*
X169164000Y-75958000D03*
G04 #@! TD*
G04 #@! TO.C,C9*
X168656000Y-62980000D03*
X168656000Y-61480000D03*
G04 #@! TD*
G04 #@! TO.C,C10*
X176276000Y-66814000D03*
X176276000Y-68314000D03*
G04 #@! TD*
D18*
G04 #@! TO.C,D1*
X166070000Y-76710000D03*
X167670000Y-77360000D03*
X167670000Y-76060000D03*
G04 #@! TD*
D19*
G04 #@! TO.C,R4*
X171208000Y-73152000D03*
X172708000Y-73152000D03*
G04 #@! TD*
D20*
G04 #@! TO.C,R6*
X166090000Y-73164000D03*
X166090000Y-74664000D03*
G04 #@! TD*
G04 #@! TO.C,R7*
X169672000Y-72910000D03*
X169672000Y-74410000D03*
G04 #@! TD*
D19*
G04 #@! TO.C,R11*
X171438000Y-62992000D03*
X169938000Y-62992000D03*
G04 #@! TD*
D20*
G04 #@! TO.C,R12*
X171040000Y-82870000D03*
X171040000Y-84370000D03*
G04 #@! TD*
G04 #@! TO.C,R13*
X172643800Y-84366800D03*
X172643800Y-82866800D03*
G04 #@! TD*
G04 #@! TO.C,R14*
X174940000Y-74440000D03*
X174940000Y-75940000D03*
G04 #@! TD*
G04 #@! TO.C,R15*
X176276000Y-69608000D03*
X176276000Y-71108000D03*
G04 #@! TD*
G04 #@! TO.C,R16*
X165862000Y-70346000D03*
X165862000Y-68846000D03*
G04 #@! TD*
G04 #@! TO.C,R20*
X167700000Y-86330000D03*
X167700000Y-87830000D03*
G04 #@! TD*
D19*
G04 #@! TO.C,R21*
X166050000Y-89200000D03*
X167550000Y-89200000D03*
G04 #@! TD*
G04 #@! TO.C,R22*
X177160000Y-61060000D03*
X175660000Y-61060000D03*
G04 #@! TD*
G04 #@! TO.C,R23*
X175526000Y-82296000D03*
X177026000Y-82296000D03*
G04 #@! TD*
D21*
G04 #@! TO.C,U1*
X167998000Y-69802000D03*
X167998000Y-69302000D03*
X167998000Y-68802000D03*
X167998000Y-68302000D03*
X167998000Y-67802000D03*
X167998000Y-67302000D03*
X167998000Y-66802000D03*
X167998000Y-66302000D03*
D22*
X169498000Y-64802000D03*
X169998000Y-64802000D03*
X170498000Y-64802000D03*
X170998000Y-64802000D03*
X171498000Y-64802000D03*
X171998000Y-64802000D03*
X172498000Y-64802000D03*
X172998000Y-64802000D03*
D21*
X174498000Y-66302000D03*
X174498000Y-66802000D03*
X174498000Y-67302000D03*
X174498000Y-67802000D03*
X174498000Y-68302000D03*
X174498000Y-68802000D03*
X174498000Y-69302000D03*
X174498000Y-69802000D03*
D22*
X172998000Y-71302000D03*
X172498000Y-71302000D03*
X171998000Y-71302000D03*
X171498000Y-71302000D03*
X170998000Y-71302000D03*
X170498000Y-71302000D03*
X169998000Y-71302000D03*
X169498000Y-71302000D03*
G04 #@! TD*
D23*
G04 #@! TO.C,J3*
X171450000Y-100965000D03*
G04 #@! TD*
G04 #@! TO.C,J1*
X167386000Y-58420000D03*
G04 #@! TD*
G04 #@! TO.C,J5*
X175514000Y-100965000D03*
G04 #@! TD*
G04 #@! TO.C,J8*
X167132000Y-99720400D03*
G04 #@! TD*
D24*
G04 #@! TO.C,J9*
X176530000Y-58420000D03*
G04 #@! TD*
G04 #@! TO.C,J11*
X173736000Y-58420000D03*
G04 #@! TD*
G04 #@! TO.C,J14*
X170815000Y-58420000D03*
G04 #@! TD*
D25*
G04 #@! TO.C,RV1*
X168550000Y-92405200D03*
X171450000Y-92405200D03*
G04 #@! TD*
D26*
G04 #@! TO.C,L1*
X171178400Y-95808800D03*
X168978400Y-95808800D03*
G04 #@! TD*
D16*
G04 #@! TO.C,C13*
X174270000Y-62980000D03*
X174270000Y-61480000D03*
G04 #@! TD*
G04 #@! TO.C,C14*
X172750000Y-61430000D03*
X172750000Y-62930000D03*
G04 #@! TD*
D27*
G04 #@! TO.C,C15*
X175110000Y-95060000D03*
X173110000Y-95060000D03*
G04 #@! TD*
G04 #@! TO.C,C16*
X173110000Y-91060000D03*
X175110000Y-91060000D03*
G04 #@! TD*
G04 #@! TO.C,C17*
X175110000Y-89060000D03*
X173110000Y-89060000D03*
G04 #@! TD*
G04 #@! TO.C,C18*
X173110000Y-87060000D03*
X175110000Y-87060000D03*
G04 #@! TD*
G04 #@! TO.C,C19*
X175110000Y-97060000D03*
X173110000Y-97060000D03*
G04 #@! TD*
G04 #@! TO.C,C20*
X173110000Y-93060000D03*
X175110000Y-93060000D03*
G04 #@! TD*
M02*
