G04 #@! TF.GenerationSoftware,KiCad,Pcbnew,(5.0.0-3-g5ebb6b6)*
G04 #@! TF.CreationDate,2018-09-15T11:59:02+02:00*
G04 #@! TF.ProjectId,Nano_Lambda,4E616E6F5F4C616D6264612E6B696361,rev?*
G04 #@! TF.SameCoordinates,Original*
G04 #@! TF.FileFunction,Soldermask,Bot*
G04 #@! TF.FilePolarity,Negative*
%FSLAX46Y46*%
G04 Gerber Fmt 4.6, Leading zero omitted, Abs format (unit mm)*
G04 Created by KiCad (PCBNEW (5.0.0-3-g5ebb6b6)) date Saturday, 15 September 2018 at 11:59:02*
%MOMM*%
%LPD*%
G01*
G04 APERTURE LIST*
%ADD10C,2.127200*%
%ADD11R,2.127200X2.127200*%
%ADD12C,2.250000*%
%ADD13R,1.197560X1.197560*%
%ADD14R,1.200000X1.150000*%
%ADD15R,1.060400X0.806400*%
%ADD16R,1.300000X0.900000*%
%ADD17R,0.900000X1.300000*%
%ADD18R,1.050000X1.460000*%
%ADD19R,2.900000X2.700000*%
%ADD20R,1.900000X3.400000*%
%ADD21R,3.400000X3.400000*%
%ADD22R,3.448000X2.051000*%
%ADD23R,6.496000X6.496000*%
G04 APERTURE END LIST*
D10*
G04 #@! TO.C,XA1*
X163690000Y-97500000D03*
X163690000Y-94960000D03*
X163690000Y-92420000D03*
X163690000Y-89880000D03*
X163690000Y-87340000D03*
X163690000Y-84800000D03*
X163690000Y-82260000D03*
X163690000Y-79720000D03*
X163690000Y-77180000D03*
X163690000Y-74640000D03*
X163690000Y-72100000D03*
X163690000Y-69560000D03*
X163690000Y-67020000D03*
X163690000Y-64480000D03*
X163690000Y-61940000D03*
X178930000Y-61940000D03*
X178930000Y-64480000D03*
X178930000Y-67020000D03*
X178930000Y-69560000D03*
X178930000Y-72100000D03*
X178930000Y-74640000D03*
X178930000Y-77180000D03*
X178930000Y-79720000D03*
X178930000Y-82260000D03*
X178930000Y-84800000D03*
X178930000Y-87340000D03*
X178930000Y-89880000D03*
X178930000Y-92420000D03*
X178930000Y-94960000D03*
D11*
X178930000Y-97500000D03*
D12*
X178930000Y-100040000D03*
X163690000Y-100040000D03*
X178930000Y-59400000D03*
X163690000Y-59400000D03*
G04 #@! TD*
D13*
G04 #@! TO.C,D2*
X175601400Y-72370000D03*
X177100000Y-72370000D03*
G04 #@! TD*
G04 #@! TO.C,D3*
X176830000Y-79310700D03*
X176830000Y-80809300D03*
G04 #@! TD*
D14*
G04 #@! TO.C,C5*
X165860000Y-73720000D03*
X167360000Y-73720000D03*
G04 #@! TD*
G04 #@! TO.C,C7*
X173950000Y-75040000D03*
X175450000Y-75040000D03*
G04 #@! TD*
G04 #@! TO.C,C9*
X165640000Y-72210000D03*
X167140000Y-72210000D03*
G04 #@! TD*
G04 #@! TO.C,C11*
X165530000Y-67040000D03*
X167030000Y-67040000D03*
G04 #@! TD*
G04 #@! TO.C,C12*
X175150000Y-79290000D03*
X173650000Y-79290000D03*
G04 #@! TD*
D15*
G04 #@! TO.C,IC1*
X175570000Y-77900000D03*
X175570000Y-76579200D03*
X173538000Y-77239600D03*
X173538000Y-76579200D03*
X173538000Y-77900000D03*
G04 #@! TD*
D16*
G04 #@! TO.C,R1*
X176950000Y-77980000D03*
X176950000Y-76480000D03*
G04 #@! TD*
D17*
G04 #@! TO.C,R2*
X177220000Y-70810000D03*
X175720000Y-70810000D03*
G04 #@! TD*
D16*
G04 #@! TO.C,R7*
X165850000Y-70300000D03*
X165850000Y-68800000D03*
G04 #@! TD*
G04 #@! TO.C,R14*
X173500000Y-71680000D03*
X173500000Y-70180000D03*
G04 #@! TD*
D17*
G04 #@! TO.C,R16*
X165510000Y-76290000D03*
X167010000Y-76290000D03*
G04 #@! TD*
G04 #@! TO.C,R17*
X165500000Y-77890000D03*
X167000000Y-77890000D03*
G04 #@! TD*
D16*
G04 #@! TO.C,R19*
X174590000Y-82120000D03*
X174590000Y-83620000D03*
G04 #@! TD*
D17*
G04 #@! TO.C,R20*
X168350000Y-86980000D03*
X166850000Y-86980000D03*
G04 #@! TD*
G04 #@! TO.C,R21*
X166700000Y-89160000D03*
X168200000Y-89160000D03*
G04 #@! TD*
D18*
G04 #@! TO.C,U2*
X173872000Y-66634000D03*
X172922000Y-66634000D03*
X174822000Y-66634000D03*
X174822000Y-64434000D03*
X173872000Y-64434000D03*
X172922000Y-64434000D03*
G04 #@! TD*
G04 #@! TO.C,U3*
X168590000Y-64430000D03*
X169540000Y-64430000D03*
X170490000Y-64430000D03*
X170490000Y-66630000D03*
X168590000Y-66630000D03*
X169540000Y-66630000D03*
G04 #@! TD*
D19*
G04 #@! TO.C,U4*
X171069000Y-87710000D03*
X175369000Y-87710000D03*
G04 #@! TD*
D20*
G04 #@! TO.C,J10*
X176530000Y-58420000D03*
G04 #@! TD*
G04 #@! TO.C,J12*
X170840400Y-58420000D03*
G04 #@! TD*
G04 #@! TO.C,J13*
X173736000Y-58420000D03*
G04 #@! TD*
D21*
G04 #@! TO.C,J6*
X171450000Y-100965000D03*
G04 #@! TD*
G04 #@! TO.C,J2*
X167386000Y-58420000D03*
G04 #@! TD*
G04 #@! TO.C,J4*
X167132000Y-100990400D03*
G04 #@! TD*
G04 #@! TO.C,J7*
X175514000Y-100965000D03*
G04 #@! TD*
D22*
G04 #@! TO.C,U5*
X167259000Y-95885000D03*
D23*
X173609000Y-93599000D03*
D22*
X167259000Y-91313000D03*
G04 #@! TD*
D14*
G04 #@! TO.C,C13*
X174980000Y-62880000D03*
X173480000Y-62880000D03*
G04 #@! TD*
G04 #@! TO.C,C14*
X170580000Y-62870000D03*
X172080000Y-62870000D03*
G04 #@! TD*
D17*
G04 #@! TO.C,R8*
X166910000Y-79990000D03*
X165410000Y-79990000D03*
G04 #@! TD*
G04 #@! TO.C,R9*
X165410000Y-81580000D03*
X166910000Y-81580000D03*
G04 #@! TD*
M02*
