G04 #@! TF.GenerationSoftware,KiCad,Pcbnew,(5.0.0-3-g5ebb6b6)*
G04 #@! TF.CreationDate,2018-09-16T20:00:54+02:00*
G04 #@! TF.ProjectId,Nano_Lambda,4E616E6F5F4C616D6264612E6B696361,rev?*
G04 #@! TF.SameCoordinates,Original*
G04 #@! TF.FileFunction,Paste,Bot*
G04 #@! TF.FilePolarity,Positive*
%FSLAX46Y46*%
G04 Gerber Fmt 4.6, Leading zero omitted, Abs format (unit mm)*
G04 Created by KiCad (PCBNEW (5.0.0-3-g5ebb6b6)) date Sunday, 16 September 2018 at 20:00:54*
%MOMM*%
%LPD*%
G01*
G04 APERTURE LIST*
%ADD10R,0.797560X0.797560*%
%ADD11R,0.800000X0.750000*%
%ADD12R,0.660400X0.406400*%
%ADD13R,0.900000X0.500000*%
%ADD14R,0.500000X0.900000*%
%ADD15R,0.650000X1.060000*%
%ADD16R,2.500000X2.300000*%
%ADD17R,1.500000X3.000000*%
%ADD18R,3.000000X3.000000*%
%ADD19R,3.048000X1.651000*%
%ADD20R,6.096000X6.096000*%
G04 APERTURE END LIST*
D10*
G04 #@! TO.C,D2*
X175601400Y-72370000D03*
X177100000Y-72370000D03*
G04 #@! TD*
G04 #@! TO.C,D3*
X176830000Y-79310700D03*
X176830000Y-80809300D03*
G04 #@! TD*
D11*
G04 #@! TO.C,C5*
X165860000Y-73720000D03*
X167360000Y-73720000D03*
G04 #@! TD*
G04 #@! TO.C,C7*
X173950000Y-75040000D03*
X175450000Y-75040000D03*
G04 #@! TD*
G04 #@! TO.C,C9*
X165640000Y-72210000D03*
X167140000Y-72210000D03*
G04 #@! TD*
G04 #@! TO.C,C11*
X165530000Y-67040000D03*
X167030000Y-67040000D03*
G04 #@! TD*
G04 #@! TO.C,C12*
X175150000Y-79290000D03*
X173650000Y-79290000D03*
G04 #@! TD*
D12*
G04 #@! TO.C,IC1*
X175570000Y-77900000D03*
X175570000Y-76579200D03*
X173538000Y-77239600D03*
X173538000Y-76579200D03*
X173538000Y-77900000D03*
G04 #@! TD*
D13*
G04 #@! TO.C,R1*
X176950000Y-77980000D03*
X176950000Y-76480000D03*
G04 #@! TD*
D14*
G04 #@! TO.C,R2*
X177220000Y-70810000D03*
X175720000Y-70810000D03*
G04 #@! TD*
D13*
G04 #@! TO.C,R7*
X165850000Y-70300000D03*
X165850000Y-68800000D03*
G04 #@! TD*
G04 #@! TO.C,R14*
X173500000Y-71680000D03*
X173500000Y-70180000D03*
G04 #@! TD*
D14*
G04 #@! TO.C,R16*
X167010000Y-76290000D03*
X165510000Y-76290000D03*
G04 #@! TD*
G04 #@! TO.C,R17*
X165500000Y-77890000D03*
X167000000Y-77890000D03*
G04 #@! TD*
D13*
G04 #@! TO.C,R19*
X174590000Y-82120000D03*
X174590000Y-83620000D03*
G04 #@! TD*
D14*
G04 #@! TO.C,R20*
X168350000Y-86980000D03*
X166850000Y-86980000D03*
G04 #@! TD*
G04 #@! TO.C,R21*
X166700000Y-89160000D03*
X168200000Y-89160000D03*
G04 #@! TD*
D15*
G04 #@! TO.C,U2*
X173872000Y-66634000D03*
X172922000Y-66634000D03*
X174822000Y-66634000D03*
X174822000Y-64434000D03*
X173872000Y-64434000D03*
X172922000Y-64434000D03*
G04 #@! TD*
G04 #@! TO.C,U3*
X168590000Y-64430000D03*
X169540000Y-64430000D03*
X170490000Y-64430000D03*
X170490000Y-66630000D03*
X168590000Y-66630000D03*
X169540000Y-66630000D03*
G04 #@! TD*
D16*
G04 #@! TO.C,U4*
X171069000Y-87710000D03*
X175369000Y-87710000D03*
G04 #@! TD*
D17*
G04 #@! TO.C,J10*
X176530000Y-58420000D03*
G04 #@! TD*
G04 #@! TO.C,J12*
X170840400Y-58420000D03*
G04 #@! TD*
G04 #@! TO.C,J13*
X173736000Y-58420000D03*
G04 #@! TD*
D18*
G04 #@! TO.C,J6*
X171450000Y-100965000D03*
G04 #@! TD*
G04 #@! TO.C,J2*
X167386000Y-58420000D03*
G04 #@! TD*
G04 #@! TO.C,J4*
X167132000Y-100990400D03*
G04 #@! TD*
G04 #@! TO.C,J7*
X175514000Y-100965000D03*
G04 #@! TD*
D19*
G04 #@! TO.C,U5*
X167259000Y-95885000D03*
D20*
X173609000Y-93599000D03*
D19*
X167259000Y-91313000D03*
G04 #@! TD*
D11*
G04 #@! TO.C,C13*
X174980000Y-62880000D03*
X173480000Y-62880000D03*
G04 #@! TD*
G04 #@! TO.C,C14*
X170330000Y-62880000D03*
X171830000Y-62880000D03*
G04 #@! TD*
D14*
G04 #@! TO.C,R8*
X166910000Y-79990000D03*
X165410000Y-79990000D03*
G04 #@! TD*
G04 #@! TO.C,R9*
X165410000Y-81580000D03*
X166910000Y-81580000D03*
G04 #@! TD*
M02*
