M48
;DRILL file {KiCad (5.0.0-3-g5ebb6b6)} date Sunday, 16 September 2018 at 20:00:57
;FORMAT={-:-/ absolute / metric / decimal}
FMAT,2
METRIC,TZ
T1C0.400
T2C1.016
%
G90
G05
M71
T1
X162.952Y-75.916
X164.78Y-70.7
X164.84Y-68.31
X165.335Y-74.75
X165.63Y-91.27
X165.65Y-92.11
X165.655Y-84.245
X165.655Y-84.98
X165.655Y-85.71
X165.96Y-61.26
X166.11Y-93.65
X166.13Y-65.52
X166.13Y-92.81
X167.386Y-61.114
X167.79Y-80.02
X167.83Y-77.814
X167.91Y-83.56
X168.058Y-74.757
X168.215Y-84.526
X168.338Y-68.732
X169.179Y-69.274
X169.59Y-60.79
X170.499Y-73.056
X170.508Y-68.507
X170.67Y-80.37
X171.005Y-86.995
X171.005Y-87.694
X171.005Y-88.456
X171.04Y-83.41
X171.573Y-80.845
X171.92Y-61.29
X171.949Y-72.428
X172.088Y-66.582
X172.122Y-78.455
X172.275Y-71.482
X172.408Y-68.664
X172.43Y-76.32
X173.5Y-61.79
X173.538Y-68.783
X174.069Y-80.434
X174.18Y-61.5
X174.742Y-77.815
X175.14Y-84.88
X175.26Y-73.97
X175.45Y-69.47
X175.519Y-80.4
X175.75Y-65.54
X177.03Y-62.23
X177.47Y-83.46
X177.84Y-81.01
X178.01Y-78.42
X180.96Y-87.85
X180.98Y-87.03
X181.07Y-57.02
T2
X163.69Y-61.94
X163.69Y-64.48
X163.69Y-67.02
X163.69Y-69.56
X163.69Y-72.1
X163.69Y-74.64
X163.69Y-77.18
X163.69Y-79.72
X163.69Y-82.26
X163.69Y-84.8
X163.69Y-87.34
X163.69Y-89.88
X163.69Y-92.42
X163.69Y-94.96
X163.69Y-97.5
X178.93Y-61.94
X178.93Y-64.48
X178.93Y-67.02
X178.93Y-69.56
X178.93Y-72.1
X178.93Y-74.64
X178.93Y-77.18
X178.93Y-79.72
X178.93Y-82.26
X178.93Y-84.8
X178.93Y-87.34
X178.93Y-89.88
X178.93Y-92.42
X178.93Y-94.96
X178.93Y-97.5
T0
M30
