G04 #@! TF.GenerationSoftware,KiCad,Pcbnew,(5.0.0-3-g5ebb6b6)*
G04 #@! TF.CreationDate,2018-09-16T20:00:54+02:00*
G04 #@! TF.ProjectId,Nano_Lambda,4E616E6F5F4C616D6264612E6B696361,rev?*
G04 #@! TF.SameCoordinates,Original*
G04 #@! TF.FileFunction,Copper,L1,Top,Signal*
G04 #@! TF.FilePolarity,Positive*
%FSLAX46Y46*%
G04 Gerber Fmt 4.6, Leading zero omitted, Abs format (unit mm)*
G04 Created by KiCad (PCBNEW (5.0.0-3-g5ebb6b6)) date Sunday, 16 September 2018 at 20:00:54*
%MOMM*%
%LPD*%
G01*
G04 APERTURE LIST*
G04 #@! TA.AperFunction,ComponentPad*
%ADD10C,1.727200*%
G04 #@! TD*
G04 #@! TA.AperFunction,ComponentPad*
%ADD11R,1.727200X1.727200*%
G04 #@! TD*
G04 #@! TA.AperFunction,SMDPad,CuDef*
%ADD12R,0.750000X0.800000*%
G04 #@! TD*
G04 #@! TA.AperFunction,SMDPad,CuDef*
%ADD13R,0.800000X0.750000*%
G04 #@! TD*
G04 #@! TA.AperFunction,SMDPad,CuDef*
%ADD14C,0.750000*%
G04 #@! TD*
G04 #@! TA.AperFunction,Conductor*
%ADD15C,0.100000*%
G04 #@! TD*
G04 #@! TA.AperFunction,SMDPad,CuDef*
%ADD16R,0.600000X0.800000*%
G04 #@! TD*
G04 #@! TA.AperFunction,SMDPad,CuDef*
%ADD17R,0.900000X0.800000*%
G04 #@! TD*
G04 #@! TA.AperFunction,SMDPad,CuDef*
%ADD18R,0.900000X0.500000*%
G04 #@! TD*
G04 #@! TA.AperFunction,SMDPad,CuDef*
%ADD19R,0.500000X0.900000*%
G04 #@! TD*
G04 #@! TA.AperFunction,SMDPad,CuDef*
%ADD20C,0.500000*%
G04 #@! TD*
G04 #@! TA.AperFunction,SMDPad,CuDef*
%ADD21R,3.000000X3.000000*%
G04 #@! TD*
G04 #@! TA.AperFunction,SMDPad,CuDef*
%ADD22R,1.500000X3.000000*%
G04 #@! TD*
G04 #@! TA.AperFunction,SMDPad,CuDef*
%ADD23R,0.900000X2.500000*%
G04 #@! TD*
G04 #@! TA.AperFunction,SMDPad,CuDef*
%ADD24R,0.800000X2.700000*%
G04 #@! TD*
G04 #@! TA.AperFunction,SMDPad,CuDef*
%ADD25R,1.000000X1.250000*%
G04 #@! TD*
G04 #@! TA.AperFunction,SMDPad,CuDef*
%ADD26C,0.600000*%
G04 #@! TD*
G04 #@! TA.AperFunction,ViaPad*
%ADD27C,0.800000*%
G04 #@! TD*
G04 #@! TA.AperFunction,Conductor*
%ADD28C,1.000000*%
G04 #@! TD*
G04 #@! TA.AperFunction,Conductor*
%ADD29C,0.250000*%
G04 #@! TD*
G04 #@! TA.AperFunction,Conductor*
%ADD30C,0.500000*%
G04 #@! TD*
G04 #@! TA.AperFunction,Conductor*
%ADD31C,0.254000*%
G04 #@! TD*
G04 APERTURE END LIST*
D10*
G04 #@! TO.P,XA1,VIN*
G04 #@! TO.N,Net-(L1-Pad1)*
X163690000Y-97500000D03*
G04 #@! TO.P,XA1,GND2*
G04 #@! TO.N,GND*
X163690000Y-94960000D03*
G04 #@! TO.P,XA1,RST2*
G04 #@! TO.N,N/C*
X163690000Y-92420000D03*
G04 #@! TO.P,XA1,5V*
G04 #@! TO.N,+5V*
X163690000Y-89880000D03*
G04 #@! TO.P,XA1,A7*
G04 #@! TO.N,N/C*
X163690000Y-87340000D03*
G04 #@! TO.P,XA1,A6*
X163690000Y-84800000D03*
G04 #@! TO.P,XA1,A5*
G04 #@! TO.N,/SCL*
X163690000Y-82260000D03*
G04 #@! TO.P,XA1,A4*
G04 #@! TO.N,/SDA*
X163690000Y-79720000D03*
G04 #@! TO.P,XA1,A3*
G04 #@! TO.N,/V_REF*
X163690000Y-77180000D03*
G04 #@! TO.P,XA1,A2*
G04 #@! TO.N,/BRV*
X163690000Y-74640000D03*
G04 #@! TO.P,XA1,A1*
G04 #@! TO.N,/UA*
X163690000Y-72100000D03*
G04 #@! TO.P,XA1,A0*
G04 #@! TO.N,/UR*
X163690000Y-69560000D03*
G04 #@! TO.P,XA1,AREF*
G04 #@! TO.N,Net-(C11-Pad1)*
X163690000Y-67020000D03*
G04 #@! TO.P,XA1,3V3*
G04 #@! TO.N,N/C*
X163690000Y-64480000D03*
G04 #@! TO.P,XA1,D13*
G04 #@! TO.N,/LS_SCK*
X163690000Y-61940000D03*
G04 #@! TO.P,XA1,D12*
G04 #@! TO.N,/LS_MISO*
X178930000Y-61940000D03*
G04 #@! TO.P,XA1,D11*
G04 #@! TO.N,/LS_MOSI*
X178930000Y-64480000D03*
G04 #@! TO.P,XA1,D10*
G04 #@! TO.N,/LS_SS*
X178930000Y-67020000D03*
G04 #@! TO.P,XA1,D9*
G04 #@! TO.N,/DIAHG*
X178930000Y-69560000D03*
G04 #@! TO.P,XA1,D8*
G04 #@! TO.N,/LED_1*
X178930000Y-72100000D03*
G04 #@! TO.P,XA1,D7*
G04 #@! TO.N,N/C*
X178930000Y-74640000D03*
G04 #@! TO.P,XA1,D6*
G04 #@! TO.N,/WBL*
X178930000Y-77180000D03*
G04 #@! TO.P,XA1,D5*
G04 #@! TO.N,/LED_2*
X178930000Y-79720000D03*
G04 #@! TO.P,XA1,D4*
G04 #@! TO.N,Net-(R22-Pad2)*
X178930000Y-82260000D03*
G04 #@! TO.P,XA1,D3*
G04 #@! TO.N,/PD3*
X178930000Y-84800000D03*
G04 #@! TO.P,XA1,D2*
G04 #@! TO.N,/PD2*
X178930000Y-87340000D03*
G04 #@! TO.P,XA1,GND1*
G04 #@! TO.N,GND*
X178930000Y-89880000D03*
G04 #@! TO.P,XA1,RST1*
G04 #@! TO.N,N/C*
X178930000Y-92420000D03*
G04 #@! TO.P,XA1,D0*
X178930000Y-94960000D03*
D11*
G04 #@! TO.P,XA1,D1*
X178930000Y-97500000D03*
G04 #@! TD*
D12*
G04 #@! TO.P,C1,1*
G04 #@! TO.N,/+12V_NL*
X165560000Y-64000000D03*
G04 #@! TO.P,C1,2*
G04 #@! TO.N,GND*
X165560000Y-62500000D03*
G04 #@! TD*
D13*
G04 #@! TO.P,C2,1*
G04 #@! TO.N,Net-(C2-Pad1)*
X171650000Y-81890000D03*
G04 #@! TO.P,C2,2*
G04 #@! TO.N,GND*
X170150000Y-81890000D03*
G04 #@! TD*
D12*
G04 #@! TO.P,C3,2*
G04 #@! TO.N,GND*
X176890000Y-64770000D03*
G04 #@! TO.P,C3,1*
G04 #@! TO.N,+5V*
X176890000Y-66270000D03*
G04 #@! TD*
G04 #@! TO.P,C4,1*
G04 #@! TO.N,Net-(C4-Pad1)*
X175600000Y-75230000D03*
G04 #@! TO.P,C4,2*
G04 #@! TO.N,/CM*
X175600000Y-76730000D03*
G04 #@! TD*
G04 #@! TO.P,C6,2*
G04 #@! TO.N,GND*
X174190000Y-84860000D03*
G04 #@! TO.P,C6,1*
G04 #@! TO.N,/UN*
X174190000Y-83360000D03*
G04 #@! TD*
D14*
G04 #@! TO.P,C8,2*
G04 #@! TO.N,Net-(C8-Pad2)*
X167359670Y-62780330D03*
D15*
G04 #@! TD*
G04 #@! TO.N,Net-(C8-Pad2)*
G04 #@! TO.C,C8*
G36*
X167377348Y-62232322D02*
X167907678Y-62762652D01*
X167341992Y-63328338D01*
X166811662Y-62798008D01*
X167377348Y-62232322D01*
X167377348Y-62232322D01*
G37*
D14*
G04 #@! TO.P,C8,1*
G04 #@! TO.N,GND*
X168420330Y-61719670D03*
D15*
G04 #@! TD*
G04 #@! TO.N,GND*
G04 #@! TO.C,C8*
G36*
X168438008Y-61171662D02*
X168968338Y-61701992D01*
X168402652Y-62267678D01*
X167872322Y-61737348D01*
X168438008Y-61171662D01*
X168438008Y-61171662D01*
G37*
D12*
G04 #@! TO.P,C10,2*
G04 #@! TO.N,GND*
X177100000Y-76720000D03*
G04 #@! TO.P,C10,1*
G04 #@! TO.N,/UR*
X177100000Y-75220000D03*
G04 #@! TD*
D16*
G04 #@! TO.P,D1,3*
G04 #@! TO.N,/BRV*
X166280000Y-76210000D03*
G04 #@! TO.P,D1,1*
G04 #@! TO.N,GND*
X165630000Y-77810000D03*
G04 #@! TO.P,D1,2*
G04 #@! TO.N,+5V*
X166930000Y-77810000D03*
G04 #@! TD*
D17*
G04 #@! TO.P,IC2,3*
G04 #@! TO.N,N/C*
X167586000Y-81796000D03*
G04 #@! TO.P,IC2,2*
G04 #@! TO.N,GND*
X165586000Y-82746000D03*
G04 #@! TO.P,IC2,1*
G04 #@! TO.N,/V_REF*
X165586000Y-80846000D03*
G04 #@! TD*
D18*
G04 #@! TO.P,R3,1*
G04 #@! TO.N,Net-(R3-Pad1)*
X166400000Y-73420000D03*
G04 #@! TO.P,R3,2*
G04 #@! TO.N,GND*
X166400000Y-74920000D03*
G04 #@! TD*
D19*
G04 #@! TO.P,R4,2*
G04 #@! TO.N,+5V*
X171490000Y-76390000D03*
G04 #@! TO.P,R4,1*
G04 #@! TO.N,Net-(R4-Pad1)*
X169990000Y-76390000D03*
G04 #@! TD*
D18*
G04 #@! TO.P,R5,2*
G04 #@! TO.N,Net-(D3-Pad1)*
X176800000Y-80520000D03*
G04 #@! TO.P,R5,1*
G04 #@! TO.N,GND*
X176800000Y-79020000D03*
G04 #@! TD*
D19*
G04 #@! TO.P,R6,1*
G04 #@! TO.N,/UN*
X174410000Y-81860000D03*
G04 #@! TO.P,R6,2*
G04 #@! TO.N,Net-(C2-Pad1)*
X172910000Y-81860000D03*
G04 #@! TD*
D20*
G04 #@! TO.P,R10,1*
G04 #@! TO.N,Net-(C8-Pad2)*
X169040330Y-63299670D03*
D15*
G04 #@! TD*
G04 #@! TO.N,Net-(C8-Pad2)*
G04 #@! TO.C,R10*
G36*
X168898909Y-62804695D02*
X169535305Y-63441091D01*
X169181751Y-63794645D01*
X168545355Y-63158249D01*
X168898909Y-62804695D01*
X168898909Y-62804695D01*
G37*
D20*
G04 #@! TO.P,R10,2*
G04 #@! TO.N,Net-(R10-Pad2)*
X167979670Y-64360330D03*
D15*
G04 #@! TD*
G04 #@! TO.N,Net-(R10-Pad2)*
G04 #@! TO.C,R10*
G36*
X167838249Y-63865355D02*
X168474645Y-64501751D01*
X168121091Y-64855305D01*
X167484695Y-64218909D01*
X167838249Y-63865355D01*
X167838249Y-63865355D01*
G37*
D20*
G04 #@! TO.P,R11,2*
G04 #@! TO.N,Net-(R11-Pad2)*
X175000000Y-64840000D03*
D15*
G04 #@! TD*
G04 #@! TO.N,Net-(R11-Pad2)*
G04 #@! TO.C,R11*
G36*
X174505025Y-64981421D02*
X175141421Y-64345025D01*
X175494975Y-64698579D01*
X174858579Y-65334975D01*
X174505025Y-64981421D01*
X174505025Y-64981421D01*
G37*
D20*
G04 #@! TO.P,R11,1*
G04 #@! TO.N,Net-(R11-Pad1)*
X173939340Y-63779340D03*
D15*
G04 #@! TD*
G04 #@! TO.N,Net-(R11-Pad1)*
G04 #@! TO.C,R11*
G36*
X173444365Y-63920761D02*
X174080761Y-63284365D01*
X174434315Y-63637919D01*
X173797919Y-64274315D01*
X173444365Y-63920761D01*
X173444365Y-63920761D01*
G37*
D18*
G04 #@! TO.P,R12,1*
G04 #@! TO.N,/IA*
X171030000Y-83440000D03*
G04 #@! TO.P,R12,2*
G04 #@! TO.N,Net-(R11-Pad1)*
X171030000Y-84940000D03*
G04 #@! TD*
G04 #@! TO.P,R13,2*
G04 #@! TO.N,Net-(R11-Pad1)*
X172630000Y-84950000D03*
G04 #@! TO.P,R13,1*
G04 #@! TO.N,/UN*
X172630000Y-83450000D03*
G04 #@! TD*
G04 #@! TO.P,R15,2*
G04 #@! TO.N,/RM*
X174050000Y-75380000D03*
G04 #@! TO.P,R15,1*
G04 #@! TO.N,/CM*
X174050000Y-76880000D03*
G04 #@! TD*
D19*
G04 #@! TO.P,R18,2*
G04 #@! TO.N,+5V*
X166940000Y-79240000D03*
G04 #@! TO.P,R18,1*
G04 #@! TO.N,/V_REF*
X165440000Y-79240000D03*
G04 #@! TD*
G04 #@! TO.P,R22,2*
G04 #@! TO.N,Net-(R22-Pad2)*
X177160000Y-61060000D03*
G04 #@! TO.P,R22,1*
G04 #@! TO.N,/GP3*
X175660000Y-61060000D03*
G04 #@! TD*
G04 #@! TO.P,R23,1*
G04 #@! TO.N,+5V*
X175526000Y-82296000D03*
G04 #@! TO.P,R23,2*
G04 #@! TO.N,Net-(R22-Pad2)*
X177026000Y-82296000D03*
G04 #@! TD*
D21*
G04 #@! TO.P,J3,1*
G04 #@! TO.N,/+12V_NL*
X171450000Y-100965000D03*
G04 #@! TD*
G04 #@! TO.P,J1,1*
G04 #@! TO.N,/+12V_NL*
X167386000Y-58420000D03*
G04 #@! TD*
G04 #@! TO.P,J5,1*
G04 #@! TO.N,/UN*
X175514000Y-100965000D03*
G04 #@! TD*
G04 #@! TO.P,J8,1*
G04 #@! TO.N,/VM*
X167132000Y-99720400D03*
G04 #@! TD*
D22*
G04 #@! TO.P,J9,1*
G04 #@! TO.N,/PD2*
X176530000Y-58420000D03*
G04 #@! TD*
G04 #@! TO.P,J11,1*
G04 #@! TO.N,/GP3*
X173736000Y-58420000D03*
G04 #@! TD*
G04 #@! TO.P,J14,1*
G04 #@! TO.N,/Out1*
X170815000Y-58420000D03*
G04 #@! TD*
D23*
G04 #@! TO.P,RV1,2*
G04 #@! TO.N,GND*
X168550000Y-92405200D03*
G04 #@! TO.P,RV1,1*
G04 #@! TO.N,/+12V_NL*
X171450000Y-92405200D03*
G04 #@! TD*
D24*
G04 #@! TO.P,L1,2*
G04 #@! TO.N,/+12V_NL*
X171500000Y-95820000D03*
G04 #@! TO.P,L1,1*
G04 #@! TO.N,Net-(L1-Pad1)*
X169300000Y-95820000D03*
G04 #@! TD*
D25*
G04 #@! TO.P,C15,1*
G04 #@! TO.N,GND*
X175110000Y-95060000D03*
G04 #@! TO.P,C15,2*
G04 #@! TO.N,/+12V_NL*
X173110000Y-95060000D03*
G04 #@! TD*
G04 #@! TO.P,C16,2*
G04 #@! TO.N,/+12V_NL*
X173110000Y-91060000D03*
G04 #@! TO.P,C16,1*
G04 #@! TO.N,GND*
X175110000Y-91060000D03*
G04 #@! TD*
G04 #@! TO.P,C17,1*
G04 #@! TO.N,GND*
X175110000Y-89060000D03*
G04 #@! TO.P,C17,2*
G04 #@! TO.N,/+12V_NL*
X173110000Y-89060000D03*
G04 #@! TD*
G04 #@! TO.P,C18,2*
G04 #@! TO.N,/+12V_NL*
X173110000Y-87060000D03*
G04 #@! TO.P,C18,1*
G04 #@! TO.N,GND*
X175110000Y-87060000D03*
G04 #@! TD*
G04 #@! TO.P,C19,1*
G04 #@! TO.N,GND*
X175110000Y-97060000D03*
G04 #@! TO.P,C19,2*
G04 #@! TO.N,/+12V_NL*
X173110000Y-97060000D03*
G04 #@! TD*
G04 #@! TO.P,C20,2*
G04 #@! TO.N,/+12V_NL*
X173110000Y-93060000D03*
G04 #@! TO.P,C20,1*
G04 #@! TO.N,GND*
X175110000Y-93060000D03*
G04 #@! TD*
D26*
G04 #@! TO.P,U1,32*
G04 #@! TO.N,/IP*
X166234897Y-68454695D03*
D15*
G04 #@! TD*
G04 #@! TO.N,/IP*
G04 #@! TO.C,U1*
G36*
X166871293Y-68666827D02*
X166447029Y-69091091D01*
X165598501Y-68242563D01*
X166022765Y-67818299D01*
X166871293Y-68666827D01*
X166871293Y-68666827D01*
G37*
D26*
G04 #@! TO.P,U1,31*
G04 #@! TO.N,/UN*
X166800583Y-67889010D03*
D15*
G04 #@! TD*
G04 #@! TO.N,/UN*
G04 #@! TO.C,U1*
G36*
X167436979Y-68101142D02*
X167012715Y-68525406D01*
X166164187Y-67676878D01*
X166588451Y-67252614D01*
X167436979Y-68101142D01*
X167436979Y-68101142D01*
G37*
D26*
G04 #@! TO.P,U1,30*
G04 #@! TO.N,/+12V_NL*
X167366268Y-67323324D03*
D15*
G04 #@! TD*
G04 #@! TO.N,/+12V_NL*
G04 #@! TO.C,U1*
G36*
X168002664Y-67535456D02*
X167578400Y-67959720D01*
X166729872Y-67111192D01*
X167154136Y-66686928D01*
X168002664Y-67535456D01*
X168002664Y-67535456D01*
G37*
D26*
G04 #@! TO.P,U1,29*
G04 #@! TO.N,GND*
X167931953Y-66757639D03*
D15*
G04 #@! TD*
G04 #@! TO.N,GND*
G04 #@! TO.C,U1*
G36*
X168568349Y-66969771D02*
X168144085Y-67394035D01*
X167295557Y-66545507D01*
X167719821Y-66121243D01*
X168568349Y-66969771D01*
X168568349Y-66969771D01*
G37*
D26*
G04 #@! TO.P,U1,28*
G04 #@! TO.N,GND*
X168497639Y-66191953D03*
D15*
G04 #@! TD*
G04 #@! TO.N,GND*
G04 #@! TO.C,U1*
G36*
X169134035Y-66404085D02*
X168709771Y-66828349D01*
X167861243Y-65979821D01*
X168285507Y-65555557D01*
X169134035Y-66404085D01*
X169134035Y-66404085D01*
G37*
D26*
G04 #@! TO.P,U1,27*
G04 #@! TO.N,Net-(R10-Pad2)*
X169063324Y-65626268D03*
D15*
G04 #@! TD*
G04 #@! TO.N,Net-(R10-Pad2)*
G04 #@! TO.C,U1*
G36*
X169699720Y-65838400D02*
X169275456Y-66262664D01*
X168426928Y-65414136D01*
X168851192Y-64989872D01*
X169699720Y-65838400D01*
X169699720Y-65838400D01*
G37*
D26*
G04 #@! TO.P,U1,26*
G04 #@! TO.N,Net-(C8-Pad2)*
X169629010Y-65060583D03*
D15*
G04 #@! TD*
G04 #@! TO.N,Net-(C8-Pad2)*
G04 #@! TO.C,U1*
G36*
X170265406Y-65272715D02*
X169841142Y-65696979D01*
X168992614Y-64848451D01*
X169416878Y-64424187D01*
X170265406Y-65272715D01*
X170265406Y-65272715D01*
G37*
D26*
G04 #@! TO.P,U1,25*
G04 #@! TO.N,N/C*
X170194695Y-64494897D03*
D15*
G04 #@! TD*
G04 #@! TO.N,N/C*
G04 #@! TO.C,U1*
G36*
X170831091Y-64707029D02*
X170406827Y-65131293D01*
X169558299Y-64282765D01*
X169982563Y-63858501D01*
X170831091Y-64707029D01*
X170831091Y-64707029D01*
G37*
D26*
G04 #@! TO.P,U1,24*
G04 #@! TO.N,N/C*
X172245305Y-64494897D03*
D15*
G04 #@! TD*
G04 #@! TO.N,N/C*
G04 #@! TO.C,U1*
G36*
X172033173Y-65131293D02*
X171608909Y-64707029D01*
X172457437Y-63858501D01*
X172881701Y-64282765D01*
X172033173Y-65131293D01*
X172033173Y-65131293D01*
G37*
D26*
G04 #@! TO.P,U1,23*
G04 #@! TO.N,/UA*
X172810990Y-65060583D03*
D15*
G04 #@! TD*
G04 #@! TO.N,/UA*
G04 #@! TO.C,U1*
G36*
X172598858Y-65696979D02*
X172174594Y-65272715D01*
X173023122Y-64424187D01*
X173447386Y-64848451D01*
X172598858Y-65696979D01*
X172598858Y-65696979D01*
G37*
D26*
G04 #@! TO.P,U1,22*
G04 #@! TO.N,Net-(R11-Pad1)*
X173376676Y-65626268D03*
D15*
G04 #@! TD*
G04 #@! TO.N,Net-(R11-Pad1)*
G04 #@! TO.C,U1*
G36*
X173164544Y-66262664D02*
X172740280Y-65838400D01*
X173588808Y-64989872D01*
X174013072Y-65414136D01*
X173164544Y-66262664D01*
X173164544Y-66262664D01*
G37*
D26*
G04 #@! TO.P,U1,21*
G04 #@! TO.N,Net-(R11-Pad2)*
X173942361Y-66191953D03*
D15*
G04 #@! TD*
G04 #@! TO.N,Net-(R11-Pad2)*
G04 #@! TO.C,U1*
G36*
X173730229Y-66828349D02*
X173305965Y-66404085D01*
X174154493Y-65555557D01*
X174578757Y-65979821D01*
X173730229Y-66828349D01*
X173730229Y-66828349D01*
G37*
D26*
G04 #@! TO.P,U1,20*
G04 #@! TO.N,/VM*
X174508047Y-66757639D03*
D15*
G04 #@! TD*
G04 #@! TO.N,/VM*
G04 #@! TO.C,U1*
G36*
X174295915Y-67394035D02*
X173871651Y-66969771D01*
X174720179Y-66121243D01*
X175144443Y-66545507D01*
X174295915Y-67394035D01*
X174295915Y-67394035D01*
G37*
D26*
G04 #@! TO.P,U1,19*
G04 #@! TO.N,+5V*
X175073732Y-67323324D03*
D15*
G04 #@! TD*
G04 #@! TO.N,+5V*
G04 #@! TO.C,U1*
G36*
X174861600Y-67959720D02*
X174437336Y-67535456D01*
X175285864Y-66686928D01*
X175710128Y-67111192D01*
X174861600Y-67959720D01*
X174861600Y-67959720D01*
G37*
D26*
G04 #@! TO.P,U1,18*
G04 #@! TO.N,+5V*
X175639417Y-67889010D03*
D15*
G04 #@! TD*
G04 #@! TO.N,+5V*
G04 #@! TO.C,U1*
G36*
X175427285Y-68525406D02*
X175003021Y-68101142D01*
X175851549Y-67252614D01*
X176275813Y-67676878D01*
X175427285Y-68525406D01*
X175427285Y-68525406D01*
G37*
D26*
G04 #@! TO.P,U1,17*
G04 #@! TO.N,/LS_SS*
X176205103Y-68454695D03*
D15*
G04 #@! TD*
G04 #@! TO.N,/LS_SS*
G04 #@! TO.C,U1*
G36*
X175992971Y-69091091D02*
X175568707Y-68666827D01*
X176417235Y-67818299D01*
X176841499Y-68242563D01*
X175992971Y-69091091D01*
X175992971Y-69091091D01*
G37*
D26*
G04 #@! TO.P,U1,16*
G04 #@! TO.N,N/C*
X176205103Y-70505305D03*
D15*
G04 #@! TD*
G04 #@! TO.N,N/C*
G04 #@! TO.C,U1*
G36*
X176841499Y-70717437D02*
X176417235Y-71141701D01*
X175568707Y-70293173D01*
X175992971Y-69868909D01*
X176841499Y-70717437D01*
X176841499Y-70717437D01*
G37*
D26*
G04 #@! TO.P,U1,15*
G04 #@! TO.N,/LS_MOSI*
X175639417Y-71070990D03*
D15*
G04 #@! TD*
G04 #@! TO.N,/LS_MOSI*
G04 #@! TO.C,U1*
G36*
X176275813Y-71283122D02*
X175851549Y-71707386D01*
X175003021Y-70858858D01*
X175427285Y-70434594D01*
X176275813Y-71283122D01*
X176275813Y-71283122D01*
G37*
D26*
G04 #@! TO.P,U1,14*
G04 #@! TO.N,/LS_MISO*
X175073732Y-71636676D03*
D15*
G04 #@! TD*
G04 #@! TO.N,/LS_MISO*
G04 #@! TO.C,U1*
G36*
X175710128Y-71848808D02*
X175285864Y-72273072D01*
X174437336Y-71424544D01*
X174861600Y-71000280D01*
X175710128Y-71848808D01*
X175710128Y-71848808D01*
G37*
D26*
G04 #@! TO.P,U1,13*
G04 #@! TO.N,/LS_SCK*
X174508047Y-72202361D03*
D15*
G04 #@! TD*
G04 #@! TO.N,/LS_SCK*
G04 #@! TO.C,U1*
G36*
X175144443Y-72414493D02*
X174720179Y-72838757D01*
X173871651Y-71990229D01*
X174295915Y-71565965D01*
X175144443Y-72414493D01*
X175144443Y-72414493D01*
G37*
D26*
G04 #@! TO.P,U1,12*
G04 #@! TO.N,/UR*
X173942361Y-72768047D03*
D15*
G04 #@! TD*
G04 #@! TO.N,/UR*
G04 #@! TO.C,U1*
G36*
X174578757Y-72980179D02*
X174154493Y-73404443D01*
X173305965Y-72555915D01*
X173730229Y-72131651D01*
X174578757Y-72980179D01*
X174578757Y-72980179D01*
G37*
D26*
G04 #@! TO.P,U1,11*
G04 #@! TO.N,Net-(C4-Pad1)*
X173376676Y-73333732D03*
D15*
G04 #@! TD*
G04 #@! TO.N,Net-(C4-Pad1)*
G04 #@! TO.C,U1*
G36*
X174013072Y-73545864D02*
X173588808Y-73970128D01*
X172740280Y-73121600D01*
X173164544Y-72697336D01*
X174013072Y-73545864D01*
X174013072Y-73545864D01*
G37*
D26*
G04 #@! TO.P,U1,10*
G04 #@! TO.N,/RM*
X172810990Y-73899417D03*
D15*
G04 #@! TD*
G04 #@! TO.N,/RM*
G04 #@! TO.C,U1*
G36*
X173447386Y-74111549D02*
X173023122Y-74535813D01*
X172174594Y-73687285D01*
X172598858Y-73263021D01*
X173447386Y-74111549D01*
X173447386Y-74111549D01*
G37*
D26*
G04 #@! TO.P,U1,9*
G04 #@! TO.N,N/C*
X172245305Y-74465103D03*
D15*
G04 #@! TD*
G04 #@! TO.N,N/C*
G04 #@! TO.C,U1*
G36*
X172881701Y-74677235D02*
X172457437Y-75101499D01*
X171608909Y-74252971D01*
X172033173Y-73828707D01*
X172881701Y-74677235D01*
X172881701Y-74677235D01*
G37*
D26*
G04 #@! TO.P,U1,8*
G04 #@! TO.N,/RS*
X170194695Y-74465103D03*
D15*
G04 #@! TD*
G04 #@! TO.N,/RS*
G04 #@! TO.C,U1*
G36*
X169982563Y-75101499D02*
X169558299Y-74677235D01*
X170406827Y-73828707D01*
X170831091Y-74252971D01*
X169982563Y-75101499D01*
X169982563Y-75101499D01*
G37*
D26*
G04 #@! TO.P,U1,7*
G04 #@! TO.N,Net-(R4-Pad1)*
X169629010Y-73899417D03*
D15*
G04 #@! TD*
G04 #@! TO.N,Net-(R4-Pad1)*
G04 #@! TO.C,U1*
G36*
X169416878Y-74535813D02*
X168992614Y-74111549D01*
X169841142Y-73263021D01*
X170265406Y-73687285D01*
X169416878Y-74535813D01*
X169416878Y-74535813D01*
G37*
D26*
G04 #@! TO.P,U1,6*
G04 #@! TO.N,/DIAHD*
X169063324Y-73333732D03*
D15*
G04 #@! TD*
G04 #@! TO.N,/DIAHD*
G04 #@! TO.C,U1*
G36*
X168851192Y-73970128D02*
X168426928Y-73545864D01*
X169275456Y-72697336D01*
X169699720Y-73121600D01*
X168851192Y-73970128D01*
X168851192Y-73970128D01*
G37*
D26*
G04 #@! TO.P,U1,5*
G04 #@! TO.N,+5V*
X168497639Y-72768047D03*
D15*
G04 #@! TD*
G04 #@! TO.N,+5V*
G04 #@! TO.C,U1*
G36*
X168285507Y-73404443D02*
X167861243Y-72980179D01*
X168709771Y-72131651D01*
X169134035Y-72555915D01*
X168285507Y-73404443D01*
X168285507Y-73404443D01*
G37*
D26*
G04 #@! TO.P,U1,4*
G04 #@! TO.N,/DIAHG*
X167931953Y-72202361D03*
D15*
G04 #@! TD*
G04 #@! TO.N,/DIAHG*
G04 #@! TO.C,U1*
G36*
X167719821Y-72838757D02*
X167295557Y-72414493D01*
X168144085Y-71565965D01*
X168568349Y-71990229D01*
X167719821Y-72838757D01*
X167719821Y-72838757D01*
G37*
D26*
G04 #@! TO.P,U1,3*
G04 #@! TO.N,Net-(R3-Pad1)*
X167366268Y-71636676D03*
D15*
G04 #@! TD*
G04 #@! TO.N,Net-(R3-Pad1)*
G04 #@! TO.C,U1*
G36*
X167154136Y-72273072D02*
X166729872Y-71848808D01*
X167578400Y-71000280D01*
X168002664Y-71424544D01*
X167154136Y-72273072D01*
X167154136Y-72273072D01*
G37*
D26*
G04 #@! TO.P,U1,2*
G04 #@! TO.N,/IA*
X166800583Y-71070990D03*
D15*
G04 #@! TD*
G04 #@! TO.N,/IA*
G04 #@! TO.C,U1*
G36*
X166588451Y-71707386D02*
X166164187Y-71283122D01*
X167012715Y-70434594D01*
X167436979Y-70858858D01*
X166588451Y-71707386D01*
X166588451Y-71707386D01*
G37*
D26*
G04 #@! TO.P,U1,1*
G04 #@! TO.N,N/C*
X166234897Y-70505305D03*
D15*
G04 #@! TD*
G04 #@! TO.N,N/C*
G04 #@! TO.C,U1*
G36*
X166022765Y-71141701D02*
X165598501Y-70717437D01*
X166447029Y-69868909D01*
X166871293Y-70293173D01*
X166022765Y-71141701D01*
X166022765Y-71141701D01*
G37*
D27*
G04 #@! TO.N,/+12V_NL*
X171005500Y-87693500D03*
X171005500Y-86995000D03*
X171005500Y-88455500D03*
X162951900Y-75916130D03*
G04 #@! TO.N,GND*
X166130000Y-65520000D03*
X173500000Y-61790000D03*
X178010000Y-78420000D03*
X171920000Y-61290000D03*
X175260000Y-73970000D03*
X165960000Y-61260000D03*
X167386000Y-61114000D03*
X174180000Y-61500000D03*
X169590000Y-60790000D03*
X165655441Y-84245010D03*
X165655441Y-84980000D03*
X165655441Y-85710000D03*
X166110000Y-93650000D03*
X166130000Y-92810000D03*
X180960000Y-87850000D03*
X167830001Y-77814300D03*
X175140000Y-84880000D03*
X171573077Y-80845367D03*
X175519327Y-80400000D03*
X165334941Y-74749621D03*
X181070000Y-57020000D03*
X165650000Y-92110000D03*
X165630000Y-91270000D03*
X177470000Y-83460000D03*
X180980000Y-87030000D03*
G04 #@! TO.N,+5V*
X172087660Y-66582340D03*
X175450000Y-69470000D03*
X174742164Y-77814990D03*
X168058269Y-74756607D03*
X172430000Y-76320000D03*
X170669840Y-80369840D03*
X167790000Y-80020000D03*
X175750000Y-65540000D03*
X172121896Y-78455021D03*
G04 #@! TO.N,/UA*
X169178824Y-69273803D03*
G04 #@! TO.N,/UR*
X168338198Y-68732164D03*
G04 #@! TO.N,/IA*
X164780000Y-70700000D03*
X171040000Y-83410000D03*
G04 #@! TO.N,/IP*
X164840000Y-68310000D03*
X172274760Y-71482231D03*
G04 #@! TO.N,/RS*
X170499158Y-73056003D03*
G04 #@! TO.N,Net-(R11-Pad1)*
X172408430Y-68664022D03*
X167910000Y-83560000D03*
G04 #@! TO.N,/DIAHD*
X174069315Y-80433995D03*
G04 #@! TO.N,/DIAHG*
X171949184Y-72427748D03*
G04 #@! TO.N,/LS_SCK*
X170508408Y-68506817D03*
G04 #@! TO.N,/VM*
X168214979Y-84526104D03*
X173538134Y-68783441D03*
G04 #@! TO.N,Net-(D3-Pad1)*
X177840000Y-81010000D03*
G04 #@! TO.N,/Out1*
X177030000Y-62230000D03*
G04 #@! TD*
D28*
G04 #@! TO.N,/+12V_NL*
X167386000Y-58420000D02*
X166370000Y-58420000D01*
X166370000Y-58420000D02*
X165260000Y-57310000D01*
X165260000Y-57310000D02*
X162160000Y-57310000D01*
X162160000Y-57310000D02*
X161010000Y-58460000D01*
X171450000Y-95870000D02*
X171500000Y-95820000D01*
X171500000Y-92455200D02*
X171450000Y-92405200D01*
X171500000Y-95820000D02*
X171500000Y-92455200D01*
X171450000Y-100965000D02*
X171450000Y-95870000D01*
D29*
X171500000Y-97050000D02*
X171500000Y-95820000D01*
X171510000Y-97060000D02*
X171500000Y-97050000D01*
X173110000Y-97060000D02*
X171510000Y-97060000D01*
X171500000Y-95060000D02*
X171500000Y-95820000D01*
X173110000Y-95060000D02*
X171500000Y-95060000D01*
X171450000Y-93060000D02*
X171450000Y-92405200D01*
X173110000Y-93060000D02*
X171450000Y-93060000D01*
X173110000Y-91060000D02*
X173110000Y-89060000D01*
X173110000Y-89060000D02*
X173110000Y-87060000D01*
X171070500Y-87060000D02*
X171005500Y-86995000D01*
X173110000Y-87060000D02*
X171070500Y-87060000D01*
D28*
X161010000Y-63350000D02*
X161010000Y-73320000D01*
X161010000Y-58460000D02*
X161010000Y-63350000D01*
D29*
X171450000Y-90880000D02*
X171450000Y-92405200D01*
X172930000Y-90880000D02*
X171450000Y-90880000D01*
X173110000Y-91060000D02*
X172930000Y-90880000D01*
X161160000Y-63200000D02*
X161010000Y-63350000D01*
X165630000Y-64000000D02*
X165295000Y-64000000D01*
X165640000Y-64010000D02*
X165630000Y-64000000D01*
X165370000Y-64280000D02*
X165640000Y-64010000D01*
X165370000Y-66030000D02*
X165370000Y-64280000D01*
X166168350Y-66828350D02*
X165370000Y-66030000D01*
X166871294Y-66828350D02*
X166168350Y-66828350D01*
X164495000Y-63200000D02*
X161160000Y-63200000D01*
X165295000Y-64000000D02*
X164495000Y-63200000D01*
X167366268Y-67323324D02*
X166871294Y-66828350D01*
D28*
X170405000Y-102010000D02*
X171450000Y-100965000D01*
X162220000Y-102010000D02*
X170405000Y-102010000D01*
X161010000Y-100800000D02*
X162220000Y-102010000D01*
X161010000Y-75910000D02*
X161010000Y-100800000D01*
X161010000Y-73320000D02*
X161010000Y-75910000D01*
D29*
X161010000Y-75910000D02*
X161016130Y-75916130D01*
X161016130Y-75916130D02*
X162386215Y-75916130D01*
X162386215Y-75916130D02*
X162951900Y-75916130D01*
G04 #@! TO.N,GND*
X166180000Y-62340000D02*
X166170000Y-62330000D01*
X166694314Y-65520000D02*
X166130000Y-65520000D01*
X167931953Y-66757639D02*
X166694314Y-65520000D01*
X175110000Y-97060000D02*
X175110000Y-95060000D01*
X175110000Y-95060000D02*
X175110000Y-93060000D01*
X175110000Y-91060000D02*
X175110000Y-93060000D01*
X175110000Y-91060000D02*
X175110000Y-89060000D01*
X175110000Y-89060000D02*
X175110000Y-87060000D01*
X176800000Y-77020000D02*
X177100000Y-76720000D01*
X176800000Y-79020000D02*
X176800000Y-77020000D01*
X171920000Y-62120000D02*
X172000000Y-62200000D01*
X171920000Y-61290000D02*
X171920000Y-62120000D01*
X167240000Y-61260000D02*
X167386000Y-61114000D01*
X165960000Y-61260000D02*
X167240000Y-61260000D01*
X167951685Y-61114000D02*
X167386000Y-61114000D01*
X170889000Y-61114000D02*
X167951685Y-61114000D01*
X171975000Y-62200000D02*
X170889000Y-61114000D01*
X172000000Y-62200000D02*
X171975000Y-62200000D01*
X172270000Y-61930000D02*
X172000000Y-62200000D01*
X173360000Y-61930000D02*
X172270000Y-61930000D01*
X173500000Y-61790000D02*
X173360000Y-61930000D01*
X173890000Y-61790000D02*
X174180000Y-61500000D01*
X173500000Y-61790000D02*
X173890000Y-61790000D01*
X170155685Y-60790000D02*
X169590000Y-60790000D01*
X167386000Y-61114000D02*
X169266000Y-61114000D01*
X171975000Y-62200000D02*
X170565000Y-60790000D01*
X169266000Y-61114000D02*
X169590000Y-60790000D01*
X170565000Y-60790000D02*
X170155685Y-60790000D01*
X167991670Y-61719670D02*
X167386000Y-61114000D01*
X168420330Y-61719670D02*
X167991670Y-61719670D01*
X173899999Y-62189999D02*
X173500000Y-61790000D01*
X176890000Y-63744998D02*
X176045002Y-62900000D01*
X174610000Y-62900000D02*
X173899999Y-62189999D01*
X176045002Y-62900000D02*
X174610000Y-62900000D01*
X176890000Y-64770000D02*
X176890000Y-63744998D01*
X176800000Y-78250000D02*
X176800000Y-79020000D01*
X176930000Y-78120000D02*
X176800000Y-78250000D01*
X177710000Y-78120000D02*
X176930000Y-78120000D01*
X178010000Y-78420000D02*
X177710000Y-78120000D01*
X165586000Y-82746000D02*
X165586000Y-84175569D01*
X165586000Y-84175569D02*
X165655441Y-84245010D01*
X171110000Y-60570000D02*
X172000000Y-61460000D01*
X167270000Y-60570000D02*
X171110000Y-60570000D01*
X166569999Y-61270001D02*
X167270000Y-60570000D01*
X172000000Y-61460000D02*
X172000000Y-62200000D01*
X166569999Y-61825001D02*
X166569999Y-61270001D01*
X165920000Y-62500000D02*
X165920000Y-62475000D01*
X165960000Y-61260000D02*
X165620000Y-61600000D01*
X165620000Y-62200000D02*
X165920000Y-62500000D01*
X165620000Y-61600000D02*
X165620000Y-62200000D01*
X165655441Y-84245010D02*
X165655441Y-84980000D01*
X165655441Y-84980000D02*
X165655441Y-85710000D01*
X166110000Y-92830000D02*
X166130000Y-92810000D01*
X166110000Y-93650000D02*
X166110000Y-92830000D01*
X168550000Y-93990000D02*
X168550000Y-92405200D01*
X167580000Y-94960000D02*
X168550000Y-93990000D01*
X163690000Y-94960000D02*
X167580000Y-94960000D01*
X175560000Y-89060000D02*
X175110000Y-89060000D01*
X175570000Y-89070000D02*
X175560000Y-89060000D01*
X176400000Y-89070000D02*
X175570000Y-89070000D01*
X177210000Y-89880000D02*
X176400000Y-89070000D01*
X178930000Y-89880000D02*
X177210000Y-89880000D01*
X167429989Y-75949989D02*
X167429989Y-76834292D01*
X166400000Y-74920000D02*
X167429989Y-75949989D01*
X167244281Y-77020000D02*
X167429989Y-76834292D01*
X166320000Y-77020000D02*
X167244281Y-77020000D01*
X165630000Y-77710000D02*
X166320000Y-77020000D01*
X165630000Y-77810000D02*
X165630000Y-77710000D01*
X167429989Y-77050602D02*
X167830001Y-77450614D01*
X167429989Y-76834292D02*
X167429989Y-77050602D01*
X167830001Y-77450614D02*
X167830001Y-77814300D01*
X175110000Y-87060000D02*
X175110000Y-84910000D01*
X175110000Y-84910000D02*
X175140000Y-84880000D01*
X175120000Y-84860000D02*
X175140000Y-84880000D01*
X174190000Y-84860000D02*
X175120000Y-84860000D01*
X171443005Y-80589999D02*
X171443005Y-80728690D01*
X171443005Y-80728690D02*
X171559682Y-80845367D01*
X171559682Y-80845367D02*
X171573077Y-80845367D01*
X171060000Y-79630000D02*
X169570000Y-79630000D01*
X171450000Y-80020000D02*
X171060000Y-79630000D01*
X171450000Y-80583004D02*
X171450000Y-80020000D01*
X169570000Y-79630000D02*
X167700000Y-77760000D01*
X171443005Y-80589999D02*
X171450000Y-80583004D01*
X171219633Y-80845367D02*
X171573077Y-80845367D01*
X170175000Y-81890000D02*
X171219633Y-80845367D01*
X170150000Y-81890000D02*
X170175000Y-81890000D01*
X176340000Y-74609998D02*
X175700002Y-73970000D01*
X176340000Y-75935000D02*
X176340000Y-74609998D01*
X175700002Y-73970000D02*
X175260000Y-73970000D01*
X177100000Y-76695000D02*
X176340000Y-75935000D01*
X177100000Y-76720000D02*
X177100000Y-76695000D01*
X166400000Y-74920000D02*
X165505320Y-74920000D01*
X165505320Y-74920000D02*
X165334941Y-74749621D01*
X166160540Y-74749621D02*
X165900626Y-74749621D01*
X166930000Y-75519081D02*
X166160540Y-74749621D01*
X165900626Y-74749621D02*
X165334941Y-74749621D01*
X166130000Y-64954315D02*
X166560000Y-64524315D01*
X165560000Y-62525000D02*
X165560000Y-62500000D01*
X166560000Y-64524315D02*
X166560000Y-63525000D01*
X166130000Y-65520000D02*
X166130000Y-64954315D01*
X175519327Y-79450673D02*
X175519327Y-80400000D01*
X175950000Y-79020000D02*
X175519327Y-79450673D01*
X176800000Y-79020000D02*
X175950000Y-79020000D01*
X165650000Y-91290000D02*
X165630000Y-91270000D01*
X165650000Y-92110000D02*
X165650000Y-91290000D01*
X180960000Y-87050000D02*
X180980000Y-87030000D01*
X180960000Y-87850000D02*
X180960000Y-87050000D01*
X168497639Y-66191953D02*
X167815686Y-65510000D01*
X167805686Y-65520000D02*
X166130000Y-65520000D01*
X167815686Y-65510000D02*
X167805686Y-65520000D01*
X166881001Y-61513999D02*
X166500000Y-61895000D01*
X166986001Y-61513999D02*
X166881001Y-61513999D01*
X167386000Y-61114000D02*
X166986001Y-61513999D01*
X166500000Y-61895000D02*
X166569999Y-61825001D01*
X165920000Y-62475000D02*
X166500000Y-61895000D01*
X166560000Y-63525000D02*
X166315000Y-63280000D01*
X166315000Y-63280000D02*
X165560000Y-62525000D01*
X166390000Y-63205000D02*
X166390000Y-62005000D01*
X166390000Y-62005000D02*
X166500000Y-61895000D01*
X166315000Y-63280000D02*
X166390000Y-63205000D01*
G04 #@! TO.N,Net-(C2-Pad1)*
X172880000Y-81890000D02*
X172910000Y-81860000D01*
X171650000Y-81890000D02*
X172880000Y-81890000D01*
G04 #@! TO.N,+5V*
X176890000Y-66638427D02*
X175639417Y-67889010D01*
X176890000Y-66270000D02*
X176890000Y-66638427D01*
X175073732Y-67323325D02*
X175639417Y-67889010D01*
X175073732Y-67323324D02*
X175073732Y-67323325D01*
D30*
X166940000Y-79240000D02*
X167980000Y-79240000D01*
X166940000Y-80190000D02*
X166940000Y-79240000D01*
X166590000Y-80540000D02*
X166940000Y-80190000D01*
X166590000Y-83140000D02*
X166590000Y-80540000D01*
D29*
X175639417Y-67889010D02*
X175144443Y-68383984D01*
X175144443Y-68383984D02*
X175144443Y-69164443D01*
X175144443Y-69164443D02*
X175450000Y-69470000D01*
D30*
X166590000Y-83978004D02*
X166590000Y-83140000D01*
X163690000Y-89880000D02*
X166590000Y-86980000D01*
X166590000Y-86980000D02*
X166590000Y-83978004D01*
D29*
X166940000Y-77820000D02*
X166930000Y-77810000D01*
X166940000Y-79240000D02*
X166940000Y-77820000D01*
X168002665Y-74701003D02*
X168058269Y-74756607D01*
X168002665Y-73263021D02*
X168002665Y-74701003D01*
X168497639Y-72768047D02*
X168002665Y-73263021D01*
X172370000Y-76380000D02*
X172430000Y-76320000D01*
X171560000Y-76320000D02*
X171490000Y-76390000D01*
X172430000Y-76320000D02*
X171560000Y-76320000D01*
X174742164Y-77814990D02*
X173821400Y-77814990D01*
X172829999Y-76823589D02*
X172829999Y-76719999D01*
X173821400Y-77814990D02*
X172829999Y-76823589D01*
X172829999Y-76719999D02*
X172430000Y-76320000D01*
X166943819Y-82786181D02*
X166590000Y-83140000D01*
X175526000Y-83384002D02*
X174785000Y-84125002D01*
X174785000Y-84125002D02*
X171388002Y-84125002D01*
X175526000Y-82296000D02*
X175526000Y-83384002D01*
X171388002Y-84125002D02*
X171378002Y-84135002D01*
X171378002Y-84135002D02*
X170232000Y-84135002D01*
X170232000Y-84135002D02*
X168883179Y-82786181D01*
X168883179Y-82786181D02*
X166943819Y-82786181D01*
D30*
X169109840Y-80369840D02*
X170104155Y-80369840D01*
X170104155Y-80369840D02*
X170669840Y-80369840D01*
X167980000Y-79240000D02*
X169109840Y-80369840D01*
D29*
X167980000Y-79240000D02*
X167790000Y-79430000D01*
X167390001Y-79620001D02*
X167790000Y-80020000D01*
X166910001Y-79295179D02*
X167065179Y-79295179D01*
X167790000Y-79430000D02*
X167790000Y-79454315D01*
X167790000Y-79454315D02*
X167790000Y-80020000D01*
X167065179Y-79295179D02*
X167390001Y-79620001D01*
X175639417Y-67889010D02*
X174018416Y-69510011D01*
X173092906Y-69413676D02*
X173068254Y-69389024D01*
X171672661Y-66997339D02*
X171687661Y-66982339D01*
X172060428Y-69389024D02*
X171672661Y-69001257D01*
X173179743Y-69413676D02*
X173092906Y-69413676D01*
X173276078Y-69510011D02*
X173179743Y-69413676D01*
X171672661Y-69001257D02*
X171672661Y-66997339D01*
X174018416Y-69510011D02*
X173276078Y-69510011D01*
X173068254Y-69389024D02*
X172060428Y-69389024D01*
X171687661Y-66982339D02*
X172087660Y-66582340D01*
X175914315Y-66270000D02*
X176890000Y-66270000D01*
X175750000Y-65540000D02*
X175750000Y-66105685D01*
X175750000Y-66105685D02*
X175914315Y-66270000D01*
X172106917Y-78470000D02*
X172121896Y-78455021D01*
X168058269Y-74756607D02*
X168058269Y-75231858D01*
X168058269Y-75231858D02*
X168490009Y-75663598D01*
X170170000Y-78470000D02*
X172106917Y-78470000D01*
X168490009Y-76790009D02*
X170170000Y-78470000D01*
X168490009Y-75663598D02*
X168490009Y-76790009D01*
G04 #@! TO.N,Net-(C4-Pad1)*
X175600000Y-75230000D02*
X175272944Y-75230000D01*
X175272944Y-75230000D02*
X173871650Y-73828706D01*
X173871650Y-73828706D02*
X173376676Y-73333732D01*
G04 #@! TO.N,/CM*
X174750000Y-76880000D02*
X174900000Y-76730000D01*
X174050000Y-76880000D02*
X174750000Y-76880000D01*
X174900000Y-76730000D02*
X175600000Y-76730000D01*
G04 #@! TO.N,Net-(C8-Pad2)*
X169040330Y-64471903D02*
X169040330Y-63299670D01*
X169629010Y-65060583D02*
X169040330Y-64471903D01*
X167879010Y-63299670D02*
X167359670Y-62780330D01*
X169040330Y-63299670D02*
X167879010Y-63299670D01*
G04 #@! TO.N,/UA*
X172041441Y-65555557D02*
X169178824Y-68418174D01*
X172316016Y-65555557D02*
X172041441Y-65555557D01*
X172810990Y-65060583D02*
X172316016Y-65555557D01*
X169178824Y-68708118D02*
X169178824Y-69273803D01*
X169178824Y-68418174D02*
X169178824Y-68708118D01*
G04 #@! TO.N,/UR*
X174419313Y-73244999D02*
X173942361Y-72768047D01*
X177100000Y-74570000D02*
X175774999Y-73244999D01*
X177100000Y-75220000D02*
X177100000Y-74570000D01*
X175774999Y-73244999D02*
X174419313Y-73244999D01*
X169115457Y-70289046D02*
X168338198Y-69511787D01*
X168338198Y-69511787D02*
X168338198Y-69297849D01*
X172720106Y-70313698D02*
X172695454Y-70289046D01*
X173465013Y-72290699D02*
X173465013Y-70971768D01*
X173465013Y-70971768D02*
X172806943Y-70313698D01*
X168338198Y-69297849D02*
X168338198Y-68732164D01*
X172695454Y-70289046D02*
X169115457Y-70289046D01*
X172806943Y-70313698D02*
X172720106Y-70313698D01*
X173942361Y-72768047D02*
X173465013Y-72290699D01*
G04 #@! TO.N,/BRV*
X165770000Y-76210000D02*
X164200000Y-74640000D01*
X166280000Y-76210000D02*
X165770000Y-76210000D01*
X164200000Y-74640000D02*
X163690000Y-74640000D01*
G04 #@! TO.N,/V_REF*
X165440000Y-78930000D02*
X165440000Y-79240000D01*
X163690000Y-77180000D02*
X165440000Y-78930000D01*
X165586000Y-79386000D02*
X165440000Y-79240000D01*
X165586000Y-80846000D02*
X165586000Y-79386000D01*
G04 #@! TO.N,Net-(R3-Pad1)*
X166400000Y-72602944D02*
X166400000Y-73420000D01*
X167366268Y-71636676D02*
X166400000Y-72602944D01*
G04 #@! TO.N,Net-(R4-Pad1)*
X169629010Y-73899417D02*
X169233289Y-74295138D01*
X169233289Y-74295138D02*
X169233289Y-75134056D01*
X169233289Y-75134056D02*
X169520000Y-75420767D01*
X169520000Y-75420767D02*
X169520000Y-75680000D01*
X169930000Y-76390000D02*
X169520000Y-75980000D01*
X169990000Y-76390000D02*
X169930000Y-76390000D01*
X169520000Y-75680000D02*
X169520000Y-75980000D01*
G04 #@! TO.N,/IA*
X166305609Y-71565964D02*
X165645964Y-71565964D01*
X165179999Y-71099999D02*
X164780000Y-70700000D01*
X165645964Y-71565964D02*
X165179999Y-71099999D01*
X166800583Y-71070990D02*
X166305609Y-71565964D01*
X171110000Y-83340000D02*
X171040000Y-83410000D01*
X171439999Y-83010001D02*
X171040000Y-83410000D01*
X171730000Y-82720000D02*
X171439999Y-83010001D01*
X173650000Y-82370000D02*
X173300000Y-82720000D01*
X171640000Y-79030000D02*
X173650000Y-81040000D01*
X170080000Y-79030000D02*
X171640000Y-79030000D01*
X173650000Y-81040000D02*
X173650000Y-82370000D01*
X168810000Y-77760000D02*
X170080000Y-79030000D01*
X167330000Y-74490000D02*
X167330000Y-75140000D01*
X168801413Y-77760000D02*
X168810000Y-77760000D01*
X173300000Y-82720000D02*
X171730000Y-82720000D01*
X167940000Y-76898587D02*
X168801413Y-77760000D01*
X166800583Y-71070990D02*
X165570000Y-72301573D01*
X167940000Y-75750000D02*
X167940000Y-76898587D01*
X167330000Y-75140000D02*
X167940000Y-75750000D01*
X166990000Y-74150000D02*
X167330000Y-74490000D01*
X165570000Y-73875002D02*
X165844998Y-74150000D01*
X165844998Y-74150000D02*
X166990000Y-74150000D01*
X165570000Y-72301573D02*
X165570000Y-73875002D01*
G04 #@! TO.N,/IP*
X166234897Y-68454695D02*
X164984695Y-68454695D01*
X164984695Y-68454695D02*
X164840000Y-68310000D01*
X166234897Y-68454695D02*
X166234897Y-68978959D01*
X168445938Y-71190000D02*
X171416844Y-71190000D01*
X171709075Y-71482231D02*
X172274760Y-71482231D01*
X171416844Y-71190000D02*
X171709075Y-71482231D01*
X166234897Y-68978959D02*
X168445938Y-71190000D01*
G04 #@! TO.N,/RS*
X170689669Y-73246514D02*
X170499158Y-73056003D01*
X170194695Y-74465103D02*
X170689669Y-73970129D01*
X170689669Y-73970129D02*
X170689669Y-73246514D01*
G04 #@! TO.N,Net-(R10-Pad2)*
X169063324Y-65443984D02*
X167979670Y-64360330D01*
X169063324Y-65626268D02*
X169063324Y-65443984D01*
G04 #@! TO.N,Net-(R11-Pad2)*
X174437335Y-65402665D02*
X175000000Y-64840000D01*
X174437335Y-65696979D02*
X174437335Y-65402665D01*
X173942361Y-66191953D02*
X174437335Y-65696979D01*
G04 #@! TO.N,Net-(R11-Pad1)*
X172808429Y-68264023D02*
X172408430Y-68664022D01*
X172881702Y-66121242D02*
X172881702Y-68190750D01*
X172881702Y-68190750D02*
X172808429Y-68264023D01*
X173376676Y-65626268D02*
X172881702Y-66121242D01*
X173939340Y-65063604D02*
X173376676Y-65626268D01*
X173939340Y-63779340D02*
X173939340Y-65063604D01*
X171040000Y-84950000D02*
X171030000Y-84940000D01*
X172630000Y-84950000D02*
X171040000Y-84950000D01*
X167910000Y-83560000D02*
X168650000Y-83560000D01*
X170030000Y-84940000D02*
X171030000Y-84940000D01*
X168650000Y-83560000D02*
X170030000Y-84940000D01*
G04 #@! TO.N,/DIAHD*
X172463601Y-77730011D02*
X174069315Y-79335725D01*
X174069315Y-79335725D02*
X174069315Y-79868310D01*
X170070011Y-77730011D02*
X172463601Y-77730011D01*
X168944999Y-75482177D02*
X168944999Y-76604999D01*
X174069315Y-79868310D02*
X174069315Y-80433995D01*
X168783279Y-74361850D02*
X168783278Y-75320456D01*
X168944999Y-76604999D02*
X170070011Y-77730011D01*
X169063324Y-73333732D02*
X168568350Y-73828706D01*
X168783278Y-75320456D02*
X168944999Y-75482177D01*
X168568350Y-74146921D02*
X168783279Y-74361850D01*
X168568350Y-73828706D02*
X168568350Y-74146921D01*
G04 #@! TO.N,/DIAHG*
X171549185Y-72027749D02*
X171949184Y-72427748D01*
X171228823Y-71707387D02*
X171549185Y-72027749D01*
X168426927Y-71707387D02*
X171228823Y-71707387D01*
X167931953Y-72202361D02*
X168426927Y-71707387D01*
G04 #@! TO.N,Net-(R22-Pad2)*
X178894000Y-82296000D02*
X178930000Y-82260000D01*
X177026000Y-82296000D02*
X178894000Y-82296000D01*
X181018623Y-80171377D02*
X179793599Y-81396401D01*
X179793599Y-81396401D02*
X178930000Y-82260000D01*
X181018623Y-61938623D02*
X181018623Y-80171377D01*
X178040000Y-60680000D02*
X179760000Y-60680000D01*
X179760000Y-60680000D02*
X181018623Y-61938623D01*
X177660000Y-61060000D02*
X178040000Y-60680000D01*
X177160000Y-61060000D02*
X177660000Y-61060000D01*
G04 #@! TO.N,/LS_SS*
X177708686Y-67020000D02*
X178930000Y-67020000D01*
X176205103Y-68454695D02*
X177639798Y-67020000D01*
X177639798Y-67020000D02*
X177708686Y-67020000D01*
G04 #@! TO.N,/LS_MOSI*
X176134391Y-71565964D02*
X175639417Y-71070990D01*
X177420000Y-69020000D02*
X177420000Y-70820000D01*
X176674036Y-71565964D02*
X176134391Y-71565964D01*
X177420000Y-70820000D02*
X176674036Y-71565964D01*
X178160000Y-68280000D02*
X177420000Y-69020000D01*
X180118601Y-67544988D02*
X179383589Y-68280000D01*
X179383589Y-68280000D02*
X178160000Y-68280000D01*
X180118601Y-65668601D02*
X180118601Y-67544988D01*
X178930000Y-64480000D02*
X180118601Y-65668601D01*
G04 #@! TO.N,/LS_MISO*
X179793599Y-62803599D02*
X178930000Y-61940000D01*
X180568612Y-63578612D02*
X179793599Y-62803599D01*
X178090000Y-70820000D02*
X179429130Y-70820000D01*
X176778350Y-72131650D02*
X178090000Y-70820000D01*
X180568612Y-69680518D02*
X180568612Y-63578612D01*
X179429130Y-70820000D02*
X180568612Y-69680518D01*
X175568706Y-72131650D02*
X176778350Y-72131650D01*
X175073732Y-71636676D02*
X175568706Y-72131650D01*
G04 #@! TO.N,/LS_SCK*
X174013073Y-71707387D02*
X174013073Y-70883417D01*
X170908407Y-68906816D02*
X170508408Y-68506817D01*
X172881854Y-69839035D02*
X171840626Y-69839035D01*
X174508047Y-72202361D02*
X174013073Y-71707387D01*
X172993343Y-69863687D02*
X172906506Y-69863687D01*
X174013073Y-70883417D02*
X172993343Y-69863687D01*
X171840626Y-69839035D02*
X170908407Y-68906816D01*
X172906506Y-69863687D02*
X172881854Y-69839035D01*
G04 #@! TO.N,/UN*
X174190000Y-82710000D02*
X174420000Y-82480000D01*
X174190000Y-83360000D02*
X174190000Y-82710000D01*
X174420000Y-81870000D02*
X174410000Y-81860000D01*
X174420000Y-82480000D02*
X174420000Y-81870000D01*
X172630000Y-83450000D02*
X173370000Y-83450000D01*
X173460000Y-83360000D02*
X174190000Y-83360000D01*
X173370000Y-83450000D02*
X173460000Y-83360000D01*
X174410000Y-81160000D02*
X174410000Y-81860000D01*
X174794317Y-80775683D02*
X174410000Y-81160000D01*
X174794317Y-79424316D02*
X174794317Y-80775683D01*
X171220000Y-74810000D02*
X170690000Y-75340000D01*
X171220000Y-74182244D02*
X171220000Y-74810000D01*
X173015002Y-71158168D02*
X173015002Y-72387242D01*
X172620543Y-70763709D02*
X173015002Y-71158168D01*
X170690000Y-75340000D02*
X170690000Y-76960000D01*
X172533706Y-70763709D02*
X172620543Y-70763709D01*
X173015002Y-72387242D02*
X171220000Y-74182244D01*
X168929057Y-70739057D02*
X172509054Y-70739057D01*
X167295557Y-69105557D02*
X168929057Y-70739057D01*
X171010000Y-77280000D02*
X172650001Y-77280000D01*
X170690000Y-76960000D02*
X171010000Y-77280000D01*
X167295557Y-68383984D02*
X167295557Y-69105557D01*
X172509054Y-70739057D02*
X172533706Y-70763709D01*
X172650001Y-77280000D02*
X174794317Y-79424316D01*
X166800583Y-67889010D02*
X167295557Y-68383984D01*
X174410000Y-81660000D02*
X174410000Y-81860000D01*
X174910000Y-81160000D02*
X174410000Y-81660000D01*
X175820000Y-81160000D02*
X174910000Y-81160000D01*
X177630000Y-85940000D02*
X176320000Y-84630000D01*
X179449130Y-88640000D02*
X178210000Y-88640000D01*
X177630000Y-88060000D02*
X177630000Y-85940000D01*
X176320000Y-84630000D02*
X176320000Y-81660000D01*
X178210000Y-88640000D02*
X177630000Y-88060000D01*
X180280000Y-89470870D02*
X179449130Y-88640000D01*
X176320000Y-81660000D02*
X175820000Y-81160000D01*
X180280000Y-100790000D02*
X180280000Y-89470870D01*
X177799000Y-101500000D02*
X179570000Y-101500000D01*
X179570000Y-101500000D02*
X180280000Y-100790000D01*
X177264000Y-100965000D02*
X177799000Y-101500000D01*
X175514000Y-100965000D02*
X177264000Y-100965000D01*
G04 #@! TO.N,/VM*
X173538134Y-67727552D02*
X173538134Y-68217756D01*
X174508047Y-66757639D02*
X173538134Y-67727552D01*
X173538134Y-68217756D02*
X173538134Y-68783441D01*
X169260000Y-85571125D02*
X168214979Y-84526104D01*
X169260000Y-89860000D02*
X169260000Y-85571125D01*
X169724989Y-93144989D02*
X169724989Y-90324989D01*
X170350000Y-93770000D02*
X169724989Y-93144989D01*
X170350000Y-97600000D02*
X170350000Y-93770000D01*
X168229600Y-99720400D02*
X170350000Y-97600000D01*
X169724989Y-90324989D02*
X169260000Y-89860000D01*
X167132000Y-99720400D02*
X168229600Y-99720400D01*
G04 #@! TO.N,/PD2*
X177530000Y-58420000D02*
X176530000Y-58420000D01*
X178030000Y-57920000D02*
X177530000Y-58420000D01*
X181468634Y-80861366D02*
X181468634Y-59868634D01*
X180640000Y-81690000D02*
X181468634Y-80861366D01*
X179520000Y-57920000D02*
X178030000Y-57920000D01*
X180640000Y-85630000D02*
X180640000Y-81690000D01*
X181468634Y-59868634D02*
X179520000Y-57920000D01*
X178930000Y-87340000D02*
X180640000Y-85630000D01*
G04 #@! TO.N,/GP3*
X173736000Y-59170000D02*
X173736000Y-58420000D01*
X174736000Y-60170000D02*
X173736000Y-59170000D01*
X174980000Y-60170000D02*
X174736000Y-60170000D01*
X175660000Y-60850000D02*
X174980000Y-60170000D01*
X175660000Y-61060000D02*
X175660000Y-60850000D01*
G04 #@! TO.N,/RM*
X174050000Y-75138427D02*
X172810990Y-73899417D01*
X174050000Y-75380000D02*
X174050000Y-75138427D01*
G04 #@! TO.N,Net-(D3-Pad1)*
X177290000Y-81010000D02*
X176800000Y-80520000D01*
X177840000Y-81010000D02*
X177290000Y-81010000D01*
G04 #@! TO.N,/Out1*
X176464315Y-62230000D02*
X177030000Y-62230000D01*
X173169998Y-60774998D02*
X174528002Y-60774998D01*
X174528002Y-60774998D02*
X174905002Y-61151998D01*
X174905002Y-61590004D02*
X175544998Y-62230000D01*
X170815000Y-58420000D02*
X170815000Y-59170000D01*
X170815000Y-59170000D02*
X171815000Y-60170000D01*
X172565000Y-60170000D02*
X173169998Y-60774998D01*
X174905002Y-61151998D02*
X174905002Y-61590004D01*
X171815000Y-60170000D02*
X172565000Y-60170000D01*
X175544998Y-62230000D02*
X176464315Y-62230000D01*
D30*
G04 #@! TO.N,Net-(L1-Pad1)*
X163810000Y-97380000D02*
X163690000Y-97500000D01*
X167740000Y-97380000D02*
X163810000Y-97380000D01*
X169300000Y-95820000D02*
X167740000Y-97380000D01*
G04 #@! TD*
D31*
G04 #@! TO.N,GND*
G36*
X181535001Y-102160000D02*
X179950203Y-102160000D01*
X180117929Y-102047929D01*
X180160331Y-101984470D01*
X180764473Y-101380329D01*
X180827929Y-101337929D01*
X180995904Y-101086537D01*
X181040000Y-100864852D01*
X181040000Y-100864848D01*
X181054888Y-100790000D01*
X181040000Y-100715152D01*
X181040000Y-89545718D01*
X181054888Y-89470870D01*
X181040000Y-89396022D01*
X181040000Y-89396018D01*
X180995904Y-89174333D01*
X180827929Y-88922941D01*
X180764473Y-88880541D01*
X180136636Y-88252704D01*
X180200451Y-88188889D01*
X180428600Y-87638090D01*
X180428600Y-87041910D01*
X180391781Y-86953021D01*
X181124473Y-86220329D01*
X181187929Y-86177929D01*
X181355904Y-85926537D01*
X181400000Y-85704852D01*
X181400000Y-85704848D01*
X181414888Y-85630001D01*
X181400000Y-85555154D01*
X181400000Y-82004802D01*
X181535001Y-81869801D01*
X181535001Y-102160000D01*
X181535001Y-102160000D01*
G37*
X181535001Y-102160000D02*
X179950203Y-102160000D01*
X180117929Y-102047929D01*
X180160331Y-101984470D01*
X180764473Y-101380329D01*
X180827929Y-101337929D01*
X180995904Y-101086537D01*
X181040000Y-100864852D01*
X181040000Y-100864848D01*
X181054888Y-100790000D01*
X181040000Y-100715152D01*
X181040000Y-89545718D01*
X181054888Y-89470870D01*
X181040000Y-89396022D01*
X181040000Y-89396018D01*
X180995904Y-89174333D01*
X180827929Y-88922941D01*
X180764473Y-88880541D01*
X180136636Y-88252704D01*
X180200451Y-88188889D01*
X180428600Y-87638090D01*
X180428600Y-87041910D01*
X180391781Y-86953021D01*
X181124473Y-86220329D01*
X181187929Y-86177929D01*
X181355904Y-85926537D01*
X181400000Y-85704852D01*
X181400000Y-85704848D01*
X181414888Y-85630001D01*
X181400000Y-85555154D01*
X181400000Y-82004802D01*
X181535001Y-81869801D01*
X181535001Y-102160000D01*
G36*
X162268305Y-76696246D02*
X162191400Y-76881910D01*
X162191400Y-77478090D01*
X162419549Y-78028889D01*
X162840660Y-78450000D01*
X162419549Y-78871111D01*
X162191400Y-79421910D01*
X162191400Y-80018090D01*
X162419549Y-80568889D01*
X162840660Y-80990000D01*
X162419549Y-81411111D01*
X162191400Y-81961910D01*
X162191400Y-82558090D01*
X162419549Y-83108889D01*
X162840660Y-83530000D01*
X162419549Y-83951111D01*
X162191400Y-84501910D01*
X162191400Y-85098090D01*
X162419549Y-85648889D01*
X162840660Y-86070000D01*
X162419549Y-86491111D01*
X162191400Y-87041910D01*
X162191400Y-87638090D01*
X162419549Y-88188889D01*
X162840660Y-88610000D01*
X162419549Y-89031111D01*
X162191400Y-89581910D01*
X162191400Y-90178090D01*
X162419549Y-90728889D01*
X162840660Y-91150000D01*
X162419549Y-91571111D01*
X162191400Y-92121910D01*
X162191400Y-92718090D01*
X162419549Y-93268889D01*
X162841111Y-93690451D01*
X163391910Y-93918600D01*
X163988090Y-93918600D01*
X164538889Y-93690451D01*
X164960451Y-93268889D01*
X165188600Y-92718090D01*
X165188600Y-92121910D01*
X164960451Y-91571111D01*
X164539340Y-91150000D01*
X164660450Y-91028890D01*
X167465000Y-91028890D01*
X167465000Y-92119450D01*
X167623750Y-92278200D01*
X168423000Y-92278200D01*
X168423000Y-90678950D01*
X168264250Y-90520200D01*
X167973691Y-90520200D01*
X167740302Y-90616873D01*
X167561673Y-90795501D01*
X167465000Y-91028890D01*
X164660450Y-91028890D01*
X164960451Y-90728889D01*
X165188600Y-90178090D01*
X165188600Y-89632978D01*
X167154156Y-87667423D01*
X167228049Y-87618049D01*
X167423652Y-87325310D01*
X167475000Y-87067165D01*
X167475000Y-87067161D01*
X167492337Y-86980001D01*
X167475000Y-86892841D01*
X167475000Y-85249836D01*
X167628699Y-85403535D01*
X168009105Y-85561104D01*
X168175178Y-85561104D01*
X168500001Y-85885928D01*
X168500000Y-89785153D01*
X168485112Y-89860000D01*
X168500000Y-89934847D01*
X168500000Y-89934851D01*
X168544096Y-90156536D01*
X168712071Y-90407929D01*
X168775530Y-90450331D01*
X168845399Y-90520200D01*
X168835750Y-90520200D01*
X168677000Y-90678950D01*
X168677000Y-92278200D01*
X168697000Y-92278200D01*
X168697000Y-92532200D01*
X168677000Y-92532200D01*
X168677000Y-92552200D01*
X168423000Y-92552200D01*
X168423000Y-92532200D01*
X167623750Y-92532200D01*
X167465000Y-92690950D01*
X167465000Y-93781510D01*
X167561673Y-94014899D01*
X167740302Y-94193527D01*
X167973691Y-94290200D01*
X168264250Y-94290200D01*
X168294302Y-94260148D01*
X168252560Y-94470000D01*
X168252560Y-95615861D01*
X167373422Y-96495000D01*
X164804340Y-96495000D01*
X164538889Y-96229549D01*
X163988090Y-96001400D01*
X163391910Y-96001400D01*
X162841111Y-96229549D01*
X162419549Y-96651111D01*
X162191400Y-97201910D01*
X162191400Y-97798090D01*
X162419549Y-98348889D01*
X162797244Y-98726584D01*
X162367496Y-99156331D01*
X162145000Y-99693484D01*
X162145000Y-76676130D01*
X162248189Y-76676130D01*
X162268305Y-76696246D01*
X162268305Y-76696246D01*
G37*
X162268305Y-76696246D02*
X162191400Y-76881910D01*
X162191400Y-77478090D01*
X162419549Y-78028889D01*
X162840660Y-78450000D01*
X162419549Y-78871111D01*
X162191400Y-79421910D01*
X162191400Y-80018090D01*
X162419549Y-80568889D01*
X162840660Y-80990000D01*
X162419549Y-81411111D01*
X162191400Y-81961910D01*
X162191400Y-82558090D01*
X162419549Y-83108889D01*
X162840660Y-83530000D01*
X162419549Y-83951111D01*
X162191400Y-84501910D01*
X162191400Y-85098090D01*
X162419549Y-85648889D01*
X162840660Y-86070000D01*
X162419549Y-86491111D01*
X162191400Y-87041910D01*
X162191400Y-87638090D01*
X162419549Y-88188889D01*
X162840660Y-88610000D01*
X162419549Y-89031111D01*
X162191400Y-89581910D01*
X162191400Y-90178090D01*
X162419549Y-90728889D01*
X162840660Y-91150000D01*
X162419549Y-91571111D01*
X162191400Y-92121910D01*
X162191400Y-92718090D01*
X162419549Y-93268889D01*
X162841111Y-93690451D01*
X163391910Y-93918600D01*
X163988090Y-93918600D01*
X164538889Y-93690451D01*
X164960451Y-93268889D01*
X165188600Y-92718090D01*
X165188600Y-92121910D01*
X164960451Y-91571111D01*
X164539340Y-91150000D01*
X164660450Y-91028890D01*
X167465000Y-91028890D01*
X167465000Y-92119450D01*
X167623750Y-92278200D01*
X168423000Y-92278200D01*
X168423000Y-90678950D01*
X168264250Y-90520200D01*
X167973691Y-90520200D01*
X167740302Y-90616873D01*
X167561673Y-90795501D01*
X167465000Y-91028890D01*
X164660450Y-91028890D01*
X164960451Y-90728889D01*
X165188600Y-90178090D01*
X165188600Y-89632978D01*
X167154156Y-87667423D01*
X167228049Y-87618049D01*
X167423652Y-87325310D01*
X167475000Y-87067165D01*
X167475000Y-87067161D01*
X167492337Y-86980001D01*
X167475000Y-86892841D01*
X167475000Y-85249836D01*
X167628699Y-85403535D01*
X168009105Y-85561104D01*
X168175178Y-85561104D01*
X168500001Y-85885928D01*
X168500000Y-89785153D01*
X168485112Y-89860000D01*
X168500000Y-89934847D01*
X168500000Y-89934851D01*
X168544096Y-90156536D01*
X168712071Y-90407929D01*
X168775530Y-90450331D01*
X168845399Y-90520200D01*
X168835750Y-90520200D01*
X168677000Y-90678950D01*
X168677000Y-92278200D01*
X168697000Y-92278200D01*
X168697000Y-92532200D01*
X168677000Y-92532200D01*
X168677000Y-92552200D01*
X168423000Y-92552200D01*
X168423000Y-92532200D01*
X167623750Y-92532200D01*
X167465000Y-92690950D01*
X167465000Y-93781510D01*
X167561673Y-94014899D01*
X167740302Y-94193527D01*
X167973691Y-94290200D01*
X168264250Y-94290200D01*
X168294302Y-94260148D01*
X168252560Y-94470000D01*
X168252560Y-95615861D01*
X167373422Y-96495000D01*
X164804340Y-96495000D01*
X164538889Y-96229549D01*
X163988090Y-96001400D01*
X163391910Y-96001400D01*
X162841111Y-96229549D01*
X162419549Y-96651111D01*
X162191400Y-97201910D01*
X162191400Y-97798090D01*
X162419549Y-98348889D01*
X162797244Y-98726584D01*
X162367496Y-99156331D01*
X162145000Y-99693484D01*
X162145000Y-76676130D01*
X162248189Y-76676130D01*
X162268305Y-76696246D01*
G36*
X175560000Y-84555153D02*
X175545112Y-84630000D01*
X175560000Y-84704847D01*
X175560000Y-84704851D01*
X175604096Y-84926536D01*
X175772071Y-85177929D01*
X175835530Y-85220331D01*
X176870001Y-86254803D01*
X176870000Y-87985153D01*
X176855112Y-88060000D01*
X176870000Y-88134847D01*
X176870000Y-88134851D01*
X176914096Y-88356536D01*
X177082071Y-88607929D01*
X177145530Y-88650331D01*
X177619670Y-89124472D01*
X177662071Y-89187929D01*
X177913463Y-89355904D01*
X178135148Y-89400000D01*
X178135153Y-89400000D01*
X178210000Y-89414888D01*
X178284847Y-89400000D01*
X179134329Y-89400000D01*
X179520001Y-89785673D01*
X179520001Y-91042314D01*
X179228090Y-90921400D01*
X178631910Y-90921400D01*
X178081111Y-91149549D01*
X177659549Y-91571111D01*
X177431400Y-92121910D01*
X177431400Y-92718090D01*
X177659549Y-93268889D01*
X178080660Y-93690000D01*
X177659549Y-94111111D01*
X177431400Y-94661910D01*
X177431400Y-95258090D01*
X177659549Y-95808889D01*
X177877245Y-96026585D01*
X177818635Y-96038243D01*
X177608591Y-96178591D01*
X177468243Y-96388635D01*
X177418960Y-96636400D01*
X177418960Y-98363600D01*
X177468243Y-98611365D01*
X177608591Y-98821409D01*
X177808705Y-98955122D01*
X177607496Y-99156331D01*
X177593706Y-99189622D01*
X177471809Y-99007191D01*
X177261765Y-98866843D01*
X177014000Y-98817560D01*
X174014000Y-98817560D01*
X173766235Y-98866843D01*
X173731759Y-98889879D01*
X174357173Y-98367273D01*
X174412982Y-98290711D01*
X174483691Y-98320000D01*
X174824250Y-98320000D01*
X174983000Y-98161250D01*
X174983000Y-97187000D01*
X175237000Y-97187000D01*
X175237000Y-98161250D01*
X175395750Y-98320000D01*
X175736309Y-98320000D01*
X175969698Y-98223327D01*
X176148327Y-98044699D01*
X176245000Y-97811310D01*
X176245000Y-97345750D01*
X176086250Y-97187000D01*
X175237000Y-97187000D01*
X174983000Y-97187000D01*
X174963000Y-97187000D01*
X174963000Y-96933000D01*
X174983000Y-96933000D01*
X174983000Y-95187000D01*
X175237000Y-95187000D01*
X175237000Y-96933000D01*
X176086250Y-96933000D01*
X176245000Y-96774250D01*
X176245000Y-96308690D01*
X176148327Y-96075301D01*
X176133026Y-96060000D01*
X176148327Y-96044699D01*
X176245000Y-95811310D01*
X176245000Y-95345750D01*
X176086250Y-95187000D01*
X175237000Y-95187000D01*
X174983000Y-95187000D01*
X174963000Y-95187000D01*
X174963000Y-94933000D01*
X174983000Y-94933000D01*
X174983000Y-93187000D01*
X175237000Y-93187000D01*
X175237000Y-94933000D01*
X176086250Y-94933000D01*
X176245000Y-94774250D01*
X176245000Y-94308690D01*
X176148327Y-94075301D01*
X176133026Y-94060000D01*
X176148327Y-94044699D01*
X176245000Y-93811310D01*
X176245000Y-93345750D01*
X176086250Y-93187000D01*
X175237000Y-93187000D01*
X174983000Y-93187000D01*
X174963000Y-93187000D01*
X174963000Y-92933000D01*
X174983000Y-92933000D01*
X174983000Y-91187000D01*
X175237000Y-91187000D01*
X175237000Y-92933000D01*
X176086250Y-92933000D01*
X176245000Y-92774250D01*
X176245000Y-92308690D01*
X176148327Y-92075301D01*
X176133026Y-92060000D01*
X176148327Y-92044699D01*
X176245000Y-91811310D01*
X176245000Y-91345750D01*
X176086250Y-91187000D01*
X175237000Y-91187000D01*
X174983000Y-91187000D01*
X174963000Y-91187000D01*
X174963000Y-90933000D01*
X174983000Y-90933000D01*
X174983000Y-89187000D01*
X175237000Y-89187000D01*
X175237000Y-90933000D01*
X176086250Y-90933000D01*
X176245000Y-90774250D01*
X176245000Y-90308690D01*
X176148327Y-90075301D01*
X176133026Y-90060000D01*
X176148327Y-90044699D01*
X176245000Y-89811310D01*
X176245000Y-89345750D01*
X176086250Y-89187000D01*
X175237000Y-89187000D01*
X174983000Y-89187000D01*
X174963000Y-89187000D01*
X174963000Y-88933000D01*
X174983000Y-88933000D01*
X174983000Y-87187000D01*
X175237000Y-87187000D01*
X175237000Y-88933000D01*
X176086250Y-88933000D01*
X176245000Y-88774250D01*
X176245000Y-88308690D01*
X176148327Y-88075301D01*
X176133026Y-88060000D01*
X176148327Y-88044699D01*
X176245000Y-87811310D01*
X176245000Y-87345750D01*
X176086250Y-87187000D01*
X175237000Y-87187000D01*
X174983000Y-87187000D01*
X174963000Y-87187000D01*
X174963000Y-86933000D01*
X174983000Y-86933000D01*
X174983000Y-85958750D01*
X175237000Y-85958750D01*
X175237000Y-86933000D01*
X176086250Y-86933000D01*
X176245000Y-86774250D01*
X176245000Y-86308690D01*
X176148327Y-86075301D01*
X175969698Y-85896673D01*
X175736309Y-85800000D01*
X175395750Y-85800000D01*
X175237000Y-85958750D01*
X174983000Y-85958750D01*
X174852488Y-85828238D01*
X174924699Y-85798327D01*
X175103327Y-85619698D01*
X175200000Y-85386309D01*
X175200000Y-85145750D01*
X175041250Y-84987000D01*
X174317000Y-84987000D01*
X174317000Y-85007000D01*
X174158284Y-85007000D01*
X174063004Y-84943336D01*
X174043000Y-84939357D01*
X174043000Y-84885002D01*
X174710153Y-84885002D01*
X174785000Y-84899890D01*
X174859847Y-84885002D01*
X174859852Y-84885002D01*
X175081537Y-84840906D01*
X175332929Y-84672931D01*
X175375331Y-84609472D01*
X175560000Y-84424803D01*
X175560000Y-84555153D01*
X175560000Y-84555153D01*
G37*
X175560000Y-84555153D02*
X175545112Y-84630000D01*
X175560000Y-84704847D01*
X175560000Y-84704851D01*
X175604096Y-84926536D01*
X175772071Y-85177929D01*
X175835530Y-85220331D01*
X176870001Y-86254803D01*
X176870000Y-87985153D01*
X176855112Y-88060000D01*
X176870000Y-88134847D01*
X176870000Y-88134851D01*
X176914096Y-88356536D01*
X177082071Y-88607929D01*
X177145530Y-88650331D01*
X177619670Y-89124472D01*
X177662071Y-89187929D01*
X177913463Y-89355904D01*
X178135148Y-89400000D01*
X178135153Y-89400000D01*
X178210000Y-89414888D01*
X178284847Y-89400000D01*
X179134329Y-89400000D01*
X179520001Y-89785673D01*
X179520001Y-91042314D01*
X179228090Y-90921400D01*
X178631910Y-90921400D01*
X178081111Y-91149549D01*
X177659549Y-91571111D01*
X177431400Y-92121910D01*
X177431400Y-92718090D01*
X177659549Y-93268889D01*
X178080660Y-93690000D01*
X177659549Y-94111111D01*
X177431400Y-94661910D01*
X177431400Y-95258090D01*
X177659549Y-95808889D01*
X177877245Y-96026585D01*
X177818635Y-96038243D01*
X177608591Y-96178591D01*
X177468243Y-96388635D01*
X177418960Y-96636400D01*
X177418960Y-98363600D01*
X177468243Y-98611365D01*
X177608591Y-98821409D01*
X177808705Y-98955122D01*
X177607496Y-99156331D01*
X177593706Y-99189622D01*
X177471809Y-99007191D01*
X177261765Y-98866843D01*
X177014000Y-98817560D01*
X174014000Y-98817560D01*
X173766235Y-98866843D01*
X173731759Y-98889879D01*
X174357173Y-98367273D01*
X174412982Y-98290711D01*
X174483691Y-98320000D01*
X174824250Y-98320000D01*
X174983000Y-98161250D01*
X174983000Y-97187000D01*
X175237000Y-97187000D01*
X175237000Y-98161250D01*
X175395750Y-98320000D01*
X175736309Y-98320000D01*
X175969698Y-98223327D01*
X176148327Y-98044699D01*
X176245000Y-97811310D01*
X176245000Y-97345750D01*
X176086250Y-97187000D01*
X175237000Y-97187000D01*
X174983000Y-97187000D01*
X174963000Y-97187000D01*
X174963000Y-96933000D01*
X174983000Y-96933000D01*
X174983000Y-95187000D01*
X175237000Y-95187000D01*
X175237000Y-96933000D01*
X176086250Y-96933000D01*
X176245000Y-96774250D01*
X176245000Y-96308690D01*
X176148327Y-96075301D01*
X176133026Y-96060000D01*
X176148327Y-96044699D01*
X176245000Y-95811310D01*
X176245000Y-95345750D01*
X176086250Y-95187000D01*
X175237000Y-95187000D01*
X174983000Y-95187000D01*
X174963000Y-95187000D01*
X174963000Y-94933000D01*
X174983000Y-94933000D01*
X174983000Y-93187000D01*
X175237000Y-93187000D01*
X175237000Y-94933000D01*
X176086250Y-94933000D01*
X176245000Y-94774250D01*
X176245000Y-94308690D01*
X176148327Y-94075301D01*
X176133026Y-94060000D01*
X176148327Y-94044699D01*
X176245000Y-93811310D01*
X176245000Y-93345750D01*
X176086250Y-93187000D01*
X175237000Y-93187000D01*
X174983000Y-93187000D01*
X174963000Y-93187000D01*
X174963000Y-92933000D01*
X174983000Y-92933000D01*
X174983000Y-91187000D01*
X175237000Y-91187000D01*
X175237000Y-92933000D01*
X176086250Y-92933000D01*
X176245000Y-92774250D01*
X176245000Y-92308690D01*
X176148327Y-92075301D01*
X176133026Y-92060000D01*
X176148327Y-92044699D01*
X176245000Y-91811310D01*
X176245000Y-91345750D01*
X176086250Y-91187000D01*
X175237000Y-91187000D01*
X174983000Y-91187000D01*
X174963000Y-91187000D01*
X174963000Y-90933000D01*
X174983000Y-90933000D01*
X174983000Y-89187000D01*
X175237000Y-89187000D01*
X175237000Y-90933000D01*
X176086250Y-90933000D01*
X176245000Y-90774250D01*
X176245000Y-90308690D01*
X176148327Y-90075301D01*
X176133026Y-90060000D01*
X176148327Y-90044699D01*
X176245000Y-89811310D01*
X176245000Y-89345750D01*
X176086250Y-89187000D01*
X175237000Y-89187000D01*
X174983000Y-89187000D01*
X174963000Y-89187000D01*
X174963000Y-88933000D01*
X174983000Y-88933000D01*
X174983000Y-87187000D01*
X175237000Y-87187000D01*
X175237000Y-88933000D01*
X176086250Y-88933000D01*
X176245000Y-88774250D01*
X176245000Y-88308690D01*
X176148327Y-88075301D01*
X176133026Y-88060000D01*
X176148327Y-88044699D01*
X176245000Y-87811310D01*
X176245000Y-87345750D01*
X176086250Y-87187000D01*
X175237000Y-87187000D01*
X174983000Y-87187000D01*
X174963000Y-87187000D01*
X174963000Y-86933000D01*
X174983000Y-86933000D01*
X174983000Y-85958750D01*
X175237000Y-85958750D01*
X175237000Y-86933000D01*
X176086250Y-86933000D01*
X176245000Y-86774250D01*
X176245000Y-86308690D01*
X176148327Y-86075301D01*
X175969698Y-85896673D01*
X175736309Y-85800000D01*
X175395750Y-85800000D01*
X175237000Y-85958750D01*
X174983000Y-85958750D01*
X174852488Y-85828238D01*
X174924699Y-85798327D01*
X175103327Y-85619698D01*
X175200000Y-85386309D01*
X175200000Y-85145750D01*
X175041250Y-84987000D01*
X174317000Y-84987000D01*
X174317000Y-85007000D01*
X174158284Y-85007000D01*
X174063004Y-84943336D01*
X174043000Y-84939357D01*
X174043000Y-84885002D01*
X174710153Y-84885002D01*
X174785000Y-84899890D01*
X174859847Y-84885002D01*
X174859852Y-84885002D01*
X175081537Y-84840906D01*
X175332929Y-84672931D01*
X175375331Y-84609472D01*
X175560000Y-84424803D01*
X175560000Y-84555153D01*
G36*
X165705000Y-84065168D02*
X165705001Y-84065173D01*
X165705000Y-86613421D01*
X165188600Y-87129821D01*
X165188600Y-87041910D01*
X164960451Y-86491111D01*
X164539340Y-86070000D01*
X164960451Y-85648889D01*
X165188600Y-85098090D01*
X165188600Y-84501910D01*
X164960451Y-83951111D01*
X164539340Y-83530000D01*
X164587705Y-83481635D01*
X164597673Y-83505699D01*
X164776302Y-83684327D01*
X165009691Y-83781000D01*
X165300250Y-83781000D01*
X165459000Y-83622250D01*
X165459000Y-82873000D01*
X165439000Y-82873000D01*
X165439000Y-82619000D01*
X165459000Y-82619000D01*
X165459000Y-82599000D01*
X165705000Y-82599000D01*
X165705000Y-84065168D01*
X165705000Y-84065168D01*
G37*
X165705000Y-84065168D02*
X165705001Y-84065173D01*
X165705000Y-86613421D01*
X165188600Y-87129821D01*
X165188600Y-87041910D01*
X164960451Y-86491111D01*
X164539340Y-86070000D01*
X164960451Y-85648889D01*
X165188600Y-85098090D01*
X165188600Y-84501910D01*
X164960451Y-83951111D01*
X164539340Y-83530000D01*
X164587705Y-83481635D01*
X164597673Y-83505699D01*
X164776302Y-83684327D01*
X165009691Y-83781000D01*
X165300250Y-83781000D01*
X165459000Y-83622250D01*
X165459000Y-82873000D01*
X165439000Y-82873000D01*
X165439000Y-82619000D01*
X165459000Y-82619000D01*
X165459000Y-82599000D01*
X165705000Y-82599000D01*
X165705000Y-84065168D01*
G36*
X178080660Y-83530000D02*
X177659549Y-83951111D01*
X177431400Y-84501910D01*
X177431400Y-84666599D01*
X177080000Y-84315199D01*
X177080000Y-83393440D01*
X177276000Y-83393440D01*
X177523765Y-83344157D01*
X177733809Y-83203809D01*
X177742084Y-83191424D01*
X178080660Y-83530000D01*
X178080660Y-83530000D01*
G37*
X178080660Y-83530000D02*
X177659549Y-83951111D01*
X177431400Y-84501910D01*
X177431400Y-84666599D01*
X177080000Y-84315199D01*
X177080000Y-83393440D01*
X177276000Y-83393440D01*
X177523765Y-83344157D01*
X177733809Y-83203809D01*
X177742084Y-83191424D01*
X178080660Y-83530000D01*
G36*
X168764530Y-81203492D02*
X169022675Y-81254840D01*
X169022680Y-81254840D01*
X169109839Y-81272177D01*
X169168058Y-81260597D01*
X169115000Y-81388690D01*
X169115000Y-81604250D01*
X169273750Y-81763000D01*
X170023000Y-81763000D01*
X170023000Y-81743000D01*
X170277000Y-81743000D01*
X170277000Y-81763000D01*
X170297000Y-81763000D01*
X170297000Y-82017000D01*
X170277000Y-82017000D01*
X170277000Y-82037000D01*
X170023000Y-82037000D01*
X170023000Y-82017000D01*
X169273750Y-82017000D01*
X169204148Y-82086602D01*
X169179716Y-82070277D01*
X168958031Y-82026181D01*
X168958026Y-82026181D01*
X168883179Y-82011293D01*
X168808332Y-82026181D01*
X168683440Y-82026181D01*
X168683440Y-81396000D01*
X168634157Y-81148235D01*
X168595703Y-81090685D01*
X168764530Y-81203492D01*
X168764530Y-81203492D01*
G37*
X168764530Y-81203492D02*
X169022675Y-81254840D01*
X169022680Y-81254840D01*
X169109839Y-81272177D01*
X169168058Y-81260597D01*
X169115000Y-81388690D01*
X169115000Y-81604250D01*
X169273750Y-81763000D01*
X170023000Y-81763000D01*
X170023000Y-81743000D01*
X170277000Y-81743000D01*
X170277000Y-81763000D01*
X170297000Y-81763000D01*
X170297000Y-82017000D01*
X170277000Y-82017000D01*
X170277000Y-82037000D01*
X170023000Y-82037000D01*
X170023000Y-82017000D01*
X169273750Y-82017000D01*
X169204148Y-82086602D01*
X169179716Y-82070277D01*
X168958031Y-82026181D01*
X168958026Y-82026181D01*
X168883179Y-82011293D01*
X168808332Y-82026181D01*
X168683440Y-82026181D01*
X168683440Y-81396000D01*
X168634157Y-81148235D01*
X168595703Y-81090685D01*
X168764530Y-81203492D01*
G36*
X172373154Y-80837956D02*
X172264882Y-80910302D01*
X172050000Y-80867560D01*
X171583954Y-80867560D01*
X171704840Y-80575714D01*
X171704840Y-80169641D01*
X172373154Y-80837956D01*
X172373154Y-80837956D01*
G37*
X172373154Y-80837956D02*
X172264882Y-80910302D01*
X172050000Y-80867560D01*
X171583954Y-80867560D01*
X171704840Y-80575714D01*
X171704840Y-80169641D01*
X172373154Y-80837956D01*
G36*
X177227000Y-76593000D02*
X177247000Y-76593000D01*
X177247000Y-76847000D01*
X177227000Y-76847000D01*
X177227000Y-77596250D01*
X177385750Y-77755000D01*
X177546100Y-77755000D01*
X177659549Y-78028889D01*
X178080660Y-78450000D01*
X177885000Y-78645660D01*
X177885000Y-78643691D01*
X177788327Y-78410302D01*
X177609699Y-78231673D01*
X177376310Y-78135000D01*
X177085750Y-78135000D01*
X176927000Y-78293750D01*
X176927000Y-78895000D01*
X176947000Y-78895000D01*
X176947000Y-79145000D01*
X176927000Y-79145000D01*
X176927000Y-79167000D01*
X176673000Y-79167000D01*
X176673000Y-79145000D01*
X175873750Y-79145000D01*
X175715000Y-79303750D01*
X175715000Y-79396309D01*
X175811673Y-79629698D01*
X175953320Y-79771346D01*
X175892191Y-79812191D01*
X175751843Y-80022235D01*
X175702560Y-80270000D01*
X175702560Y-80400000D01*
X175554317Y-80400000D01*
X175554317Y-79499164D01*
X175569205Y-79424316D01*
X175554317Y-79349468D01*
X175554317Y-79349464D01*
X175515120Y-79152406D01*
X175510221Y-79127778D01*
X175384646Y-78939843D01*
X175342246Y-78876387D01*
X175278790Y-78833987D01*
X175193231Y-78748428D01*
X175328444Y-78692421D01*
X175377174Y-78643691D01*
X175715000Y-78643691D01*
X175715000Y-78736250D01*
X175873750Y-78895000D01*
X176673000Y-78895000D01*
X176673000Y-78293750D01*
X176514250Y-78135000D01*
X176223690Y-78135000D01*
X175990301Y-78231673D01*
X175811673Y-78410302D01*
X175715000Y-78643691D01*
X175377174Y-78643691D01*
X175619595Y-78401270D01*
X175777164Y-78020864D01*
X175777164Y-77777440D01*
X175975000Y-77777440D01*
X176222765Y-77728157D01*
X176350069Y-77643095D01*
X176365301Y-77658327D01*
X176598690Y-77755000D01*
X176814250Y-77755000D01*
X176973000Y-77596250D01*
X176973000Y-76847000D01*
X176953000Y-76847000D01*
X176953000Y-76593000D01*
X176973000Y-76593000D01*
X176973000Y-76573000D01*
X177227000Y-76573000D01*
X177227000Y-76593000D01*
X177227000Y-76593000D01*
G37*
X177227000Y-76593000D02*
X177247000Y-76593000D01*
X177247000Y-76847000D01*
X177227000Y-76847000D01*
X177227000Y-77596250D01*
X177385750Y-77755000D01*
X177546100Y-77755000D01*
X177659549Y-78028889D01*
X178080660Y-78450000D01*
X177885000Y-78645660D01*
X177885000Y-78643691D01*
X177788327Y-78410302D01*
X177609699Y-78231673D01*
X177376310Y-78135000D01*
X177085750Y-78135000D01*
X176927000Y-78293750D01*
X176927000Y-78895000D01*
X176947000Y-78895000D01*
X176947000Y-79145000D01*
X176927000Y-79145000D01*
X176927000Y-79167000D01*
X176673000Y-79167000D01*
X176673000Y-79145000D01*
X175873750Y-79145000D01*
X175715000Y-79303750D01*
X175715000Y-79396309D01*
X175811673Y-79629698D01*
X175953320Y-79771346D01*
X175892191Y-79812191D01*
X175751843Y-80022235D01*
X175702560Y-80270000D01*
X175702560Y-80400000D01*
X175554317Y-80400000D01*
X175554317Y-79499164D01*
X175569205Y-79424316D01*
X175554317Y-79349468D01*
X175554317Y-79349464D01*
X175515120Y-79152406D01*
X175510221Y-79127778D01*
X175384646Y-78939843D01*
X175342246Y-78876387D01*
X175278790Y-78833987D01*
X175193231Y-78748428D01*
X175328444Y-78692421D01*
X175377174Y-78643691D01*
X175715000Y-78643691D01*
X175715000Y-78736250D01*
X175873750Y-78895000D01*
X176673000Y-78895000D01*
X176673000Y-78293750D01*
X176514250Y-78135000D01*
X176223690Y-78135000D01*
X175990301Y-78231673D01*
X175811673Y-78410302D01*
X175715000Y-78643691D01*
X175377174Y-78643691D01*
X175619595Y-78401270D01*
X175777164Y-78020864D01*
X175777164Y-77777440D01*
X175975000Y-77777440D01*
X176222765Y-77728157D01*
X176350069Y-77643095D01*
X176365301Y-77658327D01*
X176598690Y-77755000D01*
X176814250Y-77755000D01*
X176973000Y-77596250D01*
X176973000Y-76847000D01*
X176953000Y-76847000D01*
X176953000Y-76593000D01*
X176973000Y-76593000D01*
X176973000Y-76573000D01*
X177227000Y-76573000D01*
X177227000Y-76593000D01*
G36*
X168211083Y-78244472D02*
X168253484Y-78307929D01*
X168342821Y-78367622D01*
X168494791Y-78519592D01*
X168325310Y-78406348D01*
X168067165Y-78355000D01*
X168067161Y-78355000D01*
X167980000Y-78337663D01*
X167892839Y-78355000D01*
X167848598Y-78355000D01*
X167877440Y-78210000D01*
X167877440Y-77910829D01*
X168211083Y-78244472D01*
X168211083Y-78244472D01*
G37*
X168211083Y-78244472D02*
X168253484Y-78307929D01*
X168342821Y-78367622D01*
X168494791Y-78519592D01*
X168325310Y-78406348D01*
X168067165Y-78355000D01*
X168067161Y-78355000D01*
X167980000Y-78337663D01*
X167892839Y-78355000D01*
X167848598Y-78355000D01*
X167877440Y-78210000D01*
X167877440Y-77910829D01*
X168211083Y-78244472D01*
G36*
X165757000Y-77683000D02*
X165777000Y-77683000D01*
X165777000Y-77937000D01*
X165757000Y-77937000D01*
X165757000Y-77957000D01*
X165541802Y-77957000D01*
X165483000Y-77898198D01*
X165483000Y-77683000D01*
X165503000Y-77683000D01*
X165503000Y-77663000D01*
X165757000Y-77663000D01*
X165757000Y-77683000D01*
X165757000Y-77683000D01*
G37*
X165757000Y-77683000D02*
X165777000Y-77683000D01*
X165777000Y-77937000D01*
X165757000Y-77937000D01*
X165757000Y-77957000D01*
X165541802Y-77957000D01*
X165483000Y-77898198D01*
X165483000Y-77683000D01*
X165503000Y-77683000D01*
X165503000Y-77663000D01*
X165757000Y-77663000D01*
X165757000Y-77683000D01*
G36*
X166547000Y-75045000D02*
X166527000Y-75045000D01*
X166527000Y-75067000D01*
X166273000Y-75067000D01*
X166273000Y-75045000D01*
X166253000Y-75045000D01*
X166253000Y-74910000D01*
X166547000Y-74910000D01*
X166547000Y-75045000D01*
X166547000Y-75045000D01*
G37*
X166547000Y-75045000D02*
X166527000Y-75045000D01*
X166527000Y-75067000D01*
X166273000Y-75067000D01*
X166273000Y-75045000D01*
X166253000Y-75045000D01*
X166253000Y-74910000D01*
X166547000Y-74910000D01*
X166547000Y-75045000D01*
G36*
X165439349Y-74792998D02*
X165427799Y-74792998D01*
X165404542Y-74769741D01*
X165439349Y-74792998D01*
X165439349Y-74792998D01*
G37*
X165439349Y-74792998D02*
X165427799Y-74792998D01*
X165404542Y-74769741D01*
X165439349Y-74792998D01*
G36*
X175637758Y-74182560D02*
X175300306Y-74182560D01*
X175122745Y-74004999D01*
X175460198Y-74004999D01*
X175637758Y-74182560D01*
X175637758Y-74182560D01*
G37*
X175637758Y-74182560D02*
X175300306Y-74182560D01*
X175122745Y-74004999D01*
X175460198Y-74004999D01*
X175637758Y-74182560D01*
G36*
X166884183Y-63786147D02*
X166971269Y-63844336D01*
X166886538Y-63971144D01*
X166837255Y-64218909D01*
X166886538Y-64466674D01*
X167026886Y-64676718D01*
X167663282Y-65313114D01*
X167783592Y-65393503D01*
X167779488Y-65414136D01*
X167793831Y-65486243D01*
X167593512Y-65486243D01*
X167510247Y-65520732D01*
X167422306Y-65520732D01*
X167260732Y-65682306D01*
X167260732Y-65770247D01*
X167226243Y-65853512D01*
X167226243Y-66053831D01*
X167154136Y-66039488D01*
X166977590Y-66074605D01*
X166946146Y-66068350D01*
X166946141Y-66068350D01*
X166871294Y-66053462D01*
X166796447Y-66068350D01*
X166483152Y-66068350D01*
X166130000Y-65715198D01*
X166130000Y-65008652D01*
X166182765Y-64998157D01*
X166392809Y-64857809D01*
X166533157Y-64647765D01*
X166582440Y-64400000D01*
X166582440Y-63600000D01*
X166553738Y-63455702D01*
X166884183Y-63786147D01*
X166884183Y-63786147D01*
G37*
X166884183Y-63786147D02*
X166971269Y-63844336D01*
X166886538Y-63971144D01*
X166837255Y-64218909D01*
X166886538Y-64466674D01*
X167026886Y-64676718D01*
X167663282Y-65313114D01*
X167783592Y-65393503D01*
X167779488Y-65414136D01*
X167793831Y-65486243D01*
X167593512Y-65486243D01*
X167510247Y-65520732D01*
X167422306Y-65520732D01*
X167260732Y-65682306D01*
X167260732Y-65770247D01*
X167226243Y-65853512D01*
X167226243Y-66053831D01*
X167154136Y-66039488D01*
X166977590Y-66074605D01*
X166946146Y-66068350D01*
X166946141Y-66068350D01*
X166871294Y-66053462D01*
X166796447Y-66068350D01*
X166483152Y-66068350D01*
X166130000Y-65715198D01*
X166130000Y-65008652D01*
X166182765Y-64998157D01*
X166392809Y-64857809D01*
X166533157Y-64647765D01*
X166582440Y-64400000D01*
X166582440Y-63600000D01*
X166553738Y-63455702D01*
X166884183Y-63786147D01*
G36*
X165238560Y-59920000D02*
X165287843Y-60167765D01*
X165428191Y-60377809D01*
X165638235Y-60518157D01*
X165886000Y-60567440D01*
X168886000Y-60567440D01*
X169133765Y-60518157D01*
X169343809Y-60377809D01*
X169475500Y-60180721D01*
X169607191Y-60377809D01*
X169817235Y-60518157D01*
X170065000Y-60567440D01*
X171137638Y-60567440D01*
X171224670Y-60654472D01*
X171267071Y-60717929D01*
X171518463Y-60885904D01*
X171740148Y-60930000D01*
X171740152Y-60930000D01*
X171815000Y-60944888D01*
X171889848Y-60930000D01*
X172250198Y-60930000D01*
X172579670Y-61259473D01*
X172622069Y-61322927D01*
X172685522Y-61365325D01*
X172685524Y-61365327D01*
X172734317Y-61397929D01*
X172873461Y-61490902D01*
X173095146Y-61534998D01*
X173095150Y-61534998D01*
X173169997Y-61549886D01*
X173244844Y-61534998D01*
X174141055Y-61534998D01*
X174130114Y-61590004D01*
X174145002Y-61664851D01*
X174145002Y-61664856D01*
X174189098Y-61886541D01*
X174357074Y-62137933D01*
X174420530Y-62180333D01*
X174954669Y-62714473D01*
X174997069Y-62777929D01*
X175248461Y-62945904D01*
X175470146Y-62990000D01*
X175470150Y-62990000D01*
X175544997Y-63004888D01*
X175619844Y-62990000D01*
X176326289Y-62990000D01*
X176443720Y-63107431D01*
X176824126Y-63265000D01*
X177235874Y-63265000D01*
X177616280Y-63107431D01*
X177797186Y-62926526D01*
X178080660Y-63210000D01*
X177659549Y-63631111D01*
X177583536Y-63814623D01*
X177391310Y-63735000D01*
X177175750Y-63735000D01*
X177017000Y-63893750D01*
X177017000Y-64643000D01*
X177037000Y-64643000D01*
X177037000Y-64897000D01*
X177017000Y-64897000D01*
X177017000Y-64917000D01*
X176763000Y-64917000D01*
X176763000Y-64897000D01*
X176743000Y-64897000D01*
X176743000Y-64643000D01*
X176763000Y-64643000D01*
X176763000Y-63893750D01*
X176604250Y-63735000D01*
X176388690Y-63735000D01*
X176155301Y-63831673D01*
X175976673Y-64010302D01*
X175902173Y-64190159D01*
X175599230Y-63887216D01*
X175389186Y-63746868D01*
X175141421Y-63697585D01*
X175066940Y-63712400D01*
X175081755Y-63637919D01*
X175032472Y-63390154D01*
X174892124Y-63180110D01*
X174538570Y-62826556D01*
X174328526Y-62686208D01*
X174080761Y-62636925D01*
X173832996Y-62686208D01*
X173622952Y-62826556D01*
X172986556Y-63462952D01*
X172982931Y-63468377D01*
X172915246Y-63400692D01*
X172705202Y-63260344D01*
X172457437Y-63211061D01*
X172209672Y-63260344D01*
X171999628Y-63400692D01*
X171220000Y-64180320D01*
X170440372Y-63400692D01*
X170230328Y-63260344D01*
X170143351Y-63243043D01*
X170133462Y-63193326D01*
X169993114Y-62983282D01*
X169356718Y-62346886D01*
X169146674Y-62206538D01*
X168898909Y-62157255D01*
X168651144Y-62206538D01*
X168441100Y-62346886D01*
X168412614Y-62375372D01*
X168365487Y-62304843D01*
X167835157Y-61774513D01*
X167625113Y-61634165D01*
X167377348Y-61584882D01*
X167129583Y-61634165D01*
X166919539Y-61774513D01*
X166570000Y-62124052D01*
X166570000Y-61973691D01*
X166473327Y-61740302D01*
X166294699Y-61561673D01*
X166061310Y-61465000D01*
X165845750Y-61465000D01*
X165687000Y-61623750D01*
X165687000Y-62373000D01*
X165707000Y-62373000D01*
X165707000Y-62627000D01*
X165687000Y-62627000D01*
X165687000Y-62647000D01*
X165433000Y-62647000D01*
X165433000Y-62627000D01*
X165413000Y-62627000D01*
X165413000Y-62373000D01*
X165433000Y-62373000D01*
X165433000Y-61623750D01*
X165274250Y-61465000D01*
X165115321Y-61465000D01*
X164960451Y-61091111D01*
X164582757Y-60713417D01*
X165012504Y-60283669D01*
X165238560Y-59737922D01*
X165238560Y-59920000D01*
X165238560Y-59920000D01*
G37*
X165238560Y-59920000D02*
X165287843Y-60167765D01*
X165428191Y-60377809D01*
X165638235Y-60518157D01*
X165886000Y-60567440D01*
X168886000Y-60567440D01*
X169133765Y-60518157D01*
X169343809Y-60377809D01*
X169475500Y-60180721D01*
X169607191Y-60377809D01*
X169817235Y-60518157D01*
X170065000Y-60567440D01*
X171137638Y-60567440D01*
X171224670Y-60654472D01*
X171267071Y-60717929D01*
X171518463Y-60885904D01*
X171740148Y-60930000D01*
X171740152Y-60930000D01*
X171815000Y-60944888D01*
X171889848Y-60930000D01*
X172250198Y-60930000D01*
X172579670Y-61259473D01*
X172622069Y-61322927D01*
X172685522Y-61365325D01*
X172685524Y-61365327D01*
X172734317Y-61397929D01*
X172873461Y-61490902D01*
X173095146Y-61534998D01*
X173095150Y-61534998D01*
X173169997Y-61549886D01*
X173244844Y-61534998D01*
X174141055Y-61534998D01*
X174130114Y-61590004D01*
X174145002Y-61664851D01*
X174145002Y-61664856D01*
X174189098Y-61886541D01*
X174357074Y-62137933D01*
X174420530Y-62180333D01*
X174954669Y-62714473D01*
X174997069Y-62777929D01*
X175248461Y-62945904D01*
X175470146Y-62990000D01*
X175470150Y-62990000D01*
X175544997Y-63004888D01*
X175619844Y-62990000D01*
X176326289Y-62990000D01*
X176443720Y-63107431D01*
X176824126Y-63265000D01*
X177235874Y-63265000D01*
X177616280Y-63107431D01*
X177797186Y-62926526D01*
X178080660Y-63210000D01*
X177659549Y-63631111D01*
X177583536Y-63814623D01*
X177391310Y-63735000D01*
X177175750Y-63735000D01*
X177017000Y-63893750D01*
X177017000Y-64643000D01*
X177037000Y-64643000D01*
X177037000Y-64897000D01*
X177017000Y-64897000D01*
X177017000Y-64917000D01*
X176763000Y-64917000D01*
X176763000Y-64897000D01*
X176743000Y-64897000D01*
X176743000Y-64643000D01*
X176763000Y-64643000D01*
X176763000Y-63893750D01*
X176604250Y-63735000D01*
X176388690Y-63735000D01*
X176155301Y-63831673D01*
X175976673Y-64010302D01*
X175902173Y-64190159D01*
X175599230Y-63887216D01*
X175389186Y-63746868D01*
X175141421Y-63697585D01*
X175066940Y-63712400D01*
X175081755Y-63637919D01*
X175032472Y-63390154D01*
X174892124Y-63180110D01*
X174538570Y-62826556D01*
X174328526Y-62686208D01*
X174080761Y-62636925D01*
X173832996Y-62686208D01*
X173622952Y-62826556D01*
X172986556Y-63462952D01*
X172982931Y-63468377D01*
X172915246Y-63400692D01*
X172705202Y-63260344D01*
X172457437Y-63211061D01*
X172209672Y-63260344D01*
X171999628Y-63400692D01*
X171220000Y-64180320D01*
X170440372Y-63400692D01*
X170230328Y-63260344D01*
X170143351Y-63243043D01*
X170133462Y-63193326D01*
X169993114Y-62983282D01*
X169356718Y-62346886D01*
X169146674Y-62206538D01*
X168898909Y-62157255D01*
X168651144Y-62206538D01*
X168441100Y-62346886D01*
X168412614Y-62375372D01*
X168365487Y-62304843D01*
X167835157Y-61774513D01*
X167625113Y-61634165D01*
X167377348Y-61584882D01*
X167129583Y-61634165D01*
X166919539Y-61774513D01*
X166570000Y-62124052D01*
X166570000Y-61973691D01*
X166473327Y-61740302D01*
X166294699Y-61561673D01*
X166061310Y-61465000D01*
X165845750Y-61465000D01*
X165687000Y-61623750D01*
X165687000Y-62373000D01*
X165707000Y-62373000D01*
X165707000Y-62627000D01*
X165687000Y-62627000D01*
X165687000Y-62647000D01*
X165433000Y-62647000D01*
X165433000Y-62627000D01*
X165413000Y-62627000D01*
X165413000Y-62373000D01*
X165433000Y-62373000D01*
X165433000Y-61623750D01*
X165274250Y-61465000D01*
X165115321Y-61465000D01*
X164960451Y-61091111D01*
X164582757Y-60713417D01*
X165012504Y-60283669D01*
X165238560Y-59737922D01*
X165238560Y-59920000D01*
G36*
X181535000Y-58860198D02*
X180110331Y-57435530D01*
X180067929Y-57372071D01*
X179816537Y-57204096D01*
X179594852Y-57160000D01*
X179594847Y-57160000D01*
X179520000Y-57145112D01*
X179445153Y-57160000D01*
X178104848Y-57160000D01*
X178030000Y-57145112D01*
X177955152Y-57160000D01*
X177955148Y-57160000D01*
X177927440Y-57165511D01*
X177927440Y-56920000D01*
X177878157Y-56672235D01*
X177823209Y-56590000D01*
X181535000Y-56590000D01*
X181535000Y-58860198D01*
X181535000Y-58860198D01*
G37*
X181535000Y-58860198D02*
X180110331Y-57435530D01*
X180067929Y-57372071D01*
X179816537Y-57204096D01*
X179594852Y-57160000D01*
X179594847Y-57160000D01*
X179520000Y-57145112D01*
X179445153Y-57160000D01*
X178104848Y-57160000D01*
X178030000Y-57145112D01*
X177955152Y-57160000D01*
X177955148Y-57160000D01*
X177927440Y-57165511D01*
X177927440Y-56920000D01*
X177878157Y-56672235D01*
X177823209Y-56590000D01*
X181535000Y-56590000D01*
X181535000Y-58860198D01*
G04 #@! TO.N,/+12V_NL*
G36*
X170332235Y-85788157D02*
X170580000Y-85837440D01*
X171480000Y-85837440D01*
X171727765Y-85788157D01*
X171822517Y-85724845D01*
X171932235Y-85798157D01*
X172180000Y-85847440D01*
X172369161Y-85847440D01*
X172250302Y-85896673D01*
X172071673Y-86075301D01*
X171975000Y-86308690D01*
X171975000Y-86774250D01*
X172133750Y-86933000D01*
X172983000Y-86933000D01*
X172983000Y-86913000D01*
X173237000Y-86913000D01*
X173237000Y-86933000D01*
X173257000Y-86933000D01*
X173257000Y-87187000D01*
X173237000Y-87187000D01*
X173237000Y-88933000D01*
X173257000Y-88933000D01*
X173257000Y-89187000D01*
X173237000Y-89187000D01*
X173237000Y-90933000D01*
X173257000Y-90933000D01*
X173257000Y-91187000D01*
X173237000Y-91187000D01*
X173237000Y-92933000D01*
X173257000Y-92933000D01*
X173257000Y-93187000D01*
X173237000Y-93187000D01*
X173237000Y-94933000D01*
X173257000Y-94933000D01*
X173257000Y-95187000D01*
X173237000Y-95187000D01*
X173237000Y-96933000D01*
X173257000Y-96933000D01*
X173257000Y-97187000D01*
X173237000Y-97187000D01*
X173237000Y-98161250D01*
X173318194Y-98242444D01*
X172615053Y-98830000D01*
X171735750Y-98830000D01*
X171577000Y-98988750D01*
X171577000Y-100776915D01*
X171323000Y-100783234D01*
X171323000Y-98988750D01*
X171164250Y-98830000D01*
X170594613Y-98830000D01*
X170593234Y-98431569D01*
X170834476Y-98190327D01*
X170897929Y-98147929D01*
X170940327Y-98084476D01*
X170940329Y-98084474D01*
X171065903Y-97896538D01*
X171065904Y-97896537D01*
X171084112Y-97805000D01*
X171214250Y-97805000D01*
X171373000Y-97646250D01*
X171373000Y-95947000D01*
X171353000Y-95947000D01*
X171353000Y-95693000D01*
X171373000Y-95693000D01*
X171373000Y-93993750D01*
X171323000Y-93943750D01*
X171323000Y-92532200D01*
X171303000Y-92532200D01*
X171303000Y-92278200D01*
X171323000Y-92278200D01*
X171323000Y-90678950D01*
X171577000Y-90678950D01*
X171577000Y-92278200D01*
X171597000Y-92278200D01*
X171597000Y-92532200D01*
X171577000Y-92532200D01*
X171577000Y-94131450D01*
X171627000Y-94181450D01*
X171627000Y-95693000D01*
X171647000Y-95693000D01*
X171647000Y-95947000D01*
X171627000Y-95947000D01*
X171627000Y-97646250D01*
X171785750Y-97805000D01*
X171975000Y-97805000D01*
X171975000Y-97811310D01*
X172071673Y-98044699D01*
X172250302Y-98223327D01*
X172483691Y-98320000D01*
X172824250Y-98320000D01*
X172983000Y-98161250D01*
X172983000Y-97187000D01*
X172963000Y-97187000D01*
X172963000Y-96933000D01*
X172983000Y-96933000D01*
X172983000Y-95187000D01*
X172963000Y-95187000D01*
X172963000Y-94933000D01*
X172983000Y-94933000D01*
X172983000Y-93187000D01*
X172963000Y-93187000D01*
X172963000Y-92933000D01*
X172983000Y-92933000D01*
X172983000Y-91187000D01*
X172963000Y-91187000D01*
X172963000Y-90933000D01*
X172983000Y-90933000D01*
X172983000Y-89187000D01*
X172133750Y-89187000D01*
X171975000Y-89345750D01*
X171975000Y-89811310D01*
X172071673Y-90044699D01*
X172086974Y-90060000D01*
X172071673Y-90075301D01*
X171975000Y-90308690D01*
X171975000Y-90520200D01*
X171735750Y-90520200D01*
X171577000Y-90678950D01*
X171323000Y-90678950D01*
X171164250Y-90520200D01*
X170873691Y-90520200D01*
X170640302Y-90616873D01*
X170484989Y-90772185D01*
X170484989Y-90399837D01*
X170499877Y-90324989D01*
X170484989Y-90250141D01*
X170484989Y-90250137D01*
X170440893Y-90028452D01*
X170440893Y-90028451D01*
X170352841Y-89896673D01*
X170272918Y-89777060D01*
X170209459Y-89734658D01*
X170020000Y-89545199D01*
X170020000Y-87345750D01*
X171975000Y-87345750D01*
X171975000Y-87811310D01*
X172071673Y-88044699D01*
X172086974Y-88060000D01*
X172071673Y-88075301D01*
X171975000Y-88308690D01*
X171975000Y-88774250D01*
X172133750Y-88933000D01*
X172983000Y-88933000D01*
X172983000Y-87187000D01*
X172133750Y-87187000D01*
X171975000Y-87345750D01*
X170020000Y-87345750D01*
X170020000Y-85712899D01*
X170030000Y-85714888D01*
X170104848Y-85700000D01*
X170200300Y-85700000D01*
X170332235Y-85788157D01*
X170332235Y-85788157D01*
G37*
X170332235Y-85788157D02*
X170580000Y-85837440D01*
X171480000Y-85837440D01*
X171727765Y-85788157D01*
X171822517Y-85724845D01*
X171932235Y-85798157D01*
X172180000Y-85847440D01*
X172369161Y-85847440D01*
X172250302Y-85896673D01*
X172071673Y-86075301D01*
X171975000Y-86308690D01*
X171975000Y-86774250D01*
X172133750Y-86933000D01*
X172983000Y-86933000D01*
X172983000Y-86913000D01*
X173237000Y-86913000D01*
X173237000Y-86933000D01*
X173257000Y-86933000D01*
X173257000Y-87187000D01*
X173237000Y-87187000D01*
X173237000Y-88933000D01*
X173257000Y-88933000D01*
X173257000Y-89187000D01*
X173237000Y-89187000D01*
X173237000Y-90933000D01*
X173257000Y-90933000D01*
X173257000Y-91187000D01*
X173237000Y-91187000D01*
X173237000Y-92933000D01*
X173257000Y-92933000D01*
X173257000Y-93187000D01*
X173237000Y-93187000D01*
X173237000Y-94933000D01*
X173257000Y-94933000D01*
X173257000Y-95187000D01*
X173237000Y-95187000D01*
X173237000Y-96933000D01*
X173257000Y-96933000D01*
X173257000Y-97187000D01*
X173237000Y-97187000D01*
X173237000Y-98161250D01*
X173318194Y-98242444D01*
X172615053Y-98830000D01*
X171735750Y-98830000D01*
X171577000Y-98988750D01*
X171577000Y-100776915D01*
X171323000Y-100783234D01*
X171323000Y-98988750D01*
X171164250Y-98830000D01*
X170594613Y-98830000D01*
X170593234Y-98431569D01*
X170834476Y-98190327D01*
X170897929Y-98147929D01*
X170940327Y-98084476D01*
X170940329Y-98084474D01*
X171065903Y-97896538D01*
X171065904Y-97896537D01*
X171084112Y-97805000D01*
X171214250Y-97805000D01*
X171373000Y-97646250D01*
X171373000Y-95947000D01*
X171353000Y-95947000D01*
X171353000Y-95693000D01*
X171373000Y-95693000D01*
X171373000Y-93993750D01*
X171323000Y-93943750D01*
X171323000Y-92532200D01*
X171303000Y-92532200D01*
X171303000Y-92278200D01*
X171323000Y-92278200D01*
X171323000Y-90678950D01*
X171577000Y-90678950D01*
X171577000Y-92278200D01*
X171597000Y-92278200D01*
X171597000Y-92532200D01*
X171577000Y-92532200D01*
X171577000Y-94131450D01*
X171627000Y-94181450D01*
X171627000Y-95693000D01*
X171647000Y-95693000D01*
X171647000Y-95947000D01*
X171627000Y-95947000D01*
X171627000Y-97646250D01*
X171785750Y-97805000D01*
X171975000Y-97805000D01*
X171975000Y-97811310D01*
X172071673Y-98044699D01*
X172250302Y-98223327D01*
X172483691Y-98320000D01*
X172824250Y-98320000D01*
X172983000Y-98161250D01*
X172983000Y-97187000D01*
X172963000Y-97187000D01*
X172963000Y-96933000D01*
X172983000Y-96933000D01*
X172983000Y-95187000D01*
X172963000Y-95187000D01*
X172963000Y-94933000D01*
X172983000Y-94933000D01*
X172983000Y-93187000D01*
X172963000Y-93187000D01*
X172963000Y-92933000D01*
X172983000Y-92933000D01*
X172983000Y-91187000D01*
X172963000Y-91187000D01*
X172963000Y-90933000D01*
X172983000Y-90933000D01*
X172983000Y-89187000D01*
X172133750Y-89187000D01*
X171975000Y-89345750D01*
X171975000Y-89811310D01*
X172071673Y-90044699D01*
X172086974Y-90060000D01*
X172071673Y-90075301D01*
X171975000Y-90308690D01*
X171975000Y-90520200D01*
X171735750Y-90520200D01*
X171577000Y-90678950D01*
X171323000Y-90678950D01*
X171164250Y-90520200D01*
X170873691Y-90520200D01*
X170640302Y-90616873D01*
X170484989Y-90772185D01*
X170484989Y-90399837D01*
X170499877Y-90324989D01*
X170484989Y-90250141D01*
X170484989Y-90250137D01*
X170440893Y-90028452D01*
X170440893Y-90028451D01*
X170352841Y-89896673D01*
X170272918Y-89777060D01*
X170209459Y-89734658D01*
X170020000Y-89545199D01*
X170020000Y-87345750D01*
X171975000Y-87345750D01*
X171975000Y-87811310D01*
X172071673Y-88044699D01*
X172086974Y-88060000D01*
X172071673Y-88075301D01*
X171975000Y-88308690D01*
X171975000Y-88774250D01*
X172133750Y-88933000D01*
X172983000Y-88933000D01*
X172983000Y-87187000D01*
X172133750Y-87187000D01*
X171975000Y-87345750D01*
X170020000Y-87345750D01*
X170020000Y-85712899D01*
X170030000Y-85714888D01*
X170104848Y-85700000D01*
X170200300Y-85700000D01*
X170332235Y-85788157D01*
G04 #@! TD*
M02*
