G04 #@! TF.GenerationSoftware,KiCad,Pcbnew,(5.0.0-3-g5ebb6b6)*
G04 #@! TF.CreationDate,2018-09-03T19:30:42+02:00*
G04 #@! TF.ProjectId,Nano_Lambda,4E616E6F5F4C616D6264612E6B696361,rev?*
G04 #@! TF.SameCoordinates,Original*
G04 #@! TF.FileFunction,Copper,L1,Top,Signal*
G04 #@! TF.FilePolarity,Positive*
%FSLAX46Y46*%
G04 Gerber Fmt 4.6, Leading zero omitted, Abs format (unit mm)*
G04 Created by KiCad (PCBNEW (5.0.0-3-g5ebb6b6)) date Monday, 03 September 2018 at 19:30:42*
%MOMM*%
%LPD*%
G01*
G04 APERTURE LIST*
G04 #@! TA.AperFunction,ComponentPad*
%ADD10C,1.727200*%
G04 #@! TD*
G04 #@! TA.AperFunction,ComponentPad*
%ADD11R,1.727200X1.727200*%
G04 #@! TD*
G04 #@! TA.AperFunction,SMDPad,CuDef*
%ADD12R,0.750000X0.800000*%
G04 #@! TD*
G04 #@! TA.AperFunction,SMDPad,CuDef*
%ADD13R,0.800000X0.750000*%
G04 #@! TD*
G04 #@! TA.AperFunction,SMDPad,CuDef*
%ADD14R,0.800000X0.600000*%
G04 #@! TD*
G04 #@! TA.AperFunction,SMDPad,CuDef*
%ADD15R,0.500000X0.900000*%
G04 #@! TD*
G04 #@! TA.AperFunction,SMDPad,CuDef*
%ADD16R,0.900000X0.500000*%
G04 #@! TD*
G04 #@! TA.AperFunction,SMDPad,CuDef*
%ADD17R,1.200000X0.280000*%
G04 #@! TD*
G04 #@! TA.AperFunction,SMDPad,CuDef*
%ADD18R,0.280000X1.200000*%
G04 #@! TD*
G04 #@! TA.AperFunction,SMDPad,CuDef*
%ADD19R,3.000000X3.000000*%
G04 #@! TD*
G04 #@! TA.AperFunction,SMDPad,CuDef*
%ADD20R,1.500000X3.000000*%
G04 #@! TD*
G04 #@! TA.AperFunction,SMDPad,CuDef*
%ADD21R,0.900000X2.500000*%
G04 #@! TD*
G04 #@! TA.AperFunction,SMDPad,CuDef*
%ADD22R,0.800000X2.700000*%
G04 #@! TD*
G04 #@! TA.AperFunction,SMDPad,CuDef*
%ADD23R,1.000000X1.250000*%
G04 #@! TD*
G04 #@! TA.AperFunction,ViaPad*
%ADD24C,0.800000*%
G04 #@! TD*
G04 #@! TA.AperFunction,Conductor*
%ADD25C,0.250000*%
G04 #@! TD*
G04 #@! TA.AperFunction,Conductor*
%ADD26C,1.000000*%
G04 #@! TD*
G04 #@! TA.AperFunction,Conductor*
%ADD27C,0.500000*%
G04 #@! TD*
G04 #@! TA.AperFunction,Conductor*
%ADD28C,0.254000*%
G04 #@! TD*
G04 APERTURE END LIST*
D10*
G04 #@! TO.P,XA1,VIN*
G04 #@! TO.N,Net-(L1-Pad1)*
X163690000Y-97500000D03*
G04 #@! TO.P,XA1,GND2*
G04 #@! TO.N,GND*
X163690000Y-94960000D03*
G04 #@! TO.P,XA1,RST2*
G04 #@! TO.N,N/C*
X163690000Y-92420000D03*
G04 #@! TO.P,XA1,5V*
G04 #@! TO.N,+5V*
X163690000Y-89880000D03*
G04 #@! TO.P,XA1,A7*
G04 #@! TO.N,N/C*
X163690000Y-87340000D03*
G04 #@! TO.P,XA1,A6*
X163690000Y-84800000D03*
G04 #@! TO.P,XA1,A5*
G04 #@! TO.N,/SCL*
X163690000Y-82260000D03*
G04 #@! TO.P,XA1,A4*
G04 #@! TO.N,/SDA*
X163690000Y-79720000D03*
G04 #@! TO.P,XA1,A3*
G04 #@! TO.N,/V_REF*
X163690000Y-77180000D03*
G04 #@! TO.P,XA1,A2*
G04 #@! TO.N,/BRV*
X163690000Y-74640000D03*
G04 #@! TO.P,XA1,A1*
G04 #@! TO.N,/UA*
X163690000Y-72100000D03*
G04 #@! TO.P,XA1,A0*
G04 #@! TO.N,/UR*
X163690000Y-69560000D03*
G04 #@! TO.P,XA1,AREF*
G04 #@! TO.N,Net-(C11-Pad1)*
X163690000Y-67020000D03*
G04 #@! TO.P,XA1,3V3*
G04 #@! TO.N,N/C*
X163690000Y-64480000D03*
G04 #@! TO.P,XA1,D13*
G04 #@! TO.N,/LS_SCK*
X163690000Y-61940000D03*
G04 #@! TO.P,XA1,D12*
G04 #@! TO.N,/LS_MISO*
X178930000Y-61940000D03*
G04 #@! TO.P,XA1,D11*
G04 #@! TO.N,/LS_MOSI*
X178930000Y-64480000D03*
G04 #@! TO.P,XA1,D10*
G04 #@! TO.N,/LS_SS*
X178930000Y-67020000D03*
G04 #@! TO.P,XA1,D9*
G04 #@! TO.N,/DIAHG*
X178930000Y-69560000D03*
G04 #@! TO.P,XA1,D8*
G04 #@! TO.N,/LED_1*
X178930000Y-72100000D03*
G04 #@! TO.P,XA1,D7*
G04 #@! TO.N,N/C*
X178930000Y-74640000D03*
G04 #@! TO.P,XA1,D6*
G04 #@! TO.N,/WBL*
X178930000Y-77180000D03*
G04 #@! TO.P,XA1,D5*
G04 #@! TO.N,/LED_2*
X178930000Y-79720000D03*
G04 #@! TO.P,XA1,D4*
G04 #@! TO.N,Net-(R22-Pad2)*
X178930000Y-82260000D03*
G04 #@! TO.P,XA1,D3*
G04 #@! TO.N,/PD3*
X178930000Y-84800000D03*
G04 #@! TO.P,XA1,D2*
G04 #@! TO.N,/PD2*
X178930000Y-87340000D03*
G04 #@! TO.P,XA1,GND1*
G04 #@! TO.N,GND*
X178930000Y-89880000D03*
G04 #@! TO.P,XA1,RST1*
G04 #@! TO.N,N/C*
X178930000Y-92420000D03*
G04 #@! TO.P,XA1,D0*
X178930000Y-94960000D03*
D11*
G04 #@! TO.P,XA1,D1*
X178930000Y-97500000D03*
G04 #@! TD*
D12*
G04 #@! TO.P,C1,1*
G04 #@! TO.N,/+12V_NL*
X165862000Y-67540000D03*
G04 #@! TO.P,C1,2*
G04 #@! TO.N,GND*
X165862000Y-66040000D03*
G04 #@! TD*
G04 #@! TO.P,C2,1*
G04 #@! TO.N,Net-(C2-Pad1)*
X167640000Y-74664000D03*
G04 #@! TO.P,C2,2*
G04 #@! TO.N,GND*
X167640000Y-73164000D03*
G04 #@! TD*
D13*
G04 #@! TO.P,C4,1*
G04 #@! TO.N,Net-(C4-Pad1)*
X174500000Y-73120000D03*
G04 #@! TO.P,C4,2*
G04 #@! TO.N,/CM*
X176000000Y-73120000D03*
G04 #@! TD*
D12*
G04 #@! TO.P,C6,2*
G04 #@! TO.N,GND*
X169164000Y-77458000D03*
G04 #@! TO.P,C6,1*
G04 #@! TO.N,/UN*
X169164000Y-75958000D03*
G04 #@! TD*
G04 #@! TO.P,C9,1*
G04 #@! TO.N,/UA*
X168656000Y-62980000D03*
G04 #@! TO.P,C9,2*
G04 #@! TO.N,GND*
X168656000Y-61480000D03*
G04 #@! TD*
G04 #@! TO.P,C10,2*
G04 #@! TO.N,GND*
X176276000Y-66814000D03*
G04 #@! TO.P,C10,1*
G04 #@! TO.N,/UR*
X176276000Y-68314000D03*
G04 #@! TD*
D14*
G04 #@! TO.P,D1,3*
G04 #@! TO.N,/BRV*
X166070000Y-76710000D03*
G04 #@! TO.P,D1,1*
G04 #@! TO.N,GND*
X167670000Y-77360000D03*
G04 #@! TO.P,D1,2*
G04 #@! TO.N,+5V*
X167670000Y-76060000D03*
G04 #@! TD*
D15*
G04 #@! TO.P,R4,2*
G04 #@! TO.N,+5V*
X171208000Y-73152000D03*
G04 #@! TO.P,R4,1*
G04 #@! TO.N,Net-(R4-Pad1)*
X172708000Y-73152000D03*
G04 #@! TD*
D16*
G04 #@! TO.P,R6,1*
G04 #@! TO.N,/UN*
X166090000Y-73164000D03*
G04 #@! TO.P,R6,2*
G04 #@! TO.N,Net-(C2-Pad1)*
X166090000Y-74664000D03*
G04 #@! TD*
G04 #@! TO.P,R7,2*
G04 #@! TO.N,/IA*
X169672000Y-72910000D03*
G04 #@! TO.P,R7,1*
G04 #@! TO.N,/IP*
X169672000Y-74410000D03*
G04 #@! TD*
D15*
G04 #@! TO.P,R11,2*
G04 #@! TO.N,Net-(R11-Pad2)*
X171438000Y-62992000D03*
G04 #@! TO.P,R11,1*
G04 #@! TO.N,Net-(R11-Pad1)*
X169938000Y-62992000D03*
G04 #@! TD*
D16*
G04 #@! TO.P,R12,1*
G04 #@! TO.N,/IA*
X171040000Y-82870000D03*
G04 #@! TO.P,R12,2*
G04 #@! TO.N,Net-(R11-Pad1)*
X171040000Y-84370000D03*
G04 #@! TD*
G04 #@! TO.P,R13,2*
G04 #@! TO.N,Net-(R11-Pad1)*
X172643800Y-84366800D03*
G04 #@! TO.P,R13,1*
G04 #@! TO.N,/UN*
X172643800Y-82866800D03*
G04 #@! TD*
G04 #@! TO.P,R14,1*
G04 #@! TO.N,/RS*
X174940000Y-74440000D03*
G04 #@! TO.P,R14,2*
G04 #@! TO.N,/VM*
X174940000Y-75940000D03*
G04 #@! TD*
G04 #@! TO.P,R15,2*
G04 #@! TO.N,/RM*
X176276000Y-69608000D03*
G04 #@! TO.P,R15,1*
G04 #@! TO.N,/CM*
X176276000Y-71108000D03*
G04 #@! TD*
G04 #@! TO.P,R16,1*
G04 #@! TO.N,/BRV*
X165862000Y-70346000D03*
G04 #@! TO.P,R16,2*
G04 #@! TO.N,/+12V_NL*
X165862000Y-68846000D03*
G04 #@! TD*
G04 #@! TO.P,R20,2*
G04 #@! TO.N,/DIAHG*
X167700000Y-86330000D03*
G04 #@! TO.P,R20,1*
G04 #@! TO.N,Net-(R20-Pad1)*
X167700000Y-87830000D03*
G04 #@! TD*
D15*
G04 #@! TO.P,R21,1*
G04 #@! TO.N,GND*
X166050000Y-89200000D03*
G04 #@! TO.P,R21,2*
G04 #@! TO.N,Net-(R20-Pad1)*
X167550000Y-89200000D03*
G04 #@! TD*
G04 #@! TO.P,R22,2*
G04 #@! TO.N,Net-(R22-Pad2)*
X177160000Y-61060000D03*
G04 #@! TO.P,R22,1*
G04 #@! TO.N,/GP3*
X175660000Y-61060000D03*
G04 #@! TD*
G04 #@! TO.P,R23,1*
G04 #@! TO.N,+5V*
X175526000Y-82296000D03*
G04 #@! TO.P,R23,2*
G04 #@! TO.N,Net-(R22-Pad2)*
X177026000Y-82296000D03*
G04 #@! TD*
D17*
G04 #@! TO.P,U1,32*
G04 #@! TO.N,/IP*
X167998000Y-69802000D03*
G04 #@! TO.P,U1,31*
G04 #@! TO.N,/UN*
X167998000Y-69302000D03*
G04 #@! TO.P,U1,30*
G04 #@! TO.N,/+12V_NL*
X167998000Y-68802000D03*
G04 #@! TO.P,U1,29*
G04 #@! TO.N,GND*
X167998000Y-68302000D03*
G04 #@! TO.P,U1,28*
X167998000Y-67802000D03*
G04 #@! TO.P,U1,27*
G04 #@! TO.N,Net-(R10-Pad2)*
X167998000Y-67302000D03*
G04 #@! TO.P,U1,26*
G04 #@! TO.N,Net-(C8-Pad2)*
X167998000Y-66802000D03*
G04 #@! TO.P,U1,25*
G04 #@! TO.N,N/C*
X167998000Y-66302000D03*
D18*
G04 #@! TO.P,U1,24*
X169498000Y-64802000D03*
G04 #@! TO.P,U1,23*
G04 #@! TO.N,/UA*
X169998000Y-64802000D03*
G04 #@! TO.P,U1,22*
G04 #@! TO.N,Net-(R11-Pad1)*
X170498000Y-64802000D03*
G04 #@! TO.P,U1,21*
G04 #@! TO.N,Net-(R11-Pad2)*
X170998000Y-64802000D03*
G04 #@! TO.P,U1,20*
G04 #@! TO.N,/VM*
X171498000Y-64802000D03*
G04 #@! TO.P,U1,19*
G04 #@! TO.N,+5V*
X171998000Y-64802000D03*
G04 #@! TO.P,U1,18*
X172498000Y-64802000D03*
G04 #@! TO.P,U1,17*
G04 #@! TO.N,/LS_SS*
X172998000Y-64802000D03*
D17*
G04 #@! TO.P,U1,16*
G04 #@! TO.N,N/C*
X174498000Y-66302000D03*
G04 #@! TO.P,U1,15*
G04 #@! TO.N,/LS_MOSI*
X174498000Y-66802000D03*
G04 #@! TO.P,U1,14*
G04 #@! TO.N,/LS_MISO*
X174498000Y-67302000D03*
G04 #@! TO.P,U1,13*
G04 #@! TO.N,/LS_SCK*
X174498000Y-67802000D03*
G04 #@! TO.P,U1,12*
G04 #@! TO.N,/UR*
X174498000Y-68302000D03*
G04 #@! TO.P,U1,11*
G04 #@! TO.N,Net-(C4-Pad1)*
X174498000Y-68802000D03*
G04 #@! TO.P,U1,10*
G04 #@! TO.N,/RM*
X174498000Y-69302000D03*
G04 #@! TO.P,U1,9*
G04 #@! TO.N,N/C*
X174498000Y-69802000D03*
D18*
G04 #@! TO.P,U1,8*
G04 #@! TO.N,/RS*
X172998000Y-71302000D03*
G04 #@! TO.P,U1,7*
G04 #@! TO.N,Net-(R4-Pad1)*
X172498000Y-71302000D03*
G04 #@! TO.P,U1,6*
G04 #@! TO.N,/DIAHD*
X171998000Y-71302000D03*
G04 #@! TO.P,U1,5*
G04 #@! TO.N,+5V*
X171498000Y-71302000D03*
G04 #@! TO.P,U1,4*
G04 #@! TO.N,/DIAHG*
X170998000Y-71302000D03*
G04 #@! TO.P,U1,3*
G04 #@! TO.N,Net-(R3-Pad1)*
X170498000Y-71302000D03*
G04 #@! TO.P,U1,2*
G04 #@! TO.N,/IA*
X169998000Y-71302000D03*
G04 #@! TO.P,U1,1*
G04 #@! TO.N,N/C*
X169498000Y-71302000D03*
G04 #@! TD*
D19*
G04 #@! TO.P,J3,1*
G04 #@! TO.N,/+12V_NL*
X171450000Y-100965000D03*
G04 #@! TD*
G04 #@! TO.P,J1,1*
G04 #@! TO.N,/+12V_NL*
X167386000Y-58420000D03*
G04 #@! TD*
G04 #@! TO.P,J5,1*
G04 #@! TO.N,/UN*
X175514000Y-100965000D03*
G04 #@! TD*
G04 #@! TO.P,J8,1*
G04 #@! TO.N,/VM*
X167132000Y-99720400D03*
G04 #@! TD*
D20*
G04 #@! TO.P,J9,1*
G04 #@! TO.N,/PD2*
X176530000Y-58420000D03*
G04 #@! TD*
G04 #@! TO.P,J11,1*
G04 #@! TO.N,/GP3*
X173736000Y-58420000D03*
G04 #@! TD*
G04 #@! TO.P,J14,1*
G04 #@! TO.N,/Out1*
X170815000Y-58420000D03*
G04 #@! TD*
D21*
G04 #@! TO.P,RV1,2*
G04 #@! TO.N,GND*
X168550000Y-92405200D03*
G04 #@! TO.P,RV1,1*
G04 #@! TO.N,/+12V_NL*
X171450000Y-92405200D03*
G04 #@! TD*
D22*
G04 #@! TO.P,L1,2*
G04 #@! TO.N,/+12V_NL*
X171178400Y-95808800D03*
G04 #@! TO.P,L1,1*
G04 #@! TO.N,Net-(L1-Pad1)*
X168978400Y-95808800D03*
G04 #@! TD*
D12*
G04 #@! TO.P,C13,2*
G04 #@! TO.N,+5V*
X174270000Y-62980000D03*
G04 #@! TO.P,C13,1*
G04 #@! TO.N,GND*
X174270000Y-61480000D03*
G04 #@! TD*
G04 #@! TO.P,C14,1*
G04 #@! TO.N,GND*
X172750000Y-61430000D03*
G04 #@! TO.P,C14,2*
G04 #@! TO.N,+5V*
X172750000Y-62930000D03*
G04 #@! TD*
D23*
G04 #@! TO.P,C15,1*
G04 #@! TO.N,GND*
X175110000Y-95060000D03*
G04 #@! TO.P,C15,2*
G04 #@! TO.N,/+12V_NL*
X173110000Y-95060000D03*
G04 #@! TD*
G04 #@! TO.P,C16,2*
G04 #@! TO.N,/+12V_NL*
X173110000Y-91060000D03*
G04 #@! TO.P,C16,1*
G04 #@! TO.N,GND*
X175110000Y-91060000D03*
G04 #@! TD*
G04 #@! TO.P,C17,1*
G04 #@! TO.N,GND*
X175110000Y-89060000D03*
G04 #@! TO.P,C17,2*
G04 #@! TO.N,/+12V_NL*
X173110000Y-89060000D03*
G04 #@! TD*
G04 #@! TO.P,C18,2*
G04 #@! TO.N,/+12V_NL*
X173110000Y-87060000D03*
G04 #@! TO.P,C18,1*
G04 #@! TO.N,GND*
X175110000Y-87060000D03*
G04 #@! TD*
G04 #@! TO.P,C19,1*
G04 #@! TO.N,GND*
X175110000Y-97060000D03*
G04 #@! TO.P,C19,2*
G04 #@! TO.N,/+12V_NL*
X173110000Y-97060000D03*
G04 #@! TD*
G04 #@! TO.P,C20,2*
G04 #@! TO.N,/+12V_NL*
X173110000Y-93060000D03*
G04 #@! TO.P,C20,1*
G04 #@! TO.N,GND*
X175110000Y-93060000D03*
G04 #@! TD*
D24*
G04 #@! TO.N,/+12V_NL*
X171400000Y-87670000D03*
X171400000Y-87060000D03*
X171400000Y-88330000D03*
G04 #@! TO.N,GND*
X170474460Y-61029610D03*
X172720000Y-67310000D03*
X168910000Y-68060000D03*
X177016389Y-66760000D03*
X180690000Y-57360000D03*
X177016389Y-65259988D03*
X173997017Y-61152337D03*
X161270000Y-57110000D03*
X167251000Y-60700000D03*
X177647600Y-80975200D03*
X171450000Y-85496400D03*
X166573200Y-60700000D03*
X165862000Y-60700000D03*
X177495200Y-83718400D03*
X173346773Y-81209372D03*
X165557200Y-84328000D03*
X165300000Y-78170000D03*
X165720000Y-64650000D03*
X177190400Y-80416400D03*
X168708020Y-71570478D03*
X167182806Y-71577200D03*
X168100034Y-64724009D03*
X169926000Y-77470000D03*
X174125123Y-81369989D03*
X176810000Y-83510000D03*
X170730000Y-85490002D03*
X176960000Y-76119998D03*
X165644947Y-78759733D03*
X165811200Y-83835010D03*
X165177258Y-83835010D03*
X172180000Y-85520000D03*
X172890000Y-85530000D03*
X173610000Y-85540000D03*
X166350000Y-87850000D03*
X176160000Y-76190000D03*
G04 #@! TO.N,+5V*
X175514000Y-81026000D03*
X172165294Y-66223940D03*
X175591257Y-63540000D03*
X171320000Y-61899998D03*
X167385010Y-78260012D03*
X170942000Y-77265002D03*
X173439989Y-75979720D03*
X170694434Y-76319753D03*
G04 #@! TO.N,Net-(C8-Pad2)*
X169712293Y-66650204D03*
G04 #@! TO.N,/UA*
X166526927Y-63081966D03*
G04 #@! TO.N,/BRV*
X165608000Y-71628000D03*
G04 #@! TO.N,Net-(R3-Pad1)*
X170732304Y-69817936D03*
G04 #@! TO.N,/IA*
X171704000Y-81534000D03*
X169725606Y-72844117D03*
G04 #@! TO.N,/IP*
X169335010Y-69198525D03*
X169681768Y-74344042D03*
X167233600Y-97485200D03*
G04 #@! TO.N,Net-(R10-Pad2)*
X170434000Y-67564000D03*
G04 #@! TO.N,Net-(R11-Pad1)*
X165608001Y-62484001D03*
X169875200Y-84378800D03*
G04 #@! TO.N,/DIAHD*
X169548759Y-82636561D03*
G04 #@! TO.N,/DIAHG*
X172830000Y-70030000D03*
G04 #@! TO.N,Net-(R20-Pad1)*
X168670000Y-89610000D03*
G04 #@! TO.N,Net-(R22-Pad2)*
X176980155Y-62034835D03*
G04 #@! TO.N,/UN*
X175540000Y-98700000D03*
X173752340Y-82897660D03*
X169270000Y-80524979D03*
G04 #@! TO.N,/VM*
X177041268Y-63721172D03*
X176150327Y-75190035D03*
G04 #@! TO.N,/LED_1*
X177030000Y-77420000D03*
G04 #@! TO.N,/Out1*
X176170013Y-74190220D03*
G04 #@! TD*
D25*
G04 #@! TO.N,/+12V_NL*
X165862000Y-68846000D02*
X165862000Y-67540000D01*
X165906000Y-68802000D02*
X167998000Y-68802000D01*
X165862000Y-68846000D02*
X165906000Y-68802000D01*
X167386000Y-58420000D02*
X167580000Y-58420000D01*
D26*
X170357800Y-102057200D02*
X171450000Y-100965000D01*
X162204400Y-102057200D02*
X170357800Y-102057200D01*
X161086800Y-100939600D02*
X162204400Y-102057200D01*
X166740999Y-57774999D02*
X162909999Y-57774999D01*
X162909999Y-57774999D02*
X161086800Y-59598198D01*
X167386000Y-58420000D02*
X166740999Y-57774999D01*
X161086800Y-65684400D02*
X161086800Y-100939600D01*
X161086800Y-59598198D02*
X161086800Y-65684400D01*
D25*
X161137600Y-65735200D02*
X161086800Y-65684400D01*
X164164330Y-65735200D02*
X161137600Y-65735200D01*
X165862000Y-67432870D02*
X164164330Y-65735200D01*
X165862000Y-67540000D02*
X165862000Y-67432870D01*
D27*
X171810000Y-97060000D02*
X171450000Y-97420000D01*
D26*
X171450000Y-97420000D02*
X171450000Y-90881200D01*
D27*
X173110000Y-97060000D02*
X171810000Y-97060000D01*
D26*
X171450000Y-100965000D02*
X171450000Y-97420000D01*
D27*
X173110000Y-97060000D02*
X173110000Y-95060000D01*
X173110000Y-95060000D02*
X173110000Y-93060000D01*
X173110000Y-93060000D02*
X173110000Y-91060000D01*
X173110000Y-91060000D02*
X173110000Y-89060000D01*
X173110000Y-89060000D02*
X173110000Y-87060000D01*
X173110000Y-91060000D02*
X171628800Y-91060000D01*
X171600000Y-93060000D02*
X171430000Y-92890000D01*
X171430000Y-92425200D02*
X171450000Y-92405200D01*
X171430000Y-92890000D02*
X171430000Y-92425200D01*
X173110000Y-93060000D02*
X171600000Y-93060000D01*
X171430000Y-95557200D02*
X171178400Y-95808800D01*
X171430000Y-95120000D02*
X171430000Y-95557200D01*
X171490000Y-95060000D02*
X171430000Y-95120000D01*
X173110000Y-95060000D02*
X171490000Y-95060000D01*
X171628800Y-91060000D02*
X171450000Y-90881200D01*
D26*
X171450000Y-90881200D02*
X171400000Y-90831200D01*
D27*
X173110000Y-87060000D02*
X171400000Y-87060000D01*
X172110000Y-89060000D02*
X172100000Y-89070000D01*
X172100000Y-89070000D02*
X171400000Y-89070000D01*
X173110000Y-89060000D02*
X172110000Y-89060000D01*
D26*
X171400000Y-89070000D02*
X171400000Y-87060000D01*
X171400000Y-90831200D02*
X171400000Y-89070000D01*
D25*
G04 #@! TO.N,GND*
X167386000Y-60835000D02*
X168031000Y-61480000D01*
X170024070Y-61480000D02*
X170074461Y-61429609D01*
X168656000Y-61480000D02*
X170024070Y-61480000D01*
X170074461Y-61429609D02*
X170474460Y-61029610D01*
X169064000Y-77358000D02*
X169164000Y-77458000D01*
X167678000Y-77358000D02*
X169064000Y-77358000D01*
X168668000Y-68302000D02*
X168910000Y-68060000D01*
X167998000Y-68302000D02*
X168668000Y-68302000D01*
X168652000Y-67802000D02*
X168910000Y-68060000D01*
X167998000Y-67802000D02*
X168652000Y-67802000D01*
X176276000Y-66814000D02*
X176962389Y-66814000D01*
X176962389Y-66814000D02*
X177016389Y-66760000D01*
X168656000Y-61480000D02*
X168031000Y-61480000D01*
X165862000Y-66040000D02*
X165862000Y-65390000D01*
X169164000Y-77458000D02*
X169164000Y-77886000D01*
X165100000Y-93550000D02*
X165100000Y-88687318D01*
X163690000Y-94960000D02*
X165100000Y-93550000D01*
X165862000Y-66065000D02*
X165862000Y-66040000D01*
X166720000Y-67349002D02*
X166720000Y-66923000D01*
X167137999Y-67767001D02*
X166720000Y-67349002D01*
X166720000Y-66923000D02*
X165862000Y-66065000D01*
X167998000Y-67767001D02*
X167137999Y-67767001D01*
X167998000Y-68302000D02*
X167998000Y-67767001D01*
D27*
X173874290Y-61029610D02*
X173997017Y-61152337D01*
X170474460Y-61029610D02*
X173874290Y-61029610D01*
D25*
X165862000Y-64892870D02*
X165862000Y-65390000D01*
X164159130Y-63190000D02*
X165862000Y-64892870D01*
X163041399Y-63190000D02*
X164159130Y-63190000D01*
X168031000Y-61480000D02*
X167251000Y-60700000D01*
X162230000Y-62378601D02*
X163041399Y-63190000D01*
X163074000Y-60700000D02*
X162230000Y-61544000D01*
X162230000Y-61544000D02*
X162230000Y-62378601D01*
X167251000Y-60700000D02*
X166573200Y-60700000D01*
X166573200Y-60700000D02*
X165862000Y-60700000D01*
X165862000Y-60700000D02*
X163074000Y-60700000D01*
X170074461Y-60629611D02*
X169748011Y-60629611D01*
X169748011Y-60629611D02*
X169621200Y-60502800D01*
X170074461Y-60629611D02*
X170474460Y-61029610D01*
X169846050Y-60401200D02*
X170074461Y-60629611D01*
X167251000Y-60700000D02*
X167549800Y-60401200D01*
X166100000Y-80980000D02*
X166100000Y-81568800D01*
X166100000Y-81568800D02*
X166116000Y-81584800D01*
X165862000Y-65390000D02*
X165720000Y-65248000D01*
X165720000Y-65248000D02*
X165720000Y-65215685D01*
X165720000Y-65215685D02*
X165720000Y-64650000D01*
X177647600Y-80873600D02*
X177190400Y-80416400D01*
X177647600Y-80975200D02*
X177647600Y-80873600D01*
X167189528Y-71570478D02*
X167182806Y-71577200D01*
X167582805Y-71977199D02*
X167182806Y-71577200D01*
X167640000Y-73164000D02*
X167640000Y-72034394D01*
X167640000Y-72034394D02*
X167582805Y-71977199D01*
X168708020Y-71570478D02*
X167189528Y-71570478D01*
X165862000Y-66040000D02*
X166784043Y-66040000D01*
X166784043Y-66040000D02*
X167700035Y-65124008D01*
X167700035Y-65124008D02*
X168100034Y-64724009D01*
X169926000Y-77470000D02*
X166416000Y-80980000D01*
X169926000Y-77470000D02*
X169510000Y-77886000D01*
X166416000Y-80980000D02*
X166100000Y-80980000D01*
X169510000Y-77886000D02*
X169164000Y-77886000D01*
X169926000Y-77470000D02*
X169176000Y-77470000D01*
X169176000Y-77470000D02*
X169164000Y-77458000D01*
X166140000Y-88954000D02*
X166140000Y-89154000D01*
X173089989Y-66520011D02*
X173089989Y-66143600D01*
X173973601Y-65259988D02*
X176450704Y-65259988D01*
X173089989Y-66143600D02*
X173973601Y-65259988D01*
X172720000Y-66890000D02*
X173089989Y-66520011D01*
X176450704Y-65259988D02*
X177016389Y-65259988D01*
X172720000Y-67310000D02*
X172720000Y-66890000D01*
X167251000Y-60779000D02*
X166610000Y-61420000D01*
X167251000Y-60700000D02*
X167251000Y-60779000D01*
X171450000Y-85496400D02*
X170736398Y-85496400D01*
X170736398Y-85496400D02*
X170730000Y-85490002D01*
X169164000Y-77886000D02*
X165177258Y-81872742D01*
X165177258Y-81872742D02*
X165177258Y-83269325D01*
X165811200Y-83835010D02*
X165177258Y-83835010D01*
X165177258Y-83269325D02*
X165177258Y-83835010D01*
X173431332Y-61152337D02*
X173233669Y-61350000D01*
X173997017Y-61152337D02*
X173431332Y-61152337D01*
X173562337Y-61152337D02*
X173960000Y-61550000D01*
X173431332Y-61152337D02*
X173562337Y-61152337D01*
X173460000Y-61345000D02*
X173460000Y-61152337D01*
X172750000Y-61430000D02*
X173375000Y-61430000D01*
X173375000Y-61430000D02*
X173460000Y-61345000D01*
X173997017Y-61152337D02*
X173460000Y-61152337D01*
X165100000Y-92659200D02*
X166522400Y-91236800D01*
X165100000Y-93550000D02*
X165100000Y-92659200D01*
D27*
X166522400Y-91236800D02*
X166522400Y-91592400D01*
X167335200Y-92405200D02*
X168550000Y-92405200D01*
X166522400Y-91592400D02*
X167335200Y-92405200D01*
D25*
X172156400Y-85496400D02*
X172180000Y-85520000D01*
X171450000Y-85496400D02*
X172156400Y-85496400D01*
X173600000Y-85530000D02*
X173610000Y-85540000D01*
X172890000Y-85530000D02*
X173600000Y-85530000D01*
X169480000Y-60401200D02*
X169846050Y-60401200D01*
X167549800Y-60401200D02*
X169480000Y-60401200D01*
X179920000Y-56590000D02*
X180690000Y-57360000D01*
X161270000Y-57110000D02*
X161790000Y-56590000D01*
X169480000Y-60035150D02*
X169480000Y-56590000D01*
X170474460Y-61029610D02*
X169480000Y-60035150D01*
X169480000Y-56590000D02*
X179920000Y-56590000D01*
X161790000Y-56590000D02*
X169480000Y-56590000D01*
X166050000Y-88150000D02*
X166350000Y-87850000D01*
X166050000Y-89200000D02*
X166050000Y-88150000D01*
X177647600Y-80975200D02*
X176160000Y-79487600D01*
X176160000Y-79487600D02*
X176160000Y-76755685D01*
X176230002Y-76119998D02*
X176160000Y-76190000D01*
X176960000Y-76119998D02*
X176230002Y-76119998D01*
X176160000Y-76755685D02*
X176160000Y-76190000D01*
G04 #@! TO.N,Net-(C2-Pad1)*
X167640000Y-74664000D02*
X166116000Y-74664000D01*
G04 #@! TO.N,+5V*
X171498000Y-72862000D02*
X171498000Y-71302000D01*
X171208000Y-73152000D02*
X171498000Y-72862000D01*
X172498000Y-64802000D02*
X171998000Y-64802000D01*
X175514000Y-82284000D02*
X175526000Y-82296000D01*
X175514000Y-81026000D02*
X175514000Y-82284000D01*
X172498000Y-65891234D02*
X172165294Y-66223940D01*
X172498000Y-64802000D02*
X172498000Y-65891234D01*
X171434998Y-61722000D02*
X171320000Y-61836998D01*
X171320000Y-61836998D02*
X171320000Y-61899998D01*
X175271257Y-63220000D02*
X173400000Y-63220000D01*
X175591257Y-63540000D02*
X175271257Y-63220000D01*
X173790000Y-63220000D02*
X173960000Y-63050000D01*
X173400000Y-63220000D02*
X173790000Y-63220000D01*
X171349998Y-61899998D02*
X171320000Y-61899998D01*
X171820000Y-61910000D02*
X171360000Y-61910000D01*
X173130000Y-63220000D02*
X171820000Y-61910000D01*
X171360000Y-61910000D02*
X171349998Y-61899998D01*
X173400000Y-63220000D02*
X173130000Y-63220000D01*
D27*
X170694434Y-77024434D02*
X170694434Y-76885438D01*
X170694434Y-76885438D02*
X170694434Y-76319753D01*
X170950000Y-77280000D02*
X170694434Y-77024434D01*
D25*
X171208000Y-73152000D02*
X171208000Y-73728768D01*
X173039990Y-75560758D02*
X173039990Y-75579721D01*
X173039990Y-75579721D02*
X173439989Y-75979720D01*
X171208000Y-73728768D02*
X173039990Y-75560758D01*
D27*
X163690000Y-89250000D02*
X165710000Y-87230000D01*
X165710000Y-87230000D02*
X165710000Y-86440000D01*
X169222689Y-79549998D02*
X170942000Y-77830687D01*
X163690000Y-89880000D02*
X163690000Y-89250000D01*
X169021998Y-79549998D02*
X169222689Y-79549998D01*
X167617176Y-80954820D02*
X169021998Y-79549998D01*
X167617176Y-84532824D02*
X167617176Y-80954820D01*
X170942000Y-77830687D02*
X170942000Y-77265002D01*
X165710000Y-86440000D02*
X167617176Y-84532824D01*
D25*
X167570000Y-76060000D02*
X167670000Y-76060000D01*
X166944999Y-76685001D02*
X167570000Y-76060000D01*
X166944999Y-77820001D02*
X166944999Y-76685001D01*
X167385010Y-78260012D02*
X166944999Y-77820001D01*
X170314187Y-76700000D02*
X170694434Y-76319753D01*
X167760000Y-76700000D02*
X170314187Y-76700000D01*
X167670000Y-76610000D02*
X167760000Y-76700000D01*
X167670000Y-76060000D02*
X167670000Y-76610000D01*
G04 #@! TO.N,Net-(C4-Pad1)*
X174498000Y-68802000D02*
X173648000Y-68802000D01*
X174500000Y-72495000D02*
X174500000Y-73120000D01*
X173572999Y-71567999D02*
X174500000Y-72495000D01*
X173572999Y-68877001D02*
X173572999Y-71567999D01*
X173648000Y-68802000D02*
X173572999Y-68877001D01*
G04 #@! TO.N,/CM*
X176276000Y-71954000D02*
X176276000Y-71108000D01*
X176000000Y-72230000D02*
X176276000Y-71954000D01*
X176000000Y-73120000D02*
X176000000Y-72230000D01*
G04 #@! TO.N,/UN*
X169164000Y-75933000D02*
X169164000Y-75958000D01*
X168380000Y-75149000D02*
X169164000Y-75933000D01*
X168380000Y-74043998D02*
X168380000Y-75149000D01*
X168246002Y-73910000D02*
X168380000Y-74043998D01*
X166362000Y-73910000D02*
X168246002Y-73910000D01*
X165416000Y-73164000D02*
X166116000Y-73164000D01*
X165190000Y-73390000D02*
X165416000Y-73164000D01*
X163000000Y-73390000D02*
X165190000Y-73390000D01*
X164169130Y-68280000D02*
X163210870Y-68280000D01*
X165086999Y-69356001D02*
X165086999Y-69197869D01*
X166116000Y-73664000D02*
X166362000Y-73910000D01*
X165326998Y-69596000D02*
X165086999Y-69356001D01*
X163210870Y-68280000D02*
X162501399Y-68989471D01*
X167998000Y-69302000D02*
X167148000Y-69302000D01*
X167148000Y-69302000D02*
X166854000Y-69596000D01*
X166854000Y-69596000D02*
X165326998Y-69596000D01*
X162501399Y-72891399D02*
X163000000Y-73390000D01*
X166116000Y-73164000D02*
X166116000Y-73664000D01*
X162501399Y-68989471D02*
X162501399Y-72891399D01*
X165086999Y-69197869D02*
X164169130Y-68280000D01*
G04 #@! TO.N,Net-(C8-Pad2)*
X167998000Y-66802000D02*
X169560497Y-66802000D01*
X169560497Y-66802000D02*
X169712293Y-66650204D01*
G04 #@! TO.N,/UA*
X168656000Y-63005000D02*
X168656000Y-62980000D01*
X169527999Y-63876999D02*
X168656000Y-63005000D01*
X169922999Y-63876999D02*
X169527999Y-63876999D01*
X169998000Y-63952000D02*
X169922999Y-63876999D01*
X169998000Y-64802000D02*
X169998000Y-63952000D01*
X166628893Y-62980000D02*
X166526927Y-63081966D01*
X168656000Y-62980000D02*
X166628893Y-62980000D01*
G04 #@! TO.N,/UR*
X176264000Y-68302000D02*
X176276000Y-68314000D01*
X174498000Y-68302000D02*
X176264000Y-68302000D01*
X164882999Y-70752999D02*
X164553599Y-70423599D01*
X165259999Y-72353001D02*
X164882999Y-71976001D01*
X166410000Y-71200000D02*
X166410000Y-71899002D01*
X169247874Y-70330000D02*
X167280000Y-70330000D01*
X170060011Y-69517863D02*
X169247874Y-70330000D01*
X164553599Y-70423599D02*
X163690000Y-69560000D01*
X170060011Y-69328556D02*
X170060011Y-69517863D01*
X174498000Y-68302000D02*
X173448998Y-68302000D01*
X172700998Y-69050000D02*
X170338567Y-69050000D01*
X167280000Y-70330000D02*
X166410000Y-71200000D01*
X170338567Y-69050000D02*
X170060011Y-69328556D01*
X164882999Y-71976001D02*
X164882999Y-70752999D01*
X165956001Y-72353001D02*
X165259999Y-72353001D01*
X166410000Y-71899002D02*
X165956001Y-72353001D01*
X173448998Y-68302000D02*
X172700998Y-69050000D01*
G04 #@! TO.N,/BRV*
X165862000Y-71374000D02*
X165608000Y-71628000D01*
X165862000Y-70346000D02*
X165862000Y-71374000D01*
X165275998Y-76708000D02*
X163690000Y-75122002D01*
X166078000Y-76708000D02*
X165275998Y-76708000D01*
X163690000Y-75122002D02*
X163690000Y-74640000D01*
G04 #@! TO.N,Net-(R3-Pad1)*
X170498000Y-70052240D02*
X170732304Y-69817936D01*
X170498000Y-71302000D02*
X170498000Y-70052240D01*
G04 #@! TO.N,Net-(R4-Pad1)*
X172498000Y-72942000D02*
X172708000Y-73152000D01*
X172498000Y-71302000D02*
X172498000Y-72942000D01*
G04 #@! TO.N,/IA*
X169998000Y-71302000D02*
X169998000Y-72152000D01*
X169998000Y-72152000D02*
X169926000Y-72224000D01*
X169926000Y-72224000D02*
X169926000Y-72910000D01*
X170992800Y-82866800D02*
X171092800Y-82866800D01*
X170992800Y-82866800D02*
X170690800Y-82866800D01*
X170992800Y-82870800D02*
X171192800Y-82870800D01*
X170992800Y-82870800D02*
X170992800Y-82245200D01*
X170992800Y-82245200D02*
X171304001Y-81933999D01*
X171304001Y-81933999D02*
X171704000Y-81534000D01*
X169672000Y-72910000D02*
X169725606Y-72856394D01*
X169725606Y-72856394D02*
X169725606Y-72844117D01*
G04 #@! TO.N,/IP*
X169335010Y-69314990D02*
X169335010Y-69198525D01*
X168848000Y-69802000D02*
X169335010Y-69314990D01*
X167998000Y-69802000D02*
X168848000Y-69802000D01*
X167799285Y-97485200D02*
X167233600Y-97485200D01*
X172570022Y-75727200D02*
X172570022Y-78999393D01*
X169840000Y-89620000D02*
X169840000Y-97282202D01*
X167934085Y-97620000D02*
X167799285Y-97485200D01*
X169502202Y-97620000D02*
X167934085Y-97620000D01*
X169360000Y-81800000D02*
X168642198Y-82517802D01*
X168642198Y-88422198D02*
X169840000Y-89620000D01*
X172570022Y-78999393D02*
X169769415Y-81800000D01*
X168642198Y-82517802D02*
X168642198Y-88422198D01*
X169769415Y-81800000D02*
X169360000Y-81800000D01*
X171252821Y-74410000D02*
X172570022Y-75727200D01*
X169840000Y-97282202D02*
X169502202Y-97620000D01*
X169926000Y-74410000D02*
X171252821Y-74410000D01*
G04 #@! TO.N,/RS*
X173496000Y-72650000D02*
X172998000Y-72152000D01*
X174940000Y-74440000D02*
X174240000Y-74440000D01*
X173496000Y-73696000D02*
X173496000Y-72650000D01*
X174240000Y-74440000D02*
X173496000Y-73696000D01*
X172998000Y-72152000D02*
X172998000Y-71302000D01*
G04 #@! TO.N,Net-(R10-Pad2)*
X169487002Y-67564000D02*
X169225002Y-67302000D01*
X169225002Y-67302000D02*
X168848000Y-67302000D01*
X170434000Y-67564000D02*
X169487002Y-67564000D01*
X168848000Y-67302000D02*
X167998000Y-67302000D01*
G04 #@! TO.N,Net-(R11-Pad2)*
X170998000Y-63432000D02*
X171438000Y-62992000D01*
X170998000Y-64802000D02*
X170998000Y-63432000D01*
G04 #@! TO.N,Net-(R11-Pad1)*
X170498000Y-63552000D02*
X169938000Y-62992000D01*
X170498000Y-64802000D02*
X170498000Y-63552000D01*
X170984800Y-84378800D02*
X170992800Y-84370800D01*
X169849796Y-84378800D02*
X170984800Y-84378800D01*
X172639800Y-84370800D02*
X172643800Y-84366800D01*
X170992800Y-84370800D02*
X172639800Y-84370800D01*
X169938000Y-62792000D02*
X169376000Y-62230000D01*
X169938000Y-62992000D02*
X169938000Y-62792000D01*
X169376000Y-62230000D02*
X165862002Y-62230000D01*
X165862002Y-62230000D02*
X165608001Y-62484001D01*
G04 #@! TO.N,/DIAHD*
X173647723Y-75254719D02*
X173794023Y-75254719D01*
X169948758Y-82236562D02*
X169548759Y-82636561D01*
X173029989Y-79175837D02*
X169969264Y-82236562D01*
X173029989Y-77430011D02*
X173029989Y-79175837D01*
X174164999Y-75625695D02*
X174164999Y-76295001D01*
X171998000Y-71302000D02*
X171998000Y-73604996D01*
X174164999Y-76295001D02*
X173029989Y-77430011D01*
X173794023Y-75254719D02*
X174164999Y-75625695D01*
X171998000Y-73604996D02*
X173647723Y-75254719D01*
X169969264Y-82236562D02*
X169948758Y-82236562D01*
G04 #@! TO.N,/DIAHG*
X171569178Y-70030000D02*
X172264315Y-70030000D01*
X170998000Y-70601178D02*
X171569178Y-70030000D01*
X170998000Y-71302000D02*
X170998000Y-70601178D01*
X172264315Y-70030000D02*
X172830000Y-70030000D01*
X170998000Y-72152000D02*
X170998000Y-71302000D01*
X170530000Y-72620000D02*
X170998000Y-72152000D01*
X170340873Y-73569127D02*
X170530000Y-73380000D01*
X168860000Y-73936998D02*
X169227871Y-73569127D01*
X169227871Y-73569127D02*
X170340873Y-73569127D01*
X169653015Y-81249989D02*
X172120011Y-78782993D01*
X172120011Y-75913600D02*
X171276400Y-75069989D01*
X170530000Y-73380000D02*
X170530000Y-72620000D01*
X172120011Y-78782993D02*
X172120011Y-75913600D01*
X168192187Y-82307813D02*
X169250011Y-81249989D01*
X167700000Y-86330000D02*
X167700000Y-85830000D01*
X169250011Y-81249989D02*
X169653015Y-81249989D01*
X169046987Y-75069989D02*
X168860000Y-74883002D01*
X168192187Y-85337813D02*
X168192187Y-82307813D01*
X168860000Y-74883002D02*
X168860000Y-73936998D01*
X167700000Y-85830000D02*
X168192187Y-85337813D01*
X171276400Y-75069989D02*
X169046987Y-75069989D01*
G04 #@! TO.N,Net-(R20-Pad1)*
X168270001Y-89210001D02*
X168670000Y-89610000D01*
X167640000Y-89154000D02*
X168214000Y-89154000D01*
X168214000Y-89154000D02*
X168270001Y-89210001D01*
X167550000Y-87980000D02*
X167700000Y-87830000D01*
X167550000Y-89200000D02*
X167550000Y-87980000D01*
G04 #@! TO.N,Net-(R22-Pad2)*
X178894000Y-82296000D02*
X178930000Y-82260000D01*
X177026000Y-82296000D02*
X178894000Y-82296000D01*
X176960000Y-62014680D02*
X176980155Y-62034835D01*
X176980155Y-62034835D02*
X176980155Y-61759845D01*
X177160000Y-61580000D02*
X177160000Y-61060000D01*
X176980155Y-61759845D02*
X177160000Y-61580000D01*
G04 #@! TO.N,/LS_SS*
X173388000Y-64802000D02*
X172998000Y-64802000D01*
X176047415Y-64802000D02*
X173388000Y-64802000D01*
X179793599Y-66123579D02*
X180118601Y-65798577D01*
X179399130Y-63190000D02*
X178460870Y-63190000D01*
X176384753Y-64464662D02*
X176047415Y-64802000D01*
X178460870Y-63190000D02*
X177741399Y-63909471D01*
X177458013Y-64464662D02*
X176384753Y-64464662D01*
X177741399Y-64181276D02*
X177458013Y-64464662D01*
X177741399Y-63909471D02*
X177741399Y-64181276D01*
X180118601Y-65798577D02*
X180118601Y-63909471D01*
X180118601Y-63909471D02*
X179399130Y-63190000D01*
X179793599Y-66156401D02*
X179793599Y-66123579D01*
X178930000Y-67020000D02*
X179793599Y-66156401D01*
G04 #@! TO.N,/LS_MOSI*
X175569002Y-65984998D02*
X177425002Y-65984998D01*
X178066401Y-65343599D02*
X178930000Y-64480000D01*
X177425002Y-65984998D02*
X178066401Y-65343599D01*
X174498000Y-66802000D02*
X175348000Y-66802000D01*
X175514000Y-66040000D02*
X175569002Y-65984998D01*
X175348000Y-66802000D02*
X175514000Y-66636000D01*
X175514000Y-66636000D02*
X175514000Y-66040000D01*
G04 #@! TO.N,/LS_MISO*
X180568612Y-63578612D02*
X179793599Y-62803599D01*
X180568612Y-67281388D02*
X180568612Y-63578612D01*
X179560000Y-68290000D02*
X180568612Y-67281388D01*
X178440870Y-68290000D02*
X179560000Y-68290000D01*
X177714870Y-67564000D02*
X178440870Y-68290000D01*
X179793599Y-62803599D02*
X178930000Y-61940000D01*
X175610000Y-67564000D02*
X177714870Y-67564000D01*
X175348000Y-67302000D02*
X175610000Y-67564000D01*
X174498000Y-67302000D02*
X175348000Y-67302000D01*
G04 #@! TO.N,/LS_SCK*
X165674999Y-63924999D02*
X168434999Y-63924999D01*
X172371999Y-68035001D02*
X173068001Y-68035001D01*
X168930000Y-65559002D02*
X169260998Y-65890000D01*
X168434999Y-63924999D02*
X168930000Y-64420000D01*
X169260998Y-65890000D02*
X170226998Y-65890000D01*
X168930000Y-64420000D02*
X168930000Y-65559002D01*
X170226998Y-65890000D02*
X172371999Y-68035001D01*
X163690000Y-61940000D02*
X165674999Y-63924999D01*
X173648000Y-67802000D02*
X174498000Y-67802000D01*
X173068001Y-68035001D02*
X173301002Y-67802000D01*
X173301002Y-67802000D02*
X173648000Y-67802000D01*
G04 #@! TO.N,/UN*
X175540000Y-100939000D02*
X175514000Y-100965000D01*
X175540000Y-98700000D02*
X175540000Y-100939000D01*
X172643800Y-82866800D02*
X173721480Y-82866800D01*
X173721480Y-82866800D02*
X173752340Y-82897660D01*
X170227000Y-75520000D02*
X171010000Y-75520000D01*
X171670000Y-78124979D02*
X169669999Y-80124980D01*
X169164000Y-75958000D02*
X169789000Y-75958000D01*
X171670000Y-76180000D02*
X171670000Y-78124979D01*
X171010000Y-75520000D02*
X171670000Y-76180000D01*
X169789000Y-75958000D02*
X170227000Y-75520000D01*
X169669999Y-80124980D02*
X169270000Y-80524979D01*
G04 #@! TO.N,/VM*
X176475583Y-63721172D02*
X177041268Y-63721172D01*
X175931753Y-64265002D02*
X176475583Y-63721172D01*
X173805002Y-64265002D02*
X175931753Y-64265002D01*
X171670000Y-63780000D02*
X173320000Y-63780000D01*
X171498000Y-64802000D02*
X171498000Y-63952000D01*
X171498000Y-63952000D02*
X171670000Y-63780000D01*
X173320000Y-63780000D02*
X173805002Y-64265002D01*
X175828365Y-75190035D02*
X176150327Y-75190035D01*
X175689965Y-75190035D02*
X176150327Y-75190035D01*
X174940000Y-75940000D02*
X175689965Y-75190035D01*
X174940000Y-76300000D02*
X174940000Y-75940000D01*
X173480000Y-77760000D02*
X174940000Y-76300000D01*
X173480000Y-79381000D02*
X173480000Y-77760000D01*
X172429001Y-80431999D02*
X173480000Y-79381000D01*
X170290011Y-97529989D02*
X170290011Y-89190011D01*
X172429001Y-81882001D02*
X172429001Y-80431999D01*
X170290011Y-89190011D02*
X169096415Y-87996415D01*
X171850000Y-82461002D02*
X172429001Y-81882001D01*
X171575002Y-83620000D02*
X171850000Y-83345002D01*
X169530000Y-83620000D02*
X171575002Y-83620000D01*
X169096415Y-84053585D02*
X169530000Y-83620000D01*
X169096415Y-87996415D02*
X169096415Y-84053585D01*
X171850000Y-83345002D02*
X171850000Y-82461002D01*
X168099600Y-99720400D02*
X170290011Y-97529989D01*
X167132000Y-99720400D02*
X168099600Y-99720400D01*
G04 #@! TO.N,/PD2*
X179793599Y-86476401D02*
X178930000Y-87340000D01*
X181470011Y-60090009D02*
X181470011Y-84799989D01*
X179530001Y-58149999D02*
X181470011Y-60090009D01*
X181470011Y-84799989D02*
X179793599Y-86476401D01*
X177970000Y-57980000D02*
X179360002Y-57980000D01*
X177530000Y-58420000D02*
X177970000Y-57980000D01*
X179360002Y-57980000D02*
X179530001Y-58149999D01*
X176530000Y-58420000D02*
X177530000Y-58420000D01*
G04 #@! TO.N,/GP3*
X175630000Y-60700000D02*
X175630000Y-61040000D01*
X173736000Y-58806000D02*
X175630000Y-60700000D01*
X173736000Y-58420000D02*
X173736000Y-58806000D01*
G04 #@! TO.N,/RM*
X176274000Y-69610000D02*
X176276000Y-69608000D01*
X175670000Y-69610000D02*
X176274000Y-69610000D01*
X175362000Y-69302000D02*
X175670000Y-69610000D01*
X174498000Y-69302000D02*
X175362000Y-69302000D01*
G04 #@! TO.N,/LED_1*
X178050000Y-78440000D02*
X177030000Y-77420000D01*
X179700000Y-78440000D02*
X178050000Y-78440000D01*
X180400000Y-77740000D02*
X179700000Y-78440000D01*
X180400000Y-73570000D02*
X180400000Y-77740000D01*
X178930000Y-72100000D02*
X180400000Y-73570000D01*
G04 #@! TO.N,/Out1*
X172035000Y-60390000D02*
X174640000Y-60390000D01*
X177740000Y-61180001D02*
X178210001Y-60710000D01*
X176140000Y-62780000D02*
X177350000Y-62780000D01*
X176570012Y-73790221D02*
X176170013Y-74190220D01*
X179580000Y-70830000D02*
X178270000Y-70830000D01*
X175010000Y-61650000D02*
X176140000Y-62780000D01*
X170815000Y-58420000D02*
X170815000Y-59170000D01*
X177350000Y-62780000D02*
X177740000Y-62390000D01*
X170815000Y-59170000D02*
X172035000Y-60390000D01*
X178270000Y-70830000D02*
X177555685Y-71544315D01*
X177555685Y-72804548D02*
X176570012Y-73790221D01*
X177740000Y-62390000D02*
X177740000Y-61180001D01*
X178210001Y-60710000D02*
X179459130Y-60710000D01*
X179459130Y-60710000D02*
X181020000Y-62270870D01*
X181020000Y-62270870D02*
X181020000Y-69390000D01*
X175010000Y-60760000D02*
X175010000Y-61650000D01*
X181020000Y-69390000D02*
X179580000Y-70830000D01*
X177555685Y-71544315D02*
X177555685Y-72804548D01*
X174640000Y-60390000D02*
X175010000Y-60760000D01*
D27*
G04 #@! TO.N,Net-(L1-Pad1)*
X163690000Y-97500000D02*
X165910000Y-97500000D01*
X165910000Y-97500000D02*
X167601200Y-95808800D01*
X167601200Y-95808800D02*
X168978400Y-95808800D01*
D25*
X168978400Y-95808800D02*
X168978400Y-96311600D01*
G04 #@! TD*
D28*
G04 #@! TO.N,GND*
G36*
X174818191Y-83203809D02*
X175028235Y-83344157D01*
X175276000Y-83393440D01*
X175776000Y-83393440D01*
X176023765Y-83344157D01*
X176233809Y-83203809D01*
X176276000Y-83140666D01*
X176318191Y-83203809D01*
X176528235Y-83344157D01*
X176776000Y-83393440D01*
X177276000Y-83393440D01*
X177523765Y-83344157D01*
X177733809Y-83203809D01*
X177742084Y-83191424D01*
X178080660Y-83530000D01*
X177659549Y-83951111D01*
X177431400Y-84501910D01*
X177431400Y-85098090D01*
X177659549Y-85648889D01*
X178080660Y-86070000D01*
X177659549Y-86491111D01*
X177431400Y-87041910D01*
X177431400Y-87638090D01*
X177659549Y-88188889D01*
X178081111Y-88610451D01*
X178631910Y-88838600D01*
X179228090Y-88838600D01*
X179778889Y-88610451D01*
X180200451Y-88188889D01*
X180428600Y-87638090D01*
X180428600Y-87041910D01*
X180391781Y-86953020D01*
X181535001Y-85809801D01*
X181535001Y-102160000D01*
X177661440Y-102160000D01*
X177661440Y-100977613D01*
X178046331Y-101362504D01*
X178619697Y-101600000D01*
X179240303Y-101600000D01*
X179813669Y-101362504D01*
X180252504Y-100923669D01*
X180490000Y-100350303D01*
X180490000Y-99729697D01*
X180252504Y-99156331D01*
X180051295Y-98955122D01*
X180251409Y-98821409D01*
X180391757Y-98611365D01*
X180441040Y-98363600D01*
X180441040Y-96636400D01*
X180391757Y-96388635D01*
X180251409Y-96178591D01*
X180041365Y-96038243D01*
X179982755Y-96026585D01*
X180200451Y-95808889D01*
X180428600Y-95258090D01*
X180428600Y-94661910D01*
X180200451Y-94111111D01*
X179779340Y-93690000D01*
X180200451Y-93268889D01*
X180428600Y-92718090D01*
X180428600Y-92121910D01*
X180200451Y-91571111D01*
X179778889Y-91149549D01*
X179228090Y-90921400D01*
X178631910Y-90921400D01*
X178081111Y-91149549D01*
X177659549Y-91571111D01*
X177431400Y-92121910D01*
X177431400Y-92718090D01*
X177659549Y-93268889D01*
X178080660Y-93690000D01*
X177659549Y-94111111D01*
X177431400Y-94661910D01*
X177431400Y-95258090D01*
X177659549Y-95808889D01*
X177877245Y-96026585D01*
X177818635Y-96038243D01*
X177608591Y-96178591D01*
X177468243Y-96388635D01*
X177418960Y-96636400D01*
X177418960Y-98363600D01*
X177468243Y-98611365D01*
X177608591Y-98821409D01*
X177808705Y-98955122D01*
X177607496Y-99156331D01*
X177593706Y-99189622D01*
X177471809Y-99007191D01*
X177261765Y-98866843D01*
X177014000Y-98817560D01*
X176575000Y-98817560D01*
X176575000Y-98494126D01*
X176417431Y-98113720D01*
X176206930Y-97903219D01*
X176245000Y-97811310D01*
X176245000Y-97345750D01*
X176086250Y-97187000D01*
X175237000Y-97187000D01*
X175237000Y-97207000D01*
X174983000Y-97207000D01*
X174983000Y-97187000D01*
X174963000Y-97187000D01*
X174963000Y-96933000D01*
X174983000Y-96933000D01*
X174983000Y-95187000D01*
X175237000Y-95187000D01*
X175237000Y-96933000D01*
X176086250Y-96933000D01*
X176245000Y-96774250D01*
X176245000Y-96308690D01*
X176148327Y-96075301D01*
X176133026Y-96060000D01*
X176148327Y-96044699D01*
X176245000Y-95811310D01*
X176245000Y-95345750D01*
X176086250Y-95187000D01*
X175237000Y-95187000D01*
X174983000Y-95187000D01*
X174963000Y-95187000D01*
X174963000Y-94933000D01*
X174983000Y-94933000D01*
X174983000Y-93187000D01*
X175237000Y-93187000D01*
X175237000Y-94933000D01*
X176086250Y-94933000D01*
X176245000Y-94774250D01*
X176245000Y-94308690D01*
X176148327Y-94075301D01*
X176133026Y-94060000D01*
X176148327Y-94044699D01*
X176245000Y-93811310D01*
X176245000Y-93345750D01*
X176086250Y-93187000D01*
X175237000Y-93187000D01*
X174983000Y-93187000D01*
X174963000Y-93187000D01*
X174963000Y-92933000D01*
X174983000Y-92933000D01*
X174983000Y-91187000D01*
X175237000Y-91187000D01*
X175237000Y-92933000D01*
X176086250Y-92933000D01*
X176245000Y-92774250D01*
X176245000Y-92308690D01*
X176148327Y-92075301D01*
X176133026Y-92060000D01*
X176148327Y-92044699D01*
X176245000Y-91811310D01*
X176245000Y-91345750D01*
X176086250Y-91187000D01*
X175237000Y-91187000D01*
X174983000Y-91187000D01*
X174963000Y-91187000D01*
X174963000Y-90933000D01*
X174983000Y-90933000D01*
X174983000Y-89187000D01*
X175237000Y-89187000D01*
X175237000Y-90933000D01*
X176086250Y-90933000D01*
X176245000Y-90774250D01*
X176245000Y-90308690D01*
X176148327Y-90075301D01*
X176133026Y-90060000D01*
X176148327Y-90044699D01*
X176245000Y-89811310D01*
X176245000Y-89345750D01*
X176086250Y-89187000D01*
X175237000Y-89187000D01*
X174983000Y-89187000D01*
X174963000Y-89187000D01*
X174963000Y-88933000D01*
X174983000Y-88933000D01*
X174983000Y-87187000D01*
X175237000Y-87187000D01*
X175237000Y-88933000D01*
X176086250Y-88933000D01*
X176245000Y-88774250D01*
X176245000Y-88308690D01*
X176148327Y-88075301D01*
X176133026Y-88060000D01*
X176148327Y-88044699D01*
X176245000Y-87811310D01*
X176245000Y-87345750D01*
X176086250Y-87187000D01*
X175237000Y-87187000D01*
X174983000Y-87187000D01*
X174963000Y-87187000D01*
X174963000Y-86933000D01*
X174983000Y-86933000D01*
X174983000Y-85958750D01*
X175237000Y-85958750D01*
X175237000Y-86933000D01*
X176086250Y-86933000D01*
X176245000Y-86774250D01*
X176245000Y-86308690D01*
X176148327Y-86075301D01*
X175969698Y-85896673D01*
X175736309Y-85800000D01*
X175395750Y-85800000D01*
X175237000Y-85958750D01*
X174983000Y-85958750D01*
X174824250Y-85800000D01*
X174483691Y-85800000D01*
X174250302Y-85896673D01*
X174108654Y-86038320D01*
X174067809Y-85977191D01*
X173857765Y-85836843D01*
X173610000Y-85787560D01*
X172610000Y-85787560D01*
X172362235Y-85836843D01*
X172152191Y-85977191D01*
X172050400Y-86129531D01*
X171842855Y-85990854D01*
X171400000Y-85902765D01*
X170957146Y-85990854D01*
X170581712Y-86241711D01*
X170330855Y-86617145D01*
X170265001Y-86948217D01*
X170265000Y-88090199D01*
X169856415Y-87681614D01*
X169856415Y-85413800D01*
X170081074Y-85413800D01*
X170461480Y-85256231D01*
X170473453Y-85244258D01*
X170590000Y-85267440D01*
X171490000Y-85267440D01*
X171737765Y-85218157D01*
X171844295Y-85146976D01*
X171946035Y-85214957D01*
X172193800Y-85264240D01*
X173093800Y-85264240D01*
X173341565Y-85214957D01*
X173551609Y-85074609D01*
X173691957Y-84864565D01*
X173741240Y-84616800D01*
X173741240Y-84116800D01*
X173704613Y-83932660D01*
X173958214Y-83932660D01*
X174338620Y-83775091D01*
X174629771Y-83483940D01*
X174773506Y-83136933D01*
X174818191Y-83203809D01*
X174818191Y-83203809D01*
G37*
X174818191Y-83203809D02*
X175028235Y-83344157D01*
X175276000Y-83393440D01*
X175776000Y-83393440D01*
X176023765Y-83344157D01*
X176233809Y-83203809D01*
X176276000Y-83140666D01*
X176318191Y-83203809D01*
X176528235Y-83344157D01*
X176776000Y-83393440D01*
X177276000Y-83393440D01*
X177523765Y-83344157D01*
X177733809Y-83203809D01*
X177742084Y-83191424D01*
X178080660Y-83530000D01*
X177659549Y-83951111D01*
X177431400Y-84501910D01*
X177431400Y-85098090D01*
X177659549Y-85648889D01*
X178080660Y-86070000D01*
X177659549Y-86491111D01*
X177431400Y-87041910D01*
X177431400Y-87638090D01*
X177659549Y-88188889D01*
X178081111Y-88610451D01*
X178631910Y-88838600D01*
X179228090Y-88838600D01*
X179778889Y-88610451D01*
X180200451Y-88188889D01*
X180428600Y-87638090D01*
X180428600Y-87041910D01*
X180391781Y-86953020D01*
X181535001Y-85809801D01*
X181535001Y-102160000D01*
X177661440Y-102160000D01*
X177661440Y-100977613D01*
X178046331Y-101362504D01*
X178619697Y-101600000D01*
X179240303Y-101600000D01*
X179813669Y-101362504D01*
X180252504Y-100923669D01*
X180490000Y-100350303D01*
X180490000Y-99729697D01*
X180252504Y-99156331D01*
X180051295Y-98955122D01*
X180251409Y-98821409D01*
X180391757Y-98611365D01*
X180441040Y-98363600D01*
X180441040Y-96636400D01*
X180391757Y-96388635D01*
X180251409Y-96178591D01*
X180041365Y-96038243D01*
X179982755Y-96026585D01*
X180200451Y-95808889D01*
X180428600Y-95258090D01*
X180428600Y-94661910D01*
X180200451Y-94111111D01*
X179779340Y-93690000D01*
X180200451Y-93268889D01*
X180428600Y-92718090D01*
X180428600Y-92121910D01*
X180200451Y-91571111D01*
X179778889Y-91149549D01*
X179228090Y-90921400D01*
X178631910Y-90921400D01*
X178081111Y-91149549D01*
X177659549Y-91571111D01*
X177431400Y-92121910D01*
X177431400Y-92718090D01*
X177659549Y-93268889D01*
X178080660Y-93690000D01*
X177659549Y-94111111D01*
X177431400Y-94661910D01*
X177431400Y-95258090D01*
X177659549Y-95808889D01*
X177877245Y-96026585D01*
X177818635Y-96038243D01*
X177608591Y-96178591D01*
X177468243Y-96388635D01*
X177418960Y-96636400D01*
X177418960Y-98363600D01*
X177468243Y-98611365D01*
X177608591Y-98821409D01*
X177808705Y-98955122D01*
X177607496Y-99156331D01*
X177593706Y-99189622D01*
X177471809Y-99007191D01*
X177261765Y-98866843D01*
X177014000Y-98817560D01*
X176575000Y-98817560D01*
X176575000Y-98494126D01*
X176417431Y-98113720D01*
X176206930Y-97903219D01*
X176245000Y-97811310D01*
X176245000Y-97345750D01*
X176086250Y-97187000D01*
X175237000Y-97187000D01*
X175237000Y-97207000D01*
X174983000Y-97207000D01*
X174983000Y-97187000D01*
X174963000Y-97187000D01*
X174963000Y-96933000D01*
X174983000Y-96933000D01*
X174983000Y-95187000D01*
X175237000Y-95187000D01*
X175237000Y-96933000D01*
X176086250Y-96933000D01*
X176245000Y-96774250D01*
X176245000Y-96308690D01*
X176148327Y-96075301D01*
X176133026Y-96060000D01*
X176148327Y-96044699D01*
X176245000Y-95811310D01*
X176245000Y-95345750D01*
X176086250Y-95187000D01*
X175237000Y-95187000D01*
X174983000Y-95187000D01*
X174963000Y-95187000D01*
X174963000Y-94933000D01*
X174983000Y-94933000D01*
X174983000Y-93187000D01*
X175237000Y-93187000D01*
X175237000Y-94933000D01*
X176086250Y-94933000D01*
X176245000Y-94774250D01*
X176245000Y-94308690D01*
X176148327Y-94075301D01*
X176133026Y-94060000D01*
X176148327Y-94044699D01*
X176245000Y-93811310D01*
X176245000Y-93345750D01*
X176086250Y-93187000D01*
X175237000Y-93187000D01*
X174983000Y-93187000D01*
X174963000Y-93187000D01*
X174963000Y-92933000D01*
X174983000Y-92933000D01*
X174983000Y-91187000D01*
X175237000Y-91187000D01*
X175237000Y-92933000D01*
X176086250Y-92933000D01*
X176245000Y-92774250D01*
X176245000Y-92308690D01*
X176148327Y-92075301D01*
X176133026Y-92060000D01*
X176148327Y-92044699D01*
X176245000Y-91811310D01*
X176245000Y-91345750D01*
X176086250Y-91187000D01*
X175237000Y-91187000D01*
X174983000Y-91187000D01*
X174963000Y-91187000D01*
X174963000Y-90933000D01*
X174983000Y-90933000D01*
X174983000Y-89187000D01*
X175237000Y-89187000D01*
X175237000Y-90933000D01*
X176086250Y-90933000D01*
X176245000Y-90774250D01*
X176245000Y-90308690D01*
X176148327Y-90075301D01*
X176133026Y-90060000D01*
X176148327Y-90044699D01*
X176245000Y-89811310D01*
X176245000Y-89345750D01*
X176086250Y-89187000D01*
X175237000Y-89187000D01*
X174983000Y-89187000D01*
X174963000Y-89187000D01*
X174963000Y-88933000D01*
X174983000Y-88933000D01*
X174983000Y-87187000D01*
X175237000Y-87187000D01*
X175237000Y-88933000D01*
X176086250Y-88933000D01*
X176245000Y-88774250D01*
X176245000Y-88308690D01*
X176148327Y-88075301D01*
X176133026Y-88060000D01*
X176148327Y-88044699D01*
X176245000Y-87811310D01*
X176245000Y-87345750D01*
X176086250Y-87187000D01*
X175237000Y-87187000D01*
X174983000Y-87187000D01*
X174963000Y-87187000D01*
X174963000Y-86933000D01*
X174983000Y-86933000D01*
X174983000Y-85958750D01*
X175237000Y-85958750D01*
X175237000Y-86933000D01*
X176086250Y-86933000D01*
X176245000Y-86774250D01*
X176245000Y-86308690D01*
X176148327Y-86075301D01*
X175969698Y-85896673D01*
X175736309Y-85800000D01*
X175395750Y-85800000D01*
X175237000Y-85958750D01*
X174983000Y-85958750D01*
X174824250Y-85800000D01*
X174483691Y-85800000D01*
X174250302Y-85896673D01*
X174108654Y-86038320D01*
X174067809Y-85977191D01*
X173857765Y-85836843D01*
X173610000Y-85787560D01*
X172610000Y-85787560D01*
X172362235Y-85836843D01*
X172152191Y-85977191D01*
X172050400Y-86129531D01*
X171842855Y-85990854D01*
X171400000Y-85902765D01*
X170957146Y-85990854D01*
X170581712Y-86241711D01*
X170330855Y-86617145D01*
X170265001Y-86948217D01*
X170265000Y-88090199D01*
X169856415Y-87681614D01*
X169856415Y-85413800D01*
X170081074Y-85413800D01*
X170461480Y-85256231D01*
X170473453Y-85244258D01*
X170590000Y-85267440D01*
X171490000Y-85267440D01*
X171737765Y-85218157D01*
X171844295Y-85146976D01*
X171946035Y-85214957D01*
X172193800Y-85264240D01*
X173093800Y-85264240D01*
X173341565Y-85214957D01*
X173551609Y-85074609D01*
X173691957Y-84864565D01*
X173741240Y-84616800D01*
X173741240Y-84116800D01*
X173704613Y-83932660D01*
X173958214Y-83932660D01*
X174338620Y-83775091D01*
X174629771Y-83483940D01*
X174773506Y-83136933D01*
X174818191Y-83203809D01*
G36*
X165323750Y-89073000D02*
X165925000Y-89073000D01*
X165925000Y-89053000D01*
X166175000Y-89053000D01*
X166175000Y-89073000D01*
X166197000Y-89073000D01*
X166197000Y-89327000D01*
X166175000Y-89327000D01*
X166175000Y-90126250D01*
X166333750Y-90285000D01*
X166426309Y-90285000D01*
X166659698Y-90188327D01*
X166801346Y-90046680D01*
X166842191Y-90107809D01*
X167052235Y-90248157D01*
X167300000Y-90297440D01*
X167800000Y-90297440D01*
X167878178Y-90281889D01*
X168083720Y-90487431D01*
X168162832Y-90520200D01*
X167973691Y-90520200D01*
X167740302Y-90616873D01*
X167561673Y-90795501D01*
X167465000Y-91028890D01*
X167465000Y-92119450D01*
X167623750Y-92278200D01*
X168423000Y-92278200D01*
X168423000Y-92258200D01*
X168677000Y-92258200D01*
X168677000Y-92278200D01*
X168697000Y-92278200D01*
X168697000Y-92532200D01*
X168677000Y-92532200D01*
X168677000Y-92552200D01*
X168423000Y-92552200D01*
X168423000Y-92532200D01*
X167623750Y-92532200D01*
X167465000Y-92690950D01*
X167465000Y-93781510D01*
X167561673Y-94014899D01*
X167740302Y-94193527D01*
X167965196Y-94286681D01*
X167930960Y-94458800D01*
X167930960Y-94923800D01*
X167688361Y-94923800D01*
X167601200Y-94906463D01*
X167514039Y-94923800D01*
X167514035Y-94923800D01*
X167267518Y-94972835D01*
X167255890Y-94975148D01*
X167037045Y-95121376D01*
X167037044Y-95121377D01*
X166963151Y-95170751D01*
X166913777Y-95244644D01*
X165543422Y-96615000D01*
X164924340Y-96615000D01*
X164538889Y-96229549D01*
X163988090Y-96001400D01*
X163391910Y-96001400D01*
X162841111Y-96229549D01*
X162419549Y-96651111D01*
X162221800Y-97128518D01*
X162221800Y-92791482D01*
X162419549Y-93268889D01*
X162841111Y-93690451D01*
X163391910Y-93918600D01*
X163988090Y-93918600D01*
X164538889Y-93690451D01*
X164960451Y-93268889D01*
X165188600Y-92718090D01*
X165188600Y-92121910D01*
X164960451Y-91571111D01*
X164539340Y-91150000D01*
X164960451Y-90728889D01*
X165188600Y-90178090D01*
X165188600Y-89833285D01*
X165261673Y-90009699D01*
X165440302Y-90188327D01*
X165673691Y-90285000D01*
X165766250Y-90285000D01*
X165925000Y-90126250D01*
X165925000Y-89327000D01*
X165323750Y-89327000D01*
X165165000Y-89485750D01*
X165165000Y-89524935D01*
X165019035Y-89172544D01*
X165221164Y-88970414D01*
X165323750Y-89073000D01*
X165323750Y-89073000D01*
G37*
X165323750Y-89073000D02*
X165925000Y-89073000D01*
X165925000Y-89053000D01*
X166175000Y-89053000D01*
X166175000Y-89073000D01*
X166197000Y-89073000D01*
X166197000Y-89327000D01*
X166175000Y-89327000D01*
X166175000Y-90126250D01*
X166333750Y-90285000D01*
X166426309Y-90285000D01*
X166659698Y-90188327D01*
X166801346Y-90046680D01*
X166842191Y-90107809D01*
X167052235Y-90248157D01*
X167300000Y-90297440D01*
X167800000Y-90297440D01*
X167878178Y-90281889D01*
X168083720Y-90487431D01*
X168162832Y-90520200D01*
X167973691Y-90520200D01*
X167740302Y-90616873D01*
X167561673Y-90795501D01*
X167465000Y-91028890D01*
X167465000Y-92119450D01*
X167623750Y-92278200D01*
X168423000Y-92278200D01*
X168423000Y-92258200D01*
X168677000Y-92258200D01*
X168677000Y-92278200D01*
X168697000Y-92278200D01*
X168697000Y-92532200D01*
X168677000Y-92532200D01*
X168677000Y-92552200D01*
X168423000Y-92552200D01*
X168423000Y-92532200D01*
X167623750Y-92532200D01*
X167465000Y-92690950D01*
X167465000Y-93781510D01*
X167561673Y-94014899D01*
X167740302Y-94193527D01*
X167965196Y-94286681D01*
X167930960Y-94458800D01*
X167930960Y-94923800D01*
X167688361Y-94923800D01*
X167601200Y-94906463D01*
X167514039Y-94923800D01*
X167514035Y-94923800D01*
X167267518Y-94972835D01*
X167255890Y-94975148D01*
X167037045Y-95121376D01*
X167037044Y-95121377D01*
X166963151Y-95170751D01*
X166913777Y-95244644D01*
X165543422Y-96615000D01*
X164924340Y-96615000D01*
X164538889Y-96229549D01*
X163988090Y-96001400D01*
X163391910Y-96001400D01*
X162841111Y-96229549D01*
X162419549Y-96651111D01*
X162221800Y-97128518D01*
X162221800Y-92791482D01*
X162419549Y-93268889D01*
X162841111Y-93690451D01*
X163391910Y-93918600D01*
X163988090Y-93918600D01*
X164538889Y-93690451D01*
X164960451Y-93268889D01*
X165188600Y-92718090D01*
X165188600Y-92121910D01*
X164960451Y-91571111D01*
X164539340Y-91150000D01*
X164960451Y-90728889D01*
X165188600Y-90178090D01*
X165188600Y-89833285D01*
X165261673Y-90009699D01*
X165440302Y-90188327D01*
X165673691Y-90285000D01*
X165766250Y-90285000D01*
X165925000Y-90126250D01*
X165925000Y-89327000D01*
X165323750Y-89327000D01*
X165165000Y-89485750D01*
X165165000Y-89524935D01*
X165019035Y-89172544D01*
X165221164Y-88970414D01*
X165323750Y-89073000D01*
G36*
X165922998Y-88271748D02*
X165921414Y-88270164D01*
X165922998Y-88268580D01*
X165922998Y-88271748D01*
X165922998Y-88271748D01*
G37*
X165922998Y-88271748D02*
X165921414Y-88270164D01*
X165922998Y-88268580D01*
X165922998Y-88271748D01*
G36*
X166651843Y-86827765D02*
X166792191Y-87037809D01*
X166855334Y-87080000D01*
X166792191Y-87122191D01*
X166651843Y-87332235D01*
X166602560Y-87580000D01*
X166602560Y-88080000D01*
X166625972Y-88197703D01*
X166426309Y-88115000D01*
X166333750Y-88115000D01*
X166177002Y-88271748D01*
X166177002Y-88115000D01*
X166076578Y-88115000D01*
X166274156Y-87917423D01*
X166348049Y-87868049D01*
X166401831Y-87787560D01*
X166496231Y-87646280D01*
X166543652Y-87575310D01*
X166595000Y-87317165D01*
X166595000Y-87317161D01*
X166612337Y-87230001D01*
X166595000Y-87142841D01*
X166595000Y-86806578D01*
X166638897Y-86762681D01*
X166651843Y-86827765D01*
X166651843Y-86827765D01*
G37*
X166651843Y-86827765D02*
X166792191Y-87037809D01*
X166855334Y-87080000D01*
X166792191Y-87122191D01*
X166651843Y-87332235D01*
X166602560Y-87580000D01*
X166602560Y-88080000D01*
X166625972Y-88197703D01*
X166426309Y-88115000D01*
X166333750Y-88115000D01*
X166177002Y-88271748D01*
X166177002Y-88115000D01*
X166076578Y-88115000D01*
X166274156Y-87917423D01*
X166348049Y-87868049D01*
X166401831Y-87787560D01*
X166496231Y-87646280D01*
X166543652Y-87575310D01*
X166595000Y-87317165D01*
X166595000Y-87317161D01*
X166612337Y-87230001D01*
X166595000Y-87142841D01*
X166595000Y-86806578D01*
X166638897Y-86762681D01*
X166651843Y-86827765D01*
G36*
X165201146Y-77468000D02*
X165201151Y-77468000D01*
X165217278Y-77471208D01*
X165422235Y-77608157D01*
X165670000Y-77657440D01*
X166184999Y-77657440D01*
X166184999Y-77745154D01*
X166170111Y-77820001D01*
X166184999Y-77894848D01*
X166184999Y-77894852D01*
X166229095Y-78116537D01*
X166350010Y-78297500D01*
X166350010Y-78465886D01*
X166507579Y-78846292D01*
X166798730Y-79137443D01*
X167179136Y-79295012D01*
X167590884Y-79295012D01*
X167971290Y-79137443D01*
X168262441Y-78846292D01*
X168420010Y-78465886D01*
X168420010Y-78387036D01*
X168429301Y-78396327D01*
X168662690Y-78493000D01*
X168878250Y-78493000D01*
X169036998Y-78334252D01*
X169036998Y-78484111D01*
X168836564Y-78684545D01*
X168676688Y-78716346D01*
X168576943Y-78782994D01*
X168457843Y-78862574D01*
X168457842Y-78862575D01*
X168383949Y-78911949D01*
X168334575Y-78985842D01*
X167053021Y-80267397D01*
X166979128Y-80316771D01*
X166929754Y-80390664D01*
X166929752Y-80390666D01*
X166783524Y-80609511D01*
X166714839Y-80954820D01*
X166732177Y-81041985D01*
X166732176Y-84166245D01*
X165145845Y-85752577D01*
X165071952Y-85801951D01*
X165022578Y-85875844D01*
X165022576Y-85875846D01*
X164876348Y-86094691D01*
X164857940Y-86187235D01*
X164825000Y-86352835D01*
X164825000Y-86352839D01*
X164824532Y-86355192D01*
X164539340Y-86070000D01*
X164960451Y-85648889D01*
X165188600Y-85098090D01*
X165188600Y-84501910D01*
X164960451Y-83951111D01*
X164539340Y-83530000D01*
X164960451Y-83108889D01*
X165188600Y-82558090D01*
X165188600Y-81961910D01*
X164960451Y-81411111D01*
X164539340Y-80990000D01*
X164960451Y-80568889D01*
X165188600Y-80018090D01*
X165188600Y-79421910D01*
X164960451Y-78871111D01*
X164539340Y-78450000D01*
X164960451Y-78028889D01*
X165188600Y-77478090D01*
X165188600Y-77465504D01*
X165201146Y-77468000D01*
X165201146Y-77468000D01*
G37*
X165201146Y-77468000D02*
X165201151Y-77468000D01*
X165217278Y-77471208D01*
X165422235Y-77608157D01*
X165670000Y-77657440D01*
X166184999Y-77657440D01*
X166184999Y-77745154D01*
X166170111Y-77820001D01*
X166184999Y-77894848D01*
X166184999Y-77894852D01*
X166229095Y-78116537D01*
X166350010Y-78297500D01*
X166350010Y-78465886D01*
X166507579Y-78846292D01*
X166798730Y-79137443D01*
X167179136Y-79295012D01*
X167590884Y-79295012D01*
X167971290Y-79137443D01*
X168262441Y-78846292D01*
X168420010Y-78465886D01*
X168420010Y-78387036D01*
X168429301Y-78396327D01*
X168662690Y-78493000D01*
X168878250Y-78493000D01*
X169036998Y-78334252D01*
X169036998Y-78484111D01*
X168836564Y-78684545D01*
X168676688Y-78716346D01*
X168576943Y-78782994D01*
X168457843Y-78862574D01*
X168457842Y-78862575D01*
X168383949Y-78911949D01*
X168334575Y-78985842D01*
X167053021Y-80267397D01*
X166979128Y-80316771D01*
X166929754Y-80390664D01*
X166929752Y-80390666D01*
X166783524Y-80609511D01*
X166714839Y-80954820D01*
X166732177Y-81041985D01*
X166732176Y-84166245D01*
X165145845Y-85752577D01*
X165071952Y-85801951D01*
X165022578Y-85875844D01*
X165022576Y-85875846D01*
X164876348Y-86094691D01*
X164857940Y-86187235D01*
X164825000Y-86352835D01*
X164825000Y-86352839D01*
X164824532Y-86355192D01*
X164539340Y-86070000D01*
X164960451Y-85648889D01*
X165188600Y-85098090D01*
X165188600Y-84501910D01*
X164960451Y-83951111D01*
X164539340Y-83530000D01*
X164960451Y-83108889D01*
X165188600Y-82558090D01*
X165188600Y-81961910D01*
X164960451Y-81411111D01*
X164539340Y-80990000D01*
X164960451Y-80568889D01*
X165188600Y-80018090D01*
X165188600Y-79421910D01*
X164960451Y-78871111D01*
X164539340Y-78450000D01*
X164960451Y-78028889D01*
X165188600Y-77478090D01*
X165188600Y-77465504D01*
X165201146Y-77468000D01*
G36*
X178080660Y-73370000D02*
X177659549Y-73791111D01*
X177431400Y-74341910D01*
X177431400Y-74938090D01*
X177659549Y-75488889D01*
X178080660Y-75910000D01*
X177659549Y-76331111D01*
X177578451Y-76526900D01*
X177235874Y-76385000D01*
X176824126Y-76385000D01*
X176443720Y-76542569D01*
X176152569Y-76833720D01*
X175995000Y-77214126D01*
X175995000Y-77625874D01*
X176152569Y-78006280D01*
X176443720Y-78297431D01*
X176824126Y-78455000D01*
X176990199Y-78455000D01*
X177459671Y-78924473D01*
X177502071Y-78987929D01*
X177565527Y-79030329D01*
X177587513Y-79045020D01*
X177431400Y-79421910D01*
X177431400Y-80018090D01*
X177659549Y-80568889D01*
X178080660Y-80990000D01*
X177703033Y-81367627D01*
X177523765Y-81247843D01*
X177276000Y-81198560D01*
X176776000Y-81198560D01*
X176543656Y-81244776D01*
X176549000Y-81231874D01*
X176549000Y-80820126D01*
X176391431Y-80439720D01*
X176100280Y-80148569D01*
X175719874Y-79991000D01*
X175308126Y-79991000D01*
X174927720Y-80148569D01*
X174636569Y-80439720D01*
X174479000Y-80820126D01*
X174479000Y-81231874D01*
X174636569Y-81612280D01*
X174668665Y-81644376D01*
X174628560Y-81846000D01*
X174628560Y-82310169D01*
X174338620Y-82020229D01*
X173958214Y-81862660D01*
X173546466Y-81862660D01*
X173225584Y-81995573D01*
X173182985Y-81987100D01*
X173189001Y-81956853D01*
X173189001Y-81956849D01*
X173203889Y-81882002D01*
X173189001Y-81807155D01*
X173189001Y-80746800D01*
X173964473Y-79971329D01*
X174027929Y-79928929D01*
X174195904Y-79677537D01*
X174240000Y-79455852D01*
X174240000Y-79455848D01*
X174254888Y-79381001D01*
X174240000Y-79306154D01*
X174240000Y-78074801D01*
X175424473Y-76890329D01*
X175487929Y-76847929D01*
X175511022Y-76813367D01*
X175637765Y-76788157D01*
X175847809Y-76647809D01*
X175988157Y-76437765D01*
X176030471Y-76225035D01*
X176356201Y-76225035D01*
X176736607Y-76067466D01*
X177027758Y-75776315D01*
X177185327Y-75395909D01*
X177185327Y-74984161D01*
X177073378Y-74713891D01*
X177205013Y-74396094D01*
X177205013Y-74230021D01*
X178040158Y-73394877D01*
X178079350Y-73368690D01*
X178080660Y-73370000D01*
X178080660Y-73370000D01*
G37*
X178080660Y-73370000D02*
X177659549Y-73791111D01*
X177431400Y-74341910D01*
X177431400Y-74938090D01*
X177659549Y-75488889D01*
X178080660Y-75910000D01*
X177659549Y-76331111D01*
X177578451Y-76526900D01*
X177235874Y-76385000D01*
X176824126Y-76385000D01*
X176443720Y-76542569D01*
X176152569Y-76833720D01*
X175995000Y-77214126D01*
X175995000Y-77625874D01*
X176152569Y-78006280D01*
X176443720Y-78297431D01*
X176824126Y-78455000D01*
X176990199Y-78455000D01*
X177459671Y-78924473D01*
X177502071Y-78987929D01*
X177565527Y-79030329D01*
X177587513Y-79045020D01*
X177431400Y-79421910D01*
X177431400Y-80018090D01*
X177659549Y-80568889D01*
X178080660Y-80990000D01*
X177703033Y-81367627D01*
X177523765Y-81247843D01*
X177276000Y-81198560D01*
X176776000Y-81198560D01*
X176543656Y-81244776D01*
X176549000Y-81231874D01*
X176549000Y-80820126D01*
X176391431Y-80439720D01*
X176100280Y-80148569D01*
X175719874Y-79991000D01*
X175308126Y-79991000D01*
X174927720Y-80148569D01*
X174636569Y-80439720D01*
X174479000Y-80820126D01*
X174479000Y-81231874D01*
X174636569Y-81612280D01*
X174668665Y-81644376D01*
X174628560Y-81846000D01*
X174628560Y-82310169D01*
X174338620Y-82020229D01*
X173958214Y-81862660D01*
X173546466Y-81862660D01*
X173225584Y-81995573D01*
X173182985Y-81987100D01*
X173189001Y-81956853D01*
X173189001Y-81956849D01*
X173203889Y-81882002D01*
X173189001Y-81807155D01*
X173189001Y-80746800D01*
X173964473Y-79971329D01*
X174027929Y-79928929D01*
X174195904Y-79677537D01*
X174240000Y-79455852D01*
X174240000Y-79455848D01*
X174254888Y-79381001D01*
X174240000Y-79306154D01*
X174240000Y-78074801D01*
X175424473Y-76890329D01*
X175487929Y-76847929D01*
X175511022Y-76813367D01*
X175637765Y-76788157D01*
X175847809Y-76647809D01*
X175988157Y-76437765D01*
X176030471Y-76225035D01*
X176356201Y-76225035D01*
X176736607Y-76067466D01*
X177027758Y-75776315D01*
X177185327Y-75395909D01*
X177185327Y-74984161D01*
X177073378Y-74713891D01*
X177205013Y-74396094D01*
X177205013Y-74230021D01*
X178040158Y-73394877D01*
X178079350Y-73368690D01*
X178080660Y-73370000D01*
G36*
X169311000Y-77585000D02*
X169291000Y-77585000D01*
X169291000Y-77605000D01*
X169037000Y-77605000D01*
X169037000Y-77585000D01*
X169017000Y-77585000D01*
X169017000Y-77460000D01*
X169311000Y-77460000D01*
X169311000Y-77585000D01*
X169311000Y-77585000D01*
G37*
X169311000Y-77585000D02*
X169291000Y-77585000D01*
X169291000Y-77605000D01*
X169037000Y-77605000D01*
X169037000Y-77585000D01*
X169017000Y-77585000D01*
X169017000Y-77460000D01*
X169311000Y-77460000D01*
X169311000Y-77585000D01*
G36*
X168710560Y-71902000D02*
X168759843Y-72149765D01*
X168785403Y-72188018D01*
X168764191Y-72202191D01*
X168623843Y-72412235D01*
X168602032Y-72521887D01*
X168553327Y-72404302D01*
X168374699Y-72225673D01*
X168141310Y-72129000D01*
X167925750Y-72129000D01*
X167767000Y-72287750D01*
X167767000Y-73037000D01*
X167787000Y-73037000D01*
X167787000Y-73150000D01*
X167493000Y-73150000D01*
X167493000Y-73037000D01*
X167513000Y-73037000D01*
X167513000Y-72287750D01*
X167354250Y-72129000D01*
X167139139Y-72129000D01*
X167170000Y-71973854D01*
X167170000Y-71973850D01*
X167184888Y-71899002D01*
X167170000Y-71824154D01*
X167170000Y-71514801D01*
X167594802Y-71090000D01*
X168710560Y-71090000D01*
X168710560Y-71902000D01*
X168710560Y-71902000D01*
G37*
X168710560Y-71902000D02*
X168759843Y-72149765D01*
X168785403Y-72188018D01*
X168764191Y-72202191D01*
X168623843Y-72412235D01*
X168602032Y-72521887D01*
X168553327Y-72404302D01*
X168374699Y-72225673D01*
X168141310Y-72129000D01*
X167925750Y-72129000D01*
X167767000Y-72287750D01*
X167767000Y-73037000D01*
X167787000Y-73037000D01*
X167787000Y-73150000D01*
X167493000Y-73150000D01*
X167493000Y-73037000D01*
X167513000Y-73037000D01*
X167513000Y-72287750D01*
X167354250Y-72129000D01*
X167139139Y-72129000D01*
X167170000Y-71973854D01*
X167170000Y-71973850D01*
X167184888Y-71899002D01*
X167170000Y-71824154D01*
X167170000Y-71514801D01*
X167594802Y-71090000D01*
X168710560Y-71090000D01*
X168710560Y-71902000D01*
G36*
X173250560Y-66162000D02*
X173250560Y-66442000D01*
X173272440Y-66552000D01*
X173250560Y-66662000D01*
X173250560Y-66942000D01*
X173268765Y-67033524D01*
X173226154Y-67042000D01*
X173226150Y-67042000D01*
X173004465Y-67086096D01*
X172753073Y-67254071D01*
X172739088Y-67275001D01*
X172686801Y-67275001D01*
X172582997Y-67171198D01*
X172751574Y-67101371D01*
X173042725Y-66810220D01*
X173200294Y-66429814D01*
X173200294Y-66208140D01*
X173213904Y-66187771D01*
X173245680Y-66028021D01*
X173278509Y-66021491D01*
X173250560Y-66162000D01*
X173250560Y-66162000D01*
G37*
X173250560Y-66162000D02*
X173250560Y-66442000D01*
X173272440Y-66552000D01*
X173250560Y-66662000D01*
X173250560Y-66942000D01*
X173268765Y-67033524D01*
X173226154Y-67042000D01*
X173226150Y-67042000D01*
X173004465Y-67086096D01*
X172753073Y-67254071D01*
X172739088Y-67275001D01*
X172686801Y-67275001D01*
X172582997Y-67171198D01*
X172751574Y-67101371D01*
X173042725Y-66810220D01*
X173200294Y-66429814D01*
X173200294Y-66208140D01*
X173213904Y-66187771D01*
X173245680Y-66028021D01*
X173278509Y-66021491D01*
X173250560Y-66162000D01*
G36*
X176423000Y-66804000D02*
X176255472Y-66804000D01*
X176267208Y-66744998D01*
X176423000Y-66744998D01*
X176423000Y-66804000D01*
X176423000Y-66804000D01*
G37*
X176423000Y-66804000D02*
X176255472Y-66804000D01*
X176267208Y-66744998D01*
X176423000Y-66744998D01*
X176423000Y-66804000D01*
G36*
X166750560Y-66204310D02*
X166713252Y-66167002D01*
X166750560Y-66167002D01*
X166750560Y-66204310D01*
X166750560Y-66204310D01*
G37*
X166750560Y-66204310D02*
X166713252Y-66167002D01*
X166750560Y-66167002D01*
X166750560Y-66204310D01*
G36*
X165378462Y-64640903D02*
X165600147Y-64684999D01*
X165600151Y-64684999D01*
X165674999Y-64699887D01*
X165749847Y-64684999D01*
X168120198Y-64684999D01*
X168170000Y-64734802D01*
X168170001Y-65484151D01*
X168163952Y-65514560D01*
X167398000Y-65514560D01*
X167150235Y-65563843D01*
X166940191Y-65704191D01*
X166800670Y-65912998D01*
X166713252Y-65912998D01*
X166872000Y-65754250D01*
X166872000Y-65513691D01*
X166775327Y-65280302D01*
X166596699Y-65101673D01*
X166363310Y-65005000D01*
X166147750Y-65005000D01*
X165989000Y-65163750D01*
X165989000Y-65913000D01*
X166009000Y-65913000D01*
X166009000Y-66167000D01*
X165989000Y-66167000D01*
X165989000Y-66187000D01*
X165735000Y-66187000D01*
X165735000Y-66167000D01*
X165715000Y-66167000D01*
X165715000Y-65913000D01*
X165735000Y-65913000D01*
X165735000Y-65163750D01*
X165576250Y-65005000D01*
X165360690Y-65005000D01*
X165127301Y-65101673D01*
X165003136Y-65225839D01*
X165188600Y-64778090D01*
X165188600Y-64514041D01*
X165378462Y-64640903D01*
X165378462Y-64640903D01*
G37*
X165378462Y-64640903D02*
X165600147Y-64684999D01*
X165600151Y-64684999D01*
X165674999Y-64699887D01*
X165749847Y-64684999D01*
X168120198Y-64684999D01*
X168170000Y-64734802D01*
X168170001Y-65484151D01*
X168163952Y-65514560D01*
X167398000Y-65514560D01*
X167150235Y-65563843D01*
X166940191Y-65704191D01*
X166800670Y-65912998D01*
X166713252Y-65912998D01*
X166872000Y-65754250D01*
X166872000Y-65513691D01*
X166775327Y-65280302D01*
X166596699Y-65101673D01*
X166363310Y-65005000D01*
X166147750Y-65005000D01*
X165989000Y-65163750D01*
X165989000Y-65913000D01*
X166009000Y-65913000D01*
X166009000Y-66167000D01*
X165989000Y-66167000D01*
X165989000Y-66187000D01*
X165735000Y-66187000D01*
X165735000Y-66167000D01*
X165715000Y-66167000D01*
X165715000Y-65913000D01*
X165735000Y-65913000D01*
X165735000Y-65163750D01*
X165576250Y-65005000D01*
X165360690Y-65005000D01*
X165127301Y-65101673D01*
X165003136Y-65225839D01*
X165188600Y-64778090D01*
X165188600Y-64514041D01*
X165378462Y-64640903D01*
G36*
X177110201Y-65224998D02*
X176699218Y-65224998D01*
X176699554Y-65224662D01*
X177110537Y-65224662D01*
X177110201Y-65224998D01*
X177110201Y-65224998D01*
G37*
X177110201Y-65224998D02*
X176699218Y-65224998D01*
X176699554Y-65224662D01*
X177110537Y-65224662D01*
X177110201Y-65224998D01*
G36*
X162419549Y-62788889D02*
X162840660Y-63210000D01*
X162419549Y-63631111D01*
X162221800Y-64108518D01*
X162221800Y-62311482D01*
X162419549Y-62788889D01*
X162419549Y-62788889D01*
G37*
X162419549Y-62788889D02*
X162840660Y-63210000D01*
X162419549Y-63631111D01*
X162221800Y-64108518D01*
X162221800Y-62311482D01*
X162419549Y-62788889D01*
G36*
X165238560Y-59920000D02*
X165287843Y-60167765D01*
X165428191Y-60377809D01*
X165638235Y-60518157D01*
X165886000Y-60567440D01*
X168886000Y-60567440D01*
X169133765Y-60518157D01*
X169343809Y-60377809D01*
X169475500Y-60180721D01*
X169607191Y-60377809D01*
X169817235Y-60518157D01*
X170065000Y-60567440D01*
X171137638Y-60567440D01*
X171435196Y-60864998D01*
X171114126Y-60864998D01*
X170733720Y-61022567D01*
X170442569Y-61313718D01*
X170285000Y-61694124D01*
X170285000Y-61913854D01*
X170188000Y-61894560D01*
X170115361Y-61894560D01*
X169966331Y-61745530D01*
X169923929Y-61682071D01*
X169672537Y-61514096D01*
X169450852Y-61470000D01*
X169450847Y-61470000D01*
X169376000Y-61455112D01*
X169301153Y-61470000D01*
X165936850Y-61470000D01*
X165862002Y-61455112D01*
X165839455Y-61459597D01*
X165813875Y-61449001D01*
X165402127Y-61449001D01*
X165151667Y-61552745D01*
X164960451Y-61091111D01*
X164582757Y-60713417D01*
X165012504Y-60283669D01*
X165238560Y-59737922D01*
X165238560Y-59920000D01*
X165238560Y-59920000D01*
G37*
X165238560Y-59920000D02*
X165287843Y-60167765D01*
X165428191Y-60377809D01*
X165638235Y-60518157D01*
X165886000Y-60567440D01*
X168886000Y-60567440D01*
X169133765Y-60518157D01*
X169343809Y-60377809D01*
X169475500Y-60180721D01*
X169607191Y-60377809D01*
X169817235Y-60518157D01*
X170065000Y-60567440D01*
X171137638Y-60567440D01*
X171435196Y-60864998D01*
X171114126Y-60864998D01*
X170733720Y-61022567D01*
X170442569Y-61313718D01*
X170285000Y-61694124D01*
X170285000Y-61913854D01*
X170188000Y-61894560D01*
X170115361Y-61894560D01*
X169966331Y-61745530D01*
X169923929Y-61682071D01*
X169672537Y-61514096D01*
X169450852Y-61470000D01*
X169450847Y-61470000D01*
X169376000Y-61455112D01*
X169301153Y-61470000D01*
X165936850Y-61470000D01*
X165862002Y-61455112D01*
X165839455Y-61459597D01*
X165813875Y-61449001D01*
X165402127Y-61449001D01*
X165151667Y-61552745D01*
X164960451Y-61091111D01*
X164582757Y-60713417D01*
X165012504Y-60283669D01*
X165238560Y-59737922D01*
X165238560Y-59920000D01*
G36*
X172877000Y-61303000D02*
X173368750Y-61303000D01*
X173418750Y-61353000D01*
X174143000Y-61353000D01*
X174143000Y-61333000D01*
X174250000Y-61333000D01*
X174250001Y-61575149D01*
X174239687Y-61627000D01*
X174143000Y-61627000D01*
X174143000Y-61607000D01*
X173651250Y-61607000D01*
X173601250Y-61557000D01*
X172877000Y-61557000D01*
X172877000Y-61577000D01*
X172623000Y-61577000D01*
X172623000Y-61557000D01*
X172603000Y-61557000D01*
X172603000Y-61303000D01*
X172623000Y-61303000D01*
X172623000Y-61283000D01*
X172877000Y-61283000D01*
X172877000Y-61303000D01*
X172877000Y-61303000D01*
G37*
X172877000Y-61303000D02*
X173368750Y-61303000D01*
X173418750Y-61353000D01*
X174143000Y-61353000D01*
X174143000Y-61333000D01*
X174250000Y-61333000D01*
X174250001Y-61575149D01*
X174239687Y-61627000D01*
X174143000Y-61627000D01*
X174143000Y-61607000D01*
X173651250Y-61607000D01*
X173601250Y-61557000D01*
X172877000Y-61557000D01*
X172877000Y-61577000D01*
X172623000Y-61577000D01*
X172623000Y-61557000D01*
X172603000Y-61557000D01*
X172603000Y-61303000D01*
X172623000Y-61303000D01*
X172623000Y-61283000D01*
X172877000Y-61283000D01*
X172877000Y-61303000D01*
G36*
X162367496Y-60283669D02*
X162797244Y-60713417D01*
X162419549Y-61091111D01*
X162221800Y-61568518D01*
X162221800Y-60068329D01*
X162261751Y-60028378D01*
X162367496Y-60283669D01*
X162367496Y-60283669D01*
G37*
X162367496Y-60283669D02*
X162797244Y-60713417D01*
X162419549Y-61091111D01*
X162221800Y-61568518D01*
X162221800Y-60068329D01*
X162261751Y-60028378D01*
X162367496Y-60283669D01*
G36*
X181535000Y-59080196D02*
X180014473Y-57559670D01*
X179950333Y-57495530D01*
X179907931Y-57432071D01*
X179656539Y-57264096D01*
X179434854Y-57220000D01*
X179434849Y-57220000D01*
X179360002Y-57205112D01*
X179285155Y-57220000D01*
X178044847Y-57220000D01*
X177970000Y-57205112D01*
X177927440Y-57213578D01*
X177927440Y-56920000D01*
X177878157Y-56672235D01*
X177823209Y-56590000D01*
X181535000Y-56590000D01*
X181535000Y-59080196D01*
X181535000Y-59080196D01*
G37*
X181535000Y-59080196D02*
X180014473Y-57559670D01*
X179950333Y-57495530D01*
X179907931Y-57432071D01*
X179656539Y-57264096D01*
X179434854Y-57220000D01*
X179434849Y-57220000D01*
X179360002Y-57205112D01*
X179285155Y-57220000D01*
X178044847Y-57220000D01*
X177970000Y-57205112D01*
X177927440Y-57213578D01*
X177927440Y-56920000D01*
X177878157Y-56672235D01*
X177823209Y-56590000D01*
X181535000Y-56590000D01*
X181535000Y-59080196D01*
G36*
X165309383Y-56639999D02*
X163021782Y-56639999D01*
X162909999Y-56617764D01*
X162798216Y-56639999D01*
X162467144Y-56705853D01*
X162091710Y-56956710D01*
X162028388Y-57051478D01*
X160730000Y-58349867D01*
X160730000Y-56590000D01*
X165342791Y-56590000D01*
X165309383Y-56639999D01*
X165309383Y-56639999D01*
G37*
X165309383Y-56639999D02*
X163021782Y-56639999D01*
X162909999Y-56617764D01*
X162798216Y-56639999D01*
X162467144Y-56705853D01*
X162091710Y-56956710D01*
X162028388Y-57051478D01*
X160730000Y-58349867D01*
X160730000Y-56590000D01*
X165342791Y-56590000D01*
X165309383Y-56639999D01*
G36*
X169475500Y-56659279D02*
X169429209Y-56590000D01*
X169521791Y-56590000D01*
X169475500Y-56659279D01*
X169475500Y-56659279D01*
G37*
X169475500Y-56659279D02*
X169429209Y-56590000D01*
X169521791Y-56590000D01*
X169475500Y-56659279D01*
G04 #@! TD*
M02*
