M48
;DRILL file {KiCad (5.0.0-3-g5ebb6b6)} date Monday, 03 September 2018 at 19:30:47
;FORMAT={-:-/ absolute / metric / decimal}
FMAT,2
METRIC,TZ
T1C0.400
T2C1.016
%
G90
G05
M71
T1
X161.27Y-57.11
X165.177Y-83.835
X165.3Y-78.17
X165.557Y-84.328
X165.608Y-71.628
X165.608Y-62.484
X165.645Y-78.76
X165.72Y-64.65
X165.811Y-83.835
X165.862Y-60.7
X166.35Y-87.85
X166.527Y-63.082
X166.573Y-60.7
X167.183Y-71.577
X167.234Y-97.485
X167.251Y-60.7
X167.385Y-78.26
X168.1Y-64.724
X168.67Y-89.61
X168.708Y-71.57
X168.91Y-68.06
X169.27Y-80.525
X169.335Y-69.199
X169.549Y-82.637
X169.682Y-74.344
X169.712Y-66.65
X169.726Y-72.844
X169.875Y-84.379
X169.926Y-77.47
X170.434Y-67.564
X170.474Y-61.03
X170.694Y-76.32
X170.73Y-85.49
X170.732Y-69.818
X170.942Y-77.265
X171.32Y-61.9
X171.4Y-87.06
X171.4Y-87.67
X171.4Y-88.33
X171.45Y-85.496
X171.704Y-81.534
X172.165Y-66.224
X172.18Y-85.52
X172.72Y-67.31
X172.83Y-70.03
X172.89Y-85.53
X173.347Y-81.209
X173.44Y-75.98
X173.61Y-85.54
X173.752Y-82.898
X173.997Y-61.152
X174.125Y-81.37
X175.514Y-81.026
X175.54Y-98.7
X175.591Y-63.54
X176.15Y-75.19
X176.16Y-76.19
X176.17Y-74.19
X176.81Y-83.51
X176.96Y-76.12
X176.98Y-62.035
X177.016Y-65.26
X177.016Y-66.76
X177.03Y-77.42
X177.041Y-63.721
X177.19Y-80.416
X177.495Y-83.718
X177.648Y-80.975
X180.69Y-57.36
T2
X163.69Y-61.94
X163.69Y-64.48
X163.69Y-67.02
X163.69Y-69.56
X163.69Y-72.1
X163.69Y-74.64
X163.69Y-77.18
X163.69Y-79.72
X163.69Y-82.26
X163.69Y-84.8
X163.69Y-87.34
X163.69Y-89.88
X163.69Y-92.42
X163.69Y-94.96
X163.69Y-97.5
X178.93Y-61.94
X178.93Y-64.48
X178.93Y-67.02
X178.93Y-69.56
X178.93Y-72.1
X178.93Y-74.64
X178.93Y-77.18
X178.93Y-79.72
X178.93Y-82.26
X178.93Y-84.8
X178.93Y-87.34
X178.93Y-89.88
X178.93Y-92.42
X178.93Y-94.96
X178.93Y-97.5
T0
M30
