G04 #@! TF.GenerationSoftware,KiCad,Pcbnew,(5.0.0-3-g5ebb6b6)*
G04 #@! TF.CreationDate,2018-09-15T11:59:02+02:00*
G04 #@! TF.ProjectId,Nano_Lambda,4E616E6F5F4C616D6264612E6B696361,rev?*
G04 #@! TF.SameCoordinates,Original*
G04 #@! TF.FileFunction,Legend,Bot*
G04 #@! TF.FilePolarity,Positive*
%FSLAX46Y46*%
G04 Gerber Fmt 4.6, Leading zero omitted, Abs format (unit mm)*
G04 Created by KiCad (PCBNEW (5.0.0-3-g5ebb6b6)) date Saturday, 15 September 2018 at 11:59:02*
%MOMM*%
%LPD*%
G01*
G04 APERTURE LIST*
%ADD10C,0.300000*%
%ADD11C,0.150000*%
%ADD12C,0.120000*%
%ADD13C,0.127000*%
%ADD14C,0.203200*%
%ADD15C,2.127200*%
%ADD16R,2.127200X2.127200*%
%ADD17C,2.250000*%
%ADD18R,1.197560X1.197560*%
%ADD19R,1.200000X1.150000*%
%ADD20R,1.060400X0.806400*%
%ADD21R,1.300000X0.900000*%
%ADD22R,0.900000X1.300000*%
%ADD23R,1.050000X1.460000*%
%ADD24R,2.900000X2.700000*%
%ADD25R,1.900000X3.400000*%
%ADD26R,3.400000X3.400000*%
%ADD27R,3.448000X2.051000*%
%ADD28R,6.496000X6.496000*%
G04 APERTURE END LIST*
D10*
X181808571Y-61131428D02*
X180308571Y-61131428D01*
X181808571Y-61988571D01*
X180308571Y-61988571D01*
X181808571Y-63345714D02*
X181022857Y-63345714D01*
X180880000Y-63274285D01*
X180808571Y-63131428D01*
X180808571Y-62845714D01*
X180880000Y-62702857D01*
X181737142Y-63345714D02*
X181808571Y-63202857D01*
X181808571Y-62845714D01*
X181737142Y-62702857D01*
X181594285Y-62631428D01*
X181451428Y-62631428D01*
X181308571Y-62702857D01*
X181237142Y-62845714D01*
X181237142Y-63202857D01*
X181165714Y-63345714D01*
X180808571Y-64060000D02*
X181808571Y-64060000D01*
X180951428Y-64060000D02*
X180880000Y-64131428D01*
X180808571Y-64274285D01*
X180808571Y-64488571D01*
X180880000Y-64631428D01*
X181022857Y-64702857D01*
X181808571Y-64702857D01*
X181808571Y-65631428D02*
X181737142Y-65488571D01*
X181665714Y-65417142D01*
X181522857Y-65345714D01*
X181094285Y-65345714D01*
X180951428Y-65417142D01*
X180880000Y-65488571D01*
X180808571Y-65631428D01*
X180808571Y-65845714D01*
X180880000Y-65988571D01*
X180951428Y-66060000D01*
X181094285Y-66131428D01*
X181522857Y-66131428D01*
X181665714Y-66060000D01*
X181737142Y-65988571D01*
X181808571Y-65845714D01*
X181808571Y-65631428D01*
X181808571Y-68631428D02*
X181808571Y-67917142D01*
X180308571Y-67917142D01*
X181808571Y-69774285D02*
X181022857Y-69774285D01*
X180880000Y-69702857D01*
X180808571Y-69560000D01*
X180808571Y-69274285D01*
X180880000Y-69131428D01*
X181737142Y-69774285D02*
X181808571Y-69631428D01*
X181808571Y-69274285D01*
X181737142Y-69131428D01*
X181594285Y-69060000D01*
X181451428Y-69060000D01*
X181308571Y-69131428D01*
X181237142Y-69274285D01*
X181237142Y-69631428D01*
X181165714Y-69774285D01*
X181808571Y-70488571D02*
X180808571Y-70488571D01*
X180951428Y-70488571D02*
X180880000Y-70560000D01*
X180808571Y-70702857D01*
X180808571Y-70917142D01*
X180880000Y-71060000D01*
X181022857Y-71131428D01*
X181808571Y-71131428D01*
X181022857Y-71131428D02*
X180880000Y-71202857D01*
X180808571Y-71345714D01*
X180808571Y-71560000D01*
X180880000Y-71702857D01*
X181022857Y-71774285D01*
X181808571Y-71774285D01*
X181808571Y-72488571D02*
X180308571Y-72488571D01*
X180880000Y-72488571D02*
X180808571Y-72631428D01*
X180808571Y-72917142D01*
X180880000Y-73060000D01*
X180951428Y-73131428D01*
X181094285Y-73202857D01*
X181522857Y-73202857D01*
X181665714Y-73131428D01*
X181737142Y-73060000D01*
X181808571Y-72917142D01*
X181808571Y-72631428D01*
X181737142Y-72488571D01*
X181808571Y-74488571D02*
X180308571Y-74488571D01*
X181737142Y-74488571D02*
X181808571Y-74345714D01*
X181808571Y-74060000D01*
X181737142Y-73917142D01*
X181665714Y-73845714D01*
X181522857Y-73774285D01*
X181094285Y-73774285D01*
X180951428Y-73845714D01*
X180880000Y-73917142D01*
X180808571Y-74060000D01*
X180808571Y-74345714D01*
X180880000Y-74488571D01*
X181808571Y-75845714D02*
X181022857Y-75845714D01*
X180880000Y-75774285D01*
X180808571Y-75631428D01*
X180808571Y-75345714D01*
X180880000Y-75202857D01*
X181737142Y-75845714D02*
X181808571Y-75702857D01*
X181808571Y-75345714D01*
X181737142Y-75202857D01*
X181594285Y-75131428D01*
X181451428Y-75131428D01*
X181308571Y-75202857D01*
X181237142Y-75345714D01*
X181237142Y-75702857D01*
X181165714Y-75845714D01*
X181737142Y-77631428D02*
X181808571Y-77845714D01*
X181808571Y-78202857D01*
X181737142Y-78345714D01*
X181665714Y-78417142D01*
X181522857Y-78488571D01*
X181380000Y-78488571D01*
X181237142Y-78417142D01*
X181165714Y-78345714D01*
X181094285Y-78202857D01*
X181022857Y-77917142D01*
X180951428Y-77774285D01*
X180880000Y-77702857D01*
X180737142Y-77631428D01*
X180594285Y-77631428D01*
X180451428Y-77702857D01*
X180380000Y-77774285D01*
X180308571Y-77917142D01*
X180308571Y-78274285D01*
X180380000Y-78488571D01*
X181808571Y-79131428D02*
X180308571Y-79131428D01*
X181808571Y-79774285D02*
X181022857Y-79774285D01*
X180880000Y-79702857D01*
X180808571Y-79560000D01*
X180808571Y-79345714D01*
X180880000Y-79202857D01*
X180951428Y-79131428D01*
X181808571Y-80488571D02*
X180808571Y-80488571D01*
X180308571Y-80488571D02*
X180380000Y-80417142D01*
X180451428Y-80488571D01*
X180380000Y-80560000D01*
X180308571Y-80488571D01*
X180451428Y-80488571D01*
X181737142Y-81774285D02*
X181808571Y-81631428D01*
X181808571Y-81345714D01*
X181737142Y-81202857D01*
X181594285Y-81131428D01*
X181022857Y-81131428D01*
X180880000Y-81202857D01*
X180808571Y-81345714D01*
X180808571Y-81631428D01*
X180880000Y-81774285D01*
X181022857Y-81845714D01*
X181165714Y-81845714D01*
X181308571Y-81131428D01*
X181808571Y-82702857D02*
X181737142Y-82560000D01*
X181594285Y-82488571D01*
X180308571Y-82488571D01*
X181808571Y-83917142D02*
X180308571Y-83917142D01*
X181737142Y-83917142D02*
X181808571Y-83774285D01*
X181808571Y-83488571D01*
X181737142Y-83345714D01*
X181665714Y-83274285D01*
X181522857Y-83202857D01*
X181094285Y-83202857D01*
X180951428Y-83274285D01*
X180880000Y-83345714D01*
X180808571Y-83488571D01*
X180808571Y-83774285D01*
X180880000Y-83917142D01*
X180808571Y-85631428D02*
X181808571Y-85988571D01*
X180808571Y-86345714D01*
X180308571Y-87202857D02*
X180308571Y-87345714D01*
X180380000Y-87488571D01*
X180451428Y-87560000D01*
X180594285Y-87631428D01*
X180880000Y-87702857D01*
X181237142Y-87702857D01*
X181522857Y-87631428D01*
X181665714Y-87560000D01*
X181737142Y-87488571D01*
X181808571Y-87345714D01*
X181808571Y-87202857D01*
X181737142Y-87060000D01*
X181665714Y-86988571D01*
X181522857Y-86917142D01*
X181237142Y-86845714D01*
X180880000Y-86845714D01*
X180594285Y-86917142D01*
X180451428Y-86988571D01*
X180380000Y-87060000D01*
X180308571Y-87202857D01*
X181665714Y-88345714D02*
X181737142Y-88417142D01*
X181808571Y-88345714D01*
X181737142Y-88274285D01*
X181665714Y-88345714D01*
X181808571Y-88345714D01*
X181808571Y-89131428D02*
X181808571Y-89417142D01*
X181737142Y-89560000D01*
X181665714Y-89631428D01*
X181451428Y-89774285D01*
X181165714Y-89845714D01*
X180594285Y-89845714D01*
X180451428Y-89774285D01*
X180380000Y-89702857D01*
X180308571Y-89560000D01*
X180308571Y-89274285D01*
X180380000Y-89131428D01*
X180451428Y-89060000D01*
X180594285Y-88988571D01*
X180951428Y-88988571D01*
X181094285Y-89060000D01*
X181165714Y-89131428D01*
X181237142Y-89274285D01*
X181237142Y-89560000D01*
X181165714Y-89702857D01*
X181094285Y-89774285D01*
X180951428Y-89845714D01*
X181808571Y-90488571D02*
X180308571Y-90488571D01*
X180880000Y-90488571D02*
X180808571Y-90631428D01*
X180808571Y-90917142D01*
X180880000Y-91060000D01*
X180951428Y-91131428D01*
X181094285Y-91202857D01*
X181522857Y-91202857D01*
X181665714Y-91131428D01*
X181737142Y-91060000D01*
X181808571Y-90917142D01*
X181808571Y-90631428D01*
X181737142Y-90488571D01*
X180451428Y-92917142D02*
X180380000Y-92988571D01*
X180308571Y-93131428D01*
X180308571Y-93488571D01*
X180380000Y-93631428D01*
X180451428Y-93702857D01*
X180594285Y-93774285D01*
X180737142Y-93774285D01*
X180951428Y-93702857D01*
X181808571Y-92845714D01*
X181808571Y-93774285D01*
X180308571Y-94702857D02*
X180308571Y-94845714D01*
X180380000Y-94988571D01*
X180451428Y-95060000D01*
X180594285Y-95131428D01*
X180880000Y-95202857D01*
X181237142Y-95202857D01*
X181522857Y-95131428D01*
X181665714Y-95060000D01*
X181737142Y-94988571D01*
X181808571Y-94845714D01*
X181808571Y-94702857D01*
X181737142Y-94560000D01*
X181665714Y-94488571D01*
X181522857Y-94417142D01*
X181237142Y-94345714D01*
X180880000Y-94345714D01*
X180594285Y-94417142D01*
X180451428Y-94488571D01*
X180380000Y-94560000D01*
X180308571Y-94702857D01*
X181808571Y-96631428D02*
X181808571Y-95774285D01*
X181808571Y-96202857D02*
X180308571Y-96202857D01*
X180522857Y-96060000D01*
X180665714Y-95917142D01*
X180737142Y-95774285D01*
X180951428Y-97488571D02*
X180880000Y-97345714D01*
X180808571Y-97274285D01*
X180665714Y-97202857D01*
X180594285Y-97202857D01*
X180451428Y-97274285D01*
X180380000Y-97345714D01*
X180308571Y-97488571D01*
X180308571Y-97774285D01*
X180380000Y-97917142D01*
X180451428Y-97988571D01*
X180594285Y-98060000D01*
X180665714Y-98060000D01*
X180808571Y-97988571D01*
X180880000Y-97917142D01*
X180951428Y-97774285D01*
X180951428Y-97488571D01*
X181022857Y-97345714D01*
X181094285Y-97274285D01*
X181237142Y-97202857D01*
X181522857Y-97202857D01*
X181665714Y-97274285D01*
X181737142Y-97345714D01*
X181808571Y-97488571D01*
X181808571Y-97774285D01*
X181737142Y-97917142D01*
X181665714Y-97988571D01*
X181522857Y-98060000D01*
X181237142Y-98060000D01*
X181094285Y-97988571D01*
X181022857Y-97917142D01*
X180951428Y-97774285D01*
D11*
G04 #@! TO.C,D2*
X176350700Y-72120000D02*
X176100700Y-72370000D01*
X176350700Y-72620000D02*
X176350700Y-72120000D01*
X176100700Y-72370000D02*
X176350700Y-72620000D01*
X176100700Y-72620000D02*
X176100700Y-72120000D01*
X176150700Y-72370000D02*
X176600700Y-72370000D01*
X175250700Y-72920000D02*
X177150700Y-72920000D01*
X175250700Y-71820000D02*
X177150700Y-71820000D01*
G04 #@! TO.C,D3*
X176280000Y-81160000D02*
X176280000Y-79260000D01*
X177380000Y-81160000D02*
X177380000Y-79260000D01*
X176830000Y-80260000D02*
X176830000Y-79810000D01*
X177080000Y-80310000D02*
X176580000Y-80310000D01*
X176830000Y-80310000D02*
X177080000Y-80060000D01*
X177080000Y-80060000D02*
X176580000Y-80060000D01*
X176580000Y-80060000D02*
X176830000Y-80310000D01*
G04 #@! TO.C,C5*
X166260000Y-74320000D02*
X166960000Y-74320000D01*
X166960000Y-73120000D02*
X166260000Y-73120000D01*
G04 #@! TO.C,C7*
X174350000Y-75640000D02*
X175050000Y-75640000D01*
X175050000Y-74440000D02*
X174350000Y-74440000D01*
G04 #@! TO.C,C9*
X166040000Y-72810000D02*
X166740000Y-72810000D01*
X166740000Y-71610000D02*
X166040000Y-71610000D01*
G04 #@! TO.C,C11*
X165930000Y-67640000D02*
X166630000Y-67640000D01*
X166630000Y-66440000D02*
X165930000Y-66440000D01*
G04 #@! TO.C,C12*
X174750000Y-78690000D02*
X174050000Y-78690000D01*
X174050000Y-79890000D02*
X174750000Y-79890000D01*
G04 #@! TO.C,IC1*
X173954000Y-76139600D02*
X175154000Y-76139600D01*
X173954000Y-78339600D02*
X173954000Y-76139600D01*
X175154000Y-78339600D02*
X173954000Y-78339600D01*
X175154000Y-76139600D02*
X175154000Y-78339600D01*
X174254000Y-78039600D02*
X173954000Y-78039600D01*
X174254000Y-78339600D02*
X174254000Y-78039600D01*
G04 #@! TO.C,R1*
X176275000Y-76730000D02*
X176275000Y-77730000D01*
X177625000Y-77730000D02*
X177625000Y-76730000D01*
G04 #@! TO.C,R2*
X175970000Y-71485000D02*
X176970000Y-71485000D01*
X176970000Y-70135000D02*
X175970000Y-70135000D01*
G04 #@! TO.C,R7*
X165175000Y-69050000D02*
X165175000Y-70050000D01*
X166525000Y-70050000D02*
X166525000Y-69050000D01*
G04 #@! TO.C,R14*
X172825000Y-70430000D02*
X172825000Y-71430000D01*
X174175000Y-71430000D02*
X174175000Y-70430000D01*
G04 #@! TO.C,R16*
X166760000Y-75615000D02*
X165760000Y-75615000D01*
X165760000Y-76965000D02*
X166760000Y-76965000D01*
G04 #@! TO.C,R17*
X166750000Y-77215000D02*
X165750000Y-77215000D01*
X165750000Y-78565000D02*
X166750000Y-78565000D01*
G04 #@! TO.C,R19*
X175265000Y-83370000D02*
X175265000Y-82370000D01*
X173915000Y-82370000D02*
X173915000Y-83370000D01*
G04 #@! TO.C,R20*
X167100000Y-87655000D02*
X168100000Y-87655000D01*
X168100000Y-86305000D02*
X167100000Y-86305000D01*
G04 #@! TO.C,R21*
X167950000Y-88485000D02*
X166950000Y-88485000D01*
X166950000Y-89835000D02*
X167950000Y-89835000D01*
D12*
G04 #@! TO.C,U2*
X172262000Y-66434000D02*
X172262000Y-63984000D01*
X175482000Y-64634000D02*
X175482000Y-66434000D01*
G04 #@! TO.C,U3*
X171150000Y-64630000D02*
X171150000Y-66430000D01*
X167930000Y-66430000D02*
X167930000Y-63980000D01*
G04 #@! TO.C,U4*
X176769000Y-85560000D02*
X171069000Y-85560000D01*
X176769000Y-89860000D02*
X171069000Y-89860000D01*
X176769000Y-85560000D02*
X176769000Y-89860000D01*
D13*
G04 #@! TO.C,U5*
X168783000Y-92202000D02*
X165608000Y-92202000D01*
X165608000Y-92202000D02*
X165608000Y-90424000D01*
X165608000Y-90424000D02*
X168783000Y-90424000D01*
X168783000Y-96774000D02*
X165608000Y-96774000D01*
X165608000Y-96774000D02*
X165608000Y-94996000D01*
X165608000Y-94996000D02*
X168783000Y-94996000D01*
X174879000Y-90170000D02*
X168783000Y-90170000D01*
X168783000Y-90170000D02*
X168783000Y-97028000D01*
X168783000Y-97028000D02*
X176657000Y-97028000D01*
X176784000Y-97028000D02*
X176784000Y-90170000D01*
X176657000Y-90170000D02*
X174879000Y-90170000D01*
D11*
G04 #@! TO.C,C13*
X174580000Y-62280000D02*
X173880000Y-62280000D01*
X173880000Y-63480000D02*
X174580000Y-63480000D01*
G04 #@! TO.C,C14*
X170980000Y-63470000D02*
X171680000Y-63470000D01*
X171680000Y-62270000D02*
X170980000Y-62270000D01*
G04 #@! TO.C,R8*
X165660000Y-80665000D02*
X166660000Y-80665000D01*
X166660000Y-79315000D02*
X165660000Y-79315000D01*
G04 #@! TO.C,R9*
X166660000Y-80905000D02*
X165660000Y-80905000D01*
X165660000Y-82255000D02*
X166660000Y-82255000D01*
G04 #@! TO.C,D2*
X177428095Y-74192380D02*
X177428095Y-73192380D01*
X177190000Y-73192380D01*
X177047142Y-73240000D01*
X176951904Y-73335238D01*
X176904285Y-73430476D01*
X176856666Y-73620952D01*
X176856666Y-73763809D01*
X176904285Y-73954285D01*
X176951904Y-74049523D01*
X177047142Y-74144761D01*
X177190000Y-74192380D01*
X177428095Y-74192380D01*
X176475714Y-73287619D02*
X176428095Y-73240000D01*
X176332857Y-73192380D01*
X176094761Y-73192380D01*
X175999523Y-73240000D01*
X175951904Y-73287619D01*
X175904285Y-73382857D01*
X175904285Y-73478095D01*
X175951904Y-73620952D01*
X176523333Y-74192380D01*
X175904285Y-74192380D01*
G04 #@! TO.C,D3*
X177342380Y-81761904D02*
X176342380Y-81761904D01*
X176342380Y-82000000D01*
X176390000Y-82142857D01*
X176485238Y-82238095D01*
X176580476Y-82285714D01*
X176770952Y-82333333D01*
X176913809Y-82333333D01*
X177104285Y-82285714D01*
X177199523Y-82238095D01*
X177294761Y-82142857D01*
X177342380Y-82000000D01*
X177342380Y-81761904D01*
X176342380Y-82666666D02*
X176342380Y-83285714D01*
X176723333Y-82952380D01*
X176723333Y-83095238D01*
X176770952Y-83190476D01*
X176818571Y-83238095D01*
X176913809Y-83285714D01*
X177151904Y-83285714D01*
X177247142Y-83238095D01*
X177294761Y-83190476D01*
X177342380Y-83095238D01*
X177342380Y-82809523D01*
X177294761Y-82714285D01*
X177247142Y-82666666D01*
G04 #@! TO.C,C5*
X169326666Y-74077142D02*
X169374285Y-74124761D01*
X169517142Y-74172380D01*
X169612380Y-74172380D01*
X169755238Y-74124761D01*
X169850476Y-74029523D01*
X169898095Y-73934285D01*
X169945714Y-73743809D01*
X169945714Y-73600952D01*
X169898095Y-73410476D01*
X169850476Y-73315238D01*
X169755238Y-73220000D01*
X169612380Y-73172380D01*
X169517142Y-73172380D01*
X169374285Y-73220000D01*
X169326666Y-73267619D01*
X168421904Y-73172380D02*
X168898095Y-73172380D01*
X168945714Y-73648571D01*
X168898095Y-73600952D01*
X168802857Y-73553333D01*
X168564761Y-73553333D01*
X168469523Y-73600952D01*
X168421904Y-73648571D01*
X168374285Y-73743809D01*
X168374285Y-73981904D01*
X168421904Y-74077142D01*
X168469523Y-74124761D01*
X168564761Y-74172380D01*
X168802857Y-74172380D01*
X168898095Y-74124761D01*
X168945714Y-74077142D01*
G04 #@! TO.C,C7*
X174166666Y-74007142D02*
X174214285Y-74054761D01*
X174357142Y-74102380D01*
X174452380Y-74102380D01*
X174595238Y-74054761D01*
X174690476Y-73959523D01*
X174738095Y-73864285D01*
X174785714Y-73673809D01*
X174785714Y-73530952D01*
X174738095Y-73340476D01*
X174690476Y-73245238D01*
X174595238Y-73150000D01*
X174452380Y-73102380D01*
X174357142Y-73102380D01*
X174214285Y-73150000D01*
X174166666Y-73197619D01*
X173833333Y-73102380D02*
X173166666Y-73102380D01*
X173595238Y-74102380D01*
G04 #@! TO.C,C9*
X169116666Y-72527142D02*
X169164285Y-72574761D01*
X169307142Y-72622380D01*
X169402380Y-72622380D01*
X169545238Y-72574761D01*
X169640476Y-72479523D01*
X169688095Y-72384285D01*
X169735714Y-72193809D01*
X169735714Y-72050952D01*
X169688095Y-71860476D01*
X169640476Y-71765238D01*
X169545238Y-71670000D01*
X169402380Y-71622380D01*
X169307142Y-71622380D01*
X169164285Y-71670000D01*
X169116666Y-71717619D01*
X168640476Y-72622380D02*
X168450000Y-72622380D01*
X168354761Y-72574761D01*
X168307142Y-72527142D01*
X168211904Y-72384285D01*
X168164285Y-72193809D01*
X168164285Y-71812857D01*
X168211904Y-71717619D01*
X168259523Y-71670000D01*
X168354761Y-71622380D01*
X168545238Y-71622380D01*
X168640476Y-71670000D01*
X168688095Y-71717619D01*
X168735714Y-71812857D01*
X168735714Y-72050952D01*
X168688095Y-72146190D01*
X168640476Y-72193809D01*
X168545238Y-72241428D01*
X168354761Y-72241428D01*
X168259523Y-72193809D01*
X168211904Y-72146190D01*
X168164285Y-72050952D01*
G04 #@! TO.C,C11*
X166652857Y-65987142D02*
X166700476Y-66034761D01*
X166843333Y-66082380D01*
X166938571Y-66082380D01*
X167081428Y-66034761D01*
X167176666Y-65939523D01*
X167224285Y-65844285D01*
X167271904Y-65653809D01*
X167271904Y-65510952D01*
X167224285Y-65320476D01*
X167176666Y-65225238D01*
X167081428Y-65130000D01*
X166938571Y-65082380D01*
X166843333Y-65082380D01*
X166700476Y-65130000D01*
X166652857Y-65177619D01*
X165700476Y-66082380D02*
X166271904Y-66082380D01*
X165986190Y-66082380D02*
X165986190Y-65082380D01*
X166081428Y-65225238D01*
X166176666Y-65320476D01*
X166271904Y-65368095D01*
X164748095Y-66082380D02*
X165319523Y-66082380D01*
X165033809Y-66082380D02*
X165033809Y-65082380D01*
X165129047Y-65225238D01*
X165224285Y-65320476D01*
X165319523Y-65368095D01*
G04 #@! TO.C,C12*
X172112857Y-79777142D02*
X172160476Y-79824761D01*
X172303333Y-79872380D01*
X172398571Y-79872380D01*
X172541428Y-79824761D01*
X172636666Y-79729523D01*
X172684285Y-79634285D01*
X172731904Y-79443809D01*
X172731904Y-79300952D01*
X172684285Y-79110476D01*
X172636666Y-79015238D01*
X172541428Y-78920000D01*
X172398571Y-78872380D01*
X172303333Y-78872380D01*
X172160476Y-78920000D01*
X172112857Y-78967619D01*
X171160476Y-79872380D02*
X171731904Y-79872380D01*
X171446190Y-79872380D02*
X171446190Y-78872380D01*
X171541428Y-79015238D01*
X171636666Y-79110476D01*
X171731904Y-79158095D01*
X170779523Y-78967619D02*
X170731904Y-78920000D01*
X170636666Y-78872380D01*
X170398571Y-78872380D01*
X170303333Y-78920000D01*
X170255714Y-78967619D01*
X170208095Y-79062857D01*
X170208095Y-79158095D01*
X170255714Y-79300952D01*
X170827142Y-79872380D01*
X170208095Y-79872380D01*
G04 #@! TO.C,IC1*
X172542380Y-76173809D02*
X171542380Y-76173809D01*
X172447142Y-77221428D02*
X172494761Y-77173809D01*
X172542380Y-77030952D01*
X172542380Y-76935714D01*
X172494761Y-76792857D01*
X172399523Y-76697619D01*
X172304285Y-76650000D01*
X172113809Y-76602380D01*
X171970952Y-76602380D01*
X171780476Y-76650000D01*
X171685238Y-76697619D01*
X171590000Y-76792857D01*
X171542380Y-76935714D01*
X171542380Y-77030952D01*
X171590000Y-77173809D01*
X171637619Y-77221428D01*
X172542380Y-78173809D02*
X172542380Y-77602380D01*
X172542380Y-77888095D02*
X171542380Y-77888095D01*
X171685238Y-77792857D01*
X171780476Y-77697619D01*
X171828095Y-77602380D01*
G04 #@! TO.C,R1*
X177146666Y-75662380D02*
X177480000Y-75186190D01*
X177718095Y-75662380D02*
X177718095Y-74662380D01*
X177337142Y-74662380D01*
X177241904Y-74710000D01*
X177194285Y-74757619D01*
X177146666Y-74852857D01*
X177146666Y-74995714D01*
X177194285Y-75090952D01*
X177241904Y-75138571D01*
X177337142Y-75186190D01*
X177718095Y-75186190D01*
X176194285Y-75662380D02*
X176765714Y-75662380D01*
X176480000Y-75662380D02*
X176480000Y-74662380D01*
X176575238Y-74805238D01*
X176670476Y-74900476D01*
X176765714Y-74948095D01*
G04 #@! TO.C,R2*
X176816666Y-69762380D02*
X177150000Y-69286190D01*
X177388095Y-69762380D02*
X177388095Y-68762380D01*
X177007142Y-68762380D01*
X176911904Y-68810000D01*
X176864285Y-68857619D01*
X176816666Y-68952857D01*
X176816666Y-69095714D01*
X176864285Y-69190952D01*
X176911904Y-69238571D01*
X177007142Y-69286190D01*
X177388095Y-69286190D01*
X176435714Y-68857619D02*
X176388095Y-68810000D01*
X176292857Y-68762380D01*
X176054761Y-68762380D01*
X175959523Y-68810000D01*
X175911904Y-68857619D01*
X175864285Y-68952857D01*
X175864285Y-69048095D01*
X175911904Y-69190952D01*
X176483333Y-69762380D01*
X175864285Y-69762380D01*
G04 #@! TO.C,R7*
X168022380Y-69533333D02*
X167546190Y-69200000D01*
X168022380Y-68961904D02*
X167022380Y-68961904D01*
X167022380Y-69342857D01*
X167070000Y-69438095D01*
X167117619Y-69485714D01*
X167212857Y-69533333D01*
X167355714Y-69533333D01*
X167450952Y-69485714D01*
X167498571Y-69438095D01*
X167546190Y-69342857D01*
X167546190Y-68961904D01*
X167022380Y-69866666D02*
X167022380Y-70533333D01*
X168022380Y-70104761D01*
G04 #@! TO.C,R14*
X171872857Y-71392380D02*
X172206190Y-70916190D01*
X172444285Y-71392380D02*
X172444285Y-70392380D01*
X172063333Y-70392380D01*
X171968095Y-70440000D01*
X171920476Y-70487619D01*
X171872857Y-70582857D01*
X171872857Y-70725714D01*
X171920476Y-70820952D01*
X171968095Y-70868571D01*
X172063333Y-70916190D01*
X172444285Y-70916190D01*
X170920476Y-71392380D02*
X171491904Y-71392380D01*
X171206190Y-71392380D02*
X171206190Y-70392380D01*
X171301428Y-70535238D01*
X171396666Y-70630476D01*
X171491904Y-70678095D01*
X170063333Y-70725714D02*
X170063333Y-71392380D01*
X170301428Y-70344761D02*
X170539523Y-71059047D01*
X169920476Y-71059047D01*
G04 #@! TO.C,R16*
X169492857Y-76682380D02*
X169826190Y-76206190D01*
X170064285Y-76682380D02*
X170064285Y-75682380D01*
X169683333Y-75682380D01*
X169588095Y-75730000D01*
X169540476Y-75777619D01*
X169492857Y-75872857D01*
X169492857Y-76015714D01*
X169540476Y-76110952D01*
X169588095Y-76158571D01*
X169683333Y-76206190D01*
X170064285Y-76206190D01*
X168540476Y-76682380D02*
X169111904Y-76682380D01*
X168826190Y-76682380D02*
X168826190Y-75682380D01*
X168921428Y-75825238D01*
X169016666Y-75920476D01*
X169111904Y-75968095D01*
X167683333Y-75682380D02*
X167873809Y-75682380D01*
X167969047Y-75730000D01*
X168016666Y-75777619D01*
X168111904Y-75920476D01*
X168159523Y-76110952D01*
X168159523Y-76491904D01*
X168111904Y-76587142D01*
X168064285Y-76634761D01*
X167969047Y-76682380D01*
X167778571Y-76682380D01*
X167683333Y-76634761D01*
X167635714Y-76587142D01*
X167588095Y-76491904D01*
X167588095Y-76253809D01*
X167635714Y-76158571D01*
X167683333Y-76110952D01*
X167778571Y-76063333D01*
X167969047Y-76063333D01*
X168064285Y-76110952D01*
X168111904Y-76158571D01*
X168159523Y-76253809D01*
G04 #@! TO.C,R17*
X169672857Y-78562380D02*
X170006190Y-78086190D01*
X170244285Y-78562380D02*
X170244285Y-77562380D01*
X169863333Y-77562380D01*
X169768095Y-77610000D01*
X169720476Y-77657619D01*
X169672857Y-77752857D01*
X169672857Y-77895714D01*
X169720476Y-77990952D01*
X169768095Y-78038571D01*
X169863333Y-78086190D01*
X170244285Y-78086190D01*
X168720476Y-78562380D02*
X169291904Y-78562380D01*
X169006190Y-78562380D02*
X169006190Y-77562380D01*
X169101428Y-77705238D01*
X169196666Y-77800476D01*
X169291904Y-77848095D01*
X168387142Y-77562380D02*
X167720476Y-77562380D01*
X168149047Y-78562380D01*
G04 #@! TO.C,R19*
X173442380Y-82207142D02*
X172966190Y-81873809D01*
X173442380Y-81635714D02*
X172442380Y-81635714D01*
X172442380Y-82016666D01*
X172490000Y-82111904D01*
X172537619Y-82159523D01*
X172632857Y-82207142D01*
X172775714Y-82207142D01*
X172870952Y-82159523D01*
X172918571Y-82111904D01*
X172966190Y-82016666D01*
X172966190Y-81635714D01*
X173442380Y-83159523D02*
X173442380Y-82588095D01*
X173442380Y-82873809D02*
X172442380Y-82873809D01*
X172585238Y-82778571D01*
X172680476Y-82683333D01*
X172728095Y-82588095D01*
X173442380Y-83635714D02*
X173442380Y-83826190D01*
X173394761Y-83921428D01*
X173347142Y-83969047D01*
X173204285Y-84064285D01*
X173013809Y-84111904D01*
X172632857Y-84111904D01*
X172537619Y-84064285D01*
X172490000Y-84016666D01*
X172442380Y-83921428D01*
X172442380Y-83730952D01*
X172490000Y-83635714D01*
X172537619Y-83588095D01*
X172632857Y-83540476D01*
X172870952Y-83540476D01*
X172966190Y-83588095D01*
X173013809Y-83635714D01*
X173061428Y-83730952D01*
X173061428Y-83921428D01*
X173013809Y-84016666D01*
X172966190Y-84064285D01*
X172870952Y-84111904D01*
G04 #@! TO.C,R20*
X168082857Y-86002380D02*
X168416190Y-85526190D01*
X168654285Y-86002380D02*
X168654285Y-85002380D01*
X168273333Y-85002380D01*
X168178095Y-85050000D01*
X168130476Y-85097619D01*
X168082857Y-85192857D01*
X168082857Y-85335714D01*
X168130476Y-85430952D01*
X168178095Y-85478571D01*
X168273333Y-85526190D01*
X168654285Y-85526190D01*
X167701904Y-85097619D02*
X167654285Y-85050000D01*
X167559047Y-85002380D01*
X167320952Y-85002380D01*
X167225714Y-85050000D01*
X167178095Y-85097619D01*
X167130476Y-85192857D01*
X167130476Y-85288095D01*
X167178095Y-85430952D01*
X167749523Y-86002380D01*
X167130476Y-86002380D01*
X166511428Y-85002380D02*
X166416190Y-85002380D01*
X166320952Y-85050000D01*
X166273333Y-85097619D01*
X166225714Y-85192857D01*
X166178095Y-85383333D01*
X166178095Y-85621428D01*
X166225714Y-85811904D01*
X166273333Y-85907142D01*
X166320952Y-85954761D01*
X166416190Y-86002380D01*
X166511428Y-86002380D01*
X166606666Y-85954761D01*
X166654285Y-85907142D01*
X166701904Y-85811904D01*
X166749523Y-85621428D01*
X166749523Y-85383333D01*
X166701904Y-85192857D01*
X166654285Y-85097619D01*
X166606666Y-85050000D01*
X166511428Y-85002380D01*
G04 #@! TO.C,R21*
X164857619Y-89422857D02*
X165333809Y-89756190D01*
X164857619Y-89994285D02*
X165857619Y-89994285D01*
X165857619Y-89613333D01*
X165810000Y-89518095D01*
X165762380Y-89470476D01*
X165667142Y-89422857D01*
X165524285Y-89422857D01*
X165429047Y-89470476D01*
X165381428Y-89518095D01*
X165333809Y-89613333D01*
X165333809Y-89994285D01*
X165762380Y-89041904D02*
X165810000Y-88994285D01*
X165857619Y-88899047D01*
X165857619Y-88660952D01*
X165810000Y-88565714D01*
X165762380Y-88518095D01*
X165667142Y-88470476D01*
X165571904Y-88470476D01*
X165429047Y-88518095D01*
X164857619Y-89089523D01*
X164857619Y-88470476D01*
X164857619Y-87518095D02*
X164857619Y-88089523D01*
X164857619Y-87803809D02*
X165857619Y-87803809D01*
X165714761Y-87899047D01*
X165619523Y-87994285D01*
X165571904Y-88089523D01*
G04 #@! TO.C,U2*
X177681904Y-64972380D02*
X177681904Y-65781904D01*
X177634285Y-65877142D01*
X177586666Y-65924761D01*
X177491428Y-65972380D01*
X177300952Y-65972380D01*
X177205714Y-65924761D01*
X177158095Y-65877142D01*
X177110476Y-65781904D01*
X177110476Y-64972380D01*
X176681904Y-65067619D02*
X176634285Y-65020000D01*
X176539047Y-64972380D01*
X176300952Y-64972380D01*
X176205714Y-65020000D01*
X176158095Y-65067619D01*
X176110476Y-65162857D01*
X176110476Y-65258095D01*
X176158095Y-65400952D01*
X176729523Y-65972380D01*
X176110476Y-65972380D01*
G04 #@! TO.C,U3*
X167121904Y-63532380D02*
X167121904Y-64341904D01*
X167074285Y-64437142D01*
X167026666Y-64484761D01*
X166931428Y-64532380D01*
X166740952Y-64532380D01*
X166645714Y-64484761D01*
X166598095Y-64437142D01*
X166550476Y-64341904D01*
X166550476Y-63532380D01*
X166169523Y-63532380D02*
X165550476Y-63532380D01*
X165883809Y-63913333D01*
X165740952Y-63913333D01*
X165645714Y-63960952D01*
X165598095Y-64008571D01*
X165550476Y-64103809D01*
X165550476Y-64341904D01*
X165598095Y-64437142D01*
X165645714Y-64484761D01*
X165740952Y-64532380D01*
X166026666Y-64532380D01*
X166121904Y-64484761D01*
X166169523Y-64437142D01*
G04 #@! TO.C,U4*
X172749380Y-86418095D02*
X173558904Y-86418095D01*
X173654142Y-86465714D01*
X173701761Y-86513333D01*
X173749380Y-86608571D01*
X173749380Y-86799047D01*
X173701761Y-86894285D01*
X173654142Y-86941904D01*
X173558904Y-86989523D01*
X172749380Y-86989523D01*
X173082714Y-87894285D02*
X173749380Y-87894285D01*
X172701761Y-87656190D02*
X173416047Y-87418095D01*
X173416047Y-88037142D01*
G04 #@! TO.C,U5*
D14*
X166024523Y-92725904D02*
X167052619Y-92725904D01*
X167173571Y-92774285D01*
X167234047Y-92822666D01*
X167294523Y-92919428D01*
X167294523Y-93112952D01*
X167234047Y-93209714D01*
X167173571Y-93258095D01*
X167052619Y-93306476D01*
X166024523Y-93306476D01*
X166024523Y-94274095D02*
X166024523Y-93790285D01*
X166629285Y-93741904D01*
X166568809Y-93790285D01*
X166508333Y-93887047D01*
X166508333Y-94128952D01*
X166568809Y-94225714D01*
X166629285Y-94274095D01*
X166750238Y-94322476D01*
X167052619Y-94322476D01*
X167173571Y-94274095D01*
X167234047Y-94225714D01*
X167294523Y-94128952D01*
X167294523Y-93887047D01*
X167234047Y-93790285D01*
X167173571Y-93741904D01*
G04 #@! TO.C,C13*
D11*
X174902857Y-61807142D02*
X174950476Y-61854761D01*
X175093333Y-61902380D01*
X175188571Y-61902380D01*
X175331428Y-61854761D01*
X175426666Y-61759523D01*
X175474285Y-61664285D01*
X175521904Y-61473809D01*
X175521904Y-61330952D01*
X175474285Y-61140476D01*
X175426666Y-61045238D01*
X175331428Y-60950000D01*
X175188571Y-60902380D01*
X175093333Y-60902380D01*
X174950476Y-60950000D01*
X174902857Y-60997619D01*
X173950476Y-61902380D02*
X174521904Y-61902380D01*
X174236190Y-61902380D02*
X174236190Y-60902380D01*
X174331428Y-61045238D01*
X174426666Y-61140476D01*
X174521904Y-61188095D01*
X173617142Y-60902380D02*
X172998095Y-60902380D01*
X173331428Y-61283333D01*
X173188571Y-61283333D01*
X173093333Y-61330952D01*
X173045714Y-61378571D01*
X172998095Y-61473809D01*
X172998095Y-61711904D01*
X173045714Y-61807142D01*
X173093333Y-61854761D01*
X173188571Y-61902380D01*
X173474285Y-61902380D01*
X173569523Y-61854761D01*
X173617142Y-61807142D01*
G04 #@! TO.C,C14*
X171782857Y-61847142D02*
X171830476Y-61894761D01*
X171973333Y-61942380D01*
X172068571Y-61942380D01*
X172211428Y-61894761D01*
X172306666Y-61799523D01*
X172354285Y-61704285D01*
X172401904Y-61513809D01*
X172401904Y-61370952D01*
X172354285Y-61180476D01*
X172306666Y-61085238D01*
X172211428Y-60990000D01*
X172068571Y-60942380D01*
X171973333Y-60942380D01*
X171830476Y-60990000D01*
X171782857Y-61037619D01*
X170830476Y-61942380D02*
X171401904Y-61942380D01*
X171116190Y-61942380D02*
X171116190Y-60942380D01*
X171211428Y-61085238D01*
X171306666Y-61180476D01*
X171401904Y-61228095D01*
X169973333Y-61275714D02*
X169973333Y-61942380D01*
X170211428Y-60894761D02*
X170449523Y-61609047D01*
X169830476Y-61609047D01*
G04 #@! TO.C,R8*
X168616666Y-80572380D02*
X168950000Y-80096190D01*
X169188095Y-80572380D02*
X169188095Y-79572380D01*
X168807142Y-79572380D01*
X168711904Y-79620000D01*
X168664285Y-79667619D01*
X168616666Y-79762857D01*
X168616666Y-79905714D01*
X168664285Y-80000952D01*
X168711904Y-80048571D01*
X168807142Y-80096190D01*
X169188095Y-80096190D01*
X168045238Y-80000952D02*
X168140476Y-79953333D01*
X168188095Y-79905714D01*
X168235714Y-79810476D01*
X168235714Y-79762857D01*
X168188095Y-79667619D01*
X168140476Y-79620000D01*
X168045238Y-79572380D01*
X167854761Y-79572380D01*
X167759523Y-79620000D01*
X167711904Y-79667619D01*
X167664285Y-79762857D01*
X167664285Y-79810476D01*
X167711904Y-79905714D01*
X167759523Y-79953333D01*
X167854761Y-80000952D01*
X168045238Y-80000952D01*
X168140476Y-80048571D01*
X168188095Y-80096190D01*
X168235714Y-80191428D01*
X168235714Y-80381904D01*
X168188095Y-80477142D01*
X168140476Y-80524761D01*
X168045238Y-80572380D01*
X167854761Y-80572380D01*
X167759523Y-80524761D01*
X167711904Y-80477142D01*
X167664285Y-80381904D01*
X167664285Y-80191428D01*
X167711904Y-80096190D01*
X167759523Y-80048571D01*
X167854761Y-80000952D01*
G04 #@! TO.C,R9*
X168666666Y-82192380D02*
X169000000Y-81716190D01*
X169238095Y-82192380D02*
X169238095Y-81192380D01*
X168857142Y-81192380D01*
X168761904Y-81240000D01*
X168714285Y-81287619D01*
X168666666Y-81382857D01*
X168666666Y-81525714D01*
X168714285Y-81620952D01*
X168761904Y-81668571D01*
X168857142Y-81716190D01*
X169238095Y-81716190D01*
X168190476Y-82192380D02*
X168000000Y-82192380D01*
X167904761Y-82144761D01*
X167857142Y-82097142D01*
X167761904Y-81954285D01*
X167714285Y-81763809D01*
X167714285Y-81382857D01*
X167761904Y-81287619D01*
X167809523Y-81240000D01*
X167904761Y-81192380D01*
X168095238Y-81192380D01*
X168190476Y-81240000D01*
X168238095Y-81287619D01*
X168285714Y-81382857D01*
X168285714Y-81620952D01*
X168238095Y-81716190D01*
X168190476Y-81763809D01*
X168095238Y-81811428D01*
X167904761Y-81811428D01*
X167809523Y-81763809D01*
X167761904Y-81716190D01*
X167714285Y-81620952D01*
G04 #@! TD*
%LPC*%
D15*
G04 #@! TO.C,XA1*
X163690000Y-97500000D03*
X163690000Y-94960000D03*
X163690000Y-92420000D03*
X163690000Y-89880000D03*
X163690000Y-87340000D03*
X163690000Y-84800000D03*
X163690000Y-82260000D03*
X163690000Y-79720000D03*
X163690000Y-77180000D03*
X163690000Y-74640000D03*
X163690000Y-72100000D03*
X163690000Y-69560000D03*
X163690000Y-67020000D03*
X163690000Y-64480000D03*
X163690000Y-61940000D03*
X178930000Y-61940000D03*
X178930000Y-64480000D03*
X178930000Y-67020000D03*
X178930000Y-69560000D03*
X178930000Y-72100000D03*
X178930000Y-74640000D03*
X178930000Y-77180000D03*
X178930000Y-79720000D03*
X178930000Y-82260000D03*
X178930000Y-84800000D03*
X178930000Y-87340000D03*
X178930000Y-89880000D03*
X178930000Y-92420000D03*
X178930000Y-94960000D03*
D16*
X178930000Y-97500000D03*
D17*
X178930000Y-100040000D03*
X163690000Y-100040000D03*
X178930000Y-59400000D03*
X163690000Y-59400000D03*
G04 #@! TD*
D18*
G04 #@! TO.C,D2*
X175601400Y-72370000D03*
X177100000Y-72370000D03*
G04 #@! TD*
G04 #@! TO.C,D3*
X176830000Y-79310700D03*
X176830000Y-80809300D03*
G04 #@! TD*
D19*
G04 #@! TO.C,C5*
X165860000Y-73720000D03*
X167360000Y-73720000D03*
G04 #@! TD*
G04 #@! TO.C,C7*
X173950000Y-75040000D03*
X175450000Y-75040000D03*
G04 #@! TD*
G04 #@! TO.C,C9*
X165640000Y-72210000D03*
X167140000Y-72210000D03*
G04 #@! TD*
G04 #@! TO.C,C11*
X165530000Y-67040000D03*
X167030000Y-67040000D03*
G04 #@! TD*
G04 #@! TO.C,C12*
X175150000Y-79290000D03*
X173650000Y-79290000D03*
G04 #@! TD*
D20*
G04 #@! TO.C,IC1*
X175570000Y-77900000D03*
X175570000Y-76579200D03*
X173538000Y-77239600D03*
X173538000Y-76579200D03*
X173538000Y-77900000D03*
G04 #@! TD*
D21*
G04 #@! TO.C,R1*
X176950000Y-77980000D03*
X176950000Y-76480000D03*
G04 #@! TD*
D22*
G04 #@! TO.C,R2*
X177220000Y-70810000D03*
X175720000Y-70810000D03*
G04 #@! TD*
D21*
G04 #@! TO.C,R7*
X165850000Y-70300000D03*
X165850000Y-68800000D03*
G04 #@! TD*
G04 #@! TO.C,R14*
X173500000Y-71680000D03*
X173500000Y-70180000D03*
G04 #@! TD*
D22*
G04 #@! TO.C,R16*
X165510000Y-76290000D03*
X167010000Y-76290000D03*
G04 #@! TD*
G04 #@! TO.C,R17*
X165500000Y-77890000D03*
X167000000Y-77890000D03*
G04 #@! TD*
D21*
G04 #@! TO.C,R19*
X174590000Y-82120000D03*
X174590000Y-83620000D03*
G04 #@! TD*
D22*
G04 #@! TO.C,R20*
X168350000Y-86980000D03*
X166850000Y-86980000D03*
G04 #@! TD*
G04 #@! TO.C,R21*
X166700000Y-89160000D03*
X168200000Y-89160000D03*
G04 #@! TD*
D23*
G04 #@! TO.C,U2*
X173872000Y-66634000D03*
X172922000Y-66634000D03*
X174822000Y-66634000D03*
X174822000Y-64434000D03*
X173872000Y-64434000D03*
X172922000Y-64434000D03*
G04 #@! TD*
G04 #@! TO.C,U3*
X168590000Y-64430000D03*
X169540000Y-64430000D03*
X170490000Y-64430000D03*
X170490000Y-66630000D03*
X168590000Y-66630000D03*
X169540000Y-66630000D03*
G04 #@! TD*
D24*
G04 #@! TO.C,U4*
X171069000Y-87710000D03*
X175369000Y-87710000D03*
G04 #@! TD*
D25*
G04 #@! TO.C,J10*
X176530000Y-58420000D03*
G04 #@! TD*
G04 #@! TO.C,J12*
X170840400Y-58420000D03*
G04 #@! TD*
G04 #@! TO.C,J13*
X173736000Y-58420000D03*
G04 #@! TD*
D26*
G04 #@! TO.C,J6*
X171450000Y-100965000D03*
G04 #@! TD*
G04 #@! TO.C,J2*
X167386000Y-58420000D03*
G04 #@! TD*
G04 #@! TO.C,J4*
X167132000Y-100990400D03*
G04 #@! TD*
G04 #@! TO.C,J7*
X175514000Y-100965000D03*
G04 #@! TD*
D27*
G04 #@! TO.C,U5*
X167259000Y-95885000D03*
D28*
X173609000Y-93599000D03*
D27*
X167259000Y-91313000D03*
G04 #@! TD*
D19*
G04 #@! TO.C,C13*
X174980000Y-62880000D03*
X173480000Y-62880000D03*
G04 #@! TD*
G04 #@! TO.C,C14*
X170580000Y-62870000D03*
X172080000Y-62870000D03*
G04 #@! TD*
D22*
G04 #@! TO.C,R8*
X166910000Y-79990000D03*
X165410000Y-79990000D03*
G04 #@! TD*
G04 #@! TO.C,R9*
X165410000Y-81580000D03*
X166910000Y-81580000D03*
G04 #@! TD*
M02*
