G04 #@! TF.GenerationSoftware,KiCad,Pcbnew,(5.0.0-3-g5ebb6b6)*
G04 #@! TF.CreationDate,2018-09-15T11:59:02+02:00*
G04 #@! TF.ProjectId,Nano_Lambda,4E616E6F5F4C616D6264612E6B696361,rev?*
G04 #@! TF.SameCoordinates,Original*
G04 #@! TF.FileFunction,Paste,Top*
G04 #@! TF.FilePolarity,Positive*
%FSLAX46Y46*%
G04 Gerber Fmt 4.6, Leading zero omitted, Abs format (unit mm)*
G04 Created by KiCad (PCBNEW (5.0.0-3-g5ebb6b6)) date Saturday, 15 September 2018 at 11:59:02*
%MOMM*%
%LPD*%
G01*
G04 APERTURE LIST*
%ADD10R,0.750000X0.800000*%
%ADD11R,0.800000X0.750000*%
%ADD12C,0.750000*%
%ADD13C,0.100000*%
%ADD14R,0.600000X0.800000*%
%ADD15R,0.900000X0.800000*%
%ADD16R,0.900000X0.500000*%
%ADD17R,0.500000X0.900000*%
%ADD18C,0.500000*%
%ADD19R,3.000000X3.000000*%
%ADD20R,1.500000X3.000000*%
%ADD21R,0.900000X2.500000*%
%ADD22R,0.800000X2.700000*%
%ADD23R,1.000000X1.250000*%
%ADD24C,0.600000*%
G04 APERTURE END LIST*
D10*
G04 #@! TO.C,C1*
X165560000Y-64000000D03*
X165560000Y-62500000D03*
G04 #@! TD*
D11*
G04 #@! TO.C,C2*
X171670000Y-81290000D03*
X170170000Y-81290000D03*
G04 #@! TD*
D10*
G04 #@! TO.C,C3*
X176890000Y-64770000D03*
X176890000Y-66270000D03*
G04 #@! TD*
G04 #@! TO.C,C4*
X175600000Y-75230000D03*
X175600000Y-76730000D03*
G04 #@! TD*
G04 #@! TO.C,C6*
X174200000Y-84360000D03*
X174200000Y-82860000D03*
G04 #@! TD*
D12*
G04 #@! TO.C,C8*
X167359670Y-62780330D03*
D13*
G36*
X167377348Y-62232322D02*
X167907678Y-62762652D01*
X167341992Y-63328338D01*
X166811662Y-62798008D01*
X167377348Y-62232322D01*
X167377348Y-62232322D01*
G37*
D12*
X168420330Y-61719670D03*
D13*
G36*
X168438008Y-61171662D02*
X168968338Y-61701992D01*
X168402652Y-62267678D01*
X167872322Y-61737348D01*
X168438008Y-61171662D01*
X168438008Y-61171662D01*
G37*
G04 #@! TD*
D10*
G04 #@! TO.C,C10*
X177100000Y-76720000D03*
X177100000Y-75220000D03*
G04 #@! TD*
D14*
G04 #@! TO.C,D1*
X166280000Y-77810000D03*
X166930000Y-76210000D03*
X165630000Y-76210000D03*
G04 #@! TD*
D15*
G04 #@! TO.C,IC2*
X167586000Y-81796000D03*
X165586000Y-82746000D03*
X165586000Y-80846000D03*
G04 #@! TD*
D16*
G04 #@! TO.C,R3*
X166400000Y-73420000D03*
X166400000Y-74920000D03*
G04 #@! TD*
D17*
G04 #@! TO.C,R4*
X171020000Y-76380000D03*
X169520000Y-76380000D03*
G04 #@! TD*
D16*
G04 #@! TO.C,R5*
X176800000Y-80520000D03*
X176800000Y-79020000D03*
G04 #@! TD*
D17*
G04 #@! TO.C,R6*
X174430000Y-81340000D03*
X172930000Y-81340000D03*
G04 #@! TD*
D18*
G04 #@! TO.C,R10*
X169040330Y-63299670D03*
D13*
G36*
X168898909Y-62804695D02*
X169535305Y-63441091D01*
X169181751Y-63794645D01*
X168545355Y-63158249D01*
X168898909Y-62804695D01*
X168898909Y-62804695D01*
G37*
D18*
X167979670Y-64360330D03*
D13*
G36*
X167838249Y-63865355D02*
X168474645Y-64501751D01*
X168121091Y-64855305D01*
X167484695Y-64218909D01*
X167838249Y-63865355D01*
X167838249Y-63865355D01*
G37*
G04 #@! TD*
D18*
G04 #@! TO.C,R11*
X175000000Y-64840000D03*
D13*
G36*
X174505025Y-64981421D02*
X175141421Y-64345025D01*
X175494975Y-64698579D01*
X174858579Y-65334975D01*
X174505025Y-64981421D01*
X174505025Y-64981421D01*
G37*
D18*
X173939340Y-63779340D03*
D13*
G36*
X173444365Y-63920761D02*
X174080761Y-63284365D01*
X174434315Y-63637919D01*
X173797919Y-64274315D01*
X173444365Y-63920761D01*
X173444365Y-63920761D01*
G37*
G04 #@! TD*
D16*
G04 #@! TO.C,R12*
X171040000Y-82870000D03*
X171040000Y-84370000D03*
G04 #@! TD*
G04 #@! TO.C,R13*
X172643800Y-84366800D03*
X172643800Y-82866800D03*
G04 #@! TD*
G04 #@! TO.C,R15*
X174050000Y-75380000D03*
X174050000Y-76880000D03*
G04 #@! TD*
D17*
G04 #@! TO.C,R18*
X166940000Y-79240000D03*
X165440000Y-79240000D03*
G04 #@! TD*
G04 #@! TO.C,R22*
X177160000Y-61060000D03*
X175660000Y-61060000D03*
G04 #@! TD*
G04 #@! TO.C,R23*
X175526000Y-82296000D03*
X177026000Y-82296000D03*
G04 #@! TD*
D19*
G04 #@! TO.C,J3*
X171450000Y-100965000D03*
G04 #@! TD*
G04 #@! TO.C,J1*
X167386000Y-58420000D03*
G04 #@! TD*
G04 #@! TO.C,J5*
X175514000Y-100965000D03*
G04 #@! TD*
G04 #@! TO.C,J8*
X167132000Y-99720400D03*
G04 #@! TD*
D20*
G04 #@! TO.C,J9*
X176530000Y-58420000D03*
G04 #@! TD*
G04 #@! TO.C,J11*
X173736000Y-58420000D03*
G04 #@! TD*
G04 #@! TO.C,J14*
X170815000Y-58420000D03*
G04 #@! TD*
D21*
G04 #@! TO.C,RV1*
X168550000Y-92405200D03*
X171450000Y-92405200D03*
G04 #@! TD*
D22*
G04 #@! TO.C,L1*
X171500000Y-95820000D03*
X169300000Y-95820000D03*
G04 #@! TD*
D23*
G04 #@! TO.C,C15*
X175110000Y-95060000D03*
X173110000Y-95060000D03*
G04 #@! TD*
G04 #@! TO.C,C16*
X173110000Y-91060000D03*
X175110000Y-91060000D03*
G04 #@! TD*
G04 #@! TO.C,C17*
X175110000Y-89060000D03*
X173110000Y-89060000D03*
G04 #@! TD*
G04 #@! TO.C,C18*
X173110000Y-87060000D03*
X175110000Y-87060000D03*
G04 #@! TD*
G04 #@! TO.C,C19*
X175110000Y-97060000D03*
X173110000Y-97060000D03*
G04 #@! TD*
G04 #@! TO.C,C20*
X173110000Y-93060000D03*
X175110000Y-93060000D03*
G04 #@! TD*
D24*
G04 #@! TO.C,U1*
X166234897Y-68454695D03*
D13*
G36*
X166871293Y-68666827D02*
X166447029Y-69091091D01*
X165598501Y-68242563D01*
X166022765Y-67818299D01*
X166871293Y-68666827D01*
X166871293Y-68666827D01*
G37*
D24*
X166800583Y-67889010D03*
D13*
G36*
X167436979Y-68101142D02*
X167012715Y-68525406D01*
X166164187Y-67676878D01*
X166588451Y-67252614D01*
X167436979Y-68101142D01*
X167436979Y-68101142D01*
G37*
D24*
X167366268Y-67323324D03*
D13*
G36*
X168002664Y-67535456D02*
X167578400Y-67959720D01*
X166729872Y-67111192D01*
X167154136Y-66686928D01*
X168002664Y-67535456D01*
X168002664Y-67535456D01*
G37*
D24*
X167931953Y-66757639D03*
D13*
G36*
X168568349Y-66969771D02*
X168144085Y-67394035D01*
X167295557Y-66545507D01*
X167719821Y-66121243D01*
X168568349Y-66969771D01*
X168568349Y-66969771D01*
G37*
D24*
X168497639Y-66191953D03*
D13*
G36*
X169134035Y-66404085D02*
X168709771Y-66828349D01*
X167861243Y-65979821D01*
X168285507Y-65555557D01*
X169134035Y-66404085D01*
X169134035Y-66404085D01*
G37*
D24*
X169063324Y-65626268D03*
D13*
G36*
X169699720Y-65838400D02*
X169275456Y-66262664D01*
X168426928Y-65414136D01*
X168851192Y-64989872D01*
X169699720Y-65838400D01*
X169699720Y-65838400D01*
G37*
D24*
X169629010Y-65060583D03*
D13*
G36*
X170265406Y-65272715D02*
X169841142Y-65696979D01*
X168992614Y-64848451D01*
X169416878Y-64424187D01*
X170265406Y-65272715D01*
X170265406Y-65272715D01*
G37*
D24*
X170194695Y-64494897D03*
D13*
G36*
X170831091Y-64707029D02*
X170406827Y-65131293D01*
X169558299Y-64282765D01*
X169982563Y-63858501D01*
X170831091Y-64707029D01*
X170831091Y-64707029D01*
G37*
D24*
X172245305Y-64494897D03*
D13*
G36*
X172033173Y-65131293D02*
X171608909Y-64707029D01*
X172457437Y-63858501D01*
X172881701Y-64282765D01*
X172033173Y-65131293D01*
X172033173Y-65131293D01*
G37*
D24*
X172810990Y-65060583D03*
D13*
G36*
X172598858Y-65696979D02*
X172174594Y-65272715D01*
X173023122Y-64424187D01*
X173447386Y-64848451D01*
X172598858Y-65696979D01*
X172598858Y-65696979D01*
G37*
D24*
X173376676Y-65626268D03*
D13*
G36*
X173164544Y-66262664D02*
X172740280Y-65838400D01*
X173588808Y-64989872D01*
X174013072Y-65414136D01*
X173164544Y-66262664D01*
X173164544Y-66262664D01*
G37*
D24*
X173942361Y-66191953D03*
D13*
G36*
X173730229Y-66828349D02*
X173305965Y-66404085D01*
X174154493Y-65555557D01*
X174578757Y-65979821D01*
X173730229Y-66828349D01*
X173730229Y-66828349D01*
G37*
D24*
X174508047Y-66757639D03*
D13*
G36*
X174295915Y-67394035D02*
X173871651Y-66969771D01*
X174720179Y-66121243D01*
X175144443Y-66545507D01*
X174295915Y-67394035D01*
X174295915Y-67394035D01*
G37*
D24*
X175073732Y-67323324D03*
D13*
G36*
X174861600Y-67959720D02*
X174437336Y-67535456D01*
X175285864Y-66686928D01*
X175710128Y-67111192D01*
X174861600Y-67959720D01*
X174861600Y-67959720D01*
G37*
D24*
X175639417Y-67889010D03*
D13*
G36*
X175427285Y-68525406D02*
X175003021Y-68101142D01*
X175851549Y-67252614D01*
X176275813Y-67676878D01*
X175427285Y-68525406D01*
X175427285Y-68525406D01*
G37*
D24*
X176205103Y-68454695D03*
D13*
G36*
X175992971Y-69091091D02*
X175568707Y-68666827D01*
X176417235Y-67818299D01*
X176841499Y-68242563D01*
X175992971Y-69091091D01*
X175992971Y-69091091D01*
G37*
D24*
X176205103Y-70505305D03*
D13*
G36*
X176841499Y-70717437D02*
X176417235Y-71141701D01*
X175568707Y-70293173D01*
X175992971Y-69868909D01*
X176841499Y-70717437D01*
X176841499Y-70717437D01*
G37*
D24*
X175639417Y-71070990D03*
D13*
G36*
X176275813Y-71283122D02*
X175851549Y-71707386D01*
X175003021Y-70858858D01*
X175427285Y-70434594D01*
X176275813Y-71283122D01*
X176275813Y-71283122D01*
G37*
D24*
X175073732Y-71636676D03*
D13*
G36*
X175710128Y-71848808D02*
X175285864Y-72273072D01*
X174437336Y-71424544D01*
X174861600Y-71000280D01*
X175710128Y-71848808D01*
X175710128Y-71848808D01*
G37*
D24*
X174508047Y-72202361D03*
D13*
G36*
X175144443Y-72414493D02*
X174720179Y-72838757D01*
X173871651Y-71990229D01*
X174295915Y-71565965D01*
X175144443Y-72414493D01*
X175144443Y-72414493D01*
G37*
D24*
X173942361Y-72768047D03*
D13*
G36*
X174578757Y-72980179D02*
X174154493Y-73404443D01*
X173305965Y-72555915D01*
X173730229Y-72131651D01*
X174578757Y-72980179D01*
X174578757Y-72980179D01*
G37*
D24*
X173376676Y-73333732D03*
D13*
G36*
X174013072Y-73545864D02*
X173588808Y-73970128D01*
X172740280Y-73121600D01*
X173164544Y-72697336D01*
X174013072Y-73545864D01*
X174013072Y-73545864D01*
G37*
D24*
X172810990Y-73899417D03*
D13*
G36*
X173447386Y-74111549D02*
X173023122Y-74535813D01*
X172174594Y-73687285D01*
X172598858Y-73263021D01*
X173447386Y-74111549D01*
X173447386Y-74111549D01*
G37*
D24*
X172245305Y-74465103D03*
D13*
G36*
X172881701Y-74677235D02*
X172457437Y-75101499D01*
X171608909Y-74252971D01*
X172033173Y-73828707D01*
X172881701Y-74677235D01*
X172881701Y-74677235D01*
G37*
D24*
X170194695Y-74465103D03*
D13*
G36*
X169982563Y-75101499D02*
X169558299Y-74677235D01*
X170406827Y-73828707D01*
X170831091Y-74252971D01*
X169982563Y-75101499D01*
X169982563Y-75101499D01*
G37*
D24*
X169629010Y-73899417D03*
D13*
G36*
X169416878Y-74535813D02*
X168992614Y-74111549D01*
X169841142Y-73263021D01*
X170265406Y-73687285D01*
X169416878Y-74535813D01*
X169416878Y-74535813D01*
G37*
D24*
X169063324Y-73333732D03*
D13*
G36*
X168851192Y-73970128D02*
X168426928Y-73545864D01*
X169275456Y-72697336D01*
X169699720Y-73121600D01*
X168851192Y-73970128D01*
X168851192Y-73970128D01*
G37*
D24*
X168497639Y-72768047D03*
D13*
G36*
X168285507Y-73404443D02*
X167861243Y-72980179D01*
X168709771Y-72131651D01*
X169134035Y-72555915D01*
X168285507Y-73404443D01*
X168285507Y-73404443D01*
G37*
D24*
X167931953Y-72202361D03*
D13*
G36*
X167719821Y-72838757D02*
X167295557Y-72414493D01*
X168144085Y-71565965D01*
X168568349Y-71990229D01*
X167719821Y-72838757D01*
X167719821Y-72838757D01*
G37*
D24*
X167366268Y-71636676D03*
D13*
G36*
X167154136Y-72273072D02*
X166729872Y-71848808D01*
X167578400Y-71000280D01*
X168002664Y-71424544D01*
X167154136Y-72273072D01*
X167154136Y-72273072D01*
G37*
D24*
X166800583Y-71070990D03*
D13*
G36*
X166588451Y-71707386D02*
X166164187Y-71283122D01*
X167012715Y-70434594D01*
X167436979Y-70858858D01*
X166588451Y-71707386D01*
X166588451Y-71707386D01*
G37*
D24*
X166234897Y-70505305D03*
D13*
G36*
X166022765Y-71141701D02*
X165598501Y-70717437D01*
X166447029Y-69868909D01*
X166871293Y-70293173D01*
X166022765Y-71141701D01*
X166022765Y-71141701D01*
G37*
G04 #@! TD*
M02*
