M48
;DRILL file {KiCad (5.0.0-3-g5ebb6b6)} date Saturday, 15 September 2018 at 11:59:10
;FORMAT={-:-/ absolute / metric / decimal}
FMAT,2
METRIC,TZ
T1C0.400
T2C1.016
%
G90
G05
M71
T1
X164.5Y-73.37
X164.78Y-70.7
X164.84Y-68.31
X165.655Y-84.245
X165.655Y-84.98
X165.655Y-85.71
X165.96Y-61.26
X166.11Y-93.65
X166.13Y-65.52
X166.13Y-92.81
X167.209Y-75.24
X167.386Y-61.114
X167.528Y-79.914
X167.7Y-77.148
X167.91Y-83.56
X168.01Y-74.63
X168.088Y-80.743
X168.215Y-84.526
X168.338Y-68.732
X168.615Y-66.832
X169.179Y-69.274
X169.59Y-60.79
X170.508Y-68.507
X170.556Y-73.056
X170.786Y-82.02
X171.005Y-86.995
X171.005Y-87.694
X171.005Y-88.456
X171.122Y-83.
X171.32Y-79.415
X171.872Y-76.222
X171.92Y-61.29
X171.949Y-72.428
X172.088Y-66.582
X172.275Y-71.482
X172.408Y-68.664
X173.5Y-61.79
X173.538Y-68.783
X173.68Y-80.558
X174.18Y-61.5
X174.742Y-77.815
X175.11Y-84.645
X175.26Y-73.97
X175.45Y-69.47
X175.48Y-80.4
X175.75Y-65.54
X177.03Y-62.23
X177.84Y-81.01
X178.01Y-78.42
T2
X163.69Y-61.94
X163.69Y-64.48
X163.69Y-67.02
X163.69Y-69.56
X163.69Y-72.1
X163.69Y-74.64
X163.69Y-77.18
X163.69Y-79.72
X163.69Y-82.26
X163.69Y-84.8
X163.69Y-87.34
X163.69Y-89.88
X163.69Y-92.42
X163.69Y-94.96
X163.69Y-97.5
X178.93Y-61.94
X178.93Y-64.48
X178.93Y-67.02
X178.93Y-69.56
X178.93Y-72.1
X178.93Y-74.64
X178.93Y-77.18
X178.93Y-79.72
X178.93Y-82.26
X178.93Y-84.8
X178.93Y-87.34
X178.93Y-89.88
X178.93Y-92.42
X178.93Y-94.96
X178.93Y-97.5
T0
M30
