G04 #@! TF.GenerationSoftware,KiCad,Pcbnew,(5.0.0-3-g5ebb6b6)*
G04 #@! TF.CreationDate,2018-09-03T19:30:42+02:00*
G04 #@! TF.ProjectId,Nano_Lambda,4E616E6F5F4C616D6264612E6B696361,rev?*
G04 #@! TF.SameCoordinates,Original*
G04 #@! TF.FileFunction,Paste,Bot*
G04 #@! TF.FilePolarity,Positive*
%FSLAX46Y46*%
G04 Gerber Fmt 4.6, Leading zero omitted, Abs format (unit mm)*
G04 Created by KiCad (PCBNEW (5.0.0-3-g5ebb6b6)) date Monday, 03 September 2018 at 19:30:42*
%MOMM*%
%LPD*%
G01*
G04 APERTURE LIST*
%ADD10R,0.797560X0.797560*%
%ADD11R,0.750000X0.800000*%
%ADD12R,0.800000X0.750000*%
%ADD13R,0.660400X0.406400*%
%ADD14R,0.900000X0.800000*%
%ADD15R,0.500000X0.900000*%
%ADD16R,0.900000X0.500000*%
%ADD17R,0.650000X1.060000*%
%ADD18R,2.500000X2.300000*%
%ADD19R,1.500000X3.000000*%
%ADD20R,3.000000X3.000000*%
%ADD21R,3.048000X1.651000*%
%ADD22R,6.096000X6.096000*%
G04 APERTURE END LIST*
D10*
G04 #@! TO.C,D2*
X175531400Y-77420000D03*
X177030000Y-77420000D03*
G04 #@! TD*
G04 #@! TO.C,D3*
X177035300Y-78918000D03*
X175536700Y-78918000D03*
G04 #@! TD*
D11*
G04 #@! TO.C,C3*
X171958000Y-67576000D03*
X171958000Y-69076000D03*
G04 #@! TD*
G04 #@! TO.C,C5*
X173460000Y-67850000D03*
X173460000Y-66350000D03*
G04 #@! TD*
D12*
G04 #@! TO.C,C7*
X173978000Y-74930000D03*
X172478000Y-74930000D03*
G04 #@! TD*
D11*
G04 #@! TO.C,C8*
X168910000Y-66560000D03*
X168910000Y-68060000D03*
G04 #@! TD*
G04 #@! TO.C,C11*
X165862000Y-68302000D03*
X165862000Y-66802000D03*
G04 #@! TD*
G04 #@! TO.C,C12*
X175460000Y-69160000D03*
X175460000Y-70660000D03*
G04 #@! TD*
D13*
G04 #@! TO.C,IC1*
X172212000Y-72237600D03*
X172212000Y-73558400D03*
X174244000Y-72898000D03*
X174244000Y-73558400D03*
X174244000Y-72237600D03*
G04 #@! TD*
D14*
G04 #@! TO.C,IC2*
X168298000Y-74252000D03*
X166298000Y-73302000D03*
X166298000Y-75202000D03*
G04 #@! TD*
D15*
G04 #@! TO.C,R1*
X175520000Y-72170000D03*
X177020000Y-72170000D03*
G04 #@! TD*
G04 #@! TO.C,R2*
X172840000Y-77370000D03*
X174340000Y-77370000D03*
G04 #@! TD*
G04 #@! TO.C,R3*
X170580000Y-70690000D03*
X169080000Y-70690000D03*
G04 #@! TD*
G04 #@! TO.C,R5*
X174340000Y-78970000D03*
X172840000Y-78970000D03*
G04 #@! TD*
D16*
G04 #@! TO.C,R10*
X170434000Y-66560000D03*
X170434000Y-68060000D03*
G04 #@! TD*
D15*
G04 #@! TO.C,R17*
X165608000Y-71628000D03*
X167108000Y-71628000D03*
G04 #@! TD*
G04 #@! TO.C,R18*
X167628000Y-76962000D03*
X166128000Y-76962000D03*
G04 #@! TD*
G04 #@! TO.C,R19*
X172110400Y-84023200D03*
X173610400Y-84023200D03*
G04 #@! TD*
D17*
G04 #@! TO.C,U2*
X173652000Y-64854000D03*
X172702000Y-64854000D03*
X174602000Y-64854000D03*
X174602000Y-62654000D03*
X173652000Y-62654000D03*
X172702000Y-62654000D03*
G04 #@! TD*
G04 #@! TO.C,U3*
X168130000Y-62654000D03*
X169080000Y-62654000D03*
X170030000Y-62654000D03*
X170030000Y-64854000D03*
X168130000Y-64854000D03*
X169080000Y-64854000D03*
G04 #@! TD*
D18*
G04 #@! TO.C,U4*
X171069000Y-87710000D03*
X175369000Y-87710000D03*
G04 #@! TD*
D19*
G04 #@! TO.C,J10*
X176530000Y-58420000D03*
G04 #@! TD*
G04 #@! TO.C,J12*
X170840400Y-58420000D03*
G04 #@! TD*
G04 #@! TO.C,J13*
X173736000Y-58420000D03*
G04 #@! TD*
D20*
G04 #@! TO.C,J6*
X171450000Y-100965000D03*
G04 #@! TD*
G04 #@! TO.C,J2*
X167386000Y-58420000D03*
G04 #@! TD*
G04 #@! TO.C,J4*
X167132000Y-100990400D03*
G04 #@! TD*
G04 #@! TO.C,J7*
X175514000Y-100965000D03*
G04 #@! TD*
D21*
G04 #@! TO.C,U5*
X167259000Y-95885000D03*
D22*
X173609000Y-93599000D03*
D21*
X167259000Y-91313000D03*
G04 #@! TD*
D15*
G04 #@! TO.C,R8*
X166910000Y-79990000D03*
X165410000Y-79990000D03*
G04 #@! TD*
G04 #@! TO.C,R9*
X165410000Y-81580000D03*
X166910000Y-81580000D03*
G04 #@! TD*
M02*
