G04 #@! TF.GenerationSoftware,KiCad,Pcbnew,(5.0.0-3-g5ebb6b6)*
G04 #@! TF.CreationDate,2018-09-15T11:59:02+02:00*
G04 #@! TF.ProjectId,Nano_Lambda,4E616E6F5F4C616D6264612E6B696361,rev?*
G04 #@! TF.SameCoordinates,Original*
G04 #@! TF.FileFunction,Copper,L2,Bot,Signal*
G04 #@! TF.FilePolarity,Positive*
%FSLAX46Y46*%
G04 Gerber Fmt 4.6, Leading zero omitted, Abs format (unit mm)*
G04 Created by KiCad (PCBNEW (5.0.0-3-g5ebb6b6)) date Saturday, 15 September 2018 at 11:59:02*
%MOMM*%
%LPD*%
G01*
G04 APERTURE LIST*
G04 #@! TA.AperFunction,ComponentPad*
%ADD10C,1.727200*%
G04 #@! TD*
G04 #@! TA.AperFunction,ComponentPad*
%ADD11R,1.727200X1.727200*%
G04 #@! TD*
G04 #@! TA.AperFunction,SMDPad,CuDef*
%ADD12R,0.797560X0.797560*%
G04 #@! TD*
G04 #@! TA.AperFunction,SMDPad,CuDef*
%ADD13R,0.800000X0.750000*%
G04 #@! TD*
G04 #@! TA.AperFunction,SMDPad,CuDef*
%ADD14R,0.660400X0.406400*%
G04 #@! TD*
G04 #@! TA.AperFunction,SMDPad,CuDef*
%ADD15R,0.900000X0.500000*%
G04 #@! TD*
G04 #@! TA.AperFunction,SMDPad,CuDef*
%ADD16R,0.500000X0.900000*%
G04 #@! TD*
G04 #@! TA.AperFunction,SMDPad,CuDef*
%ADD17R,0.650000X1.060000*%
G04 #@! TD*
G04 #@! TA.AperFunction,SMDPad,CuDef*
%ADD18R,2.500000X2.300000*%
G04 #@! TD*
G04 #@! TA.AperFunction,SMDPad,CuDef*
%ADD19R,1.500000X3.000000*%
G04 #@! TD*
G04 #@! TA.AperFunction,SMDPad,CuDef*
%ADD20R,3.000000X3.000000*%
G04 #@! TD*
G04 #@! TA.AperFunction,SMDPad,CuDef*
%ADD21R,3.048000X1.651000*%
G04 #@! TD*
G04 #@! TA.AperFunction,SMDPad,CuDef*
%ADD22R,6.096000X6.096000*%
G04 #@! TD*
G04 #@! TA.AperFunction,ViaPad*
%ADD23C,0.800000*%
G04 #@! TD*
G04 #@! TA.AperFunction,Conductor*
%ADD24C,0.250000*%
G04 #@! TD*
G04 #@! TA.AperFunction,Conductor*
%ADD25C,1.000000*%
G04 #@! TD*
G04 #@! TA.AperFunction,Conductor*
%ADD26C,0.500000*%
G04 #@! TD*
G04 #@! TA.AperFunction,Conductor*
%ADD27C,2.000000*%
G04 #@! TD*
G04 #@! TA.AperFunction,Conductor*
%ADD28C,0.254000*%
G04 #@! TD*
G04 APERTURE END LIST*
D10*
G04 #@! TO.P,XA1,VIN*
G04 #@! TO.N,Net-(L1-Pad1)*
X163690000Y-97500000D03*
G04 #@! TO.P,XA1,GND2*
G04 #@! TO.N,GND*
X163690000Y-94960000D03*
G04 #@! TO.P,XA1,RST2*
G04 #@! TO.N,N/C*
X163690000Y-92420000D03*
G04 #@! TO.P,XA1,5V*
G04 #@! TO.N,+5V*
X163690000Y-89880000D03*
G04 #@! TO.P,XA1,A7*
G04 #@! TO.N,N/C*
X163690000Y-87340000D03*
G04 #@! TO.P,XA1,A6*
X163690000Y-84800000D03*
G04 #@! TO.P,XA1,A5*
G04 #@! TO.N,/SCL*
X163690000Y-82260000D03*
G04 #@! TO.P,XA1,A4*
G04 #@! TO.N,/SDA*
X163690000Y-79720000D03*
G04 #@! TO.P,XA1,A3*
G04 #@! TO.N,/V_REF*
X163690000Y-77180000D03*
G04 #@! TO.P,XA1,A2*
G04 #@! TO.N,/BRV*
X163690000Y-74640000D03*
G04 #@! TO.P,XA1,A1*
G04 #@! TO.N,/UA*
X163690000Y-72100000D03*
G04 #@! TO.P,XA1,A0*
G04 #@! TO.N,/UR*
X163690000Y-69560000D03*
G04 #@! TO.P,XA1,AREF*
G04 #@! TO.N,Net-(C11-Pad1)*
X163690000Y-67020000D03*
G04 #@! TO.P,XA1,3V3*
G04 #@! TO.N,N/C*
X163690000Y-64480000D03*
G04 #@! TO.P,XA1,D13*
G04 #@! TO.N,/LS_SCK*
X163690000Y-61940000D03*
G04 #@! TO.P,XA1,D12*
G04 #@! TO.N,/LS_MISO*
X178930000Y-61940000D03*
G04 #@! TO.P,XA1,D11*
G04 #@! TO.N,/LS_MOSI*
X178930000Y-64480000D03*
G04 #@! TO.P,XA1,D10*
G04 #@! TO.N,/LS_SS*
X178930000Y-67020000D03*
G04 #@! TO.P,XA1,D9*
G04 #@! TO.N,/DIAHG*
X178930000Y-69560000D03*
G04 #@! TO.P,XA1,D8*
G04 #@! TO.N,/LED_1*
X178930000Y-72100000D03*
G04 #@! TO.P,XA1,D7*
G04 #@! TO.N,N/C*
X178930000Y-74640000D03*
G04 #@! TO.P,XA1,D6*
G04 #@! TO.N,/WBL*
X178930000Y-77180000D03*
G04 #@! TO.P,XA1,D5*
G04 #@! TO.N,/LED_2*
X178930000Y-79720000D03*
G04 #@! TO.P,XA1,D4*
G04 #@! TO.N,Net-(R22-Pad2)*
X178930000Y-82260000D03*
G04 #@! TO.P,XA1,D3*
G04 #@! TO.N,/PD3*
X178930000Y-84800000D03*
G04 #@! TO.P,XA1,D2*
G04 #@! TO.N,/PD2*
X178930000Y-87340000D03*
G04 #@! TO.P,XA1,GND1*
G04 #@! TO.N,GND*
X178930000Y-89880000D03*
G04 #@! TO.P,XA1,RST1*
G04 #@! TO.N,N/C*
X178930000Y-92420000D03*
G04 #@! TO.P,XA1,D0*
X178930000Y-94960000D03*
D11*
G04 #@! TO.P,XA1,D1*
X178930000Y-97500000D03*
G04 #@! TD*
D12*
G04 #@! TO.P,D2,1*
G04 #@! TO.N,Net-(D2-Pad1)*
X175601400Y-72370000D03*
G04 #@! TO.P,D2,2*
G04 #@! TO.N,/LED_1*
X177100000Y-72370000D03*
G04 #@! TD*
G04 #@! TO.P,D3,2*
G04 #@! TO.N,/LED_2*
X176830000Y-79310700D03*
G04 #@! TO.P,D3,1*
G04 #@! TO.N,Net-(D3-Pad1)*
X176830000Y-80809300D03*
G04 #@! TD*
D13*
G04 #@! TO.P,C5,2*
G04 #@! TO.N,GND*
X165860000Y-73720000D03*
G04 #@! TO.P,C5,1*
G04 #@! TO.N,+5V*
X167360000Y-73720000D03*
G04 #@! TD*
G04 #@! TO.P,C7,2*
G04 #@! TO.N,+5V*
X173950000Y-75040000D03*
G04 #@! TO.P,C7,1*
G04 #@! TO.N,GND*
X175450000Y-75040000D03*
G04 #@! TD*
G04 #@! TO.P,C9,1*
G04 #@! TO.N,/UA*
X165640000Y-72210000D03*
G04 #@! TO.P,C9,2*
G04 #@! TO.N,GND*
X167140000Y-72210000D03*
G04 #@! TD*
G04 #@! TO.P,C11,1*
G04 #@! TO.N,Net-(C11-Pad1)*
X165530000Y-67040000D03*
G04 #@! TO.P,C11,2*
G04 #@! TO.N,GND*
X167030000Y-67040000D03*
G04 #@! TD*
G04 #@! TO.P,C12,1*
G04 #@! TO.N,GND*
X175150000Y-79290000D03*
G04 #@! TO.P,C12,2*
G04 #@! TO.N,Net-(C12-Pad2)*
X173650000Y-79290000D03*
G04 #@! TD*
D14*
G04 #@! TO.P,IC1,5*
G04 #@! TO.N,+5V*
X175570000Y-77900000D03*
G04 #@! TO.P,IC1,4*
G04 #@! TO.N,/Out1*
X175570000Y-76579200D03*
G04 #@! TO.P,IC1,2*
G04 #@! TO.N,GND*
X173538000Y-77239600D03*
G04 #@! TO.P,IC1,3*
G04 #@! TO.N,/Out1*
X173538000Y-76579200D03*
G04 #@! TO.P,IC1,1*
G04 #@! TO.N,Net-(C12-Pad2)*
X173538000Y-77900000D03*
G04 #@! TD*
D15*
G04 #@! TO.P,R1,1*
G04 #@! TO.N,Net-(C12-Pad2)*
X176950000Y-77980000D03*
G04 #@! TO.P,R1,2*
G04 #@! TO.N,/WBL*
X176950000Y-76480000D03*
G04 #@! TD*
D16*
G04 #@! TO.P,R2,1*
G04 #@! TO.N,GND*
X177220000Y-70810000D03*
G04 #@! TO.P,R2,2*
G04 #@! TO.N,Net-(D2-Pad1)*
X175720000Y-70810000D03*
G04 #@! TD*
D15*
G04 #@! TO.P,R7,2*
G04 #@! TO.N,/IA*
X165850000Y-70300000D03*
G04 #@! TO.P,R7,1*
G04 #@! TO.N,/IP*
X165850000Y-68800000D03*
G04 #@! TD*
G04 #@! TO.P,R14,1*
G04 #@! TO.N,/RS*
X173500000Y-71680000D03*
G04 #@! TO.P,R14,2*
G04 #@! TO.N,/VM*
X173500000Y-70180000D03*
G04 #@! TD*
D16*
G04 #@! TO.P,R16,1*
G04 #@! TO.N,/BRV*
X165510000Y-76290000D03*
G04 #@! TO.P,R16,2*
G04 #@! TO.N,/+12V_NL*
X167010000Y-76290000D03*
G04 #@! TD*
G04 #@! TO.P,R17,2*
G04 #@! TO.N,/BRV*
X165500000Y-77890000D03*
G04 #@! TO.P,R17,1*
G04 #@! TO.N,GND*
X167000000Y-77890000D03*
G04 #@! TD*
D15*
G04 #@! TO.P,R19,2*
G04 #@! TO.N,/DIAHD*
X174590000Y-82120000D03*
G04 #@! TO.P,R19,1*
G04 #@! TO.N,/NL_HEATER*
X174590000Y-83620000D03*
G04 #@! TD*
D16*
G04 #@! TO.P,R20,2*
G04 #@! TO.N,/DIAHG*
X168350000Y-86980000D03*
G04 #@! TO.P,R20,1*
G04 #@! TO.N,Net-(R20-Pad1)*
X166850000Y-86980000D03*
G04 #@! TD*
G04 #@! TO.P,R21,1*
G04 #@! TO.N,GND*
X166700000Y-89160000D03*
G04 #@! TO.P,R21,2*
G04 #@! TO.N,Net-(R20-Pad1)*
X168200000Y-89160000D03*
G04 #@! TD*
D17*
G04 #@! TO.P,U2,5*
G04 #@! TO.N,/SCL*
X173872000Y-66634000D03*
G04 #@! TO.P,U2,6*
G04 #@! TO.N,+5V*
X172922000Y-66634000D03*
G04 #@! TO.P,U2,4*
G04 #@! TO.N,/SDA*
X174822000Y-66634000D03*
G04 #@! TO.P,U2,3*
G04 #@! TO.N,+5V*
X174822000Y-64434000D03*
G04 #@! TO.P,U2,2*
G04 #@! TO.N,GND*
X173872000Y-64434000D03*
G04 #@! TO.P,U2,1*
G04 #@! TO.N,/DAC2*
X172922000Y-64434000D03*
G04 #@! TD*
G04 #@! TO.P,U3,1*
G04 #@! TO.N,/DAC1*
X168590000Y-64430000D03*
G04 #@! TO.P,U3,2*
G04 #@! TO.N,GND*
X169540000Y-64430000D03*
G04 #@! TO.P,U3,3*
G04 #@! TO.N,+5V*
X170490000Y-64430000D03*
G04 #@! TO.P,U3,4*
G04 #@! TO.N,/SDA*
X170490000Y-66630000D03*
G04 #@! TO.P,U3,6*
G04 #@! TO.N,GND*
X168590000Y-66630000D03*
G04 #@! TO.P,U3,5*
G04 #@! TO.N,/SCL*
X169540000Y-66630000D03*
G04 #@! TD*
D18*
G04 #@! TO.P,U4,2*
G04 #@! TO.N,/+12V_NL*
X171069000Y-87710000D03*
G04 #@! TO.P,U4,1*
G04 #@! TO.N,/NL_HEATER*
X175369000Y-87710000D03*
G04 #@! TD*
D19*
G04 #@! TO.P,J10,1*
G04 #@! TO.N,/PD3*
X176530000Y-58420000D03*
G04 #@! TD*
G04 #@! TO.P,J12,1*
G04 #@! TO.N,/DAC1*
X170840400Y-58420000D03*
G04 #@! TD*
G04 #@! TO.P,J13,1*
G04 #@! TO.N,/DAC2*
X173736000Y-58420000D03*
G04 #@! TD*
D20*
G04 #@! TO.P,J6,1*
G04 #@! TO.N,/NL_HEATER*
X171450000Y-100965000D03*
G04 #@! TD*
G04 #@! TO.P,J2,1*
G04 #@! TO.N,GND*
X167386000Y-58420000D03*
G04 #@! TD*
G04 #@! TO.P,J4,1*
G04 #@! TO.N,/IP*
X167132000Y-100990400D03*
G04 #@! TD*
G04 #@! TO.P,J7,1*
G04 #@! TO.N,/IA*
X175514000Y-100965000D03*
G04 #@! TD*
D21*
G04 #@! TO.P,U5,G*
G04 #@! TO.N,Net-(R20-Pad1)*
X167259000Y-95885000D03*
D22*
G04 #@! TO.P,U5,D*
G04 #@! TO.N,/NL_HEATER*
X173609000Y-93599000D03*
D21*
G04 #@! TO.P,U5,S*
G04 #@! TO.N,GND*
X167259000Y-91313000D03*
G04 #@! TD*
D13*
G04 #@! TO.P,C13,2*
G04 #@! TO.N,+5V*
X174980000Y-62880000D03*
G04 #@! TO.P,C13,1*
G04 #@! TO.N,GND*
X173480000Y-62880000D03*
G04 #@! TD*
G04 #@! TO.P,C14,1*
G04 #@! TO.N,GND*
X170580000Y-62870000D03*
G04 #@! TO.P,C14,2*
G04 #@! TO.N,+5V*
X172080000Y-62870000D03*
G04 #@! TD*
D16*
G04 #@! TO.P,R8,2*
G04 #@! TO.N,+5V*
X166910000Y-79990000D03*
G04 #@! TO.P,R8,1*
G04 #@! TO.N,/SDA*
X165410000Y-79990000D03*
G04 #@! TD*
G04 #@! TO.P,R9,1*
G04 #@! TO.N,/SCL*
X165410000Y-81580000D03*
G04 #@! TO.P,R9,2*
G04 #@! TO.N,+5V*
X166910000Y-81580000D03*
G04 #@! TD*
D23*
G04 #@! TO.N,/+12V_NL*
X171005500Y-87693500D03*
X171005500Y-86995000D03*
X171005500Y-88455500D03*
X164500000Y-73370000D03*
G04 #@! TO.N,GND*
X166130000Y-65520000D03*
X173500000Y-61790000D03*
X168614997Y-66832142D03*
X175480000Y-80400000D03*
X178010000Y-78420000D03*
X175110000Y-84645000D03*
X171920000Y-61290000D03*
X175260000Y-73970000D03*
X167700378Y-77147530D03*
X165960000Y-61260000D03*
X167386000Y-61114000D03*
X174180000Y-61500000D03*
X169590000Y-60790000D03*
X165655441Y-84245010D03*
X170786273Y-82019996D03*
X167209093Y-75239988D03*
X165655441Y-84980000D03*
X165655441Y-85710000D03*
X166110000Y-93650000D03*
X166130000Y-92810000D03*
G04 #@! TO.N,+5V*
X175750000Y-65540000D03*
X171320437Y-79414978D03*
X172087660Y-66582340D03*
X171872056Y-76222500D03*
X175450000Y-69470000D03*
X167528494Y-79913672D03*
X168009998Y-74630000D03*
X174742164Y-77814990D03*
G04 #@! TO.N,/UA*
X169178824Y-69273803D03*
G04 #@! TO.N,/UR*
X168338198Y-68732164D03*
G04 #@! TO.N,/IA*
X171122377Y-83000072D03*
X164780000Y-70700000D03*
X168087858Y-80742609D03*
G04 #@! TO.N,/IP*
X172274760Y-71482231D03*
X164840000Y-68310000D03*
G04 #@! TO.N,/RS*
X170555527Y-73056003D03*
G04 #@! TO.N,Net-(R11-Pad1)*
X172408430Y-68664022D03*
X167910000Y-83560000D03*
G04 #@! TO.N,/DIAHD*
X173679999Y-80558336D03*
G04 #@! TO.N,/DIAHG*
X171949184Y-72427748D03*
G04 #@! TO.N,/LS_SCK*
X170508408Y-68506817D03*
G04 #@! TO.N,/VM*
X168214979Y-84526104D03*
X173538134Y-68783441D03*
G04 #@! TO.N,Net-(D3-Pad1)*
X177840000Y-81010000D03*
G04 #@! TO.N,/Out1*
X177030000Y-62230000D03*
G04 #@! TD*
D24*
G04 #@! TO.N,/+12V_NL*
X165030000Y-75050000D02*
X165030000Y-73860000D01*
X166290000Y-75580000D02*
X166060000Y-75350000D01*
X166290000Y-75920000D02*
X166290000Y-75580000D01*
X166660000Y-76290000D02*
X166290000Y-75920000D01*
X164540000Y-73370000D02*
X164500000Y-73370000D01*
X165030000Y-73860000D02*
X164540000Y-73370000D01*
X165330000Y-75350000D02*
X165030000Y-75050000D01*
X166060000Y-75350000D02*
X165330000Y-75350000D01*
X167010000Y-76290000D02*
X166660000Y-76290000D01*
G04 #@! TO.N,GND*
X173872000Y-63282000D02*
X173480000Y-62890000D01*
X173872000Y-64434000D02*
X173872000Y-63282000D01*
X166130000Y-65520000D02*
X166640000Y-66030000D01*
X167030000Y-66415000D02*
X167030000Y-67040000D01*
X166645000Y-66030000D02*
X167030000Y-66415000D01*
X166640000Y-66030000D02*
X166645000Y-66030000D01*
X166170000Y-62895685D02*
X166170000Y-62330000D01*
X168590000Y-65850000D02*
X166170000Y-63430000D01*
X166170000Y-63430000D02*
X166170000Y-62895685D01*
X168590000Y-66630000D02*
X168590000Y-65850000D01*
X173480000Y-61810000D02*
X173500000Y-61790000D01*
X173480000Y-62880000D02*
X173480000Y-61810000D01*
D25*
X166740999Y-57774999D02*
X165804999Y-57774999D01*
X167386000Y-58420000D02*
X166740999Y-57774999D01*
X165804999Y-57774999D02*
X165430000Y-57400000D01*
X165430000Y-57400000D02*
X162340000Y-57400000D01*
X162340000Y-57400000D02*
X161020000Y-58720000D01*
X162468686Y-94960000D02*
X163690000Y-94960000D01*
X161020000Y-93511314D02*
X162468686Y-94960000D01*
X161020000Y-58720000D02*
X161020000Y-93511314D01*
D24*
X167386000Y-61114000D02*
X167386000Y-58420000D01*
X167259000Y-91313000D02*
X166560500Y-91313000D01*
X166700000Y-90754000D02*
X167259000Y-91313000D01*
X166700000Y-89160000D02*
X166700000Y-90754000D01*
X168590000Y-66630000D02*
X168611924Y-66630000D01*
X168611924Y-66630000D02*
X168614997Y-66633073D01*
X168614997Y-66633073D02*
X168614997Y-66832142D01*
X175480000Y-79620000D02*
X175150000Y-79290000D01*
X175480000Y-80400000D02*
X175480000Y-79620000D01*
X169540000Y-63910000D02*
X170580000Y-62870000D01*
X169540000Y-64430000D02*
X169540000Y-63910000D01*
X170580000Y-62630000D02*
X171920000Y-61290000D01*
X170580000Y-62870000D02*
X170580000Y-62630000D01*
X175450000Y-74160000D02*
X175260000Y-73970000D01*
X175450000Y-75040000D02*
X175450000Y-74160000D01*
X167000000Y-77690000D02*
X167542470Y-77147530D01*
X167542470Y-77147530D02*
X167700378Y-77147530D01*
X167000000Y-77890000D02*
X167000000Y-77690000D01*
X166106000Y-61114000D02*
X165960000Y-61260000D01*
X167386000Y-61114000D02*
X166106000Y-61114000D01*
D26*
X167386000Y-61114000D02*
X167386000Y-58714000D01*
X169630001Y-56469999D02*
X180519999Y-56469999D01*
X167386000Y-58714000D02*
X169630001Y-56469999D01*
X180519999Y-56469999D02*
X181490000Y-57440000D01*
X181490000Y-87320000D02*
X178930000Y-89880000D01*
X181490000Y-57440000D02*
X181490000Y-87320000D01*
D24*
X166560500Y-91313000D02*
X165655441Y-90407941D01*
X165655441Y-84810695D02*
X165655441Y-84245010D01*
X163690000Y-94780000D02*
X163690000Y-94960000D01*
X166560500Y-91909500D02*
X163690000Y-94780000D01*
X166560500Y-91313000D02*
X166560500Y-91909500D01*
X171186272Y-81619997D02*
X170786273Y-82019996D01*
X172820011Y-77377389D02*
X172820011Y-79986258D01*
X172957800Y-77239600D02*
X172820011Y-77377389D01*
X173538000Y-77239600D02*
X172957800Y-77239600D01*
X172820011Y-79986258D02*
X171186272Y-81619997D01*
X167609092Y-75639987D02*
X167209093Y-75239988D01*
X167700378Y-77147530D02*
X167700378Y-75731273D01*
X167700378Y-75731273D02*
X167609092Y-75639987D01*
X165860000Y-73490000D02*
X167140000Y-72210000D01*
X165860000Y-73720000D02*
X165860000Y-73490000D01*
X170370067Y-83660067D02*
X170370067Y-82658580D01*
X171355000Y-84645000D02*
X170370067Y-83660067D01*
X170786273Y-82242374D02*
X170786273Y-82019996D01*
X170370067Y-82658580D02*
X170786273Y-82242374D01*
X175110000Y-84645000D02*
X171355000Y-84645000D01*
X165655441Y-84980000D02*
X165655441Y-84810695D01*
X165655441Y-85710000D02*
X165655441Y-84980000D01*
X165655441Y-90407941D02*
X165655441Y-85710000D01*
X165000000Y-93650000D02*
X166110000Y-93650000D01*
X163690000Y-94960000D02*
X165000000Y-93650000D01*
X176350000Y-72880000D02*
X175659999Y-73570001D01*
X176350000Y-71180000D02*
X176350000Y-72880000D01*
X176720000Y-70810000D02*
X176350000Y-71180000D01*
X175659999Y-73570001D02*
X175260000Y-73970000D01*
X177220000Y-70810000D02*
X176720000Y-70810000D01*
X167372163Y-68007163D02*
X167030000Y-67665000D01*
X168686199Y-68007163D02*
X167372163Y-68007163D01*
X167030000Y-67665000D02*
X167030000Y-67040000D01*
X169930000Y-69547948D02*
X169930000Y-68986662D01*
X169427696Y-68484358D02*
X169163394Y-68484358D01*
X169930000Y-68986662D02*
X169427696Y-68484358D01*
X167892948Y-71585000D02*
X169930000Y-69547948D01*
X169163394Y-68484358D02*
X168686199Y-68007163D01*
X167790000Y-71585000D02*
X167892948Y-71585000D01*
X167165000Y-72210000D02*
X167790000Y-71585000D01*
X167140000Y-72210000D02*
X167165000Y-72210000D01*
X166040000Y-74070895D02*
X166809094Y-74839989D01*
X166809094Y-74839989D02*
X167209093Y-75239988D01*
X167115000Y-72210000D02*
X166040000Y-73285000D01*
X166040000Y-73285000D02*
X166040000Y-74070895D01*
X167140000Y-72210000D02*
X167115000Y-72210000D01*
X173538000Y-77239600D02*
X174244552Y-77239600D01*
X177741399Y-78151399D02*
X178010000Y-78420000D01*
X175110165Y-77109989D02*
X177364991Y-77109989D01*
X175090165Y-77089989D02*
X175110165Y-77109989D01*
X177364991Y-77109989D02*
X177741399Y-77486397D01*
X174394163Y-77089989D02*
X175090165Y-77089989D01*
X174244552Y-77239600D02*
X174394163Y-77089989D01*
X177741399Y-77486397D02*
X177741399Y-78151399D01*
G04 #@! TO.N,+5V*
X174822000Y-63048000D02*
X174980000Y-62890000D01*
X174822000Y-64434000D02*
X174822000Y-63048000D01*
X166910000Y-81580000D02*
X166910000Y-79990000D01*
X174980000Y-64770000D02*
X175750000Y-65540000D01*
X174980000Y-62880000D02*
X174980000Y-64770000D01*
X172922000Y-66634000D02*
X172139320Y-66634000D01*
X172139320Y-66634000D02*
X172087660Y-66582340D01*
X173130000Y-65540000D02*
X175750000Y-65540000D01*
X172087660Y-66582340D02*
X173130000Y-65540000D01*
X170520000Y-64430000D02*
X172080000Y-62870000D01*
X170490000Y-64430000D02*
X170520000Y-64430000D01*
X171065000Y-64430000D02*
X170490000Y-64430000D01*
X172087660Y-65452660D02*
X171065000Y-64430000D01*
X172087660Y-66582340D02*
X172087660Y-65452660D01*
D26*
X171320437Y-79414978D02*
X171320437Y-76774119D01*
X173050000Y-75040000D02*
X171872056Y-76217944D01*
X171320437Y-76774119D02*
X171472057Y-76622499D01*
X173950000Y-75040000D02*
X173050000Y-75040000D01*
X171472057Y-76622499D02*
X171872056Y-76222500D01*
X171872056Y-76217944D02*
X171872056Y-76222500D01*
D24*
X167452166Y-79990000D02*
X167528494Y-79913672D01*
X166910000Y-79990000D02*
X167452166Y-79990000D01*
X168009998Y-74369998D02*
X167360000Y-73720000D01*
X168009998Y-74630000D02*
X168009998Y-74369998D01*
X173950000Y-73506411D02*
X173950000Y-74415000D01*
X174800000Y-72656411D02*
X173950000Y-73506411D01*
X174800000Y-71788838D02*
X174800000Y-72656411D01*
X175060011Y-69859989D02*
X175060011Y-71528827D01*
X173950000Y-74415000D02*
X173950000Y-75040000D01*
X175060011Y-71528827D02*
X174800000Y-71788838D01*
X175450000Y-69470000D02*
X175060011Y-69859989D01*
X174827174Y-77900000D02*
X174742164Y-77814990D01*
X175570000Y-77900000D02*
X174827174Y-77900000D01*
G04 #@! TO.N,/UA*
X165530000Y-72100000D02*
X165640000Y-72210000D01*
X163690000Y-72100000D02*
X165530000Y-72100000D01*
X165640000Y-72210000D02*
X165665000Y-72210000D01*
X165665000Y-72210000D02*
X168201198Y-69673802D01*
X168201198Y-69673802D02*
X168778825Y-69673802D01*
X168778825Y-69673802D02*
X169178824Y-69273803D01*
G04 #@! TO.N,/UR*
X167938199Y-69132163D02*
X168338198Y-68732164D01*
X163720000Y-69590000D02*
X167480362Y-69590000D01*
X167480362Y-69590000D02*
X167938199Y-69132163D01*
X163690000Y-69560000D02*
X163720000Y-69590000D01*
G04 #@! TO.N,Net-(C11-Pad1)*
X165510000Y-67020000D02*
X165530000Y-67040000D01*
X163690000Y-67020000D02*
X165510000Y-67020000D01*
G04 #@! TO.N,Net-(C12-Pad2)*
X173650000Y-78012000D02*
X173538000Y-77900000D01*
X173650000Y-79290000D02*
X173650000Y-78012000D01*
X174425000Y-78540000D02*
X176190000Y-78540000D01*
X176190000Y-78540000D02*
X176750000Y-77980000D01*
X173675000Y-79290000D02*
X174425000Y-78540000D01*
X173650000Y-79290000D02*
X173675000Y-79290000D01*
X176750000Y-77980000D02*
X176950000Y-77980000D01*
G04 #@! TO.N,/BRV*
X165500000Y-76300000D02*
X165510000Y-76290000D01*
X165500000Y-77890000D02*
X165500000Y-76300000D01*
X163690000Y-74970000D02*
X163690000Y-74640000D01*
X165010000Y-76290000D02*
X163690000Y-74970000D01*
X165510000Y-76290000D02*
X165010000Y-76290000D01*
G04 #@! TO.N,/WBL*
X178230000Y-76480000D02*
X178930000Y-77180000D01*
X176950000Y-76480000D02*
X178230000Y-76480000D01*
G04 #@! TO.N,/IA*
X175514000Y-99215000D02*
X177310000Y-97419000D01*
X175866462Y-82921460D02*
X171740706Y-82921460D01*
X175514000Y-100965000D02*
X175514000Y-99215000D01*
X177310000Y-97419000D02*
X177310000Y-84364998D01*
X171740706Y-82921460D02*
X171175021Y-82921460D01*
X177310000Y-84364998D02*
X175866462Y-82921460D01*
X164780000Y-70670000D02*
X164780000Y-70700000D01*
X165850000Y-70300000D02*
X165150000Y-70300000D01*
X165150000Y-70300000D02*
X164780000Y-70670000D01*
X167687859Y-82329139D02*
X167687859Y-81142608D01*
X167687859Y-81142608D02*
X168087858Y-80742609D01*
X166496998Y-83520000D02*
X167687859Y-82329139D01*
X162040000Y-82369130D02*
X163190870Y-83520000D01*
X163190870Y-83520000D02*
X166496998Y-83520000D01*
X164560000Y-70820000D02*
X163210870Y-70820000D01*
X163210870Y-70820000D02*
X162040000Y-71990870D01*
X162040000Y-71990870D02*
X162040000Y-82369130D01*
X164680000Y-70700000D02*
X164560000Y-70820000D01*
X164780000Y-70700000D02*
X164680000Y-70700000D01*
G04 #@! TO.N,/IP*
X165150000Y-68800000D02*
X164840000Y-68490000D01*
X164840000Y-68490000D02*
X164840000Y-68310000D01*
X165850000Y-68800000D02*
X165150000Y-68800000D01*
X171821689Y-71482231D02*
X172274760Y-71482231D01*
X171224168Y-72651640D02*
X171224168Y-72079752D01*
X171280529Y-74938426D02*
X171280529Y-72708001D01*
X170280528Y-75938427D02*
X171280529Y-74938426D01*
X170140044Y-80956807D02*
X170140044Y-78635600D01*
X169611260Y-81485591D02*
X170140044Y-80956807D01*
X171280529Y-72708001D02*
X171224168Y-72651640D01*
X169611260Y-82144566D02*
X169611260Y-81485591D01*
X171224168Y-72079752D02*
X171821689Y-71482231D01*
X170280528Y-78495116D02*
X170280528Y-75938427D01*
X170140044Y-78635600D02*
X170280528Y-78495116D01*
X169190802Y-84719187D02*
X169190802Y-82565024D01*
X167650000Y-87660000D02*
X167650000Y-86259989D01*
X169190802Y-82565024D02*
X169611260Y-82144566D01*
X168740000Y-88070000D02*
X168060000Y-88070000D01*
X169000000Y-88330000D02*
X168740000Y-88070000D01*
X169780000Y-90263087D02*
X169000000Y-89483087D01*
X169780000Y-98260000D02*
X169780000Y-90263087D01*
X167132000Y-100908000D02*
X169780000Y-98260000D01*
X169000000Y-89483087D02*
X169000000Y-88330000D01*
X167650000Y-86259989D02*
X169190802Y-84719187D01*
X168060000Y-88070000D02*
X167650000Y-87660000D01*
X167132000Y-100990400D02*
X167132000Y-100908000D01*
G04 #@! TO.N,/RS*
X170555527Y-72111980D02*
X170555527Y-72490318D01*
X171860000Y-70807507D02*
X170555527Y-72111980D01*
X171926759Y-70757230D02*
X171868241Y-70815748D01*
X173530000Y-71664469D02*
X172622761Y-70757230D01*
X170555527Y-72490318D02*
X170555527Y-73056003D01*
X173530000Y-71680000D02*
X173530000Y-71664469D01*
X171868241Y-70815748D02*
X171860000Y-70807507D01*
X172622761Y-70757230D02*
X171926759Y-70757230D01*
X173500000Y-71680000D02*
X173530000Y-71680000D01*
G04 #@! TO.N,Net-(R11-Pad1)*
X168711238Y-81431766D02*
X168160009Y-81982995D01*
X168160009Y-81982995D02*
X168160009Y-82744306D01*
X169645023Y-73839199D02*
X169645023Y-75300801D01*
X172408430Y-68664022D02*
X172408430Y-68978748D01*
X169380506Y-75565318D02*
X169380506Y-78122316D01*
X172408430Y-68978748D02*
X169380506Y-72006672D01*
X169380506Y-72006672D02*
X169380506Y-73574682D01*
X169240022Y-80584007D02*
X168711238Y-81112791D01*
X169240022Y-78262800D02*
X169240022Y-80584007D01*
X168160009Y-82744306D02*
X167910000Y-82994315D01*
X167910000Y-82994315D02*
X167910000Y-83560000D01*
X169645023Y-75300801D02*
X169380506Y-75565318D01*
X169380506Y-78122316D02*
X169240022Y-78262800D01*
X168711238Y-81112791D02*
X168711238Y-81431766D01*
X169380506Y-73574682D02*
X169645023Y-73839199D01*
G04 #@! TO.N,/DIAHD*
X174590000Y-81468337D02*
X174590000Y-82120000D01*
X173679999Y-80558336D02*
X174590000Y-81468337D01*
G04 #@! TO.N,/NL_HEATER*
X176310000Y-86769000D02*
X175369000Y-87710000D01*
D27*
X171450000Y-95758000D02*
X173609000Y-93599000D01*
X171450000Y-100965000D02*
X171450000Y-95758000D01*
D25*
X175369000Y-91839000D02*
X173609000Y-93599000D01*
X175369000Y-87710000D02*
X175369000Y-91839000D01*
D24*
X176310000Y-84640000D02*
X176310000Y-84940000D01*
X174590000Y-83620000D02*
X175290000Y-83620000D01*
X176310000Y-84940000D02*
X176310000Y-86769000D01*
X175290000Y-83620000D02*
X176310000Y-84640000D01*
X176310000Y-84650000D02*
X176310000Y-84940000D01*
G04 #@! TO.N,/DIAHG*
X174983599Y-68696401D02*
X174349989Y-69330011D01*
X174349989Y-69330011D02*
X174349989Y-72230011D01*
X178930000Y-69560000D02*
X178066401Y-68696401D01*
X174349989Y-72230011D02*
X174152252Y-72427748D01*
X178066401Y-68696401D02*
X174983599Y-68696401D01*
X174152252Y-72427748D02*
X172514869Y-72427748D01*
X172514869Y-72427748D02*
X171949184Y-72427748D01*
X169845749Y-84784251D02*
X169845749Y-82546488D01*
X170730539Y-76125670D02*
X171949184Y-74907025D01*
X169845749Y-82546488D02*
X170061271Y-82330966D01*
X168350000Y-86980000D02*
X168350000Y-86280000D01*
X168350000Y-86280000D02*
X169845749Y-84784251D01*
X170590055Y-78822000D02*
X170730539Y-78681516D01*
X171949184Y-74907025D02*
X171949184Y-72993433D01*
X170061271Y-81671991D02*
X170590055Y-81143207D01*
X171949184Y-72993433D02*
X171949184Y-72427748D01*
X170730539Y-78681516D02*
X170730539Y-76125670D01*
X170590055Y-81143207D02*
X170590055Y-78822000D01*
X170061271Y-82330966D02*
X170061271Y-81671991D01*
G04 #@! TO.N,Net-(R20-Pad1)*
X168190000Y-89150000D02*
X168200000Y-89160000D01*
X167259000Y-94809500D02*
X167259000Y-95885000D01*
X169108001Y-92960499D02*
X167259000Y-94809500D01*
X169108001Y-90268001D02*
X169108001Y-92960499D01*
X168200000Y-89360000D02*
X169108001Y-90268001D01*
X168200000Y-89160000D02*
X168200000Y-89360000D01*
X168200000Y-88960000D02*
X168200000Y-89160000D01*
X167700000Y-88460000D02*
X168200000Y-88960000D01*
X167500000Y-88460000D02*
X167700000Y-88460000D01*
X166850000Y-87810000D02*
X167500000Y-88460000D01*
X166850000Y-86980000D02*
X166850000Y-87810000D01*
G04 #@! TO.N,/LS_SCK*
X163690000Y-61940000D02*
X167889987Y-66139987D01*
X168955957Y-67557152D02*
X169433152Y-68034347D01*
X170035938Y-68034347D02*
X170108409Y-68106818D01*
X167889987Y-67527678D02*
X167919461Y-67557152D01*
X169433152Y-68034347D02*
X170035938Y-68034347D01*
X167919461Y-67557152D02*
X168955957Y-67557152D01*
X170108409Y-68106818D02*
X170508408Y-68506817D01*
X167889987Y-66139987D02*
X167889987Y-67527678D01*
G04 #@! TO.N,/SCL*
X164730000Y-82260000D02*
X165410000Y-81580000D01*
X163690000Y-82260000D02*
X164730000Y-82260000D01*
X169540000Y-65850000D02*
X169615001Y-65774999D01*
X169540000Y-66630000D02*
X169540000Y-65850000D01*
X173796999Y-67489001D02*
X171969001Y-67489001D01*
X173872000Y-67414000D02*
X173796999Y-67489001D01*
X173872000Y-66634000D02*
X173872000Y-67414000D01*
X171969001Y-67489001D02*
X171350000Y-66870000D01*
X171350000Y-66124999D02*
X171000000Y-65774999D01*
X171350000Y-66870000D02*
X171350000Y-66124999D01*
X169615001Y-65774999D02*
X171000000Y-65774999D01*
X169540000Y-67410000D02*
X169540000Y-66630000D01*
X169694988Y-67564988D02*
X169540000Y-67410000D01*
X170602167Y-67564988D02*
X169694988Y-67564988D01*
X168480484Y-73947482D02*
X168480484Y-71633872D01*
X168480484Y-77749516D02*
X168480484Y-75192518D01*
X167520000Y-78710000D02*
X168480484Y-77749516D01*
X165034998Y-78710000D02*
X167520000Y-78710000D01*
X163190000Y-78440000D02*
X164764998Y-78440000D01*
X162501399Y-81071399D02*
X162501399Y-79128601D01*
X163690000Y-82260000D02*
X162501399Y-81071399D01*
X168480484Y-71633872D02*
X171233418Y-68880938D01*
X168480484Y-75192518D02*
X168745001Y-74928001D01*
X168745001Y-74928001D02*
X168745001Y-74211999D01*
X171233418Y-68880938D02*
X171233418Y-68196240D01*
X164764998Y-78440000D02*
X165034998Y-78710000D01*
X168745001Y-74211999D02*
X168480484Y-73947482D01*
X171233418Y-68196240D02*
X170602167Y-67564988D01*
X162501399Y-79128601D02*
X163190000Y-78440000D01*
G04 #@! TO.N,/SDA*
X163960000Y-79990000D02*
X163690000Y-79720000D01*
X165410000Y-79990000D02*
X163960000Y-79990000D01*
X171612601Y-67939012D02*
X174296988Y-67939012D01*
X170410000Y-66650000D02*
X170410000Y-66736411D01*
X174822000Y-67414000D02*
X174822000Y-66634000D01*
X170410000Y-66736411D02*
X171612601Y-67939012D01*
X174296988Y-67939012D02*
X174822000Y-67414000D01*
X171683429Y-69067338D02*
X171683429Y-68009839D01*
X170490000Y-66816410D02*
X170490000Y-66630000D01*
X168930495Y-77935916D02*
X168930495Y-75378917D01*
X169195012Y-74025599D02*
X168930495Y-73761082D01*
X165410000Y-79790000D02*
X166039989Y-79160011D01*
X168931401Y-75378012D02*
X169195012Y-75114401D01*
X165410000Y-79990000D02*
X165410000Y-79790000D01*
X167706400Y-79160011D02*
X168930495Y-77935916D01*
X168930495Y-71820272D02*
X171683429Y-69067338D01*
X168930495Y-73761082D02*
X168930495Y-71820272D01*
X166039989Y-79160011D02*
X167706400Y-79160011D01*
X168930495Y-75378917D02*
X168931401Y-75378012D01*
X169195012Y-75114401D02*
X169195012Y-74025599D01*
X171683429Y-68009839D02*
X170490000Y-66816410D01*
G04 #@! TO.N,/VM*
X173500000Y-68821575D02*
X173538134Y-68783441D01*
X173500000Y-70180000D02*
X173500000Y-68821575D01*
X169830517Y-75751718D02*
X170095034Y-75487201D01*
X169690033Y-80770407D02*
X169690033Y-78449200D01*
X171843589Y-70180000D02*
X172800000Y-70180000D01*
X169830517Y-72193072D02*
X171843589Y-70180000D01*
X169161249Y-81958166D02*
X169161249Y-81299191D01*
X168645001Y-82474414D02*
X169161249Y-81958166D01*
X169830517Y-78308716D02*
X169830517Y-75751718D01*
X169690033Y-78449200D02*
X169830517Y-78308716D01*
X170095034Y-75487201D02*
X170095034Y-73652799D01*
X172800000Y-70180000D02*
X173500000Y-70180000D01*
X169830517Y-73388282D02*
X169830517Y-72193072D01*
X170095034Y-73652799D02*
X169830517Y-73388282D01*
X168645001Y-84096082D02*
X168645001Y-82474414D01*
X169161249Y-81299191D02*
X169690033Y-80770407D01*
X168214979Y-84526104D02*
X168645001Y-84096082D01*
G04 #@! TO.N,/PD3*
X176600000Y-57740000D02*
X176530000Y-57670000D01*
X176530000Y-57670000D02*
X176530000Y-58420000D01*
X179460000Y-57740000D02*
X176600000Y-57740000D01*
X180568612Y-58848612D02*
X179460000Y-57740000D01*
X180568612Y-83161388D02*
X180568612Y-58848612D01*
X178930000Y-84800000D02*
X180568612Y-83161388D01*
G04 #@! TO.N,/DAC1*
X168590000Y-64430000D02*
X168590000Y-63253002D01*
X168590000Y-63253002D02*
X170840400Y-61002602D01*
X170840400Y-60170000D02*
X170840400Y-58420000D01*
X170840400Y-61002602D02*
X170840400Y-60170000D01*
G04 #@! TO.N,/DAC2*
X173736000Y-60170000D02*
X173736000Y-58420000D01*
X172754999Y-61151001D02*
X173736000Y-60170000D01*
X172754999Y-63486999D02*
X172754999Y-61151001D01*
X172922000Y-63654000D02*
X172754999Y-63486999D01*
X172922000Y-64434000D02*
X172922000Y-63654000D01*
G04 #@! TO.N,/LED_1*
X178660000Y-72370000D02*
X178930000Y-72100000D01*
X177100000Y-72370000D02*
X178660000Y-72370000D01*
G04 #@! TO.N,/LED_2*
X177239300Y-79720000D02*
X176830000Y-79310700D01*
X178930000Y-79720000D02*
X177239300Y-79720000D01*
G04 #@! TO.N,Net-(D2-Pad1)*
X175601400Y-70928600D02*
X175720000Y-70810000D01*
X175601400Y-72370000D02*
X175601400Y-70928600D01*
G04 #@! TO.N,Net-(D3-Pad1)*
X177639300Y-80809300D02*
X177840000Y-81010000D01*
X176830000Y-80809300D02*
X177639300Y-80809300D01*
G04 #@! TO.N,/Out1*
X173538000Y-76579200D02*
X175570000Y-76579200D01*
X178450870Y-73360000D02*
X179429130Y-73360000D01*
X179630000Y-68280000D02*
X178430870Y-68280000D01*
X176150200Y-75660670D02*
X178450870Y-73360000D01*
X179429130Y-73360000D02*
X180118601Y-72670529D01*
X177030000Y-66879130D02*
X177030000Y-62795685D01*
X175570000Y-76579200D02*
X175697000Y-76579200D01*
X175697000Y-76579200D02*
X176150200Y-76126000D01*
X176150200Y-76126000D02*
X176150200Y-75660670D01*
X180118601Y-68768601D02*
X179630000Y-68280000D01*
X177030000Y-62795685D02*
X177030000Y-62230000D01*
X180118601Y-72670529D02*
X180118601Y-68768601D01*
X178430870Y-68280000D02*
X177030000Y-66879130D01*
G04 #@! TD*
D28*
G04 #@! TO.N,GND*
G36*
X169492243Y-56672235D02*
X169442960Y-56920000D01*
X169442960Y-59920000D01*
X169492243Y-60167765D01*
X169632591Y-60377809D01*
X169842635Y-60518157D01*
X170080400Y-60565451D01*
X170080400Y-60687800D01*
X168105528Y-62662673D01*
X168042072Y-62705073D01*
X167999672Y-62768529D01*
X167999671Y-62768530D01*
X167874097Y-62956465D01*
X167815112Y-63253002D01*
X167830001Y-63327853D01*
X167830001Y-63426950D01*
X167807191Y-63442191D01*
X167666843Y-63652235D01*
X167617560Y-63900000D01*
X167617560Y-64792758D01*
X165151781Y-62326979D01*
X165188600Y-62238090D01*
X165188600Y-61641910D01*
X164960451Y-61091111D01*
X164582757Y-60713417D01*
X165012504Y-60283669D01*
X165250000Y-59710303D01*
X165250000Y-59089697D01*
X165012504Y-58516331D01*
X164573669Y-58077496D01*
X164000303Y-57840000D01*
X163379697Y-57840000D01*
X162806331Y-58077496D01*
X162367496Y-58516331D01*
X162130000Y-59089697D01*
X162130000Y-59710303D01*
X162367496Y-60283669D01*
X162797244Y-60713417D01*
X162419549Y-61091111D01*
X162191400Y-61641910D01*
X162191400Y-62238090D01*
X162419549Y-62788889D01*
X162840660Y-63210000D01*
X162419549Y-63631111D01*
X162191400Y-64181910D01*
X162191400Y-64778090D01*
X162419549Y-65328889D01*
X162840660Y-65750000D01*
X162419549Y-66171111D01*
X162191400Y-66721910D01*
X162191400Y-67318090D01*
X162419549Y-67868889D01*
X162840660Y-68290000D01*
X162419549Y-68711111D01*
X162191400Y-69261910D01*
X162191400Y-69858090D01*
X162419549Y-70408889D01*
X162483364Y-70472704D01*
X161555530Y-71400539D01*
X161492071Y-71442941D01*
X161324096Y-71694334D01*
X161280000Y-71916019D01*
X161280000Y-71916023D01*
X161265112Y-71990870D01*
X161280000Y-72065717D01*
X161280001Y-82294278D01*
X161265112Y-82369130D01*
X161324097Y-82665667D01*
X161426657Y-82819158D01*
X161492072Y-82917059D01*
X161555528Y-82959459D01*
X162483364Y-83887296D01*
X162419549Y-83951111D01*
X162191400Y-84501910D01*
X162191400Y-85098090D01*
X162419549Y-85648889D01*
X162840660Y-86070000D01*
X162419549Y-86491111D01*
X162191400Y-87041910D01*
X162191400Y-87638090D01*
X162419549Y-88188889D01*
X162840660Y-88610000D01*
X162419549Y-89031111D01*
X162191400Y-89581910D01*
X162191400Y-90178090D01*
X162419549Y-90728889D01*
X162840660Y-91150000D01*
X162419549Y-91571111D01*
X162191400Y-92121910D01*
X162191400Y-92718090D01*
X162419549Y-93268889D01*
X162841111Y-93690451D01*
X163391910Y-93918600D01*
X163988090Y-93918600D01*
X164538889Y-93690451D01*
X164960451Y-93268889D01*
X165188600Y-92718090D01*
X165188600Y-92121910D01*
X164960451Y-91571111D01*
X164539340Y-91150000D01*
X164960451Y-90728889D01*
X165188600Y-90178090D01*
X165188600Y-89581910D01*
X165132201Y-89445750D01*
X165815000Y-89445750D01*
X165815000Y-89736310D01*
X165911673Y-89969699D01*
X166090302Y-90148327D01*
X166323691Y-90245000D01*
X166416250Y-90245000D01*
X166575000Y-90086250D01*
X166575000Y-89287000D01*
X165973750Y-89287000D01*
X165815000Y-89445750D01*
X165132201Y-89445750D01*
X164960451Y-89031111D01*
X164539340Y-88610000D01*
X164960451Y-88188889D01*
X165188600Y-87638090D01*
X165188600Y-87041910D01*
X164960451Y-86491111D01*
X164539340Y-86070000D01*
X164960451Y-85648889D01*
X165188600Y-85098090D01*
X165188600Y-84501910D01*
X165096682Y-84280000D01*
X166422151Y-84280000D01*
X166496998Y-84294888D01*
X166571845Y-84280000D01*
X166571850Y-84280000D01*
X166793535Y-84235904D01*
X167009829Y-84091381D01*
X167032569Y-84146280D01*
X167187752Y-84301463D01*
X167179979Y-84320230D01*
X167179979Y-84731978D01*
X167337548Y-85112384D01*
X167530176Y-85305012D01*
X167165528Y-85669660D01*
X167102072Y-85712060D01*
X167059672Y-85775516D01*
X167059671Y-85775517D01*
X166988147Y-85882560D01*
X166600000Y-85882560D01*
X166352235Y-85931843D01*
X166142191Y-86072191D01*
X166001843Y-86282235D01*
X165952560Y-86530000D01*
X165952560Y-87430000D01*
X166001843Y-87677765D01*
X166078573Y-87792599D01*
X166075112Y-87810000D01*
X166090000Y-87884847D01*
X166090000Y-87884852D01*
X166119562Y-88033464D01*
X166134097Y-88106537D01*
X166158691Y-88143345D01*
X166090302Y-88171673D01*
X165911673Y-88350301D01*
X165815000Y-88583690D01*
X165815000Y-88874250D01*
X165973750Y-89033000D01*
X166575000Y-89033000D01*
X166575000Y-89013000D01*
X166825000Y-89013000D01*
X166825000Y-89033000D01*
X166847000Y-89033000D01*
X166847000Y-89287000D01*
X166825000Y-89287000D01*
X166825000Y-90086250D01*
X166983750Y-90245000D01*
X167076309Y-90245000D01*
X167309698Y-90148327D01*
X167451346Y-90006680D01*
X167492191Y-90067809D01*
X167702235Y-90208157D01*
X167950000Y-90257440D01*
X168022638Y-90257440D01*
X168348001Y-90582804D01*
X168348002Y-92645695D01*
X166774530Y-94219169D01*
X166711071Y-94261571D01*
X166610518Y-94412060D01*
X165735000Y-94412060D01*
X165487235Y-94461343D01*
X165277191Y-94601691D01*
X165136843Y-94811735D01*
X165087560Y-95059500D01*
X165087560Y-96710500D01*
X165136843Y-96958265D01*
X165277191Y-97168309D01*
X165487235Y-97308657D01*
X165735000Y-97357940D01*
X168783000Y-97357940D01*
X169020000Y-97310798D01*
X169020000Y-97945198D01*
X168122238Y-98842960D01*
X165632000Y-98842960D01*
X165384235Y-98892243D01*
X165174191Y-99032591D01*
X165042738Y-99229323D01*
X165012504Y-99156331D01*
X164582757Y-98726584D01*
X164960451Y-98348889D01*
X165188600Y-97798090D01*
X165188600Y-97201910D01*
X164960451Y-96651111D01*
X164538889Y-96229549D01*
X163988090Y-96001400D01*
X163391910Y-96001400D01*
X162841111Y-96229549D01*
X162419549Y-96651111D01*
X162191400Y-97201910D01*
X162191400Y-97798090D01*
X162419549Y-98348889D01*
X162797244Y-98726584D01*
X162367496Y-99156331D01*
X162130000Y-99729697D01*
X162130000Y-100350303D01*
X162367496Y-100923669D01*
X162806331Y-101362504D01*
X163379697Y-101600000D01*
X164000303Y-101600000D01*
X164573669Y-101362504D01*
X164984560Y-100951613D01*
X164984560Y-102160000D01*
X160730000Y-102160000D01*
X160730000Y-56590000D01*
X169547191Y-56590000D01*
X169492243Y-56672235D01*
X169492243Y-56672235D01*
G37*
X169492243Y-56672235D02*
X169442960Y-56920000D01*
X169442960Y-59920000D01*
X169492243Y-60167765D01*
X169632591Y-60377809D01*
X169842635Y-60518157D01*
X170080400Y-60565451D01*
X170080400Y-60687800D01*
X168105528Y-62662673D01*
X168042072Y-62705073D01*
X167999672Y-62768529D01*
X167999671Y-62768530D01*
X167874097Y-62956465D01*
X167815112Y-63253002D01*
X167830001Y-63327853D01*
X167830001Y-63426950D01*
X167807191Y-63442191D01*
X167666843Y-63652235D01*
X167617560Y-63900000D01*
X167617560Y-64792758D01*
X165151781Y-62326979D01*
X165188600Y-62238090D01*
X165188600Y-61641910D01*
X164960451Y-61091111D01*
X164582757Y-60713417D01*
X165012504Y-60283669D01*
X165250000Y-59710303D01*
X165250000Y-59089697D01*
X165012504Y-58516331D01*
X164573669Y-58077496D01*
X164000303Y-57840000D01*
X163379697Y-57840000D01*
X162806331Y-58077496D01*
X162367496Y-58516331D01*
X162130000Y-59089697D01*
X162130000Y-59710303D01*
X162367496Y-60283669D01*
X162797244Y-60713417D01*
X162419549Y-61091111D01*
X162191400Y-61641910D01*
X162191400Y-62238090D01*
X162419549Y-62788889D01*
X162840660Y-63210000D01*
X162419549Y-63631111D01*
X162191400Y-64181910D01*
X162191400Y-64778090D01*
X162419549Y-65328889D01*
X162840660Y-65750000D01*
X162419549Y-66171111D01*
X162191400Y-66721910D01*
X162191400Y-67318090D01*
X162419549Y-67868889D01*
X162840660Y-68290000D01*
X162419549Y-68711111D01*
X162191400Y-69261910D01*
X162191400Y-69858090D01*
X162419549Y-70408889D01*
X162483364Y-70472704D01*
X161555530Y-71400539D01*
X161492071Y-71442941D01*
X161324096Y-71694334D01*
X161280000Y-71916019D01*
X161280000Y-71916023D01*
X161265112Y-71990870D01*
X161280000Y-72065717D01*
X161280001Y-82294278D01*
X161265112Y-82369130D01*
X161324097Y-82665667D01*
X161426657Y-82819158D01*
X161492072Y-82917059D01*
X161555528Y-82959459D01*
X162483364Y-83887296D01*
X162419549Y-83951111D01*
X162191400Y-84501910D01*
X162191400Y-85098090D01*
X162419549Y-85648889D01*
X162840660Y-86070000D01*
X162419549Y-86491111D01*
X162191400Y-87041910D01*
X162191400Y-87638090D01*
X162419549Y-88188889D01*
X162840660Y-88610000D01*
X162419549Y-89031111D01*
X162191400Y-89581910D01*
X162191400Y-90178090D01*
X162419549Y-90728889D01*
X162840660Y-91150000D01*
X162419549Y-91571111D01*
X162191400Y-92121910D01*
X162191400Y-92718090D01*
X162419549Y-93268889D01*
X162841111Y-93690451D01*
X163391910Y-93918600D01*
X163988090Y-93918600D01*
X164538889Y-93690451D01*
X164960451Y-93268889D01*
X165188600Y-92718090D01*
X165188600Y-92121910D01*
X164960451Y-91571111D01*
X164539340Y-91150000D01*
X164960451Y-90728889D01*
X165188600Y-90178090D01*
X165188600Y-89581910D01*
X165132201Y-89445750D01*
X165815000Y-89445750D01*
X165815000Y-89736310D01*
X165911673Y-89969699D01*
X166090302Y-90148327D01*
X166323691Y-90245000D01*
X166416250Y-90245000D01*
X166575000Y-90086250D01*
X166575000Y-89287000D01*
X165973750Y-89287000D01*
X165815000Y-89445750D01*
X165132201Y-89445750D01*
X164960451Y-89031111D01*
X164539340Y-88610000D01*
X164960451Y-88188889D01*
X165188600Y-87638090D01*
X165188600Y-87041910D01*
X164960451Y-86491111D01*
X164539340Y-86070000D01*
X164960451Y-85648889D01*
X165188600Y-85098090D01*
X165188600Y-84501910D01*
X165096682Y-84280000D01*
X166422151Y-84280000D01*
X166496998Y-84294888D01*
X166571845Y-84280000D01*
X166571850Y-84280000D01*
X166793535Y-84235904D01*
X167009829Y-84091381D01*
X167032569Y-84146280D01*
X167187752Y-84301463D01*
X167179979Y-84320230D01*
X167179979Y-84731978D01*
X167337548Y-85112384D01*
X167530176Y-85305012D01*
X167165528Y-85669660D01*
X167102072Y-85712060D01*
X167059672Y-85775516D01*
X167059671Y-85775517D01*
X166988147Y-85882560D01*
X166600000Y-85882560D01*
X166352235Y-85931843D01*
X166142191Y-86072191D01*
X166001843Y-86282235D01*
X165952560Y-86530000D01*
X165952560Y-87430000D01*
X166001843Y-87677765D01*
X166078573Y-87792599D01*
X166075112Y-87810000D01*
X166090000Y-87884847D01*
X166090000Y-87884852D01*
X166119562Y-88033464D01*
X166134097Y-88106537D01*
X166158691Y-88143345D01*
X166090302Y-88171673D01*
X165911673Y-88350301D01*
X165815000Y-88583690D01*
X165815000Y-88874250D01*
X165973750Y-89033000D01*
X166575000Y-89033000D01*
X166575000Y-89013000D01*
X166825000Y-89013000D01*
X166825000Y-89033000D01*
X166847000Y-89033000D01*
X166847000Y-89287000D01*
X166825000Y-89287000D01*
X166825000Y-90086250D01*
X166983750Y-90245000D01*
X167076309Y-90245000D01*
X167309698Y-90148327D01*
X167451346Y-90006680D01*
X167492191Y-90067809D01*
X167702235Y-90208157D01*
X167950000Y-90257440D01*
X168022638Y-90257440D01*
X168348001Y-90582804D01*
X168348002Y-92645695D01*
X166774530Y-94219169D01*
X166711071Y-94261571D01*
X166610518Y-94412060D01*
X165735000Y-94412060D01*
X165487235Y-94461343D01*
X165277191Y-94601691D01*
X165136843Y-94811735D01*
X165087560Y-95059500D01*
X165087560Y-96710500D01*
X165136843Y-96958265D01*
X165277191Y-97168309D01*
X165487235Y-97308657D01*
X165735000Y-97357940D01*
X168783000Y-97357940D01*
X169020000Y-97310798D01*
X169020000Y-97945198D01*
X168122238Y-98842960D01*
X165632000Y-98842960D01*
X165384235Y-98892243D01*
X165174191Y-99032591D01*
X165042738Y-99229323D01*
X165012504Y-99156331D01*
X164582757Y-98726584D01*
X164960451Y-98348889D01*
X165188600Y-97798090D01*
X165188600Y-97201910D01*
X164960451Y-96651111D01*
X164538889Y-96229549D01*
X163988090Y-96001400D01*
X163391910Y-96001400D01*
X162841111Y-96229549D01*
X162419549Y-96651111D01*
X162191400Y-97201910D01*
X162191400Y-97798090D01*
X162419549Y-98348889D01*
X162797244Y-98726584D01*
X162367496Y-99156331D01*
X162130000Y-99729697D01*
X162130000Y-100350303D01*
X162367496Y-100923669D01*
X162806331Y-101362504D01*
X163379697Y-101600000D01*
X164000303Y-101600000D01*
X164573669Y-101362504D01*
X164984560Y-100951613D01*
X164984560Y-102160000D01*
X160730000Y-102160000D01*
X160730000Y-56590000D01*
X169547191Y-56590000D01*
X169492243Y-56672235D01*
G36*
X181535001Y-102160000D02*
X177661440Y-102160000D01*
X177661440Y-100977613D01*
X178046331Y-101362504D01*
X178619697Y-101600000D01*
X179240303Y-101600000D01*
X179813669Y-101362504D01*
X180252504Y-100923669D01*
X180490000Y-100350303D01*
X180490000Y-99729697D01*
X180252504Y-99156331D01*
X180051295Y-98955122D01*
X180251409Y-98821409D01*
X180391757Y-98611365D01*
X180441040Y-98363600D01*
X180441040Y-96636400D01*
X180391757Y-96388635D01*
X180251409Y-96178591D01*
X180041365Y-96038243D01*
X179982755Y-96026585D01*
X180200451Y-95808889D01*
X180428600Y-95258090D01*
X180428600Y-94661910D01*
X180200451Y-94111111D01*
X179779340Y-93690000D01*
X180200451Y-93268889D01*
X180428600Y-92718090D01*
X180428600Y-92121910D01*
X180200451Y-91571111D01*
X179778889Y-91149549D01*
X179228090Y-90921400D01*
X178631910Y-90921400D01*
X178081111Y-91149549D01*
X178070000Y-91160660D01*
X178070000Y-88599340D01*
X178081111Y-88610451D01*
X178631910Y-88838600D01*
X179228090Y-88838600D01*
X179778889Y-88610451D01*
X180200451Y-88188889D01*
X180428600Y-87638090D01*
X180428600Y-87041910D01*
X180200451Y-86491111D01*
X179779340Y-86070000D01*
X180200451Y-85648889D01*
X180428600Y-85098090D01*
X180428600Y-84501910D01*
X180391781Y-84413021D01*
X181053088Y-83751715D01*
X181116541Y-83709317D01*
X181158939Y-83645864D01*
X181158941Y-83645862D01*
X181284515Y-83457926D01*
X181284516Y-83457925D01*
X181328612Y-83236240D01*
X181328612Y-83236236D01*
X181343500Y-83161389D01*
X181328612Y-83086542D01*
X181328612Y-58923458D01*
X181343500Y-58848611D01*
X181328612Y-58773764D01*
X181328612Y-58773760D01*
X181284516Y-58552075D01*
X181116541Y-58300683D01*
X181053085Y-58258283D01*
X180050331Y-57255530D01*
X180007929Y-57192071D01*
X179756537Y-57024096D01*
X179534852Y-56980000D01*
X179534847Y-56980000D01*
X179460000Y-56965112D01*
X179385153Y-56980000D01*
X177927440Y-56980000D01*
X177927440Y-56920000D01*
X177878157Y-56672235D01*
X177823209Y-56590000D01*
X181535000Y-56590000D01*
X181535001Y-102160000D01*
X181535001Y-102160000D01*
G37*
X181535001Y-102160000D02*
X177661440Y-102160000D01*
X177661440Y-100977613D01*
X178046331Y-101362504D01*
X178619697Y-101600000D01*
X179240303Y-101600000D01*
X179813669Y-101362504D01*
X180252504Y-100923669D01*
X180490000Y-100350303D01*
X180490000Y-99729697D01*
X180252504Y-99156331D01*
X180051295Y-98955122D01*
X180251409Y-98821409D01*
X180391757Y-98611365D01*
X180441040Y-98363600D01*
X180441040Y-96636400D01*
X180391757Y-96388635D01*
X180251409Y-96178591D01*
X180041365Y-96038243D01*
X179982755Y-96026585D01*
X180200451Y-95808889D01*
X180428600Y-95258090D01*
X180428600Y-94661910D01*
X180200451Y-94111111D01*
X179779340Y-93690000D01*
X180200451Y-93268889D01*
X180428600Y-92718090D01*
X180428600Y-92121910D01*
X180200451Y-91571111D01*
X179778889Y-91149549D01*
X179228090Y-90921400D01*
X178631910Y-90921400D01*
X178081111Y-91149549D01*
X178070000Y-91160660D01*
X178070000Y-88599340D01*
X178081111Y-88610451D01*
X178631910Y-88838600D01*
X179228090Y-88838600D01*
X179778889Y-88610451D01*
X180200451Y-88188889D01*
X180428600Y-87638090D01*
X180428600Y-87041910D01*
X180200451Y-86491111D01*
X179779340Y-86070000D01*
X180200451Y-85648889D01*
X180428600Y-85098090D01*
X180428600Y-84501910D01*
X180391781Y-84413021D01*
X181053088Y-83751715D01*
X181116541Y-83709317D01*
X181158939Y-83645864D01*
X181158941Y-83645862D01*
X181284515Y-83457926D01*
X181284516Y-83457925D01*
X181328612Y-83236240D01*
X181328612Y-83236236D01*
X181343500Y-83161389D01*
X181328612Y-83086542D01*
X181328612Y-58923458D01*
X181343500Y-58848611D01*
X181328612Y-58773764D01*
X181328612Y-58773760D01*
X181284516Y-58552075D01*
X181116541Y-58300683D01*
X181053085Y-58258283D01*
X180050331Y-57255530D01*
X180007929Y-57192071D01*
X179756537Y-57024096D01*
X179534852Y-56980000D01*
X179534847Y-56980000D01*
X179460000Y-56965112D01*
X179385153Y-56980000D01*
X177927440Y-56980000D01*
X177927440Y-56920000D01*
X177878157Y-56672235D01*
X177823209Y-56590000D01*
X181535000Y-56590000D01*
X181535001Y-102160000D01*
G36*
X173492560Y-83870000D02*
X173541843Y-84117765D01*
X173682191Y-84327809D01*
X173892235Y-84468157D01*
X174140000Y-84517440D01*
X175040000Y-84517440D01*
X175100587Y-84505389D01*
X175550000Y-84954802D01*
X175550001Y-85912560D01*
X174119000Y-85912560D01*
X173871235Y-85961843D01*
X173661191Y-86102191D01*
X173520843Y-86312235D01*
X173471560Y-86560000D01*
X173471560Y-88860000D01*
X173520843Y-89107765D01*
X173661191Y-89317809D01*
X173871235Y-89458157D01*
X174119000Y-89507440D01*
X174234000Y-89507440D01*
X174234001Y-89903560D01*
X170561000Y-89903560D01*
X170466390Y-89922379D01*
X170327929Y-89715158D01*
X170264473Y-89672758D01*
X170099155Y-89507440D01*
X172319000Y-89507440D01*
X172566765Y-89458157D01*
X172776809Y-89317809D01*
X172917157Y-89107765D01*
X172966440Y-88860000D01*
X172966440Y-86560000D01*
X172917157Y-86312235D01*
X172776809Y-86102191D01*
X172566765Y-85961843D01*
X172319000Y-85912560D01*
X169819000Y-85912560D01*
X169785597Y-85919204D01*
X170330222Y-85374580D01*
X170393678Y-85332180D01*
X170561653Y-85080788D01*
X170605749Y-84859103D01*
X170605749Y-84859099D01*
X170620637Y-84784251D01*
X170605749Y-84709403D01*
X170605749Y-83906354D01*
X170916503Y-84035072D01*
X171328251Y-84035072D01*
X171708657Y-83877503D01*
X171904700Y-83681460D01*
X173492560Y-83681460D01*
X173492560Y-83870000D01*
X173492560Y-83870000D01*
G37*
X173492560Y-83870000D02*
X173541843Y-84117765D01*
X173682191Y-84327809D01*
X173892235Y-84468157D01*
X174140000Y-84517440D01*
X175040000Y-84517440D01*
X175100587Y-84505389D01*
X175550000Y-84954802D01*
X175550001Y-85912560D01*
X174119000Y-85912560D01*
X173871235Y-85961843D01*
X173661191Y-86102191D01*
X173520843Y-86312235D01*
X173471560Y-86560000D01*
X173471560Y-88860000D01*
X173520843Y-89107765D01*
X173661191Y-89317809D01*
X173871235Y-89458157D01*
X174119000Y-89507440D01*
X174234000Y-89507440D01*
X174234001Y-89903560D01*
X170561000Y-89903560D01*
X170466390Y-89922379D01*
X170327929Y-89715158D01*
X170264473Y-89672758D01*
X170099155Y-89507440D01*
X172319000Y-89507440D01*
X172566765Y-89458157D01*
X172776809Y-89317809D01*
X172917157Y-89107765D01*
X172966440Y-88860000D01*
X172966440Y-86560000D01*
X172917157Y-86312235D01*
X172776809Y-86102191D01*
X172566765Y-85961843D01*
X172319000Y-85912560D01*
X169819000Y-85912560D01*
X169785597Y-85919204D01*
X170330222Y-85374580D01*
X170393678Y-85332180D01*
X170561653Y-85080788D01*
X170605749Y-84859103D01*
X170605749Y-84859099D01*
X170620637Y-84784251D01*
X170605749Y-84709403D01*
X170605749Y-83906354D01*
X170916503Y-84035072D01*
X171328251Y-84035072D01*
X171708657Y-83877503D01*
X171904700Y-83681460D01*
X173492560Y-83681460D01*
X173492560Y-83870000D01*
G36*
X175297000Y-79417000D02*
X175277000Y-79417000D01*
X175277000Y-80141250D01*
X175435750Y-80300000D01*
X175676309Y-80300000D01*
X175817387Y-80241563D01*
X175783780Y-80410520D01*
X175783780Y-81208080D01*
X175833063Y-81455845D01*
X175973411Y-81665889D01*
X176183455Y-81806237D01*
X176431220Y-81855520D01*
X177221809Y-81855520D01*
X177253720Y-81887431D01*
X177431712Y-81961157D01*
X177431400Y-81961910D01*
X177431400Y-82558090D01*
X177659549Y-83108889D01*
X178080660Y-83530000D01*
X177819361Y-83791299D01*
X177794473Y-83774669D01*
X176456793Y-82436990D01*
X176414391Y-82373531D01*
X176162999Y-82205556D01*
X175941314Y-82161460D01*
X175941309Y-82161460D01*
X175866462Y-82146572D01*
X175791615Y-82161460D01*
X175687440Y-82161460D01*
X175687440Y-81870000D01*
X175638157Y-81622235D01*
X175497809Y-81412191D01*
X175331635Y-81301156D01*
X175305904Y-81171800D01*
X175305904Y-81171799D01*
X175180329Y-80983864D01*
X175137929Y-80920408D01*
X175074473Y-80878008D01*
X174714999Y-80518534D01*
X174714999Y-80352462D01*
X174693269Y-80300000D01*
X174864250Y-80300000D01*
X175023000Y-80141250D01*
X175023000Y-79417000D01*
X175003000Y-79417000D01*
X175003000Y-79300000D01*
X175297000Y-79300000D01*
X175297000Y-79417000D01*
X175297000Y-79417000D01*
G37*
X175297000Y-79417000D02*
X175277000Y-79417000D01*
X175277000Y-80141250D01*
X175435750Y-80300000D01*
X175676309Y-80300000D01*
X175817387Y-80241563D01*
X175783780Y-80410520D01*
X175783780Y-81208080D01*
X175833063Y-81455845D01*
X175973411Y-81665889D01*
X176183455Y-81806237D01*
X176431220Y-81855520D01*
X177221809Y-81855520D01*
X177253720Y-81887431D01*
X177431712Y-81961157D01*
X177431400Y-81961910D01*
X177431400Y-82558090D01*
X177659549Y-83108889D01*
X178080660Y-83530000D01*
X177819361Y-83791299D01*
X177794473Y-83774669D01*
X176456793Y-82436990D01*
X176414391Y-82373531D01*
X176162999Y-82205556D01*
X175941314Y-82161460D01*
X175941309Y-82161460D01*
X175866462Y-82146572D01*
X175791615Y-82161460D01*
X175687440Y-82161460D01*
X175687440Y-81870000D01*
X175638157Y-81622235D01*
X175497809Y-81412191D01*
X175331635Y-81301156D01*
X175305904Y-81171800D01*
X175305904Y-81171799D01*
X175180329Y-80983864D01*
X175137929Y-80920408D01*
X175074473Y-80878008D01*
X174714999Y-80518534D01*
X174714999Y-80352462D01*
X174693269Y-80300000D01*
X174864250Y-80300000D01*
X175023000Y-80141250D01*
X175023000Y-79417000D01*
X175003000Y-79417000D01*
X175003000Y-79300000D01*
X175297000Y-79300000D01*
X175297000Y-79417000D01*
G36*
X172606149Y-77012599D02*
X172609643Y-77030165D01*
X172749584Y-77239600D01*
X172609643Y-77449035D01*
X172606149Y-77466601D01*
X172572800Y-77499950D01*
X172572800Y-77569109D01*
X172581555Y-77590245D01*
X172560360Y-77696800D01*
X172560360Y-78103200D01*
X172609643Y-78350965D01*
X172736406Y-78540678D01*
X172651843Y-78667235D01*
X172602560Y-78915000D01*
X172602560Y-79665000D01*
X172651843Y-79912765D01*
X172760049Y-80074706D01*
X172644999Y-80352462D01*
X172644999Y-80764210D01*
X172802568Y-81144616D01*
X173093719Y-81435767D01*
X173474125Y-81593336D01*
X173561153Y-81593336D01*
X173541843Y-81622235D01*
X173492560Y-81870000D01*
X173492560Y-82161460D01*
X171747476Y-82161460D01*
X171708657Y-82122641D01*
X171328251Y-81965072D01*
X170916503Y-81965072D01*
X170821271Y-82004518D01*
X170821271Y-81986792D01*
X171074528Y-81733536D01*
X171137984Y-81691136D01*
X171305959Y-81439744D01*
X171350055Y-81218059D01*
X171350055Y-81218055D01*
X171364943Y-81143207D01*
X171350055Y-81068359D01*
X171350055Y-80449978D01*
X171526311Y-80449978D01*
X171906717Y-80292409D01*
X172197868Y-80001258D01*
X172355437Y-79620852D01*
X172355437Y-79209104D01*
X172205437Y-78846971D01*
X172205437Y-77204685D01*
X172458336Y-77099931D01*
X172575909Y-76982359D01*
X172606149Y-77012599D01*
X172606149Y-77012599D01*
G37*
X172606149Y-77012599D02*
X172609643Y-77030165D01*
X172749584Y-77239600D01*
X172609643Y-77449035D01*
X172606149Y-77466601D01*
X172572800Y-77499950D01*
X172572800Y-77569109D01*
X172581555Y-77590245D01*
X172560360Y-77696800D01*
X172560360Y-78103200D01*
X172609643Y-78350965D01*
X172736406Y-78540678D01*
X172651843Y-78667235D01*
X172602560Y-78915000D01*
X172602560Y-79665000D01*
X172651843Y-79912765D01*
X172760049Y-80074706D01*
X172644999Y-80352462D01*
X172644999Y-80764210D01*
X172802568Y-81144616D01*
X173093719Y-81435767D01*
X173474125Y-81593336D01*
X173561153Y-81593336D01*
X173541843Y-81622235D01*
X173492560Y-81870000D01*
X173492560Y-82161460D01*
X171747476Y-82161460D01*
X171708657Y-82122641D01*
X171328251Y-81965072D01*
X170916503Y-81965072D01*
X170821271Y-82004518D01*
X170821271Y-81986792D01*
X171074528Y-81733536D01*
X171137984Y-81691136D01*
X171305959Y-81439744D01*
X171350055Y-81218059D01*
X171350055Y-81218055D01*
X171364943Y-81143207D01*
X171350055Y-81068359D01*
X171350055Y-80449978D01*
X171526311Y-80449978D01*
X171906717Y-80292409D01*
X172197868Y-80001258D01*
X172355437Y-79620852D01*
X172355437Y-79209104D01*
X172205437Y-78846971D01*
X172205437Y-77204685D01*
X172458336Y-77099931D01*
X172575909Y-76982359D01*
X172606149Y-77012599D01*
G36*
X178080660Y-78450000D02*
X177887930Y-78642730D01*
X177998157Y-78477765D01*
X178016451Y-78385791D01*
X178080660Y-78450000D01*
X178080660Y-78450000D01*
G37*
X178080660Y-78450000D02*
X177887930Y-78642730D01*
X177998157Y-78477765D01*
X178016451Y-78385791D01*
X178080660Y-78450000D01*
G36*
X167125000Y-77763000D02*
X167147000Y-77763000D01*
X167147000Y-77950000D01*
X166853000Y-77950000D01*
X166853000Y-77763000D01*
X166875000Y-77763000D01*
X166875000Y-77743000D01*
X167125000Y-77743000D01*
X167125000Y-77763000D01*
X167125000Y-77763000D01*
G37*
X167125000Y-77763000D02*
X167147000Y-77763000D01*
X167147000Y-77950000D01*
X166853000Y-77950000D01*
X166853000Y-77763000D01*
X166875000Y-77763000D01*
X166875000Y-77743000D01*
X167125000Y-77743000D01*
X167125000Y-77763000D01*
G36*
X166712235Y-74693157D02*
X166960000Y-74742440D01*
X166974998Y-74742440D01*
X166974998Y-74835874D01*
X167122742Y-75192560D01*
X166945164Y-75192560D01*
X166837929Y-75032071D01*
X166774470Y-74989669D01*
X166650331Y-74865530D01*
X166607929Y-74802071D01*
X166456534Y-74700912D01*
X166619698Y-74633327D01*
X166620898Y-74632127D01*
X166712235Y-74693157D01*
X166712235Y-74693157D01*
G37*
X166712235Y-74693157D02*
X166960000Y-74742440D01*
X166974998Y-74742440D01*
X166974998Y-74835874D01*
X167122742Y-75192560D01*
X166945164Y-75192560D01*
X166837929Y-75032071D01*
X166774470Y-74989669D01*
X166650331Y-74865530D01*
X166607929Y-74802071D01*
X166456534Y-74700912D01*
X166619698Y-74633327D01*
X166620898Y-74632127D01*
X166712235Y-74693157D01*
G36*
X176453455Y-73366937D02*
X176701220Y-73416220D01*
X177319848Y-73416220D01*
X176400758Y-74335311D01*
X176388327Y-74305301D01*
X176209698Y-74126673D01*
X175976309Y-74030000D01*
X175735750Y-74030000D01*
X175577000Y-74188750D01*
X175577000Y-74913000D01*
X175597000Y-74913000D01*
X175597000Y-75120631D01*
X175552653Y-75187000D01*
X175323000Y-75187000D01*
X175323000Y-75167000D01*
X175303000Y-75167000D01*
X175303000Y-74913000D01*
X175323000Y-74913000D01*
X175323000Y-74188750D01*
X175164250Y-74030000D01*
X174923691Y-74030000D01*
X174710000Y-74118514D01*
X174710000Y-73821212D01*
X175129531Y-73401682D01*
X175202620Y-73416220D01*
X176000180Y-73416220D01*
X176247945Y-73366937D01*
X176350700Y-73298278D01*
X176453455Y-73366937D01*
X176453455Y-73366937D01*
G37*
X176453455Y-73366937D02*
X176701220Y-73416220D01*
X177319848Y-73416220D01*
X176400758Y-74335311D01*
X176388327Y-74305301D01*
X176209698Y-74126673D01*
X175976309Y-74030000D01*
X175735750Y-74030000D01*
X175577000Y-74188750D01*
X175577000Y-74913000D01*
X175597000Y-74913000D01*
X175597000Y-75120631D01*
X175552653Y-75187000D01*
X175323000Y-75187000D01*
X175323000Y-75167000D01*
X175303000Y-75167000D01*
X175303000Y-74913000D01*
X175323000Y-74913000D01*
X175323000Y-74188750D01*
X175164250Y-74030000D01*
X174923691Y-74030000D01*
X174710000Y-74118514D01*
X174710000Y-73821212D01*
X175129531Y-73401682D01*
X175202620Y-73416220D01*
X176000180Y-73416220D01*
X176247945Y-73366937D01*
X176350700Y-73298278D01*
X176453455Y-73366937D01*
G36*
X165987000Y-73593000D02*
X166007000Y-73593000D01*
X166007000Y-73847000D01*
X165987000Y-73847000D01*
X165987000Y-73867000D01*
X165803496Y-73867000D01*
X165804888Y-73860000D01*
X165790000Y-73785152D01*
X165790000Y-73785148D01*
X165747801Y-73573000D01*
X165987000Y-73573000D01*
X165987000Y-73593000D01*
X165987000Y-73593000D01*
G37*
X165987000Y-73593000D02*
X166007000Y-73593000D01*
X166007000Y-73847000D01*
X165987000Y-73847000D01*
X165987000Y-73867000D01*
X165803496Y-73867000D01*
X165804888Y-73860000D01*
X165790000Y-73785152D01*
X165790000Y-73785148D01*
X165747801Y-73573000D01*
X165987000Y-73573000D01*
X165987000Y-73593000D01*
G36*
X167996012Y-71043543D02*
X167932556Y-71085943D01*
X167890156Y-71149399D01*
X167890155Y-71149400D01*
X167764581Y-71337335D01*
X167705596Y-71633872D01*
X167720485Y-71708724D01*
X167720485Y-72697560D01*
X166960000Y-72697560D01*
X166712235Y-72746843D01*
X166646513Y-72790758D01*
X166687440Y-72585000D01*
X166687440Y-72262361D01*
X168516000Y-70433802D01*
X168605753Y-70433802D01*
X167996012Y-71043543D01*
X167996012Y-71043543D01*
G37*
X167996012Y-71043543D02*
X167932556Y-71085943D01*
X167890156Y-71149399D01*
X167890155Y-71149400D01*
X167764581Y-71337335D01*
X167705596Y-71633872D01*
X167720485Y-71708724D01*
X167720485Y-72697560D01*
X166960000Y-72697560D01*
X166712235Y-72746843D01*
X166646513Y-72790758D01*
X166687440Y-72585000D01*
X166687440Y-72262361D01*
X168516000Y-70433802D01*
X168605753Y-70433802D01*
X167996012Y-71043543D01*
G36*
X177431400Y-69797350D02*
X177345000Y-69883750D01*
X177345000Y-70683000D01*
X177367000Y-70683000D01*
X177367000Y-70937000D01*
X177345000Y-70937000D01*
X177345000Y-70957000D01*
X177095000Y-70957000D01*
X177095000Y-70937000D01*
X177073000Y-70937000D01*
X177073000Y-70683000D01*
X177095000Y-70683000D01*
X177095000Y-69883750D01*
X176936250Y-69725000D01*
X176843691Y-69725000D01*
X176610302Y-69821673D01*
X176468654Y-69963320D01*
X176427809Y-69902191D01*
X176399180Y-69883062D01*
X176485000Y-69675874D01*
X176485000Y-69456401D01*
X177431400Y-69456401D01*
X177431400Y-69797350D01*
X177431400Y-69797350D01*
G37*
X177431400Y-69797350D02*
X177345000Y-69883750D01*
X177345000Y-70683000D01*
X177367000Y-70683000D01*
X177367000Y-70937000D01*
X177345000Y-70937000D01*
X177345000Y-70957000D01*
X177095000Y-70957000D01*
X177095000Y-70937000D01*
X177073000Y-70937000D01*
X177073000Y-70683000D01*
X177095000Y-70683000D01*
X177095000Y-69883750D01*
X176936250Y-69725000D01*
X176843691Y-69725000D01*
X176610302Y-69821673D01*
X176468654Y-69963320D01*
X176427809Y-69902191D01*
X176399180Y-69883062D01*
X176485000Y-69675874D01*
X176485000Y-69456401D01*
X177431400Y-69456401D01*
X177431400Y-69797350D01*
G36*
X167129988Y-67452827D02*
X167115099Y-67527678D01*
X167157000Y-67738328D01*
X167157000Y-67891250D01*
X167315750Y-68050000D01*
X167324949Y-68050000D01*
X167342059Y-68075607D01*
X167359726Y-68087411D01*
X167371532Y-68105081D01*
X167454661Y-68160626D01*
X167303198Y-68526290D01*
X167303198Y-68692362D01*
X167165561Y-68830000D01*
X166947440Y-68830000D01*
X166947440Y-68550000D01*
X166898157Y-68302235D01*
X166757809Y-68092191D01*
X166694666Y-68050000D01*
X166744250Y-68050000D01*
X166903000Y-67891250D01*
X166903000Y-67167000D01*
X166883000Y-67167000D01*
X166883000Y-66913000D01*
X166903000Y-66913000D01*
X166903000Y-66893000D01*
X167129987Y-66893000D01*
X167129988Y-67452827D01*
X167129988Y-67452827D01*
G37*
X167129988Y-67452827D02*
X167115099Y-67527678D01*
X167157000Y-67738328D01*
X167157000Y-67891250D01*
X167315750Y-68050000D01*
X167324949Y-68050000D01*
X167342059Y-68075607D01*
X167359726Y-68087411D01*
X167371532Y-68105081D01*
X167454661Y-68160626D01*
X167303198Y-68526290D01*
X167303198Y-68692362D01*
X167165561Y-68830000D01*
X166947440Y-68830000D01*
X166947440Y-68550000D01*
X166898157Y-68302235D01*
X166757809Y-68092191D01*
X166694666Y-68050000D01*
X166744250Y-68050000D01*
X166903000Y-67891250D01*
X166903000Y-67167000D01*
X166883000Y-67167000D01*
X166883000Y-66913000D01*
X166903000Y-66913000D01*
X166903000Y-66893000D01*
X167129987Y-66893000D01*
X167129988Y-67452827D01*
G36*
X166705198Y-66030000D02*
X166503691Y-66030000D01*
X166270302Y-66126673D01*
X166269102Y-66127873D01*
X166177765Y-66066843D01*
X165930000Y-66017560D01*
X165130000Y-66017560D01*
X164882235Y-66066843D01*
X164866618Y-66077278D01*
X164539340Y-65750000D01*
X164960451Y-65328889D01*
X165188600Y-64778090D01*
X165188600Y-64513401D01*
X166705198Y-66030000D01*
X166705198Y-66030000D01*
G37*
X166705198Y-66030000D02*
X166503691Y-66030000D01*
X166270302Y-66126673D01*
X166269102Y-66127873D01*
X166177765Y-66066843D01*
X165930000Y-66017560D01*
X165130000Y-66017560D01*
X164882235Y-66066843D01*
X164866618Y-66077278D01*
X164539340Y-65750000D01*
X164960451Y-65328889D01*
X165188600Y-64778090D01*
X165188600Y-64513401D01*
X166705198Y-66030000D01*
G36*
X173607000Y-62753000D02*
X173627000Y-62753000D01*
X173627000Y-63007000D01*
X173607000Y-63007000D01*
X173607000Y-63027000D01*
X173514999Y-63027000D01*
X173514999Y-62733000D01*
X173607000Y-62733000D01*
X173607000Y-62753000D01*
X173607000Y-62753000D01*
G37*
X173607000Y-62753000D02*
X173627000Y-62753000D01*
X173627000Y-63007000D01*
X173607000Y-63007000D01*
X173607000Y-63027000D01*
X173514999Y-63027000D01*
X173514999Y-62733000D01*
X173607000Y-62733000D01*
X173607000Y-62753000D01*
G36*
X170707000Y-62743000D02*
X170727000Y-62743000D01*
X170727000Y-62997000D01*
X170707000Y-62997000D01*
X170707000Y-63017000D01*
X170453000Y-63017000D01*
X170453000Y-62997000D01*
X170433000Y-62997000D01*
X170433000Y-62743000D01*
X170453000Y-62743000D01*
X170453000Y-62723000D01*
X170707000Y-62723000D01*
X170707000Y-62743000D01*
X170707000Y-62743000D01*
G37*
X170707000Y-62743000D02*
X170727000Y-62743000D01*
X170727000Y-62997000D01*
X170707000Y-62997000D01*
X170707000Y-63017000D01*
X170453000Y-63017000D01*
X170453000Y-62997000D01*
X170433000Y-62997000D01*
X170433000Y-62743000D01*
X170453000Y-62743000D01*
X170453000Y-62723000D01*
X170707000Y-62723000D01*
X170707000Y-62743000D01*
G36*
X175181843Y-60167765D02*
X175322191Y-60377809D01*
X175532235Y-60518157D01*
X175780000Y-60567440D01*
X177280000Y-60567440D01*
X177527765Y-60518157D01*
X177716125Y-60392298D01*
X178037244Y-60713417D01*
X177659549Y-61091111D01*
X177560773Y-61329577D01*
X177235874Y-61195000D01*
X176824126Y-61195000D01*
X176443720Y-61352569D01*
X176152569Y-61643720D01*
X175995000Y-62024126D01*
X175995000Y-62341911D01*
X175978157Y-62257235D01*
X175837809Y-62047191D01*
X175627765Y-61906843D01*
X175380000Y-61857560D01*
X174580000Y-61857560D01*
X174332235Y-61906843D01*
X174240898Y-61967873D01*
X174239698Y-61966673D01*
X174006309Y-61870000D01*
X173765750Y-61870000D01*
X173607002Y-62028748D01*
X173607002Y-61870000D01*
X173514999Y-61870000D01*
X173514999Y-61465802D01*
X174220473Y-60760329D01*
X174283929Y-60717929D01*
X174384483Y-60567440D01*
X174486000Y-60567440D01*
X174733765Y-60518157D01*
X174943809Y-60377809D01*
X175084157Y-60167765D01*
X175133000Y-59922212D01*
X175181843Y-60167765D01*
X175181843Y-60167765D01*
G37*
X175181843Y-60167765D02*
X175322191Y-60377809D01*
X175532235Y-60518157D01*
X175780000Y-60567440D01*
X177280000Y-60567440D01*
X177527765Y-60518157D01*
X177716125Y-60392298D01*
X178037244Y-60713417D01*
X177659549Y-61091111D01*
X177560773Y-61329577D01*
X177235874Y-61195000D01*
X176824126Y-61195000D01*
X176443720Y-61352569D01*
X176152569Y-61643720D01*
X175995000Y-62024126D01*
X175995000Y-62341911D01*
X175978157Y-62257235D01*
X175837809Y-62047191D01*
X175627765Y-61906843D01*
X175380000Y-61857560D01*
X174580000Y-61857560D01*
X174332235Y-61906843D01*
X174240898Y-61967873D01*
X174239698Y-61966673D01*
X174006309Y-61870000D01*
X173765750Y-61870000D01*
X173607002Y-62028748D01*
X173607002Y-61870000D01*
X173514999Y-61870000D01*
X173514999Y-61465802D01*
X174220473Y-60760329D01*
X174283929Y-60717929D01*
X174384483Y-60567440D01*
X174486000Y-60567440D01*
X174733765Y-60518157D01*
X174943809Y-60377809D01*
X175084157Y-60167765D01*
X175133000Y-59922212D01*
X175181843Y-60167765D01*
G36*
X172387843Y-56672235D02*
X172338560Y-56920000D01*
X172338560Y-59920000D01*
X172387843Y-60167765D01*
X172498230Y-60332969D01*
X172270527Y-60560672D01*
X172207071Y-60603072D01*
X172164671Y-60666528D01*
X172164670Y-60666529D01*
X172039096Y-60854464D01*
X171980111Y-61151001D01*
X171995000Y-61225853D01*
X171995000Y-61847560D01*
X171680000Y-61847560D01*
X171432235Y-61896843D01*
X171340898Y-61957873D01*
X171339698Y-61956673D01*
X171106309Y-61860000D01*
X171057804Y-61860000D01*
X171324873Y-61592931D01*
X171388329Y-61550531D01*
X171556304Y-61299139D01*
X171600400Y-61077454D01*
X171600400Y-61077450D01*
X171615288Y-61002603D01*
X171600400Y-60927756D01*
X171600400Y-60565451D01*
X171838165Y-60518157D01*
X172048209Y-60377809D01*
X172188557Y-60167765D01*
X172237840Y-59920000D01*
X172237840Y-56920000D01*
X172188557Y-56672235D01*
X172133609Y-56590000D01*
X172442791Y-56590000D01*
X172387843Y-56672235D01*
X172387843Y-56672235D01*
G37*
X172387843Y-56672235D02*
X172338560Y-56920000D01*
X172338560Y-59920000D01*
X172387843Y-60167765D01*
X172498230Y-60332969D01*
X172270527Y-60560672D01*
X172207071Y-60603072D01*
X172164671Y-60666528D01*
X172164670Y-60666529D01*
X172039096Y-60854464D01*
X171980111Y-61151001D01*
X171995000Y-61225853D01*
X171995000Y-61847560D01*
X171680000Y-61847560D01*
X171432235Y-61896843D01*
X171340898Y-61957873D01*
X171339698Y-61956673D01*
X171106309Y-61860000D01*
X171057804Y-61860000D01*
X171324873Y-61592931D01*
X171388329Y-61550531D01*
X171556304Y-61299139D01*
X171600400Y-61077454D01*
X171600400Y-61077450D01*
X171615288Y-61002603D01*
X171600400Y-60927756D01*
X171600400Y-60565451D01*
X171838165Y-60518157D01*
X172048209Y-60377809D01*
X172188557Y-60167765D01*
X172237840Y-59920000D01*
X172237840Y-56920000D01*
X172188557Y-56672235D01*
X172133609Y-56590000D01*
X172442791Y-56590000D01*
X172387843Y-56672235D01*
G04 #@! TD*
M02*
